<?xml version="1.0" standalone="no"?><!DOCTYPE svg PUBLIC "-//W3C//DTD SVG 1.1//EN" "http://www.w3.org/Graphics/SVG/1.1/DTD/svg11.dtd"><svg t="1749773166253" class="icon" viewBox="0 0 1024 1024" version="1.1" xmlns="http://www.w3.org/2000/svg" p-id="117718" xmlns:xlink="http://www.w3.org/1999/xlink" width="200" height="200"><path d="M512 512m-512 0a512 512 0 1 0 1024 0 512 512 0 1 0-1024 0Z" fill="#8a8a8a" p-id="117719" data-spm-anchor-id="a313x.search_index.0.i8.405e3a81MVjkZa" class="selected"></path><path d="M842.24 491.306667l-117.12-219.946667a33.28 33.28 0 0 0-29.226667-17.493333H322.773333a33.28 33.28 0 0 0-29.226666 17.493333L177.706667 486.613333a32.853333 32.853333 0 0 0 4.053333 36.906667l299.946667 352.426667a33.28 33.28 0 0 0 50.346666 0l305.706667-347.733334a32.853333 32.853333 0 0 0 4.48-36.906666z m-135.04 21.333333l-173.653333 192-2.133334 1.92-4.266666 2.986667h-1.493334l-4.053333 1.92h-23.68l-4.053333-1.92h-1.493334l-4.266666-2.986667-2.133334-1.92-173.653333-192a33.066667 33.066667 0 0 1 2.346667-46.506667 33.066667 33.066667 0 0 1 46.506666 2.346667l149.333334 165.76 149.333333-165.76a33.066667 33.066667 0 0 1 46.506667-2.346667 33.066667 33.066667 0 0 1 0.853333 45.653334z" fill="#FFFFFF" p-id="117720"></path></svg>