<?xml version="1.0" standalone="no"?><!DOCTYPE svg PUBLIC "-//W3C//DTD SVG 1.1//EN" "http://www.w3.org/Graphics/SVG/1.1/DTD/svg11.dtd"><svg t="1748722633852" class="icon" viewBox="0 0 1024 1024" version="1.1" xmlns="http://www.w3.org/2000/svg" p-id="174699" xmlns:xlink="http://www.w3.org/1999/xlink" width="200" height="200"><path d="M512 512m-512 0a512 512 0 1 0 1024 0 512 512 0 1 0-1024 0Z" fill="#3CC9CC" p-id="174700"></path><path d="M656.853333 279.04h-21.333333V256a21.333333 21.333333 0 0 0-44.373333 0v21.333333h-67.626667v-21.333333a21.333333 21.333333 0 0 0-44.373333 0v21.333333h-66.773334v-21.333333a21.333333 21.333333 0 0 0-44.373333 0v21.333333h-21.333333A111.573333 111.573333 0 0 0 234.666667 390.186667v266.666666A111.146667 111.146667 0 0 0 345.6 768h311.253333A111.36 111.36 0 0 0 768 656.853333v-266.666666a111.36 111.36 0 0 0-111.146667-111.146667zM725.333333 656A68.266667 68.266667 0 0 1 658.133333 725.333333H344.32a65.493333 65.493333 0 0 1-47.36-21.333333 69.333333 69.333333 0 0 1-19.626667-49.066667V448h448zM725.333333 405.333333H277.333333v-21.333333a66.346667 66.346667 0 0 1 67.626667-64h21.333333v21.333333a22.4 22.4 0 0 0 44.8 0v-21.333333h67.413334v21.333333a22.4 22.4 0 0 0 44.8 0v-21.333333h67.413333v21.333333a22.4 22.4 0 0 0 44.8 0v-21.333333h22.4A65.92 65.92 0 0 1 725.333333 384v21.333333z" fill="#FFFFFF" p-id="174701"></path><path d="M445.653333 675.626667a26.026667 26.026667 0 0 0 35.626667 0l151.253333-144a22.826667 22.826667 0 0 0 0-33.92 26.026667 26.026667 0 0 0-35.626666 0l-133.333334 128L405.333333 569.6a26.453333 26.453333 0 0 0-35.626666 0 23.04 23.04 0 0 0 0 34.133333z" fill="#FFFFFF" p-id="174702"></path></svg>