<?xml version="1.0" standalone="no"?><!DOCTYPE svg PUBLIC "-//W3C//DTD SVG 1.1//EN" "http://www.w3.org/Graphics/SVG/1.1/DTD/svg11.dtd"><svg t="1749753817285" class="icon" viewBox="0 0 1024 1024" version="1.1" xmlns="http://www.w3.org/2000/svg" p-id="136558" xmlns:xlink="http://www.w3.org/1999/xlink" width="200" height="200"><path d="M511.995449 1023.943114a511.971557 511.971557 0 1 1 511.971557-511.971557 508.899728 508.899728 0 0 1-511.971557 511.971557zM400.499421 398.712072a42.834954 42.834954 0 0 0-28.442864 10.580745l-213.093939 187.154047a42.778068 42.778068 0 0 0-3.811344 60.298872 42.607411 42.607411 0 0 0 60.298872 3.86823l185.78879-163.318927 154.444753 127.822232a42.436754 42.436754 0 0 0 52.73307 1.365258l253.596578-191.24982a43.005611 43.005611 0 0 0 8.362202-59.843786 42.664296 42.664296 0 0 0-59.786901-8.362202l-226.518971 170.9985-156.435753-129.358147a42.550525 42.550525 0 0 0-27.077607-9.898117z" fill="#bfbfbf" p-id="136559" data-spm-anchor-id="a313x.search_index.0.i68.71b33a81qKtRwa" class="selected"></path></svg>