<?xml version="1.0" standalone="no"?><!DOCTYPE svg PUBLIC "-//W3C//DTD SVG 1.1//EN" "http://www.w3.org/Graphics/SVG/1.1/DTD/svg11.dtd"><svg t="1750338734754" class="icon" viewBox="0 0 1024 1024" version="1.1" xmlns="http://www.w3.org/2000/svg" p-id="86483" xmlns:xlink="http://www.w3.org/1999/xlink" width="200" height="200"><path d="M827.171697 888.211888c-11.023299-25.612239-36.472351-43.558757-66.131633-43.558757-32.143809 0-59.347124 21.071554-68.591682 50.151522a47.22639 47.22639 0 0 0-7.722836-0.685386c-17.656861 0-33.0291 9.705562-41.139506 24.053801L567.075697 799.61753h-100.192892l-69.134279 100.050103c-9.689243-23.16443-32.555857-39.438279-59.236972-39.438278-27.203315 0-50.400382 16.946996-59.751012 40.837609a45.190629 45.190629 0 0 0-11.806598 6.474454 44.92953 44.92953 0 0 0-27.346103-9.273115c-24.951331 0-45.17839 20.22706-45.178391 45.17839 0 24.624956 19.71302 44.611315 44.211506 45.129434v0.048957H812.333896c28.333386 0 51.306072-22.968606 51.306072-51.301992 0.012239-23.176669-15.36408-42.7469-36.468271-49.111204z" fill="#FFCA3F" p-id="86484"></path><path d="M719.659857 705.621673l37.985912 97.92051c7.000733 20.2189 29.067729 30.948462 49.28255 23.959968 20.231139-6.992574 30.956622-29.063649 23.964048-49.282549l-26.297626-76.053419" fill="#B6B6D3" p-id="86485"></path><path d="M794.338422 860.229355c-28.54553 0-55.308239-17.771092-65.393211-46.071841l-37.810486-97.475825a30.59761 30.59761 0 1 1 57.050263-22.128191l37.985912 97.92051c0.134629 0.346773 0.265179 0.701705 0.38757 1.052558a8.155283 8.155283 0 0 0 10.37463 5.050645c2.635474-0.909769 3.994008-2.753785 4.671235-4.140876s1.28102-3.59012 0.37533-6.221514l-26.297625-76.053419a30.59353 30.59353 0 0 1 18.917482-38.916079 30.585371 30.585371 0 0 1 38.91608 18.917482l26.297625 76.053418c6.054247 17.505912 4.928255 36.317323-3.169912 52.978741s-22.201625 29.169721-39.711618 35.223968a69.130199 69.130199 0 0 1-22.593275 3.810423z" fill="#6E6E96" p-id="86486"></path><path d="M303.822024 709.607522l-34.004144 93.934661c-6.992574 20.2189-29.05957 30.948462-49.282549 23.959968-20.22706-6.992574-30.952542-29.063649-23.964048-49.282549l26.301705-76.053419" fill="#B6B6D3" p-id="86487"></path><path d="M233.129307 860.229355c-7.498454 0-15.115219-1.227984-22.589195-3.810423-17.509992-6.054247-31.61345-18.56255-39.711618-35.223968s-9.228239-35.472829-3.173992-52.974661l26.301705-76.057498a30.59353 30.59353 0 0 1 38.91608-18.917482 30.59761 30.59761 0 0 1 18.917482 38.916079l-26.301705 76.053419a7.996175 7.996175 0 0 0 0.37533 6.221514c0.677227 1.387092 2.031681 3.231108 4.667156 4.144956a8.159363 8.159363 0 0 0 10.36647-5.046566l0.146868-0.412048 34.004144-93.934661a30.59761 30.59761 0 0 1 57.543904 20.826773l-33.938868 93.755155c-9.9789 28.529211-36.851761 46.455331-65.523761 46.459411z" fill="#6E6E96" p-id="86488"></path><path d="M397.161052 709.978773l37.312765 112.040287h154.991171l48.009689-112.040287" fill="#B6B6D3" p-id="86489"></path><path d="M589.464988 852.616669h-154.991171a30.59761 30.59761 0 0 1-29.031012-20.928765l-37.312765-112.040286a30.59761 30.59761 0 0 1 58.062024-19.33769l30.344669 91.111522h112.754231l40.06247-93.494056a30.585371 30.585371 0 0 1 40.176701-16.069864 30.59353 30.59353 0 0 1 16.069865 40.176701l-48.013769 112.040287a30.59353 30.59353 0 0 1-28.121243 18.542151z" fill="#6E6E96" p-id="86490"></path><path d="M244.642167 335.137657c0-162.126534 119.706008-286.883187 267.361913-286.883187 147.651825 0 267.353753 124.760733 267.353753 286.883187" fill="#A6A6C9" p-id="86491"></path><path d="M320.25498 252.230375c-25.6-34.913912-32.592574-82.230056-6.241912-125.06671 24.8371-42.11455 83.021514-79.74961 152.881976-78.652175 69.860462-1.097434 128.036717 36.541705 152.873817 78.652175 26.350661 42.836653 19.354008 90.148717-6.245992 125.06263" fill="#B6B6D3" p-id="86492"></path><path d="M779.357833 365.735267a30.59761 30.59761 0 0 1-30.59761-30.59761c0-143.714932-103.995155-256.285578-236.756143-256.285577-132.765068 0-236.764303 112.574725-236.764303 256.285577a30.59761 30.59761 0 0 1-61.195219 0c0-85.820175 30.760797-165.798247 86.615713-225.198406 55.956908-59.510311 131.010805-92.28239 211.343809-92.28239s155.382821 32.77208 211.339729 92.28239c55.850837 59.404239 86.611633 139.378231 86.611633 225.198406a30.59761 30.59761 0 0 1-30.597609 30.59761z" fill="#6E6E96" p-id="86493"></path><path d="M971.804558 518.755952c0 100.874199-87.953849 183.406151-195.445291 183.406152H247.648892c-107.495522 0-195.449371-82.531952-195.44937-183.410231 0-100.87012 87.953849-183.402072 195.44937-183.402072h528.710375c107.491442 0.00408 195.445291 82.536032 195.445291 183.406151z" fill="#A6A6C9" p-id="86494"></path><path d="M851.356048 459.208924c0 84.343331-73.536255 153.355219-163.423873 153.355219H245.845673c-89.883538 0-163.427952-69.011888-163.427952-153.359298 0-84.343331 73.544414-153.351139 163.427952-153.35114h442.090582c89.883538 0 163.419793 69.007809 163.419793 153.355219z" fill="#C4C4E3" p-id="86495"></path><path d="M246.682008 555.832096m-161.212685 0a161.212685 161.212685 0 1 0 322.42537 0 161.212685 161.212685 0 1 0-322.42537 0Z" fill="#A6A6C9" p-id="86496"></path><path d="M509.535873 555.832096m-161.212686 0a161.212685 161.212685 0 1 0 322.425371 0 161.212685 161.212685 0 1 0-322.425371 0Z" fill="#A6A6C9" p-id="86497"></path><path d="M780.585817 555.832096m-161.212686 0a161.212685 161.212685 0 1 0 322.425371 0 161.212685 161.212685 0 1 0-322.425371 0Z" fill="#A6A6C9" p-id="86498"></path><path d="M776.355187 732.759713H247.648892c-124.642422 0-226.04698-96.00306-226.04698-214.00784C21.601912 400.755251 123.00647 304.752191 247.648892 304.752191h528.710375c124.642422 0 226.0429 95.99898 226.0429 214.003761 0 118.004781-101.404558 214.003761-226.04698 214.003761zM247.648892 365.95149c-90.899378 0-164.851761 68.546805-164.851761 152.804462 0 84.261737 73.952382 152.812622 164.851761 152.812622h528.710375c90.895299 0 164.847681-68.550884 164.847681-152.808542 0-84.257657-73.952382-152.808542-164.847681-152.808542H247.648892z" fill="#6E6E96" p-id="86499"></path><path d="M245.694725 523.198725m-76.224765 0a76.224765 76.224765 0 1 0 152.44953 0 76.224765 76.224765 0 1 0-152.44953 0Z" fill="#B8F4FF" p-id="86500"></path><path d="M245.694725 630.0211c-58.902438 0-106.822375-47.919936-106.822374-106.826455 0-58.902438 47.919936-106.822375 106.822374-106.822374s106.822375 47.919936 106.822375 106.822374c0 58.906518-47.919936 106.826454-106.822375 106.826455z m0-152.44953c-25.159394 0-45.627155 20.467761-45.627155 45.627155 0 25.159394 20.467761 45.631235 45.627155 45.631235s45.627155-20.471841 45.627155-45.631235c0-25.159394-20.467761-45.627155-45.627155-45.627155z" fill="#6E6E96" p-id="86501"></path><path d="M509.535873 523.198725m-76.224765 0a76.224765 76.224765 0 1 0 152.449529 0 76.224765 76.224765 0 1 0-152.449529 0Z" fill="#B8F4FF" p-id="86502"></path><path d="M509.535873 630.0211c-58.902438 0-106.822375-47.919936-106.822375-106.826455 0-58.902438 47.919936-106.822375 106.822375-106.822374s106.826454 47.919936 106.826454 106.822374c0 58.906518-47.924016 106.826454-106.826454 106.826455z m0-152.44953c-25.159394 0-45.627155 20.467761-45.627156 45.627155 0 25.159394 20.467761 45.631235 45.627156 45.631235s45.631235-20.471841 45.631235-45.631235c0-25.159394-20.471841-45.627155-45.631235-45.627155z" fill="#6E6E96" p-id="86503"></path><path d="M780.581737 523.198725m-76.224765 0a76.224765 76.224765 0 1 0 152.44953 0 76.224765 76.224765 0 1 0-152.44953 0Z" fill="#B8F4FF" p-id="86504"></path><path d="M780.581737 630.0211c-58.902438 0-106.822375-47.919936-106.822374-106.826455 0-58.902438 47.919936-106.822375 106.822374-106.822374s106.826454 47.919936 106.826454 106.822374c0 58.906518-47.919936 106.826454-106.826454 106.826455z m0-152.44953c-25.159394 0-45.627155 20.467761-45.627155 45.627155 0 25.159394 20.467761 45.631235 45.627155 45.631235s45.631235-20.471841 45.631235-45.631235c0-25.159394-20.471841-45.627155-45.631235-45.627155z" fill="#6E6E96" p-id="86505"></path><path d="M387.236677 184.921274a39.148622 77.534343 69.619 1 0 145.361003-54.004409 39.148622 77.534343 69.619 1 0-145.361003 54.004409Z" fill="#FFFFFF" opacity=".5" p-id="86506"></path><path d="M125.450199 844.934629m-15.298805 0a15.298805 15.298805 0 1 0 30.59761 0 15.298805 15.298805 0 1 0-30.59761 0Z" fill="#FFDD31" p-id="86507"></path><path d="M890.908558 799.323793m-31.10349 0a31.10349 31.10349 0 1 0 62.20698 0 31.10349 31.10349 0 1 0-62.20698 0Z" fill="#FFDD31" p-id="86508"></path><path d="M922.012048 916.541195m-18.82365 0a18.823649 18.823649 0 1 0 37.647299 0 18.823649 18.823649 0 1 0-37.647299 0Z" fill="#FFDD31" p-id="86509"></path><path d="M152.796303 925.614406m-27.346104 0a27.346104 27.346104 0 1 0 54.692207 0 27.346104 27.346104 0 1 0-54.692207 0Z" fill="#FFDD31" p-id="86510"></path><path d="M987.103363 837.317865m-15.298805 0a15.298805 15.298805 0 1 0 30.597609 0 15.298805 15.298805 0 1 0-30.597609 0Z" fill="#FFDD31" p-id="86511"></path><path d="M355.038343 814.871458m-15.551745 0a15.551745 15.551745 0 1 0 31.10349 0 15.551745 15.551745 0 1 0-31.10349 0Z" fill="#FFDD31" p-id="86512"></path><path d="M419.852239 844.457307l93.600128 144.167777 92.510852-144.167777z" fill="#FFAC2A" p-id="86513"></path><path d="M486.391841 848.659378l27.38282 92.584287 27.068686-92.584287z" fill="#FFDD31" p-id="86514"></path></svg>