<?xml version="1.0" standalone="no"?><!DOCTYPE svg PUBLIC "-//W3C//DTD SVG 1.1//EN" "http://www.w3.org/Graphics/SVG/1.1/DTD/svg11.dtd"><svg t="1748797515422" class="icon" viewBox="0 0 1024 1024" version="1.1" xmlns="http://www.w3.org/2000/svg" p-id="66936" xmlns:xlink="http://www.w3.org/1999/xlink" width="200" height="200"><path d="M514.8672 508.8768m-460.8 0a460.8 460.8 0 1 0 921.6 0 460.8 460.8 0 1 0-921.6 0Z" fill="#434341" p-id="66937"></path><path d="M514.9696 310.9376a245.76 245.76 0 1 0 245.76 245.76 245.76 245.76 0 0 0-245.76-245.76z m-6.6048 413.4912c-1.5872 1.6384 0-141.0048 0-141.0048H414.72l114.5344-175.9744v120.9856h95.0784s-114.3296 194.4064-115.968 195.9936z" fill="#FBD180" p-id="66938"></path><path d="M253.2352 436.8896a288.9216 288.9216 0 0 1 135.5776-138.9568 99.84 99.84 0 1 0-135.5776 138.9568zM777.1136 437.7088a99.84 99.84 0 1 0-134.6048-139.0592 288.7168 288.7168 0 0 1 134.6048 139.0592z" fill="#FBD180" p-id="66939"></path></svg>