<?xml version="1.0" standalone="no"?><!DOCTYPE svg PUBLIC "-//W3C//DTD SVG 1.1//EN" "http://www.w3.org/Graphics/SVG/1.1/DTD/svg11.dtd"><svg t="1748798690937" class="icon" viewBox="0 0 1024 1024" version="1.1" xmlns="http://www.w3.org/2000/svg" p-id="72829" xmlns:xlink="http://www.w3.org/1999/xlink" width="200" height="200"><path d="M510.3616 509.7984m-460.8 0a460.8 460.8 0 1 0 921.6 0 460.8 460.8 0 1 0-921.6 0Z" fill="#434341" p-id="72830"></path><path d="M625.7664 459.7248m-41.1136 0a41.1136 41.1136 0 1 0 82.2272 0 41.1136 41.1136 0 1 0-82.2272 0Z" fill="#FBD180" p-id="72831"></path><path d="M716.4928 268.1344H304.2816a91.4432 91.4432 0 0 0-91.4432 91.4432v300.4416a91.4432 91.4432 0 0 0 91.4432 91.4432h412.2112a91.4432 91.4432 0 0 0 91.4432-91.4432V359.5776a91.4432 91.4432 0 0 0-91.4432-91.4432z m-325.2736 340.2752H313.4464a25.2416 25.2416 0 0 1 0-50.4832h77.7728a25.2416 25.2416 0 1 1 0 50.4832z m48.5888-137.8304H313.4464a25.2416 25.2416 0 0 1 0-50.4832H439.808a25.2416 25.2416 0 0 1 0 50.4832z m282.368 177.1008a25.2416 25.2416 0 0 1-25.2416-25.2416 71.168 71.168 0 0 0-142.336 0 25.2416 25.2416 0 1 1-50.432 0A121.5488 121.5488 0 0 1 558.08 521.3696a91.5456 91.5456 0 1 1 135.0656 0A121.5488 121.5488 0 0 1 747.52 622.4384a25.2416 25.2416 0 0 1-25.344 25.2416z" fill="#FBD180" p-id="72832"></path></svg>