<?xml version="1.0" standalone="no"?><!DOCTYPE svg PUBLIC "-//W3C//DTD SVG 1.1//EN" "http://www.w3.org/Graphics/SVG/1.1/DTD/svg11.dtd"><svg t="1750577987513" class="icon" viewBox="0 0 1024 1024" version="1.1" xmlns="http://www.w3.org/2000/svg" p-id="319114" xmlns:xlink="http://www.w3.org/1999/xlink" width="200" height="200"><path d="M511.522116 418.931325c-89.434915 0-162.195056 72.761164-162.195056 162.195055 0 89.434915 72.761164 162.196079 162.195056 162.196079 89.434915 0 162.196079-72.761164 162.196079-162.196079 0-89.433892-72.761164-162.195056-162.196079-162.195055z" fill="#515151" p-id="319115"></path><path d="M910.863267 245.741867H848.590991c-26.024723 0-47.195905-21.172205-47.195905-47.196928 0-49.597605-40.35101-89.947592-89.947591-89.947592H311.597761c-49.597605 0-89.947592 40.349987-89.947592 89.947592 0 26.024723-21.172205 47.196928-47.196928 47.196928h-62.273299c-47.260373 0-85.710081 38.449707-85.710081 85.710081v499.349888c0 47.261397 38.449707 85.710081 85.710081 85.710081h798.683325c47.261397 0 85.711104-38.448684 85.711104-85.710081V331.451948c0-47.260373-38.449707-85.710081-85.711104-85.710081zM511.522116 771.976056c-105.23374 0-190.847629-85.61389-190.847629-190.848652 0-105.23374 85.61389-190.847629 190.847629-190.84763 105.234763 0 190.848653 85.61389 190.848653 190.84763 0 105.234763-85.61389 190.848653-190.848653 190.848652z m194.32994-497.128291H317.191152c-7.912204 0-14.326287-6.414083-14.326286-14.326287s6.414083-14.326287 14.326286-14.326286h388.660904c7.912204 0 14.326287 6.414083 14.326287 14.326286s-6.41306 14.326287-14.326287 14.326287z" fill="#515151" p-id="319116"></path></svg>