<?xml version="1.0" standalone="no"?><!DOCTYPE svg PUBLIC "-//W3C//DTD SVG 1.1//EN" "http://www.w3.org/Graphics/SVG/1.1/DTD/svg11.dtd"><svg t="1751389038072" class="icon" viewBox="0 0 1024 1024" version="1.1" xmlns="http://www.w3.org/2000/svg" p-id="17835" xmlns:xlink="http://www.w3.org/1999/xlink" width="256" height="256"><path d="M512 0c282.752 0 512 229.248 512 512s-229.248 512-512 512S0 794.752 0 512 229.248 0 512 0z m0 85.333C276.352 85.333 85.333 276.352 85.333 512S276.352 938.667 512 938.667 938.667 747.648 938.667 512 747.648 85.333 512 85.333z m0 128a42.667 42.667 0 0 1 42.368 37.675l0.299 4.992v235.52L752 649.387a42.667 42.667 0 0 1-48.939 69.674l-4.394-3.072-213.334-170.666a42.667 42.667 0 0 1-15.658-27.819l-0.342-5.504V256A42.667 42.667 0 0 1 512 213.333z" p-id="17836" fill="#515151"></path></svg>