<?xml version="1.0" standalone="no"?><!DOCTYPE svg PUBLIC "-//W3C//DTD SVG 1.1//EN" "http://www.w3.org/Graphics/SVG/1.1/DTD/svg11.dtd"><svg t="1749450844098" class="icon" viewBox="0 0 1024 1024" version="1.1" xmlns="http://www.w3.org/2000/svg" p-id="49371" xmlns:xlink="http://www.w3.org/1999/xlink" width="200" height="200"><path d="M1000.194655 130.181303L795.283112 336.285512l-0.908698 7.610351c45.662107 79.454337 45.378138 171.40328-21.581593 242.338568a5.452192 5.452192 0 0 1-7.610351 0.113588L440.265913 258.818954a5.565779 5.565779 0 0 1 0.170381-7.723939c70.19697-67.584461 161.521183-67.754842 240.35079-21.751973l7.383176-0.851905L893.479359 22.159752a75.251606 75.251606 0 0 1 106.77209 0.113587c29.532706 29.873468 29.532706 78.148083 0 107.907964z m-292.487374 516.651969c-17.606036 28.226451-105.806598 177.707377-129.489556 375.235743a2.271747 2.271747 0 0 1-3.40762 1.760604L464.914364 956.983475a2.271747 2.271747 0 0 1-0.851905-2.95327c10.336447-21.865561 109.327805-230.809454 99.218532-220.586594-10.790796 10.734003-79.170369 84.054624-130.455048 159.022261l-29.532705 40.948233s-115.745489-78.488845-151.411911-127.331397c-0.567937-0.795111-0.681524-1.419842 0-2.101366 23.455784-28.737594 145.846131-189.122904 145.846131-189.122904l-208.035194 125.797968c-1.022286 0.511143-2.101366 0.454349-2.896477-0.454349-10.109272-11.301939-79.567924-88.654911-99.616088-125.002857-0.397556-0.738318-0.397556-1.419842 0.340762-2.101365 19.820989-16.129401 131.87489-111.826726 131.87489-111.826726l-157.772801 56.339315a2.385334 2.385334 0 0 1-2.839683-1.135873L0.342185 446.067667c-0.738318-1.363048-0.227175-2.953271 1.306255-3.294033 27.772102-5.622573 259.490255-54.124363 371.941711-132.386033a6.872033 6.872033 0 0 1 8.973399 1.022286l323.951064 326.393192a7.496764 7.496764 0 0 1 1.135873 9.030193z m-394.772764-411.75407a64.915159 64.915159 0 0 1-64.631191-65.199128c0-35.95039 28.964769-65.142334 64.631191-65.142333 35.780009 0 64.687984 29.191944 64.687984 65.142333 0 36.063977-28.964769 65.199127-64.744778 65.199128z m367.682186 584.577192a80.363036 80.363036 0 0 1 80.987766 0 81.839671 81.839671 0 0 1 0 141.416225 80.363036 80.363036 0 0 1-80.987766 0 81.782877 81.782877 0 0 1 0-141.416225z m184.011474-59.97411a44.299059 44.299059 0 0 1 44.128678 44.412646 44.299059 44.299059 0 0 1-44.128678 44.469439 44.299059 44.299059 0 0 1-44.128678-44.469439 44.299059 44.299059 0 0 1 44.128678-44.412646z" fill="#666666" p-id="49372"></path></svg>