<?xml version="1.0" standalone="no"?><!DOCTYPE svg PUBLIC "-//W3C//DTD SVG 1.1//EN" "http://www.w3.org/Graphics/SVG/1.1/DTD/svg11.dtd"><svg t="1748699900856" class="icon" viewBox="0 0 1024 1024" version="1.1" xmlns="http://www.w3.org/2000/svg" p-id="147356" xmlns:xlink="http://www.w3.org/1999/xlink" width="200" height="200"><path d="M817.63 932.71H206.37c-26.5 0-47.98-21.48-47.98-47.98V441.32h707.22v443.41c0 26.5-21.48 47.98-47.98 47.98z" fill="#43C0A3" p-id="147357"></path><path d="M158.39 441.32v58.92h615.93c19.42 0 35.17 15.74 35.17 35.17v397.3h6.28c27.53 0 49.85-22.32 49.85-49.85V441.32H158.39z" fill="#35A588" p-id="147358"></path><path d="M817.63 940.83H206.37c-31.97 0-57.98-26.01-57.98-57.98V429.44h727.22v453.41c0 31.97-26.01 57.98-57.98 57.98zM168.39 449.44v433.41c0 20.94 17.04 37.98 37.98 37.98h611.26c20.94 0 37.98-17.04 37.98-37.98V449.44H168.39z" fill="#091914" p-id="147359"></path><path d="M214.26 815.19c-5.52 0-10-4.48-10-10V791.9c0-5.52 4.48-10 10-10s10 4.48 10 10v13.29c0 5.52-4.48 10-10 10zM329.52 886.38h-88.57c-20.23 0-36.69-16.46-36.69-36.69v-9.47c0-5.52 4.48-10 10-10s10 4.48 10 10v9.47c0 9.2 7.49 16.69 16.69 16.69h88.57c5.52 0 10 4.48 10 10s-4.48 10-10 10z" fill="#FFFFFF" p-id="147360"></path><path d="M165.34 634.74h695.72v91.16H165.34z" fill="#FFCE80" p-id="147361"></path><path d="M809.49 634.74h51.57v91.16h-51.57z" fill="#F2B668" p-id="147362"></path><path d="M511.66 291.06H408.04c-53.1 0-96.15-43.05-96.15-96.15v-7.47c0-53.1 43.05-96.15 96.15-96.15h7.47c53.1 0 96.15 43.05 96.15 96.15v103.62z" fill="#FFCE80" p-id="147363"></path><path d="M411.77 91.29c-6.81 0-13.45 0.7-19.87 1.99 45.61 9.24 79.94 49.56 79.94 97.89v99.88h39.81v-99.88c0.01-55.16-44.71-99.88-99.88-99.88z" fill="#F2B668" p-id="147364"></path><path d="M512.34 291.06h103.62c53.1 0 96.15-43.05 96.15-96.15v-7.47c0-53.1-43.05-96.15-96.15-96.15h-7.47c-53.1 0-96.15 43.05-96.15 96.15v103.62z" fill="#FFCE80" p-id="147365"></path><path d="M612.23 91.29c-7.62 0-15.04 0.86-22.18 2.48 44.49 10.09 77.7 49.87 77.7 97.41 0 55.16-44.72 99.88-99.88 99.88h44.36c55.16 0 99.88-44.72 99.88-99.88 0-55.17-44.72-99.89-99.88-99.89z" fill="#F2B668" p-id="147366"></path><path d="M875.61 735.91H624.95v-20h230.66v-71.16H624.95v-20h250.66zM403.88 735.91H148.39V624.75h255.49v20H168.39v71.16h235.49zM521.66 301.06H408.04c-58.53 0-106.15-47.62-106.15-106.15v-7.47c0-58.53 47.62-106.15 106.15-106.15h7.47c58.53 0 106.15 47.62 106.15 106.15v113.62zM408.04 101.29c-47.5 0-86.15 38.65-86.15 86.15v7.47c0 47.5 38.65 86.15 86.15 86.15h93.62v-93.62c0-47.5-38.65-86.15-86.15-86.15h-7.47z" fill="#091914" p-id="147367"></path><path d="M615.96 301.06H502.34V187.44c0-58.53 47.62-106.15 106.15-106.15h7.47c58.53 0 106.15 47.62 106.15 106.15v7.47c0 58.53-47.62 106.15-106.15 106.15z m-93.62-20h93.62c47.5 0 86.15-38.65 86.15-86.15v-7.47c0-47.5-38.65-86.15-86.15-86.15h-7.47c-47.5 0-86.15 38.65-86.15 86.15v93.62z" fill="#091914" p-id="147368"></path><path d="M876.6 439.44H147.4c-24.93 0-45.14-20.21-45.14-45.14v-88.25c0-24.93 20.21-45.14 45.14-45.14h729.2c24.93 0 45.14 20.21 45.14 45.14v88.25c-0.01 24.93-20.21 45.14-45.14 45.14z" fill="#43C0A3" p-id="147369"></path><path d="M874.84 260.92h-56.12c25.9 0 46.89 20.99 46.89 46.89v84.74c0 25.9-20.99 46.89-46.89 46.89h56.12c25.9 0 46.89-20.99 46.89-46.89v-84.74c0-25.9-20.99-46.89-46.89-46.89z" fill="#35A588" p-id="147370"></path><path d="M876.6 449.44H147.4c-30.4 0-55.14-24.73-55.14-55.14v-88.25c0-30.4 24.73-55.14 55.14-55.14h729.2c30.4 0 55.14 24.73 55.14 55.14v88.25c-0.01 30.41-24.74 55.14-55.14 55.14zM147.4 270.92c-19.37 0-35.14 15.76-35.14 35.14v88.25c0 19.37 15.76 35.14 35.14 35.14h729.2c19.37 0 35.14-15.76 35.14-35.14v-88.25c0-19.37-15.76-35.14-35.14-35.14H147.4z" fill="#091914" p-id="147371"></path><path d="M464.11 260.92h95.78v178.52h-95.78z" fill="#FFCE80" p-id="147372"></path><path d="M519.01 260.92h40.88v178.52h-40.88z" fill="#F2B668" p-id="147373"></path><path d="M569.89 449.44H454.11V250.92h115.78v198.52z m-95.78-20h75.78V270.92h-75.78v158.52z" fill="#091914" p-id="147374"></path><path d="M512 683.38m-120.51 0a120.51 120.51 0 1 0 241.02 0 120.51 120.51 0 1 0-241.02 0Z" fill="#FFCE80" p-id="147375"></path><path d="M512 562.87c-8.2 0-16.2 0.82-23.94 2.38 55.08 11.11 96.57 59.77 96.57 118.13 0 58.36-41.48 107.02-96.57 118.13 7.74 1.56 15.75 2.38 23.94 2.38 66.56 0 120.51-53.95 120.51-120.51S578.56 562.87 512 562.87z" fill="#F2B668" p-id="147376"></path><path d="M512 813.89c-71.96 0-130.51-58.55-130.51-130.51S440.04 552.87 512 552.87s130.51 58.55 130.51 130.51S583.96 813.89 512 813.89z m0-241.02c-60.94 0-110.51 49.58-110.51 110.51S451.06 793.89 512 793.89c60.94 0 110.51-49.58 110.51-110.51S572.94 572.87 512 572.87z" fill="#091914" p-id="147377"></path></svg>