<?xml version="1.0" standalone="no"?><!DOCTYPE svg PUBLIC "-//W3C//DTD SVG 1.1//EN" "http://www.w3.org/Graphics/SVG/1.1/DTD/svg11.dtd"><svg t="1748807948742" class="icon" viewBox="0 0 1024 1024" version="1.1" xmlns="http://www.w3.org/2000/svg" p-id="91094" xmlns:xlink="http://www.w3.org/1999/xlink" width="200" height="200"><path d="M248.0128 948.5312c192.8192 143.5648 486.656 75.264 656.2816-152.5248 169.6768-227.84 150.9376-528.896-41.8304-672.4608C669.6448-20.0192 375.808 48.2816 206.1824 276.0704c-169.6768 227.84-150.9376 528.896 41.8304 672.4608z" fill="#FF9C00" p-id="91095"></path><path d="M158.0544 901.12c192.768 143.5648 486.6048 75.264 656.2816-152.5248 169.6768-227.84 150.8864-528.896-41.8816-672.4608C579.6864-67.4304 285.8496 0.8704 116.224 228.6592c-169.6768 227.84-150.8864 528.896 41.8816 672.4608z" fill="#FFDE00" p-id="91096"></path><path d="M532.224 55.9616c73.0624 0 149.3504 23.8592 204.8 65.1264 163.6864 122.0096 191.2832 380.7744 34.7648 593.152-91.648 122.88-233.7792 202.4448-369.8688 202.4448-73.0624 0-150.7328-22.9376-206.336-64.4608-78.6432-58.6752-128.512-159.2832-135.2192-267.1104-6.7584-109.2096 27.136-227.4816 97.792-322.816 91.648-122.368 237.7216-206.336 374.0672-206.336z m1.3824-7.8848c-137.728 0-283.3408 72.8064-382.3616 205.6704-153.088 205.6704-136.0896 477.696 38.0416 607.2832 61.6448 45.9264 134.9632 67.9424 210.5344 67.9424 137.728 0 283.392-72.8064 382.3616-205.6704 153.2928-205.6704 136.3456-477.696-37.7856-607.2832C682.496 70.0928 609.28 48.0768 533.6064 48.0768z" fill="#FCB000" p-id="91097"></path><path d="M345.6 168.6528l134.656 15.7696v260.608l153.088-234.6496 129.1264 20.1728-165.0688 228.4032 80.2304 9.984-31.5392 85.504-120.1152-15.9744-31.744 55.6544 139.776 18.3296-29.696 80.4864-134.656-17.8688-29.696 105.0624-120.1152-12.544 33.3824-110.848-139.1616-19.456 25.2928-84.8896 140.544 22.9888 1.1264-58.4704-127.488-16.896 23.8592-86.7328 98.56 13.4144z" fill="#F77200" p-id="91098"></path><path d="M359.0144 179.3024l134.7072 15.7696V455.68l153.088-234.6496 129.1264 20.1728-165.12 228.4032 80.2816 9.984-31.5392 85.5552-120.1152-15.9744-31.744 55.6544 139.776 18.5344-29.696 80.2304-134.7072-17.8688-29.696 105.0624-120.32-12.544 33.5872-110.7968-139.1104-19.456 25.2928-84.8896 140.4928 22.9376 1.1776-58.4192-127.5392-16.9472 23.8592-86.7328 98.56 13.4656z" fill="#FA9300" p-id="91099"></path></svg>