<?xml version="1.0" standalone="no"?><!DOCTYPE svg PUBLIC "-//W3C//DTD SVG 1.1//EN" "http://www.w3.org/Graphics/SVG/1.1/DTD/svg11.dtd"><svg t="1750304685752" class="icon" viewBox="0 0 1024 1024" version="1.1" xmlns="http://www.w3.org/2000/svg" p-id="60221" xmlns:xlink="http://www.w3.org/1999/xlink" width="200" height="200"><path d="M832.3 280.7c-22.8-27.9-45.7-50.2-68.5-72.4 40-22.2 62.9-22.2 74.3-22.2 11.4 0 17.2 0 17.2 5.6 11.3 11.1 5.5 38.9-23 89M415 581.6c-11.4 11.1-22.8 16.7-40 16.7s-28.6-5.6-40-16.7c-11.4-11.1-17.2-22.2-17.2-39 0-16.7 5.8-27.9 17.2-39 11.4-11.1 22.8-16.7 40-16.7s28.6 5.6 40 16.7c11.4 11.1 17.2 22.2 17.2 39 0 16.7-5.7 27.9-17.2 39M186.5 832.3c-5.8 0-11.4 0-17.2-5.6-5.8-5.6-5.8-27.9 22.8-89.2 22.8 27.9 45.7 50.2 68.5 72.4-34.1 11.3-57.1 22.4-74.1 22.4m714.3-685.2c-17.2-16.7-34.3-22.2-62.9-22.2-34.3 0-80.1 16.7-137.2 44.6-57.1-27.8-120-44.6-188.6-44.6-222.9 0-400.1 172.7-400.1 390 0 61.3 17.2 117 40 167.1-57 94.7-62.8 156-28.5 195 17.2 16.7 34.3 22.2 62.9 22.2 108.6 0 302.9-133.7 440-267.4 160.1-150.5 360.1-401.2 274.4-484.7" fill="#D3E2E0" p-id="60222"></path><path d="M186.5 914.1c-33.2 0-53.7-7.4-73.3-26.5C73 842 80.4 774.6 135.3 681c-25.6-58.3-38.1-112.8-38.1-166.1 0-227.1 182.3-404.9 415-404.9 64.4 0 127.8 14.4 188.5 43 61.8-29.7 104.4-43 137.2-43 33.2 0 53.7 7.4 73.3 26.5 16.9 16.4 25.3 38.6 25 65.9-1.1 126.3-188.8 336.2-299.5 440.3-134.1 130.6-332.3 271.4-450.2 271.4z m325.7-774.4c-216 0-385.2 164.8-385.2 375.1 0 51.2 12.6 103.9 38.6 160.9l3.3 7.1-4.1 6.7c-50.9 84.5-60.7 142.6-30 177.4 13 12.7 26.3 17.2 51.7 17.2 104.7 0 295.4-132.4 429.6-263.2 139.3-131 289.4-317.9 290.4-419.1 0.2-19.1-5.1-33.6-16.1-44.3-13.8-13.5-27.1-18-52.5-18-28.9 0-70.4 13.7-130.7 43.1l-6.5 3.2-6.5-3.2c-58.6-28.4-119.9-42.9-182-42.9zM186.5 847.2c-6.5 0-17.5 0-27.6-9.8-10.1-9.9-15.7-30.2 19.7-106.1l10-21.5 15 18.3c22.2 27.2 45.1 49.5 67.3 71.1l17.6 17.2-23.2 7.8c-10.4 3.4-19.7 6.8-28.2 9.9-20.2 7.3-36.2 13.1-50.6 13.1z m-5.3-30.1c0.8 0.3 2.2 0.3 5.3 0.3 9.2 0 23-5 40.5-11.4 2-0.7 4.1-1.5 6.2-2.2-12.2-12.1-24.6-24.7-36.9-38.6-14.5 34.4-15.3 47.9-15.1 51.9z m193.9-203.9c-20 0-35.5-6.5-50.4-20.9-15-14.6-21.7-29.9-21.7-49.6 0-19.7 6.7-35 21.7-49.6 14.9-14.5 30.4-21 50.4-21s35.5 6.5 50.4 21c15 14.6 21.7 29.9 21.7 49.6 0 19.7-6.7 35-21.7 49.6-14.9 14.4-30.5 20.9-50.4 20.9z m0-111.4c-12.2 0-20.2 3.4-29.6 12.5-9.4 9.1-12.7 16.5-12.7 28.3s3.3 19.2 12.7 28.3c9.4 9.1 17.4 12.5 29.6 12.5s20.2-3.4 29.6-12.5c9.4-9.1 12.7-16.5 12.7-28.3s-3.3-19.2-12.7-28.3-17.4-12.5-29.6-12.5z m459.4-194.9l-13.7-16.8c-22.3-27.2-45.2-49.6-67.4-71.2L739 205l17.5-9.7c43.4-24.1 69.1-24.1 81.6-24.1 9.9 0 27.3 0 31.2 14.1 13.3 18.5 5.7 50.7-24.1 102.8l-10.7 18.8zM789 212.2c13.4 13.2 26.9 27 40.5 42.3 22.1-43.5 15.4-52.1 15.3-52.2l-1.4-1.3H838c-8.7-0.1-23.6-0.1-49 11.2z" fill="#333333" p-id="60223"></path><path d="M692.7 740.1c-5.8 5.7-17.2 11.3-28.6 11.3-11.4 0-17.2-5.7-28.6-11.3-5.8-5.7-11.4-17.1-11.4-28.4 0-11.3 5.8-17.1 11.4-28.4 5.8-5.7 17.2-11.3 28.6-11.3 11.4 0 17.2 5.7 28.6 11.3 5.8 5.7 11.4 17.1 11.4 28.4 0 11.3-5.6 22.7-11.4 28.4m194.4-391.9c-51.5 90.9-142.9 204.5-245.7 301.1-91.5 85.2-200 164.7-285.8 215.8 51.5 22.7 108.6 34.1 165.8 34.1 222.9 0 400.1-176.1 400.1-397.6-5.9-56.9-17.3-108-34.4-153.4" fill="#C1C99B" p-id="60224"></path><path d="M521.3 914.1c-59.8 0-119.2-12.2-171.8-35.4L323.1 867l24.8-14.8C440.8 797 546.7 717 631.2 638.4c99.5-93.4 190.3-204.7 242.9-297.5l15.7-27.7 11.2 29.7c17.5 46.3 29.3 99.2 35.2 157.2l0.1 1.5c0 231.3-182.3 412.5-415 412.5z m-132.5-51.9c41.7 14.5 86.9 22.1 132.5 22.1 215.7 0 384.8-167.7 385.2-381.9-4.4-42.8-12.1-82.6-23.1-118.8-54.9 88.4-138.7 188.8-229.7 274.6 3.4-0.7 6.9-1.1 10.5-1.1 12.3 0 20.4 4.7 27.7 8.8 2.2 1.3 4.7 2.7 7.4 4l2.2 1.1 1.7 1.7c7.9 7.8 15.8 22.9 15.8 39 0 16.2-8 31.3-15.9 39-7.9 7.8-22.9 15.6-39 15.6-12.2 0-20.4-4.7-27.6-8.8-2.3-1.3-4.7-2.7-7.5-4.1l-2.2-1.1-1.7-1.7c-7.9-7.8-15.8-22.9-15.8-39 0-6.4 1.3-11.7 3.1-16.3-70 61.1-149.7 120.6-223.6 166.9z m256-134.1c2.3 1.2 4.5 2.4 6.5 3.6 6.3 3.6 8.7 4.9 12.9 4.9 7.5 0 15.2-4.2 18.1-7l0.1-0.1c2.8-2.7 6.9-10.3 6.9-17.8 0-6.4-3.1-12.9-5.8-16.4-2.3-1.2-4.4-2.4-6.4-3.6-6.4-3.6-8.8-4.9-12.9-4.9-6.6 0-13.1 3.1-16.6 5.8-1.2 2.3-2.4 4.3-3.6 6.3-3.6 6.3-4.9 8.7-4.9 12.8 0 6.4 3 12.8 5.7 16.4z" fill="#231916" p-id="60225"></path></svg>