<?xml version="1.0" standalone="no"?><!DOCTYPE svg PUBLIC "-//W3C//DTD SVG 1.1//EN" "http://www.w3.org/Graphics/SVG/1.1/DTD/svg11.dtd"><svg t="1750305130634" class="icon" viewBox="0 0 1024 1024" version="1.1" xmlns="http://www.w3.org/2000/svg" p-id="81328" xmlns:xlink="http://www.w3.org/1999/xlink" width="200" height="200"><path d="M505.088 1024c-69.4272 0-132.8128-33.3824-180.736-96-15.9232-20.7872-52.3264-82.1248-62.7712-107.5712-10.752-26.3168-6.4-137.0112-5.8368-149.5552l20.48 0.8192c-1.9456 45.7216-2.4576 124.4672 4.4032 141.2608 9.728 23.808 45.2096 83.5072 60.1088 103.0144 50.432 65.8944 116.1216 95.744 189.952 86.3232 115.1488-14.6944 158.4128-62.976 192.8192-111.1552 31.0272-43.4176 48.4864-89.344 51.8656-98.56l-5.2224-137.8816 3.1744-3.072c25.4976-24.9856 54.5792-56.1664 58.4704-64.3584 0.5632-16.6912 12.032-19.3536 13.3632-19.6096l3.9424 19.6608c2.816-0.5632 3.5328-1.9456 3.584-1.9968 0 0-0.4096 0.8704-0.4096 3.1744 0 3.84 0 13.824-61.2864 74.1888l5.0176 132.864-0.5632 1.7408c-0.768 2.2016-18.7904 54.6304-55.0912 105.3696-35.4304 49.5616-83.5584 103.7824-206.9504 119.5008-9.5744 1.2288-18.9952 1.8432-28.3136 1.8432z" fill="#000000" p-id="81329"></path><path d="M857.7536 590.1312l-39.8336-9.3184-7.168-33.7408 15.8208-30.976 8.448 2.7648c17.2032 5.632 37.7344 15.3088 37.7344 29.5936 0 11.776-9.4208 30.8736-11.3152 34.56l-3.6864 7.1168z m-22.4256-25.9072l11.1104 2.6112c2.6624-6.144 5.2224-13.1584 5.7344-17.2032-2.0992-2.2528-8.2944-5.6832-15.4112-8.6528l-4.5056 8.8064 3.072 14.4384zM182.1696 612.9152l-18.688-39.424 7.2192-26.9312 30.0032-15.0016 21.8112 17.1008v40.6016l-40.3456 23.6544z m2.9696-41.3696l5.9904 12.6464 10.8544-6.4v-19.6096l-3.7888-2.9696-10.0864 5.0176-2.9696 11.3152z" fill="#000000" p-id="81330"></path><path d="M360.9088 725.9136c-0.1536-0.768-5.0176-21.4528-30.8736-38.0416-21.504-13.824-32.6144-7.68-42.4448-2.304-1.4848 0.8192-2.9184 1.5872-4.2496 2.2528-12.1856 5.9392-23.1936-4.1472-34.8672-14.7968-7.5264-6.8608-16.0256-14.6944-26.2144-20.6848-28.6208-16.7936-40.9088-54.1184-41.4208-55.7056l19.5584-6.0416-9.7792 3.0208 9.7792-3.0208c0.1024 0.3072 10.5472 31.744 32.4096 44.5952 12.032 7.0656 21.8112 16.0256 29.6448 23.1936 4.352 3.9936 10.1376 9.3184 13.1072 10.8032 0.6144-0.3584 1.28-0.7168 1.9968-1.0752 11.1104-6.0928 31.7952-17.4592 63.6928 3.0208 33.3824 21.4528 39.4752 49.7152 39.68 50.8928l-20.0192 3.8912zM189.2352 543.7952c0-0.5632-2.1504-55.6032-8.448-79.9744-1.9968-7.68-5.9904-18.5856-10.24-30.1568-10.1376-27.4944-21.6064-58.624-19.6608-80.4352 0.4096-4.7104 0.7168-10.752 1.0752-17.7152 1.6896-34.1504 4.5056-91.3408 30.0032-133.0688 31.744-51.8656 89.6-122.1632 184.9856-162.3552C458.5472 1.4848 502.9376-6.4512 564.8384 4.5568c54.9888 9.7792 136.8064 55.7568 176.128 77.824l6.3488 3.5328c38.6048 21.6064 96.5632 107.6736 109.6192 147.3536 12.8512 38.912 18.5856 76.6464 15.8208 103.5264-1.3824 13.4656-7.5264 40.3968-13.4144 66.4064-4.2496 18.7392-9.5232 42.0352-9.5744 46.3872v82.2784h-20.48V449.536c0-6.0928 3.6352-22.4256 10.0352-50.7392 5.5296-24.2688 11.776-51.8144 13.056-64.1024 2.5088-24.2176-2.9184-58.9312-14.8992-95.3344-12.7488-38.7072-68.8128-118.4768-100.3008-136.0896l-6.3488-3.584c-38.3488-21.504-118.0672-66.304-169.5744-75.52-51.968-9.2672-89.2928-6.5536-186.112 34.2528-90.4704 38.144-145.4592 104.96-175.6672 154.3168-22.8864 37.4272-25.5488 91.4432-27.136 123.7504-0.3584 7.168-0.6656 13.3632-1.1264 18.4832-1.536 17.408 9.5744 47.616 18.5344 71.8848 4.4544 12.032 8.6528 23.3984 10.8544 32.0512 6.8096 26.4704 8.96 81.8176 9.0624 84.1728l-20.4288 0.7168z" fill="#000000" p-id="81331"></path><path d="M217.3952 360.6016h-10.24V289.1264l-21.2992-10.496 23.04-34.6624 22.272-7.8336 29.0304-88.7808 89.1392-91.2896 7.424 6.912-87.5008 89.6512-29.8496 91.2896-23.808 8.3456-14.8992 22.4768 16.6912 8.2432zM813.824 345.9584l-10.1376-1.2288 5.0688-39.7824v-30.5664l7.68-6.3488V244.736c-5.5808-0.9728-15.2064-3.5328-25.856-10.5472-15.6672-10.24-17.408-29.0304-17.6128-33.3824l-14.848-43.6736-14.848-19.4048-20.3776-24.9344-35.6864-43.1616 7.936-6.2976 56.2176 68.2496 15.9744 20.8384 15.872 46.6944v0.8192c0 0.1536 0.256 17.5616 13.056 25.9072 13.7728 8.96 25.344 9.4208 25.4464 9.4208l4.9664 0.1536v37.2736l-7.68 6.3488-0.0512 26.8288-5.12 40.0896z" fill="#000000" p-id="81332"></path><path d="M767.0272 418.1504l-8.7552-5.2224 13.9776-22.4768h22.6304l-25.2416-44.3904 13.6704-52.1216 9.8816 2.5088-12.5952 48.2304 31.744 55.808h-34.3552zM270.4384 419.7888l-15.0528-9.2672h-35.4304v-10.0352h38.4l17.5104 10.8032zM842.0864 398.1824l-5.1712-27.136V297.8816l-25.9072-17.0496 5.6832-8.2944 30.464 19.968v78.08l5.0176 25.7024z" fill="#000000" p-id="81333"></path><path d="M814.9504 310.1184l-2.2016-9.7792 47.2576-10.0352 2.2016 9.7792zM780.8 355.3792l61.2352-18.432 19.0976-23.4496-19.0976 120.32-11.52 85.0432-9.5744-14.3872v-41.8304l-17.3056-37.9392v-29.2352z" fill="#000000" p-id="81334"></path><path d="M779.6736 352.256l-3.328-3.7888 43.8272-37.5808 42.7008 5.9904-0.768 4.9664-40.3456-5.6832zM251.0336 363.008l-40.1408-10.3936-48.2304-50.688 3.7376-3.4304 47.2064 49.6128 38.7072 10.0864z" fill="#000000" p-id="81335"></path><path d="M163.328 355.2768l-4.5568-2.4064 33.28-60.7232 16.896 5.6832-1.6896 4.7616-12.7488-4.3008zM222.3104 436.0704l-4.7616-1.8432c0.512-1.3312 12.9536-32.4608 21.0432-47.36 7.68-14.08 5.4272-41.0624 5.376-41.3184l-5.6832-31.5904 5.0688-0.8704 5.6832 31.8464c0.1536 1.3824 2.4576 28.928-5.9392 44.3392-7.936 14.592-20.6336 46.4896-20.7872 46.7968z" fill="#000000" p-id="81336"></path><path d="M166.1952 307.7632l53.76 77.7216 12.4928 20.0192-24.3712 137.8816-14.7968-8.8064V473.9584l-24.6784-76.7488zM248.6784 652.3904l-4.2496-2.816 18.6368-26.7776 21.5552-8.6528 9.1648-17.5616 32.7168-12.9024 24.4224-7.168 6.3488-23.7056 4.9152 1.28-7.0144 26.4192-26.9824 7.936-30.72 12.0832-9.1136 17.5616-21.9648 8.8064zM798.208 640.3072l-16.7936-23.9616-26.8288-12.1344-15.7696-23.5008-49.8688-12.6976-8.1408-34.048 4.9664-1.1776 7.424 31.1296 48.7936 12.3904 16.0768 23.9616 26.7776 12.1344 17.5616 25.0368z" fill="#000000" p-id="81337"></path><path d="M246.8864 445.6448s11.4176-39.1168 49.8176-58.4192 64-15.8208 74.24-20.0704 30.72-0.768 43.52 0 17.7152-6.4512 28.0576 7.2192c10.3424 13.6192 9.0112 33.6896 17.3568 41.216 8.3456 7.5264 19.0464-2.5088 21.3504 10.0352 2.3552 12.544 2.7648 29.5424 0 43.6224s-25.8048 26.5728-52.0704 41.6256c-24.7296 14.1824-32.6144 27.5968-58.2144 42.5984s-60.9792 15.0528-74.0352 17.5616c-13.0048 2.5088-31.488-7.5264-45.312-42.5984-13.7216-35.1744-4.7104-82.7904-4.7104-82.7904zM555.9296 410.5216s22.4256-10.0352 27.5456-20.0704 2.4576-20.6848 14.0288-25.3952c11.5712-4.7104 44.0832-14.6944 53.4016-9.6768 9.3696 5.0176 59.8016 8.6528 90.88 26.88s51.5584 48.3328 51.5584 73.3696 0.512 70.1952-12.544 87.7568-38.656 17.5616-54.016 17.5616-73.216-25.088-85.248-32.6144c-12.032-7.5264-47.872-17.5616-52.992-27.5968s-20.48-15.0528-20.48-15.0528l-12.1344-75.1616z" fill="#000000" p-id="81338"></path><path d="M477.2864 415.5392l34.7136-26.1632s31.7952 1.0752 43.9296 16.128 22.4256 80.2304 22.4256 100.3008v145.2032c0 10.2912-15.36 20.2752-15.36 25.2928 0 5.0176-7.0656 7.424-7.0656 7.424l42.9056 7.6288v11.9808s-49.8688 6.9632-60.7744 0c-10.9056-6.9632-47.5648-15.0528-54.8352-23.552-7.2704-8.4992-13.056-18.944-15.2576-28.7744s-7.3216-14.848-2.2016-29.8496 19.6608-29.9008 17.5104-35.0208c-2.1504-5.12-9.9328-20.1216-8.6016-25.1392s0.512-24.832 8.6016-22.4768c8.0896 2.4064 28.5696-10.1376 28.5696-10.1376v-17.5616l19.4048-5.0176 7.5776 5.0176-20.0192-53.3504 1.3312-41.2672-42.8544-0.6656z" fill="#000000" p-id="81339"></path><path d="M488.2944 548.8128l-10.24-0.6144c0.1024-1.9968 3.1232-48.7936 14.336-81.6128 10.5984-30.976 7.8336-55.2448 7.7824-55.5008l10.1888-1.1776c0.1536 1.0752 3.1232 26.624-8.2432 59.904-10.752 31.5904-13.7728 78.5408-13.824 79.0016zM516.8128 536.7808l-10.0864-1.792 14.5408-76.8 10.0352 1.8432zM573.2352 455.68l25.6 87.7056v34.1504l10.24 33.5872 5.12 65.1776-15.36-17.5616-42.9056-27.3408zM536.2688 784.7424l-10.24-0.6144 6.2464-98.0992 10.1888 0.6144zM593.7664 774.7584l-10.24-62.5664 10.0864-1.5872 10.24 62.5664zM367.7696 747.6736h-15.7696l-25.9584-10.9056L378.88 693.4528l-11.1104 54.2208z m-13.6704-10.0352h5.2736l3.7376-18.2272-17.7664 14.5408 8.7552 3.6864zM640.3072 763.8016l-19.3536-37.632 9.1648-4.5056 19.3536 37.632zM660.736 753.6128l-13.1584-27.5456 9.3184-4.2496 13.1072 27.5456zM678.3488 743.9872l-8.6528-31.2832 9.8816-2.6112 8.6528 31.2832zM394.0864 762.624l-9.984-2.2016 8.0384-34.5088 9.984 2.2016zM408.0128 744.2944h10.24v27.2896h-10.24zM432.7936 780.3392l-9.8816-2.7648 8.0384-27.4432 9.8304 2.7648zM454.0416 786.0736l-9.6768-3.2768 8.0384-22.8864 9.6768 3.2256zM476.3136 786.5344l-8.8064-5.0688 11.264-18.7904 8.8576 5.12zM778.0352 651.008l-21.7088 7.7312-13.312 214.8352 42.7008-79.4624z" fill="#000000" p-id="81340"></path><path d="M325.0176 676.3008l38.6048 88.9344v30.5152l25.4976 26.5728h-25.4976l-27.904-37.9392s-24.7296-30.1056-26.7264-49.0496c-1.9968-18.944-5.8368-64.1024-5.8368-64.1024l21.8624 5.0688zM721.7152 658.7392h34.6112s-12.9536 72.4992-17.3056 91.6992c-7.0656 31.1808-31.3344 45.3632-31.3344 45.3632v-37.8368l-8.6528-30.6688 22.6816-68.5568z" fill="#000000" p-id="81341"></path><path d="M600.6784 892.16l-15.5136-20.6336-5.9904 8.3968-13.7728-6.4-7.4752 15.2576-18.5344-13.056-6.1952 13.0048-19.1488-13.056-5.9904 12.4416-23.808-12.4416-12.3904 12.9024-17.5104-18.688-26.5728-8.4992-33.7408-14.848v-15.5648l-23.8592-3.6864 1.5872-9.8816 32.512 5.0176v17.6128l27.4432 12.0832 28.3648 9.0624 11.8784 12.6464 10.1888-10.5984 21.248 11.0592 6.5536-13.6704 19.1488 13.056 6.2464-13.1584 18.5856 13.1072 6.6048-13.4656 15.2064 7.0656 9.216-12.9024 11.9808 15.9232 7.4752-23.4496h19.6608l11.1104-6.8096 7.5264 4.608 5.9904-12.288 14.2848-2.816 12.288-10.6496 14.3872-16.7424 24.4224-26.4704 7.6288 6.7072-24.32 26.368-15.0528 17.408-14.592 12.6464-11.9808 2.4064-8.704 17.8176-11.8784-7.168-8.192 4.9664h-15.0528z" fill="#000000" p-id="81342"></path><path d="M477.5424 832.6144l-29.2352-0.1536-22.0672-7.9872-14.3872-19.2512H391.168l-4.096-14.7456-18.6368-4.0448v-4.9664h-15.36v-5.0176h20.48v5.9392l17.6128 3.84 3.8912 13.9776h19.4048l15.0016 20.0704 20.224 7.3216h81.4592l67.3792-7.7312 35.7376-7.7312 16.2304-9.472 7.0144-9.4208h15.5648l8.6016-16.2304 34.6112-27.4432 3.2256 3.8912-34.2016 27.136-9.0624 17.664h-16.128l-6.5536 8.448-17.8176 10.24-36.4032 7.8336-67.8912 7.7824z" fill="#000000" p-id="81343"></path><path d="M506.8288 804.3008l-14.592-15.2576-58.1632 0.4608-34.048-27.0336-48.4864-14.9504 3.072-9.5744 50.3296 15.5136 32.7168 25.9584 58.9824-0.4608 7.936 8.2944 4.352-7.8336 36.3008-0.4608 20.1728 6.5536 24.7808-8.6016v2.2016l19.9168-18.6368 4.5568 11.2128 9.9328-19.6096 11.1616 14.336 20.9408-19.9168h16.2816l28.928-20.6336c-6.912-10.0864-20.1728-32.6144-9.1648-43.1616 11.1616-10.7008 26.624-15.9744 27.2896-16.1792l3.328 9.472c-0.1536 0.0512-13.9776 4.8128-23.4496 13.8752-4.3008 4.096 3.5328 21.2992 13.2096 34.1504l3.072 4.0448-39.8848 28.416h-15.4112l-26.2656 24.9856-8.192-10.496-12.8 25.2928-7.4752-18.3296-26.2656 24.5248v-11.4176l-14.4384 5.0176-21.8624-7.0656-28.5696 0.4096-8.192 14.8992z" fill="#000000" p-id="81344"></path><path d="M516.5568 873.6768l-13.4144-43.5712v-72.192h5.12v71.8336l13.2096 42.4448zM630.4256 874.3424l-9.8304-2.816 18.8928-62.464-18.688-45.6704 9.472-3.7376 20.0192 48.9472zM678.2976 831.2832l-7.68-30.5152h-16.0768l-7.3216-38.2976 10.0352-1.8432 5.7856 30.1568h15.616l9.6256 38.0928zM694.2208 819.0976l-15.5136-37.8368-17.664-27.0848 8.6528-5.376 18.3296 28.3136 15.7184 38.2464zM708.1984 791.5008l-21.76-46.7456 9.3184-4.1472 21.76 46.7456zM373.4016 784.7424l-4.864-1.536 10.7008-32.4608 4.864 1.536zM373.6064 835.9936l-4.8128-1.792 17.92-46.7456 13.4144-30.5152 4.7104 1.9456-13.3632 30.464zM415.6928 861.8496l-5.0688-0.512 5.1712-51.6096-5.1712-40.448 5.0688-0.6656 5.2736 41.0624zM434.3808 873.3184l-5.0688-0.768 3.9424-24.1152-1.9456-18.0736 1.9968-46.0288 5.12 0.2048-1.9968 45.6704 1.9968 18.3808zM459.776 881.5104l-5.0688-0.6144 6.1952-50.5856-14.1312-45.1584 4.9152-1.4848 14.3872 46.1824zM480.6656 888.0128l-5.632-57.7024 2.7648-46.0288 5.12 0.3072-2.816 45.6704 5.632 57.2416zM534.8352 873.2672l-5.12-92.3648 5.0688-0.256 5.12 92.3648zM565.504 871.9872l-5.0688-0.256 2.4064-45.6704v-35.2768h5.12v35.3792zM582.5024 823.9104h5.12v38.9632h-5.12zM609.5872 864.7168l-13.2096-41.6256-13.7216-38.2976-14.1312-25.7024 4.5056-2.3552 14.2848 26.0608 13.9264 38.7072 5.4784 17.3568 4.9152-55.0912 5.0688 0.4096zM476.7232 980.6848c-1.6896 0-3.3792-0.0512-5.0176-0.1536-22.2208-1.6384-53.248-17.92-54.5792-18.5856l2.4064-4.4032c0.3072 0.1536 31.3856 16.4352 52.5312 18.0224 21.1968 1.6384 53.0432-8.9088 53.3504-9.0112l1.6384 4.7616c-1.1776 0.3072-28.6208 9.3696-50.3296 9.3696zM635.1872 953.1392s-23.6032 11.6736-46.6432 6.5536-32-1.8432-32.6656-23.552-11.52-35.328-11.52-35.328 1.8944 75.8784 11.52 77.3632 19.8656 3.5328 37.7856 0c17.9712-3.5328 41.5232-25.0368 41.5232-25.0368z" fill="#000000" p-id="81345"></path><path d="M414.5152 931.9936a10.24 10.0352 0 1 0 20.48 0 10.24 10.0352 0 1 0-20.48 0Z" fill="#000000" p-id="81346"></path><path d="M647.4752 922.0096a10.0352 7.68 90 1 0 15.36 0 10.0352 7.68 90 1 0-15.36 0Z" fill="#000000" p-id="81347"></path><path d="M368.4352 608.6144a7.68 7.5264 0 1 0 15.36 0 7.68 7.5264 0 1 0-15.36 0Z" fill="#000000" p-id="81348"></path><path d="M230.1952 570.9824a10.0352 5.12 90 1 0 10.24 0 10.0352 5.12 90 1 0-10.24 0Z" fill="#000000" p-id="81349"></path><path d="M690.9952 593.5616c0-4.1472-5.7344-7.5264-12.8-7.5264s-12.8 26.7776-12.8 17.5616c0 4.1472 5.7344-7.5264 12.8-7.5264s12.8 1.6384 12.8-2.5088z" fill="#000000" p-id="81350"></path><path d="M404.2752 666.2656a5.12 5.0176 0 1 0 10.24 0 5.12 5.0176 0 1 0-10.24 0Z" fill="#000000" p-id="81351"></path><path d="M404.2752 651.2128a5.12 5.0176 0 1 0 10.24 0 5.12 5.0176 0 1 0-10.24 0Z" fill="#000000" p-id="81352"></path><path d="M378.6752 646.1952a5.12 5.0176 0 1 0 10.24 0 5.12 5.0176 0 1 0-10.24 0Z" fill="#000000" p-id="81353"></path><path d="M392.9088 649.9328a5.12 5.0176 0 1 0 10.24 0 5.12 5.0176 0 1 0-10.24 0Z" fill="#000000" p-id="81354"></path><path d="M353.0752 636.16a5.12 5.0176 0 1 0 10.24 0 5.12 5.0176 0 1 0-10.24 0Z" fill="#000000" p-id="81355"></path><path d="M362.1888 659.9168a5.12 5.0176 0 1 0 10.24 0 5.12 5.0176 0 1 0-10.24 0Z" fill="#000000" p-id="81356"></path><path d="M408.2688 705.0752a5.12 5.0176 0 1 0 10.24 0 5.12 5.0176 0 1 0-10.24 0Z" fill="#000000" p-id="81357"></path><path d="M362.1888 674.9696a5.12 5.0176 0 1 0 10.24 0 5.12 5.0176 0 1 0-10.24 0Z" fill="#000000" p-id="81358"></path><path d="M346.8288 654.8992a5.12 5.0176 0 1 0 10.24 0 5.12 5.0176 0 1 0-10.24 0Z" fill="#000000" p-id="81359"></path><path d="M362.1888 637.3888a5.12 5.0176 0 1 0 10.24 0 5.12 5.0176 0 1 0-10.24 0Z" fill="#000000" p-id="81360"></path><path d="M362.1888 652.3904a5.12 5.0176 0 1 0 10.24 0 5.12 5.0176 0 1 0-10.24 0Z" fill="#000000" p-id="81361"></path><path d="M547.072 715.7248a5.12 5.0176 0 1 0 10.24 0 5.12 5.0176 0 1 0-10.24 0Z" fill="#000000" p-id="81362"></path><path d="M535.7056 714.4448a5.12 5.0176 0 1 0 10.24 0 5.12 5.0176 0 1 0-10.24 0Z" fill="#000000" p-id="81363"></path><path d="M649.472 615.4752a5.12 5.0176 0 1 0 10.24 0 5.12 5.0176 0 1 0-10.24 0Z" fill="#000000" p-id="81364"></path><path d="M643.2256 629.1968a5.12 5.0176 0 1 0 10.24 0 5.12 5.0176 0 1 0-10.24 0Z" fill="#000000" p-id="81365"></path><path d="M648.9088 649.9328a5.12 5.0176 0 1 0 10.24 0 5.12 5.0176 0 1 0-10.24 0Z" fill="#000000" p-id="81366"></path><path d="M677.632 617.6256a5.12 5.0176 0 1 0 10.24 0 5.12 5.0176 0 1 0-10.24 0Z" fill="#000000" p-id="81367"></path><path d="M671.3856 631.3984a5.12 5.0176 0 1 0 10.24 0 5.12 5.0176 0 1 0-10.24 0Z" fill="#000000" p-id="81368"></path><path d="M677.0688 652.0832a5.12 5.0176 0 1 0 10.24 0 5.12 5.0176 0 1 0-10.24 0Z" fill="#000000" p-id="81369"></path><path d="M692.992 622.6432a5.12 5.0176 0 1 0 10.24 0 5.12 5.0176 0 1 0-10.24 0Z" fill="#000000" p-id="81370"></path><path d="M686.7456 631.3984a5.12 5.0176 0 1 0 10.24 0 5.12 5.0176 0 1 0-10.24 0Z" fill="#000000" p-id="81371"></path><path d="M692.4288 652.0832a5.12 5.0176 0 1 0 10.24 0 5.12 5.0176 0 1 0-10.24 0Z" fill="#000000" p-id="81372"></path><path d="M700.1088 649.9328a5.12 5.0176 0 1 0 10.24 0 5.12 5.0176 0 1 0-10.24 0Z" fill="#000000" p-id="81373"></path><path d="M802.5088 549.632a5.12 5.0176 0 1 0 10.24 0 5.12 5.0176 0 1 0-10.24 0Z" fill="#000000" p-id="81374"></path></svg>