<?xml version="1.0" standalone="no"?><!DOCTYPE svg PUBLIC "-//W3C//DTD SVG 1.1//EN" "http://www.w3.org/Graphics/SVG/1.1/DTD/svg11.dtd"><svg t="1750181291202" class="icon" viewBox="0 0 1109 1024" version="1.1" xmlns="http://www.w3.org/2000/svg" p-id="53118" xmlns:xlink="http://www.w3.org/1999/xlink" width="216.6015625" height="200"><path d="M394.752 0h256a128 128 0 0 1 128 128h192a64 64 0 0 1 0 128H74.752a64 64 0 1 1 0-128h192a128 128 0 0 1 128-128z m448 320a64 64 0 0 1 64 64v576a64 64 0 0 1-64 64h-640a64 64 0 0 1-64-64V384a64 64 0 0 1 64-64h640z m-512 256V768a64 64 0 1 0 128 0V576a64 64 0 0 0-128 0z m256 0V768a64 64 0 1 0 128 0V576a64 64 0 0 0-128 0z" fill="#9CA3BB" p-id="53119"></path></svg>