<?xml version="1.0" standalone="no"?><!DOCTYPE svg PUBLIC "-//W3C//DTD SVG 1.1//EN" "http://www.w3.org/Graphics/SVG/1.1/DTD/svg11.dtd"><svg t="1750974570735" class="icon" viewBox="0 0 1024 1024" version="1.1" xmlns="http://www.w3.org/2000/svg" p-id="117666" xmlns:xlink="http://www.w3.org/1999/xlink" width="256" height="256"><path d="M306.74 557.26L200 664l-49.38-49.38a32 32 0 0 0-45.24 0l-35.08 35.06a32 32 0 0 0-5.58 37.74l63.28 118-118.62 118.7a32 32 0 0 0 0 45.26l45.24 45.24a32 32 0 0 0 45.26 0L218.5 896l118 63.28a32 32 0 0 0 37.74-5.58l35.06-35.08a32 32 0 0 0 0-45.24L360 824l106.74-106.74zM993.58 0.28l-156.22 26.4-280 280 160 160 280-280 26.4-156.22A26.66 26.66 0 0 0 993.58 0.28z" opacity=".4" p-id="117667"></path><path d="M778.74 618.76l-592-592L30.44 0.28A26.64 26.64 0 0 0 0.28 30.44l26.4 156.22 592 592.1z m235.88 305.36L896 805.5l63.28-118a32 32 0 0 0-5.58-37.74l-35.08-35.06a32 32 0 0 0-45.26 0L614.62 873.38a32 32 0 0 0 0 45.24l35.06 35.08a32 32 0 0 0 37.74 5.58l118-63.28 118.62 118.62a32 32 0 0 0 45.26 0l45.24-45.24a32 32 0 0 0 0.08-45.26z" p-id="117668"></path></svg>