<?xml version="1.0" standalone="no"?><!DOCTYPE svg PUBLIC "-//W3C//DTD SVG 1.1//EN" "http://www.w3.org/Graphics/SVG/1.1/DTD/svg11.dtd"><svg t="1749163205264" class="icon" viewBox="0 0 1024 1024" version="1.1" xmlns="http://www.w3.org/2000/svg" p-id="18738" xmlns:xlink="http://www.w3.org/1999/xlink" width="200" height="200"><path d="M286.08 550.016a40.128 40.128 0 0 0-39.808 40.448l-11.008 195.328a51.2 51.2 0 0 0 50.816 51.52 51.2 51.2 0 0 0 50.816-51.52l-10.944-195.328a40.128 40.128 0 0 0-39.872-40.448zM737.92 473.984a40.128 40.128 0 0 0 39.808-40.384l10.944-195.392a51.2 51.2 0 0 0-50.752-51.52 51.2 51.2 0 0 0-50.816 51.52l10.944 195.392c0 22.336 17.856 40.384 39.872 40.384z" fill="#4C6686" p-id="18739"></path><path d="M340.48 156.736s-11.392-11.776-18.56-16.896a61.12 61.12 0 0 0-73.728 1.024c-1.92 1.984-10.176 9.408-17.024 16.384-42.88 40.576-113.152 146.56-134.656 202.048-3.392 8.384-10.752 29.696-11.2 41.088 0 10.88 2.432 21.312 7.296 31.168a63.616 63.616 0 0 0 30.272 27.712c8.768 3.52 35.136 8.96 35.584 8.96 28.8 5.44 75.648 8.384 127.36 8.384 49.28 0 94.208-2.944 123.52-7.424 0.448-0.512 33.088-5.888 44.352-11.904a62.464 62.464 0 0 0 33.216-54.912v-1.92c-0.512-14.912-13.248-46.08-13.696-46.08-21.44-52.544-88.32-156.032-132.736-197.632zM931.392 592.448a63.808 63.808 0 0 0-30.272-27.712 317.824 317.824 0 0 0-35.584-8.96c-28.8-5.44-75.648-8.384-127.36-8.384-49.28 0-94.208 2.944-123.52 7.424-0.448 0.448-33.088 5.952-44.352 11.904a62.4 62.4 0 0 0-33.216 54.976v1.92c0.512 14.912 13.184 46.08 13.696 46.08 21.44 52.48 88.32 156.032 132.736 197.568 0 0 11.392 11.776 18.56 16.832a61.184 61.184 0 0 0 73.728-0.96c1.92-1.984 10.176-9.408 17.024-16.32 42.88-40.64 113.152-146.56 134.592-202.048 3.456-8.448 10.816-29.76 11.264-41.088 0-10.88-2.432-21.376-7.296-31.232z" fill="#4C6686" opacity=".45" p-id="18740"></path></svg>