<?xml version="1.0" standalone="no"?><!DOCTYPE svg PUBLIC "-//W3C//DTD SVG 1.1//EN" "http://www.w3.org/Graphics/SVG/1.1/DTD/svg11.dtd"><svg t="1751351091796" class="icon" viewBox="0 0 1575 1024" version="1.1" xmlns="http://www.w3.org/2000/svg" p-id="20732" data-spm-anchor-id="a313x.search_index.0.i10.3fe43a81o5fKlm" xmlns:xlink="http://www.w3.org/1999/xlink" width="393.75" height="256"><path d="M1493.439212 504.615385s0.393846-1.083077 0.984616-3.052308c0.590769-1.969231 1.476923-4.726154 2.461538-8.073846 0.984615-3.347692 2.264615-7.286154 3.446154-11.52 1.083077-4.233846 2.264615-8.763077 3.347692-13.292308 2.461538-9.058462 3.938462-18.215385 5.513846-25.107692 1.181538-6.892308 1.870769-11.52 1.87077-11.52 9.747692 0.886154 19.495385-1.083077 28.84923-6.006154 9.058462-4.923077 17.526154-12.898462 24.615385-23.926154 12.504615-24.812308 14.473846-46.670769 5.12-70.990769-28.061538 18.609231-44.996923 40.172308-54.252308 65.969231 0 0 0.196923-2.56 0.393847-6.4s0.787692-8.96 0.787692-13.981539c0.098462-5.12 0.196923-10.24 0.295384-14.08 0.098462-3.84 0-6.4 0-6.4l0.295385-3.741538c8.566154-5.415385 15.064615-13.390769 19.003077-23.335385 2.067692-4.923077 3.643077-10.436923 4.726154-16.246154 0.984615-5.809231 1.575385-12.110769 1.969231-18.609231-0.984615-16.541538-5.513846-29.932308-12.898462-40.96-5.907692-8.664615-13.686154-15.950769-23.04-21.956923-24.812308 46.473846-18.215385 83.003077 2.56 124.849231-0.098462 0.098462-0.098462 0.295385-0.196923 0.393846 0 0 0.196923 2.363077 0 5.809231-0.098462 3.544615-0.196923 8.172308-0.295385 12.898462 0 4.627692-0.393846 9.353846-0.68923 12.898461-0.196923 3.544615-0.393846 5.809231-0.393847 5.809231-1.870769-8.467692-5.218462-16.147692-9.944615-23.138462-2.166154-3.249231-4.627692-6.301538-7.384615-9.156923-8.861538-8.96-20.283077-16.049231-34.461539-20.873846-7.483077 20.184615-5.809231 35.052308 2.855385 55.729231 1.28 2.264615 2.658462 4.529231 4.036923 6.695385 4.233846 6.301538 9.255385 11.716923 14.867692 16.147692 7.384615 5.907692 15.950769 10.043077 25.501539 11.716923 0 0-0.689231 4.332308-1.772308 10.830769-1.476923 6.498462-2.953846 15.163077-5.12 23.729231-2.166154 8.566154-4.233846 17.132308-6.301538 23.433846l-3.249231 10.535385c0.590769-15.950769-3.643077-30.916923-12.504616-43.913846-6.990769-10.24-16.738462-19.396923-29.144615-26.978462-12.701538 19.692308-14.769231 35.741538-10.732308 59.963077 2.658462 9.452308 6.498462 18.116923 11.52 25.501538 6.793846 10.043077 15.753846 17.92 26.88 22.744616l-1.083077 2.756923c-0.787692 1.673846-1.870769 4.135385-3.24923 7.089231-2.56 5.907692-6.203077 13.686154-10.24 21.366153-3.741538 7.778462-8.073846 15.163077-11.323077 20.775385-3.150769 5.710769-5.415385 9.255385-5.415385 9.255385 7.089231-24.123077 3.150769-48.246154-11.421538-69.809231-4.036923-6.006154-8.96-11.815385-14.769231-17.427692-18.116923 17.92-24.024615 34.363077-25.895385 60.947692 0.590769 12.701538 2.953846 24.418462 7.68 34.953846 1.772308 4.036923 3.938462 7.778462 6.301539 11.323077 3.938462 5.809231 8.664615 10.929231 14.375384 15.261538 0 0-10.24 13.981538-21.464615 27.076924-5.612308 6.596923-11.52 12.898462-15.852308 17.723076-4.529231 4.627692-7.581538 7.68-7.581538 7.68 16.246154-28.16 14.966154-60.553846-4.036923-91.470769-21.661538 13.292308-31.507692 27.864615-39.68 53.464616-1.181538 6.301538-2.067692 12.406154-2.264616 18.412307-0.295385 9.058462 0.886154 18.116923 3.15077 26.289231a62.227692 62.227692 0 0 0 11.52 22.252308s-3.347692 2.756923-8.27077 6.990769c-5.218462 3.938462-11.913846 9.452308-19.003077 14.473846-7.187692 4.923077-14.08 10.141538-19.692307 13.489231-5.513846 3.544615-9.156923 5.809231-9.156923 5.809231 22.449231-23.827692 29.341538-55.532308 18.313846-90.584616-24.123077 7.778462-36.923077 19.987692-51.101539 43.027693-11.027692 22.941538-13.784615 47.261538-4.430769 68.430769 0 0-0.984615 0.492308-2.658461 1.378461-1.673846 0.886154-4.135385 2.067692-7.089231 3.446154-5.907692 2.56-13.686154 6.596923-21.76 9.747693-8.073846 3.150769-15.950769 6.695385-22.153846 8.664615-6.104615 2.166154-10.24 3.544615-10.24 3.544615 27.372308-17.92 41.649231-47.556923 39.68-84.381538-3.150769 0.295385-6.104615 0.689231-8.96 1.181538-2.855385 0.492308-5.612308 0.984615-8.369231 1.673846-5.316923 1.28-10.043077 3.446154-14.867692 5.71077-4.726154 2.363077-9.255385 5.415385-13.686154 9.058461-4.627692 3.446154-9.156923 7.581538-13.981539 12.504616-8.073846 9.944615-14.178462 20.775385-17.821538 32-3.643077 11.027692-4.824615 22.646154-2.855385 34.067692 0 0-4.233846 0.984615-10.535384 2.56-6.4 1.181538-14.867692 2.855385-23.335385 4.430769-8.566154 1.181538-17.033846 2.461538-23.433846 3.249231l-10.732308 0.984615c2.953846-1.083077 5.809231-2.264615 8.566154-3.544615 3.84-1.772308 7.581538-4.036923 11.126154-6.4 6.990769-4.824615 13.193846-10.24 18.510769-17.132308 4.923077-6.203077 9.156923-13.095385 12.603077-20.775384 3.347692-7.778462 5.907692-16.246154 7.778461-25.403077-24.615385-3.84-41.550769 1.083077-64.68923 15.36-5.12 4.135385-9.747692 8.172308-13.981539 12.701538-4.135385 4.529231-7.876923 9.353846-10.929231 14.375385-6.203077 9.944615-10.24 20.972308-11.027692 32.590769 0 0-4.332308 0-10.732308-0.098462-6.4-0.196923-14.966154-0.787692-23.532307-1.181538-8.566154-0.886154-17.033846-1.772308-23.335385-2.363077-6.301538-0.984615-10.535385-1.575385-10.535384-1.575385 32.295385-3.643077 58.584615-23.630769 74.141538-57.796923-22.744615-9.550769-40.270769-8.861538-66.067692-0.393846-5.907692 2.855385-11.421538 5.710769-16.541539 9.156923-5.12 3.446154-9.846154 7.286154-14.08 11.52-8.467692 8.270769-14.966154 18.116923-18.609231 29.341539 0 0-4.135385-1.083077-10.338461-2.56-6.104615-1.673846-14.178462-4.233846-22.350769-6.695385-7.975385-2.855385-16.049231-5.612308-21.956923-7.876923-5.809231-2.461538-9.747692-4.036923-9.747693-4.036923 32 4.036923 62.227692-9.353846 85.464616-39.089231-19.593846-14.769231-36.627692-18.215385-63.606154-15.950769-7.68 1.575385-14.867692 3.741538-21.76 6.596923-4.430769 1.870769-8.763077 3.938462-12.8 6.498462-10.043077 6.104615-18.707692 14.178462-24.910769 24.32 0 0-0.196923-0.098462-0.295385-0.196923 0 0-0.098462 0-0.098462-0.098462-0.984615-0.492308-4.233846-2.264615-8.861538-4.726154-2.953846-1.772308-6.4-3.84-10.141538-6.006154-1.181538 2.166154-2.56 4.332308-3.643077 6.695385 3.446154 2.067692 6.695385 3.938462 9.452307 5.612308 5.907692 3.150769 9.944615 5.218462 9.944616 5.218461a57.796923 57.796923 0 0 0-6.695385 34.461539c0.590769 4.529231 1.772308 9.156923 3.544615 13.784615 1.969231 5.513846 4.726154 11.027692 8.369231 16.541538 1.476923 2.166154 3.052308 4.332308 4.824616 6.498462 23.335385 23.335385 48.246154 33.673846 80.738461 31.310769-5.612308-20.381538-13.292308-37.612308-23.138461-52.184615-8.96-13.193846-19.692308-24.32-32.295385-33.575385 0 0 4.135385 1.673846 10.338462 4.233846 6.203077 2.658462 14.769231 5.415385 23.236923 8.467693 8.566154 2.756923 17.230769 5.316923 23.72923 7.187692l10.929231 2.756923c-2.953846 11.52-2.56 23.335385 1.772308 34.756923 1.575385 4.135385 3.741538 8.172308 6.4 12.209231 0.984615 1.476923 2.067692 2.855385 3.150769 4.233846 4.135385 5.316923 9.353846 10.535385 15.655385 15.064615 28.455385 17.033846 55.433846 21.169231 86.744615 11.126154-2.756923-4.923077-5.710769-9.550769-8.664615-13.981538-18.215385-26.88-39.975385-44.701538-66.461539-55.630769 0 0 4.529231 0.689231 11.224616 1.673846 6.695385 1.083077 15.852308 1.673846 24.812307 2.658461 9.058462 0.590769 18.116923 1.083077 25.009231 1.378462 6.892308 0 11.421538 0.098462 11.421539 0.098461-0.098462 11.421538 2.953846 22.350769 9.550769 32.196923l0.590769 0.886154c3.544615 4.923077 7.975385 9.452308 13.390769 13.587693 5.415385 4.135385 11.716923 7.975385 19.003077 10.732307 32.098462 9.649231 59.470769 7.187692 87.630769-9.944615-6.990769-7.187692-13.981538-13.587692-21.16923-19.003077-7.286154-5.710769-14.572308-10.535385-22.055385-14.473846-14.966154-8.073846-30.621538-13.095385-47.261538-15.556923 0 0 4.529231-0.393846 11.323076-1.083077 6.793846-0.492308 15.852308-2.166154 24.91077-3.347692 9.058462-1.476923 18.018462-3.347692 24.812307-4.627693 6.695385-1.575385 11.126154-2.658462 11.126154-2.658461 1.575385 6.596923 4.233846 12.603077 7.975385 18.116923 2.756923 4.036923 6.104615 7.876923 10.141538 11.224615 9.353846 7.778462 21.956923 13.390769 37.612308 15.753846 8.369231 0.393846 16.344615 0.098462 23.926154-0.68923 7.483077-1.083077 14.572308-2.855385 21.464615-5.12 6.892308-2.264615 13.292308-5.710769 19.593846-9.649231 3.150769-2.067692 6.301538-4.135385 9.353847-6.596923 2.953846-2.461538 6.006154-5.218462 8.861538-8.073846-16.935385-10.535385-33.870769-18.116923-50.313846-22.055385-8.369231-2.264615-16.64-3.643077-24.910769-4.135385-8.270769-0.492308-16.738462-0.689231-25.206154 0.295385 0 0 4.332308-1.476923 10.830769-3.741539 6.596923-2.166154 15.064615-5.612308 23.630769-9.156923 8.566154-3.249231 16.836923-7.483077 23.138462-10.24 3.150769-1.476923 5.710769-2.658462 7.483077-3.643077 1.772308-0.886154 2.855385-1.476923 2.855384-1.476923 0.984615 1.870769 2.067692 3.741538 3.249231 5.513847 11.716923 17.329231 33.083077 27.470769 62.129231 25.00923 33.476923-6.301538 56.812308-21.070769 74.338461-48.738461-38.596923-12.209231-72.369231-12.307692-104.664615-1.28 0 0 3.938462-2.461538 9.747692-6.203077 5.907692-3.544615 13.390769-8.96 20.972308-14.276923 7.581538-5.218462 14.670769-11.126154 20.184615-15.36 5.415385-4.332308 8.861538-7.384615 8.861539-7.384616 7.778462 8.664615 17.92 14.670769 30.030769 17.329231 6.104615 1.28 12.504615 1.575385 19.495385 1.083077 6.892308-0.590769 14.375385-1.969231 21.858461-4.627692 31.113846-14.08 50.609231-33.673846 61.046154-64.492308-41.058462-2.855385-73.846154 5.218462-102.892308 23.532308 0 0 3.249231-3.249231 8.073847-8.172308 4.824615-4.923077 10.830769-11.913846 17.033846-18.707692 5.809231-7.187692 11.815385-14.08 15.852307-19.692308 4.135385-5.513846 6.892308-9.156923 6.892308-9.156923 9.747692 6.498462 21.267692 9.944615 33.575385 9.550769 12.406154-0.393846 26.092308-4.529231 39.68-13.095384 27.076923-20.873846 41.255385-44.307692 44.012307-76.406154-40.763077 6.892308-70.892308 22.449231-94.916923 46.867692 0 0 0.590769-0.984615 1.673846-2.658461 1.083077-1.673846 2.56-4.135385 4.233847-7.089231 3.347692-6.006154 8.073846-13.883077 12.012307-22.055385 2.067692-4.036923 4.135385-8.172308 6.104616-12.012308 1.772308-3.938462 3.446154-7.581538 4.824615-10.633846 1.378462-3.150769 2.658462-5.710769 3.446154-7.581538 0.787692-1.870769 1.181538-2.855385 1.181538-2.855385 10.141538 3.544615 20.972308 4.036923 32 1.083077 11.224615-2.855385 22.055385-9.452308 32.492308-19.593846 19.692308-23.729231 27.372308-46.966154 23.433846-75.618462-34.166154 13.883077-57.698462 33.28-74.043077 59.273847zM762.362289 771.446154c-4.726154 2.461538-7.975385 4.233846-8.861538 4.726154 0 0-0.098462 0-0.098462 0.098461-0.098462 0.098462-0.295385 0.196923-0.295384 0.196923-6.203077-10.141538-14.867692-18.215385-24.91077-24.32-4.036923-2.56-8.369231-4.627692-12.8-6.498461-6.793846-2.855385-13.981538-5.021538-21.76-6.596923-26.978462-2.264615-44.012308 1.181538-63.606153 15.950769 23.236923 29.735385 53.464615 43.126154 85.464615 39.089231 0 0-3.938462 1.575385-9.747692 4.036923-5.907692 2.264615-13.981538 5.021538-21.956923 7.876923-8.172308 2.461538-16.246154 5.021538-22.35077 6.695384-6.203077 1.575385-10.338462 2.56-10.338461 2.56-3.643077-11.224615-10.141538-21.070769-18.609231-29.341538-4.233846-4.233846-8.96-8.073846-14.08-11.52-5.218462-3.446154-10.732308-6.4-16.64-9.156923-25.796923-8.566154-43.323077-9.255385-66.067692 0.393846 15.556923 34.067692 41.944615 54.055385 74.141538 57.796923 0 0-4.233846 0.689231-10.535384 1.575385-6.4 0.689231-14.867692 1.575385-23.335385 2.363077-8.566154 0.393846-17.033846 0.984615-23.532308 1.181538-6.4 0-10.732308 0.098462-10.732307 0.098462-0.886154-11.716923-4.824615-22.646154-11.027693-32.59077-3.052308-5.12-6.793846-9.944615-10.929231-14.375384-4.135385-4.529231-8.861538-8.566154-13.981538-12.701539-23.236923-14.276923-40.073846-19.2-64.689231-15.36 1.772308 9.058462 4.332308 17.526154 7.778462 25.403077 3.446154 7.581538 7.581538 14.473846 12.603077 20.775385 5.316923 6.892308 11.52 12.307692 18.510769 17.132308 3.544615 2.461538 7.187692 4.627692 11.126154 6.4 2.756923 1.28 5.612308 2.461538 8.566154 3.544615l-10.732308-0.984615c-6.4-0.689231-14.966154-2.067692-23.433846-3.249231-8.467692-1.575385-16.935385-3.249231-23.335385-4.430769-6.301538-1.476923-10.535385-2.56-10.535384-2.56 1.969231-11.421538 0.787692-23.04-2.855385-34.067693-3.643077-11.224615-9.747692-22.055385-17.821539-32-4.824615-4.923077-9.353846-9.058462-13.981538-12.504615-4.529231-3.741538-8.96-6.695385-13.686154-9.058462-4.824615-2.264615-9.550769-4.430769-14.867692-5.710769-2.658462-0.689231-5.415385-1.181538-8.369231-1.673846-2.855385-0.492308-5.809231-0.886154-8.96-1.181538-1.969231 36.824615 12.307692 66.461538 39.68 84.381538 0 0-4.135385-1.476923-10.24-3.544615-6.203077-1.969231-14.178462-5.513846-22.153846-8.664616-8.073846-3.052308-15.852308-7.187692-21.76-9.747692-2.953846-1.28-5.415385-2.56-7.089231-3.446154-1.673846-0.886154-2.658462-1.378462-2.658461-1.378461 9.353846-21.169231 6.596923-45.489231-4.43077-68.43077-14.276923-23.04-26.978462-35.150769-51.101538-43.027692-11.027692 35.052308-4.135385 66.756923 18.313846 90.584615 0 0-3.643077-2.363077-9.156923-5.80923-5.612308-3.347692-12.504615-8.566154-19.692308-13.489231-7.089231-5.021538-13.784615-10.535385-19.003077-14.473846l-8.270769-6.99077c0.886154-0.984615 1.673846-2.067692 2.363077-3.150769 4.036923-5.809231 7.286154-12.209231 9.156923-19.101538 2.166154-8.172308 3.446154-17.230769 3.150769-26.289231-0.196923-6.006154-1.083077-12.012308-2.264615-18.412308-8.172308-25.6-18.018462-40.172308-39.68-53.464615-19.003077 30.916923-20.283077 63.310769-4.036923 91.470769 0 0-3.052308-3.052308-7.581539-7.68-4.332308-4.824615-10.24-11.224615-15.852307-17.723077-11.224615-13.193846-21.464615-27.076923-21.464616-27.076923 5.710769-4.332308 10.436923-9.452308 14.375385-15.261538 2.363077-3.544615 4.529231-7.384615 6.301538-11.323077 4.726154-10.535385 7.089231-22.252308 7.68-34.953846-1.772308-26.584615-7.778462-43.027692-25.895384-60.947693-5.710769 5.612308-10.633846 11.421538-14.769231 17.427693-14.572308 21.563077-18.609231 45.686154-11.421538 69.80923 0 0-2.363077-3.643077-5.415385-9.255384-3.150769-5.612308-7.483077-13.095385-11.323077-20.775385-4.036923-7.581538-7.581538-15.458462-10.24-21.366154-1.378462-2.953846-2.461538-5.415385-3.249231-7.08923l-1.083077-2.756924c11.126154-4.923077 20.086154-12.8 26.88-22.744615 5.021538-7.483077 8.861538-16.049231 11.52-25.501538 3.938462-24.221538 1.969231-40.270769-10.732307-59.963077-12.406154 7.581538-22.153846 16.738462-29.144616 26.978461a72.516923 72.516923 0 0 0-12.504615 43.913846s-1.28-4.233846-3.249231-10.535384c-1.870769-6.793846-3.938462-15.36-6.104615-23.926154-2.166154-8.566154-3.741538-17.230769-5.12-23.729231-1.083077-6.498462-1.772308-10.830769-1.772308-10.830769 9.550769-1.673846 18.116923-5.809231 25.501539-11.716923 5.612308-4.430769 10.633846-9.846154 14.867692-16.147692 1.476923-2.067692 2.756923-4.332308 4.036923-6.695385 8.664615-20.676923 10.338462-35.544615 2.855385-55.729231-14.178462 4.824615-25.6 11.913846-34.461539 20.873846-2.756923 2.855385-5.218462 5.907692-7.384615 9.156923-4.726154 6.990769-8.073846 14.670769-9.944616 23.138462 0 0-0.196923-2.363077-0.393846-5.809231-0.196923-3.544615-0.590769-8.172308-0.689231-12.898461-0.098462-4.726154-0.196923-9.353846-0.295384-12.898462-0.098462-3.446154 0-5.809231 0-5.809231 0-0.098462 0-0.196923-0.098462-0.393846 20.775385-41.846154 27.372308-78.375385 2.56-124.849231-9.353846 6.104615-17.132308 13.292308-23.04 21.956923-7.384615 11.027692-11.913846 24.32-12.898461 40.96 0.393846 6.498462 0.984615 12.8 1.96923 18.609231 1.083077 5.809231 2.756923 11.323077 4.726154 16.246154 3.84 9.944615 10.436923 18.018462 19.003077 23.335385l0.295385 3.741538s-0.196923 2.56 0 6.4c0.098462 3.84 0.196923 8.96 0.295384 14.08 0 5.12 0.590769 10.24 0.787693 13.981539 0.295385 3.84 0.393846 6.4 0.393846 6.4-9.255385-25.796923-26.190769-47.36-54.252308-65.969231-9.353846 24.32-7.483077 46.08 5.12 70.990769 7.089231 11.027692 15.556923 19.003077 24.615385 23.926154 9.255385 4.923077 19.003077 6.892308 28.849231 6.006154 0 0 0.787692 4.627692 1.870769 11.52 1.476923 6.793846 3.052308 16.049231 5.513846 25.107692 1.083077 4.529231 2.264615 9.058462 3.347692 13.292308 1.181538 4.233846 2.461538 8.172308 3.446154 11.52 0.984615 3.347692 1.870769 6.203077 2.461539 8.073846 0.590769 1.969231 0.984615 3.052308 0.984615 3.052308-16.344615-25.993846-39.876923-45.390769-74.633846-59.076923-4.036923 28.652308 3.741538 51.889231 23.433846 75.618461 10.436923 10.141538 21.366154 16.738462 32.492308 19.593846 11.027692 2.953846 21.858462 2.461538 32-1.083077 0 0 0.393846 1.083077 1.181538 2.855385 0.787692 1.870769 1.969231 4.430769 3.446154 7.581538 1.378462 3.150769 3.052308 6.793846 4.824615 10.633847 1.870769 3.84 4.036923 7.876923 6.104616 12.012307 4.036923 8.270769 8.763077 16.049231 12.012307 22.055385 1.673846 3.052308 3.150769 5.415385 4.233847 7.089231 1.083077 1.673846 1.673846 2.658462 1.673846 2.658461-24.024615-24.418462-54.153846-39.975385-94.916923-46.867692 2.756923 32.098462 16.935385 55.532308 44.012307 76.406154 13.587692 8.566154 27.273846 12.701538 39.68 13.095384 12.307692 0.492308 23.827692-3.052308 33.575385-9.550769 0 0 2.756923 3.643077 6.892308 9.156923 4.036923 5.612308 10.141538 12.504615 15.852307 19.692308 6.203077 6.793846 12.209231 13.784615 17.033847 18.707692s8.073846 8.172308 8.073846 8.172308c-29.046154-18.215385-61.833846-26.387692-102.892308-23.532308 10.436923 30.818462 29.833846 50.412308 61.046154 64.492308 7.483077 2.658462 14.966154 4.036923 21.858461 4.627692 6.990769 0.492308 13.390769 0.196923 19.495385-1.083077 12.209231-2.658462 22.252308-8.664615 30.030769-17.329231 0 0 3.446154 3.052308 8.861539 7.384616 5.513846 4.135385 12.603077 10.043077 20.184615 15.36 7.483077 5.316923 15.064615 10.732308 20.972308 14.276923 5.809231 3.741538 9.747692 6.203077 9.747692 6.203077-32.393846-11.027692-66.067692-10.929231-104.664615 1.28 17.526154 27.667692 40.96 42.535385 74.338461 48.738461 29.046154 2.461538 50.412308-7.68 62.129231-25.00923 1.181538-1.772308 2.264615-3.643077 3.249231-5.513847 0 0 0.984615 0.492308 2.855384 1.476924 1.772308 0.984615 4.332308 2.264615 7.483077 3.643076 6.301538 2.756923 14.572308 6.990769 23.138462 10.24 8.467692 3.544615 17.033846 6.990769 23.630769 9.156924 6.498462 2.264615 10.830769 3.741538 10.830769 3.741538-8.369231-0.984615-16.935385-0.787692-25.206154-0.295385-8.270769 0.492308-16.541538 1.870769-24.910769 4.135385-16.443077 3.938462-33.378462 11.618462-50.313846 22.055385 2.953846 2.855385 5.907692 5.513846 8.861539 8.073846 3.052308 2.461538 6.203077 4.529231 9.353846 6.596923 6.301538 3.938462 12.701538 7.384615 19.593846 9.649231 6.892308 2.363077 13.981538 4.135385 21.464615 5.12 7.581538 0.787692 15.556923 1.083077 23.926154 0.68923 15.655385-2.363077 28.356923-7.975385 37.612308-15.753846 3.938462-3.347692 7.384615-7.187692 10.141538-11.224615 3.741538-5.513846 6.4-11.618462 7.975385-18.116923l11.126154 2.658461c6.793846 1.28 15.753846 3.150769 24.812307 4.627693 9.058462 1.181538 18.116923 2.756923 24.91077 3.347692 6.990769 0.886154 11.618462 1.28 11.618461 1.28-16.738462 2.56-32.295385 7.483077-47.261538 15.556923-7.483077 3.938462-14.769231 8.763077-22.055385 14.473846-7.187692 5.415385-14.276923 11.815385-21.169231 19.003077 28.258462 17.132308 55.630769 19.593846 87.63077 9.944615 7.286154-2.855385 13.587692-6.596923 19.003076-10.732307 5.415385-4.135385 9.846154-8.664615 13.39077-13.587693l0.590769-0.886153c6.596923-9.747692 9.747692-20.775385 9.550769-32.196923 0 0 4.529231 0 11.421539-0.098462 6.793846-0.295385 15.950769-0.787692 25.00923-1.378462 9.058462-0.984615 18.116923-1.673846 24.812308-2.658461 6.695385-0.984615 11.224615-1.673846 11.224615-1.673846-26.584615 10.830769-48.344615 28.750769-66.461538 55.630769-2.953846 4.430769-5.907692 9.058462-8.664615 13.981538 31.310769 10.043077 58.289231 5.907692 86.744615-11.126153 6.301538-4.529231 11.52-9.649231 15.655385-15.064616 1.083077-1.378462 2.166154-2.855385 3.150769-4.233846 2.658462-3.938462 4.824615-8.073846 6.4-12.209231 4.430769-11.421538 4.824615-23.236923 1.772308-34.756923l10.92923-2.756923c6.498462-1.870769 15.163077-4.430769 23.729231-7.187692 8.467692-3.052308 17.033846-5.809231 23.236923-8.467692 6.203077-2.56 10.338462-4.233846 10.338462-4.233847-12.701538 9.353846-23.433846 20.381538-32.295385 33.575385-9.944615 14.670769-17.624615 31.901538-23.138461 52.184615 32.590769 2.363077 57.501538-7.975385 80.738461-31.310769 1.772308-2.166154 3.347692-4.233846 4.824615-6.498461 3.643077-5.415385 6.4-11.027692 8.369231-16.541539 1.673846-4.627692 2.855385-9.353846 3.544616-13.784615 1.378462-12.307692-0.984615-23.926154-6.695385-34.461539l9.944615-5.218461c2.756923-1.673846 6.006154-3.544615 9.452308-5.612308-1.083077-2.264615-2.461538-4.430769-3.643077-6.695385-3.643077 2.264615-7.187692 4.332308-10.043077 6.104616z" fill="#707070" p-id="20733" data-spm-anchor-id="a313x.search_index.0.i11.3fe43a81o5fKlm" class="selected"></path><path d="M1271.900751 442.781538L1250.633058 405.563077v19.790769l12.701539 22.252308c22.744615 39.68 22.744615 89.009231 0 128.689231L1250.633058 598.646154v19.790769l21.267693-37.218461c24.418462-42.732308 24.418462-95.803077 0-138.436924zM303.826905 581.218462L325.094597 618.436923V598.646154l-12.701539-22.252308c-22.646154-39.68-22.646154-89.009231 0-128.689231L325.094597 425.353846v-19.790769l-21.267692 37.218461c-24.418462 42.633846-24.418462 95.704615 0 138.436924zM605.316135 960c-45.390769 0-87.630769-24.615385-110.375384-64.295385l-18.609231-32.492307-16.836923-9.649231 26.88 46.966154c24.418462 42.732308 70.006154 69.316923 118.843077 69.316923h57.6l-17.230769-9.846154h-40.27077zM486.374597 123.470769l-26.88 46.966154 16.836923-9.649231 18.609231-32.492307C517.586905 88.615385 559.925366 64 605.316135 64h40.369231l17.230769-9.846154h-57.6c-48.935385 0-94.523077 26.584615-118.941538 69.316923zM1080.786905 895.704615c-22.744615 39.68-64.984615 64.295385-110.375385 64.295385h-40.369231l-17.230769 9.846154h57.6c48.836923 0 94.424615-26.584615 118.843077-69.316923l26.88-46.966154-16.836923 9.649231-18.510769 32.492307zM970.41152 54.153846h-57.6l17.230769 9.846154h40.369231c45.390769 0 87.630769 24.615385 110.375385 64.295385l18.60923 32.492307 16.836923 9.649231-26.88-46.966154c-24.516923-42.732308-70.006154-69.316923-118.941538-69.316923z" fill="#707070" p-id="20734" data-spm-anchor-id="a313x.search_index.0.i12.3fe43a81o5fKlm" class="selected"></path><path d="M1178.854597 206.276923l-62.72-35.84-16.836923-9.649231L930.042289 64l-17.230769-9.846154-53.267692-30.424615a144.856615 144.856615 0 0 0-143.36 0L662.916135 54.153846l-17.230769 9.846154-169.353846 96.787692-16.836923 9.649231-62.621539 35.84C352.565366 231.581538 325.094597 278.744615 325.094597 329.452308v365.095384c0 50.707692 27.470769 97.870769 71.778461 123.175385l62.621539 35.84 16.836923 9.649231 169.255385 96.787692 17.230769 9.846154 53.267692 30.523077c22.153846 12.603077 46.867692 19.003077 71.68 19.003077s49.624615-6.301538 71.68-19.003077l53.267692-30.523077 17.23077-9.846154 169.255384-96.787692 16.836923-9.649231 62.72-35.84c44.307692-25.304615 71.778462-72.467692 71.778462-123.175385V329.452308c0.098462-50.707692-27.372308-97.870769-71.68-123.175385zM1230.940751 390.892308v303.753846c0 43.618462-23.729231 84.283077-61.833846 106.043077l-33.673847 19.2-16.836923 9.649231L890.362289 960l-17.230769 9.846154-23.433846 13.390769c-38.203077 21.858462-85.661538 21.858462-123.864616 0l-23.433846-13.390769-17.230769-9.846154-228.036923-130.461538-16.836923-9.649231-33.575385-19.2C368.516135 778.830769 344.786905 738.166154 344.786905 694.547692V329.452308c0-43.618462 23.729231-84.283077 61.833846-106.043077l33.673846-19.2 16.836923-9.649231L685.365366 64l17.230769-9.846154 23.433847-13.390769c19.101538-10.929231 40.467692-16.443077 61.932307-16.443077 21.366154 0 42.830769 5.415385 61.932308 16.443077l23.433846 13.390769 17.230769 9.846154 228.233846 130.461538 16.836924 9.649231 33.673846 19.2c38.104615 21.858462 61.833846 62.424615 61.833846 106.043077v61.538462z" fill="#707070" p-id="20735" data-spm-anchor-id="a313x.search_index.0.i9.3fe43a81o5fKlm" class="selected"></path></svg>