<?xml version="1.0" standalone="no"?><!DOCTYPE svg PUBLIC "-//W3C//DTD SVG 1.1//EN" "http://www.w3.org/Graphics/SVG/1.1/DTD/svg11.dtd"><svg t="1748699615585" class="icon" viewBox="0 0 1024 1024" version="1.1" xmlns="http://www.w3.org/2000/svg" p-id="114639" xmlns:xlink="http://www.w3.org/1999/xlink" width="200" height="200"><path d="M213.4016 237.2096c-1.1264-59.6992 31.1808-115.3024 84.4288-145.4592a175.5136 175.5136 0 0 1 172.3392 0c53.248 30.1568 85.504 85.76 84.48 145.4592-1.6896 90.112-77.568 162.304-170.6496 162.304-93.0816 0-168.96-72.192-170.5984-162.304z m-16.1792 265.984a382.7712 382.7712 0 0 1 373.5552 0c3.584 2.048 8.0896 4.4544 13.2608 7.2192 22.6816 12.2368 57.6512 30.976 81.5104 53.248 14.9504 13.9264 29.6448 32.7168 32.3072 56.1152 2.8672 25.088-8.704 48.2816-30.8736 68.352-37.6832 34.304-83.2 61.952-142.2336 61.952H243.2512c-59.0336 0-104.5504-27.648-142.2336-61.952-22.1696-20.0704-33.792-43.264-30.8736-68.3008 2.6624-23.4496 17.408-42.24 32.256-56.1664 23.9104-22.272 58.88-41.0112 81.5616-53.248h0.0512l13.2096-7.2192z" fill="#DCE9FF" p-id="114640"></path><path d="M580.2496 487.7824c2.816 1.6384 5.9392 3.328 12.8 6.9632 20.1216 10.8544 30.5664 16.7424 43.52 24.8832 16.5376 10.2912 30.464 20.5312 41.7792 31.1296 21.2992 19.8656 34.9696 41.6256 37.888 67.072 3.4816 30.464-9.728 59.0336-36.608 83.3536-47.7184 43.4176-96.768 66.816-154.88 66.816H243.2512c-58.112 0-107.1616-23.3984-154.9312-66.7648-26.7776-24.3712-40.0384-52.9408-36.5568-83.3536 2.9184-25.4464 16.5888-47.2576 37.888-67.072 20.9408-19.6096 43.9296-33.792 85.3504-56.064l2.4064-1.3312 10.7008-5.8368a401.7664 401.7664 0 0 1 392.1408 0.2048z m-18.7392 30.8736a363.776 363.776 0 0 0-355.0208 0l-13.312 7.3728-4.3008 2.304-5.2224 2.7648c-29.7984 16.2816-48.4352 27.9552-63.8464 41.4208l-4.5568 4.096c-15.616 14.5408-24.9344 29.44-26.7776 45.2096-2.048 18.176 6.2464 36.096 25.1392 53.248 41.472 37.6832 82.176 57.088 129.6384 57.088h281.4976c47.4624 0 88.1152-19.456 129.6384-57.1392 18.8928-17.1008 27.1872-35.0208 25.088-53.248-1.792-15.7184-11.1104-30.6176-26.7264-45.2096a241.0496 241.0496 0 0 0-36.2496-26.88c-12.032-7.5264-22.016-13.1072-41.4208-23.552a462.4384 462.4384 0 0 1-13.568-7.4752zM288.4608 76.288a194.56 194.56 0 0 1 191.0784 0c58.9824 33.4336 94.7712 95.0784 93.5424 161.28-1.792 99.84-85.9648 179.8144-189.0816 179.8144-103.1168 0-187.2896-79.9744-189.0816-179.8144-1.2288-66.2016 34.56-127.8464 93.5424-161.28z m172.3904 30.9248a156.5184 156.5184 0 0 0-153.7024 0 146.3296 146.3296 0 0 0-75.264 129.6896c1.4848 80.2816 69.12 144.64 152.1152 144.64 82.944 0 150.6304-64.3584 152.1152-144.64a146.3296 146.3296 0 0 0-75.264-129.6896z" fill="#1A3F63" p-id="114641"></path><path d="M390.7584 356.7104c-1.2288-68.5568 36.1984-132.4032 97.9968-167.0656a205.6192 205.6192 0 0 1 200.0896 0c61.7984 34.6624 99.2256 98.5088 97.9968 167.0656-1.9456 103.424-90.0096 186.368-198.0416 186.368s-196.096-82.944-198.0416-186.368z m-18.7392 305.408a448.4096 448.4096 0 0 1 433.5616 0c4.1984 2.4064 9.3696 5.12 15.36 8.3456 26.368 13.9776 66.9184 35.5328 94.6176 61.1328 17.3568 15.9744 34.4064 37.5296 37.5296 64.4608 3.328 28.7744-10.1376 55.3984-35.84 78.4384-43.776 39.3728-96.6144 71.168-165.0688 71.168H425.4208c-68.4544 0-121.344-31.744-165.0688-71.1168-25.7024-23.0912-39.168-49.664-35.84-78.4384 3.072-26.9824 20.1728-48.5376 37.5296-64.512 27.648-25.6 68.1984-47.104 94.6176-61.1328l15.36-8.3456z" fill="#80ACF8" p-id="114642"></path><path d="M374.528 639.488a468.3776 468.3776 0 0 1 440.832 6.6048c3.328 1.8944 6.912 3.84 14.848 8.0384 23.3472 12.4416 35.4304 19.1488 50.4832 28.4672 18.9952 11.776 35.072 23.4496 48.128 35.5328 24.3712 22.528 40.0384 47.104 43.3664 75.8272 3.9424 34.4064-11.1616 66.6624-41.8816 94.208-55.04 49.4592-111.4112 76.0832-178.176 76.0832H425.472c-66.7648 0-123.1872-26.624-178.176-76.032-30.72-27.648-45.824-59.8528-41.8816-94.208 3.328-28.7232 18.944-53.4016 43.3664-75.8784 24.1152-22.272 50.7392-38.6048 98.6112-64l3.328-1.792 11.9296-6.4512 11.8784-6.4z m421.4784 38.7584a428.6976 428.6976 0 0 0-414.4128 0l-19.8656 10.8032h-0.1536l-5.7344 3.072c-35.4816 19.1488-57.4464 32.768-75.6736 48.5888l-4.9152 4.352c-18.432 17.0496-29.4912 34.5088-31.6928 53.0944-2.4576 21.504 7.424 42.5984 29.8496 62.72 48.4864 43.6224 96.256 66.1504 152.064 66.1504h326.656c55.808 0 103.5264-22.528 152.064-66.2016 22.4256-20.0704 32.3072-41.1648 29.8496-62.72-2.2016-18.5344-13.2608-35.9936-31.744-53.0432a281.7024 281.7024 0 0 0-42.2912-31.1296c-14.08-8.704-25.6512-15.1552-48.2304-27.136a537.344 537.344 0 0 1-15.7696-8.5504zM479.1296 173.568a225.3312 225.3312 0 0 1 219.3408 0c67.7888 38.0416 108.9536 108.1856 107.52 183.552-2.048 113.664-98.7648 204.5952-217.1904 204.5952-118.4256 0-215.0912-90.9824-217.1904-204.5952-1.4336-75.3664 39.7312-145.5104 107.52-183.552z m200.0896 32.256a185.856 185.856 0 0 0-180.8384 0c-55.808 31.232-89.5488 88.832-88.4224 150.6304 1.7408 93.184 81.2544 168.0384 178.8416 168.0384s177.1008-74.8032 178.8416-168.0384c1.1264-61.7984-32.6656-119.3472-88.4224-150.6304z" fill="#1A3F63" p-id="114643"></path></svg>