<?xml version="1.0" standalone="no"?><!DOCTYPE svg PUBLIC "-//W3C//DTD SVG 1.1//EN" "http://www.w3.org/Graphics/SVG/1.1/DTD/svg11.dtd"><svg t="1748699269956" class="icon" viewBox="0 0 1024 1024" version="1.1" xmlns="http://www.w3.org/2000/svg" p-id="87978" xmlns:xlink="http://www.w3.org/1999/xlink" width="200" height="200"><path d="M590.238476 217.478095c112.835048 0 199.387429 91.940571 201.118476 191.317334v9.703619c0 227.815619-107.27619 428.860952-274.870857 562.858666-26.819048 26.819048-67.047619 40.20419-107.27619 40.204191-93.866667 0-167.619048-73.703619-167.619048-160.816762 0-20.089905 6.704762-40.20419 13.409524-60.294095 93.866667-234.544762 0-281.429333 0-281.429334-46.933333-33.499429-80.457143-80.408381-80.457143-140.726857 0-86.235429 65.706667-152.771048 151.600762-160.597333l2.608762-0.219429h261.485714zM777.752381 147.163429a53.638095 53.638095 0 1 1 0.024381 107.251809 53.638095 53.638095 0 0 1-0.024381-107.251809zM230.64381 2.438095a96.52419 96.52419 0 1 1 0 192.975238A96.52419 96.52419 0 1 1 230.64381 2.438095zM643.657143 39.984762a69.729524 69.729524 0 1 1-69.729524 69.656381A69.729524 69.729524 0 0 1 643.657143 39.984762zM455.92381 7.801905a75.093333 75.093333 0 1 1-75.093334 75.044571A75.093333 75.093333 0 0 1 455.92381 7.801905z" fill="#4E4E4E" fill-opacity=".399" p-id="87979"></path><path d="M643.876571 217.478095c112.835048 0 199.387429 91.940571 201.118477 191.317334v9.703619c0 227.815619-107.27619 428.860952-274.870858 562.858666-26.819048 26.819048-67.047619 40.20419-107.27619 40.204191-93.866667 0-167.619048-73.703619-167.619048-160.816762 0-20.089905 6.704762-40.20419 13.409524-60.294095 93.866667-234.544762 0-281.429333 0-281.429334-46.933333-33.499429-80.457143-80.408381-80.457143-140.726857 0-86.235429 65.706667-152.771048 151.600762-160.597333l2.608762-0.219429h261.485714zM831.390476 147.163429a53.638095 53.638095 0 1 1 0.024381 107.251809 53.638095 53.638095 0 0 1-0.024381-107.251809zM284.281905 2.438095a96.52419 96.52419 0 1 1 0 192.975238A96.52419 96.52419 0 1 1 284.281905 2.438095zM697.295238 39.984762a69.729524 69.729524 0 1 1-69.729524 69.656381A69.729524 69.729524 0 0 1 697.295238 39.984762zM509.561905 7.801905a75.093333 75.093333 0 1 1-75.093334 75.044571A75.093333 75.093333 0 0 1 509.561905 7.801905z" fill="#4E4E4E" p-id="87980"></path></svg>