<?xml version="1.0" standalone="no"?><!DOCTYPE svg PUBLIC "-//W3C//DTD SVG 1.1//EN" "http://www.w3.org/Graphics/SVG/1.1/DTD/svg11.dtd"><svg t="1750305489621" class="icon" viewBox="0 0 1024 1024" version="1.1" xmlns="http://www.w3.org/2000/svg" p-id="111908" xmlns:xlink="http://www.w3.org/1999/xlink" width="200" height="200"><path d="M503.07 736.26c-6.26-2.52-15.7-0.79-18.74 6.14-0.19 0.43-0.41 0.83-0.62 1.24-7.72 2.7-14.47 9.6-16.44 17.49a15.56 15.56 0 0 0 16.8 19.29 19.51 19.51 0 0 0 21.16-7 18.08 18.08 0 0 0 3.62-12.42 50.24 50.24 0 0 0 2.9-7c2.25-7.07-2.07-15.08-8.68-17.74zM789.36 597.16c2-20.77 14.87-52.86-12.36-63-27.48-10.19-70.09 4.92-97.06 10.34-9 1.81-11.72 11.6-9.34 19.19-8.78 20.83-6.43 53.46-8.8 71.81-3.3 25.55-5.42 55.44 16.68 73.54 17.75 14.55 47.79 18.18 69.93 15.66 60.25-6.81 37.18-88.2 40.95-127.54z m-40.29 94c-14.68 9.71-48.29 4.85-58.78-10.24-10.17-14.64-4.11-39.62-3.13-56.18 0.77-13-3.1-39.07 2.56-52.86 19.56-3 38.75-7.39 58.56-8.67 18.87-1.21 14.84 5.08 12.17 22.44-3.65 23.83 10.7 90.95-11.38 105.55zM314.22 773.56c-12.84 14.31-22.54 31-35.1 45.45-8.1 9.34-19.16 18-21.67 30.69a3.09 3.09 0 0 0 2.93 3.85l5.05 0.18c3.83 0.14 3.76-5.64 0-5.91l-1-0.07c4-11.41 14.74-19.79 22-29.2 10.62-13.83 19.49-28.64 31.09-41.77 1.87-2.18-1.33-5.42-3.3-3.22zM308.72 824.37c-8.18 11.86-18.16 22.65-24.09 35.9a2.84 2.84 0 0 0 0.42 3.24 23.81 23.81 0 0 0 3.89 4.09c1.91 1.78 5.39-0.57 3.77-2.91-1-1.46-1.74-2.41-2.58-3.43 5.76-12.62 15-23.09 22.74-34.47 1.75-2.56-2.4-4.95-4.15-2.42zM349.6 825.16a300.86 300.86 0 0 1-20.6 39.59c-1.52 2.53 2.54 4.89 3.94 2.31a414.86 414.86 0 0 0 19.7-41.06c0.76-1.88-2.27-2.68-3.04-0.84zM369.33 858.91a15.68 15.68 0 0 0-5.85 12c-0.16 3.55 5.35 3.54 5.51 0s1.54-5.87 4.23-8.13-1.22-6.13-3.89-3.87zM170.14 455.29c0.72-2.25-2.21-3.7-3.8-2.21l-3.24 3c-1.34 1.25-0.47 2.81 0.84 3.33-4.55 12.9-8.45 26-12.92 38.93-4 11.6-9.37 32.43-9.17 44.95 0 1.68 1.4 13.31 3.11 13.31h4.56c3.87 0 3.83-16 0-16.18-4.57-0.24 7.22-36.45 8.39-40.31 4.01-13.25 8.03-31.6 12.23-44.82z" fill="#707070" p-id="111909"></path><path d="M875.89 386.23c-31.85-17.74-60.7-41-89.17-64.91 7.13-0.82 13.66-5.75 13.46-14.89-0.55-24.36-0.91-48.1 1.62-72.32 1.85-17.69 2.78-34.2-0.34-51.81-5.11-28.81-18.33-32.63-45.15-31.46-19.18 0.83-50.22-6.2-59 17.72-5 13.55 0.11 34.58 0.7 48.27a186.48 186.48 0 0 0 5.58 38.07c-2.13-1.48-4.19-3.08-6.34-4.52C636.7 210 581.68 162.66 523.71 119.7c-39.6-29.34-70.55 31.53-98.44 53.65-65.13 51.64-127.38 103.93-189 159.91C206.9 360 179 388.11 148.65 413.71c-24.49 20.65-58.43 44.67-75.75 72.36-9.79 15.66-12.52 27.26-2.95 42.79 8.24 13.37 26.35 27.31 36.56 38.31 4.15 4.47 7.18 11 13.06 13.43 18.35 7.54 28.41-4.53 40.24-17.22 4.9-5.26 9.76-11.1 14.65-17.2-0.38 7.84-0.23 16.52 0 26.49 1.71 62.47 7.93 124.75 9.8 187 1.15 38.29 3.34 86.27 24.36 119.81 19 30.39 76.43 30.55 108.31 31 23.41 0.37 66.77 4.5 95.8-5.69 34.76 0.92 70.49 6 103.56 5.86 24.06-0.13 49 2.71 72.82 0.74 9.88-0.82 19.51-3.09 29.11-5.59 15.84 1.27 34.43-2.69 49.32-2.56 48.46 0.42 102.13 2.37 148.84-14.21 45-16 41.75-63.55 44.87-105.18 4.53-60.38 2-121.14 0.91-181.61-0.36-19.41 3.46-45.35 3-69.87 7.69 11.61 16.12 24.07 28.15 27.64 12.82 3.81 21.79 0.92 30.69-9.35 6.84-7.89 8.59-24.05 12.35-33 6.09-14.51 15.09-28 20.64-42.78 17.66-47.15-46.64-69.46-81.1-88.65zM720.95 196.16c0.88-16.54-0.21-17.74 17.25-17.7 7.41 0 17.36-0.86 24.6 0 11.14 1.36 9.15 0 10.91 13.19s0.62 25.42-1 38.5c-3.19 25.47-3.12 50.55-3.69 76.2-16-13.51-32-26.93-48.57-39.41 0.98-23.41-0.77-47.05 0.5-70.78zM208.35 643.4c14.09-17.06 26-35.78 39.66-53.21 1.08 17 2.82 33.91 3.52 51-12.85 20.6-27.39 40.12-39.92 60.94-0.9-19.55-1.84-39.13-3.26-58.73z m3.65 67.75c0.05-0.08 0.13-0.12 0.17-0.21 12-22.3 26.42-43.14 39.55-64.78 0.19 6.92 0.19 13.87-0.17 20.9-0.46 8.92-0.68 17.66 0.92 25.19-6.13 8-11.91 16.34-17.83 24.61s-12.47 21.43-21 29.49c-0.55-11.73-1.09-23.46-1.64-35.2z m379.37 105.53c-1.11 18.91-9.16 42.18-5.48 61.31-30.14 4.12-64.91 2.72-95 3.7-17.3 0.56-34.4 0.51-51.5 1.84 15.81-28.69 13.66-82.75 14.5-110.91 1-32-0.82-64-1.18-96s-2.81-45.09 33.39-41.63c27.07 2.59 59.94 4 86.17 9.89 19.84 4.46 16.8-1.56 21.12 18.74 1.16 5.47-1.61 35-1.64 37.19-0.59 38.48 1.88 77.45-0.38 115.87z m237.25-122c-0.38 37.17 9.69 143.34-27.4 161.79-22.39 11.14-58.78 15.61-93.39 16 3.89-15.27 13-28.76 21.62-41.84 7.53-11.42 16.28-21.23 17.19-35.38 0.2-3-4.49-3-4.73 0-1.33 16.83-17 32.62-26 46.28-6.4 9.78-12.21 19.5-14.29 30.92-8.64 0-17.17-0.19-25.21-0.66 14.45-27.15 25.07-55.48 44.23-80 1.79-2.29-1.4-5.54-3.23-3.23-19.22 24.31-33.33 52.74-46.23 80.81a2.92 2.92 0 0 0-0.16 2.06c-2.89-0.21-5.73-0.44-8.48-0.7-2.81-4.79-7.58-8.07-14.09-7.2a168.4 168.4 0 0 0-22.12 4.83c-9.28-9.41-2.78-18.26-2.87-28.51-0.21-26.47 1.68-53.19 1.38-79.8-0.3-26.32-1.13-52.84-0.47-79.16 0.34-13.83 5.22-31 0.53-44.23-9.2-26-28.6-22.71-52.72-23.12-40.71-0.69-92.85-21.15-132.16-7.08-20.06 7.18-23.06 16.33-21.37 36.7 4.81 58.2 3.54 119.48-2.8 177.83-2.91 26.75-8.79 46.51-36.69 53.2-18.19 4.36-43.54 3.13-62.24 2.93-26.64-0.29-64 1-80.41-21.81a72.79 72.79 0 0 1-7.75-14.35c25.47-30.93 51.89-61.49 74.09-94.89 1.8-2.71-2.55-5.23-4.35-2.54-21.66 32.3-48.42 60.26-72.32 90.75-4.43-12.71-7.25-27.13-8.91-39.82 17.49-26.41 38.7-49.64 59.82-73.24 2-2.18-1.25-5.42-3.23-3.23-19.79 21.82-40.87 43.06-57.64 67.38-0.2-2.06-0.41-4.16-0.54-6-0.64-8.8-1.12-17.6-1.61-26.4 6.3-5.15 10.51-13.07 14.83-19.85 7.77-12.22 16-24.57 24.85-36.3 3.09 8.71 9.64 15.14 22.91 17.11 13.46 2 25.58-3.9 38.7-4.72 11.59-0.73 24 2.93 35.39-1 30.24-10.28 14.82-38.48 12.54-61.77-3.36-34.6-0.6-73.44-9.29-107.44-5.44-21.36-18.07-30.55-39.59-23.35-12.21 4.08-32.1 11.58-47 22.13-7.11-3.74-18.72-0.21-19.6 10.55a266.38 266.38 0 0 0-0.22 35.2c-13.93 16.93-25.88 35.38-39.87 52.22-0.36-4.48-0.59-9-1-13.45-0.53-5.62-1.37-11.93-2.26-18.43 6.84-18.45 21.7-33.38 32.79-49.28 1.81-2.59-2.41-5-4.22-2.46-9.74 13.66-22 26.49-30 41.47-1.24-9.34-2.41-19-2.87-28.21 20.42-24.31 37.28-51.47 56.42-76.77 1-1.38-1.29-3.2-2.41-1.86-19 22.68-35.67 47.13-54.23 70.14a88.94 88.94 0 0 1 1.59-17.82c5.1-24 35.53-42.76 53.78-57.26 66.29-52.67 134-105 197.75-161.4 8.76-7 17.53-13.85 26.38-20.44 26.89-20 38 4 59.33 21.35 14.45 11.8 29 23.63 43.75 35.11 43.67 34.09 92.84 60.11 140 88.86 20.34 12.41 40.12 25.65 61.71 35.84 15.72 7.42 35.9 10.26 44.79 26.76s-0.43 74.89-0.4 94.37c0.11 30.84 0.31 61.65 0 92.46zM334.89 581c1.2 26.23 1.27 52.94 3.11 79.08 1.58 22.45 7.15 19.76-16.84 20.81-9.88 0.43-33.49 9.67-42.49 3.87l-1.11-5.89a1.91 1.91 0 0 0-1.76-1.43c0.26-6.11 2-15 2.09-17.61a262.19 262.19 0 0 0-1.28-38.42c-2-20.08-4.3-38.94-4.15-58.71 2.45-3 6.16-5.87 12.09-9.33 8.05-4.69 17.22-8.35 25.68-12.22 29.36-13.43 23.77 19.64 24.66 39.85z m589.75-108.58c-1 4.37-23.71 56.72-24.69 56.93 2.6-0.55-42.32-50.8-45-53.06-23.52-19.49-50.74-33.38-78.59-45.5a14.3 14.3 0 0 0-14.52 1.52c-0.72-0.42-1.5-0.78-2.2-1.21-12.65-7.69-25.38-15.26-38.1-22.86a8.81 8.81 0 0 0-3.07-3.51c-19.62-12.9-38.81-25.07-57.49-38.16 7.33-12.26 8.49-28.15 19.25-38.53 1.91-1.84-0.95-4.65-2.9-2.9-11.08 10-14.36 25.13-21.32 38-6.8-4.85-13.52-9.86-20.16-15.11 8.05-16.13 16.81-32 29.29-45.17 1.85-1.95-1.08-4.89-3-3-12.6 13-21.87 28.89-30.49 44.84-3.71-3-7.39-6.07-11-9.26-2.65-2.31-5.14-4.79-7.73-7.18 1.4-3.17 2.8-6.35 4.39-9.51 7.09-14.16 16.59-27 23.63-41.17 1.63-3.3-3.28-6.21-5-2.9-6.51 12.82-14.85 24.46-21.9 37-2.22 3.94-4.07 8.07-5.93 12.19-19.59-18.65-37.55-38.9-56.54-58.13-14.63-14.81-26.7-21.93-37.93-22.09 0.25-0.55 0.44-1.09 0.7-1.64 1.22-2.6-2.63-4.88-3.88-2.27-0.67 1.42-1.24 2.84-1.86 4.25-7.62 1.34-15 6-22.6 13.77-0.47 0.26-0.91 0.43-1.38 0.71a102.76 102.76 0 0 0-15.85 11.85c3.94-11.49 10.11-22.29 15.42-33.3 1.31-2.72-2.74-5.12-4.08-2.38-6.81 14-15.33 27.76-19 42.88-9.68 9.58-19.06 20.41-28.46 30.26 1.35-5.69 11.24-35.93 12.2-38.85 4.13-12.54 7.58-25 8.88-38.13 0.23-2.33-3.38-2.29-3.62 0-3 27.87-16.38 52.88-24.12 79.51a2.59 2.59 0 0 0 1.18 3A148.85 148.85 0 0 1 414 325.19q-11.07 8.59-22.13 17.23c3.12-14.18 7.5-27.94 12.06-41.88 4.85-14.84 10.55-28.68 9.52-44.51-0.15-2.36-3.8-2.4-3.7 0 1.31 31.19-18.85 60.84-24.8 91.79l-31.47 24.5c4.45-14.73 11.07-29.25 16.93-42.85 4.59-10.67 9.86-21.81 7.73-33.62-0.43-2.4-4-1.37-3.64 1 2.56 15.73-8.9 31.15-14.5 45.15-4.71 11.7-10.08 23.65-13.68 35.91l-20.61 16c5.29-20.55 14.21-40.9 11.92-62.31-0.22-2-3.39-2.09-3.23 0 1.84 23.6-10.06 45.39-15.73 67.78-11.46 8.9-22.89 17.84-34.38 26.68 3.39-19.65 7.06-39.21 8.21-59.18 0.14-2.39-3.51-2.35-3.7 0-1.74 21.58-6.48 42.62-10.54 63.84-6.7 5.15-13.34 10.39-20.06 15.5 0.7-11.37 3-22.59 3.91-34 0.17-2.17-3.21-2.16-3.39 0-1 12.39-3.79 24.61-4.51 37-4.55 3.45-9.07 6.95-13.63 10.37a10 10 0 0 0-2.74 3.11l-5.74 4.34c5-16.34 11.78-32.14 10.16-49.8-0.23-2.55-4.22-2.59-4 0 1.53 19.26-7 36.38-12.19 54.37-5.93 4.47-11.87 8.94-17.78 13.45-9.16 7-15.9 13.53-20.86 20.16 1.29-24.38 21.56-43.2 24.25-67.82 0.2-1.83-3-2.29-3.25-0.44-1.81 12.51-8 23.3-13.93 34.08a1.65 1.65 0 0 0-1.17 2.14c-6.71 12.28-12.74 24.71-11.3 39.82 0 0.18 0.17 0.24 0.21 0.39q-1 2-1.93 4c-7 7.18-14 14.7-21.58 20.53q-10.7 15-30.33 16.4a59.08 59.08 0 0 0-7.79-15.31c-26.27-21.92-21-44 2.53-66.64 29.81-28.65 61.56-55 91.62-83.38 59-55.71 119-113 184-161.7 24.13-18.06 49.41-34.07 71.17-55.05 11.58-11.17 19.68-30.72 37.08-28.67 3.16 0.37 24.5 23.7 25.32 24.41 48.47 41.7 103.89 77.2 156.61 113.54C746 321 794.7 374 854.38 409.59c16 9.55 31.81 16.61 47.11 27.44q6.89 5.7 14 11.14 24.67 6.15 9.15 24.25z" fill="#707070" p-id="111910"></path><path d="M671.68 784.7c-9.61 23.51-22.11 45.91-30.12 70.06-0.1 0.17-0.28 0.22-0.35 0.44l-0.9 3c-0.92 3.06 3.83 4.35 4.77 1.31 7.86-25.58 20.61-49 30.63-73.7 1.01-2.49-3.02-3.56-4.03-1.11zM782.12 784.58c-5.36 15-12.9 28.21-21.55 41.5-7.24 11.13-13.62 21.3-14.5 34.79-0.27 4.13 6.27 4.16 6.46 0 0.75-16.7 12.27-30.13 20.39-44a170.09 170.09 0 0 0 14.14-30.94c1.07-3.12-3.84-4.43-4.94-1.35zM797.5 814.21c-6.59 11.55-11.68 24-20 34.49a2.94 2.94 0 1 0 4.64 3.58c8.14-10.9 13.16-23.69 19.82-35.48 1.58-2.88-2.83-5.46-4.46-2.59zM707.62 345.38a117.26 117.26 0 0 0-19.8 29.54 2.27 2.27 0 0 0 1.34 3.29l4.09 1c2.92 0.72 4.15-3.88 1.24-4.48l-1.51-0.31a99.86 99.86 0 0 1 17.38-26.33c1.64-1.81-1.06-4.54-2.74-2.71zM731.83 380.66l-10.11 15.1c-2 3 2.8 5.73 4.76 2.78l10-15.14c1.99-2.92-2.71-5.63-4.65-2.74z" fill="#707070" p-id="111911"></path></svg>