<?xml version="1.0" standalone="no"?><!DOCTYPE svg PUBLIC "-//W3C//DTD SVG 1.1//EN" "http://www.w3.org/Graphics/SVG/1.1/DTD/svg11.dtd"><svg t="1748724810562" class="icon" viewBox="0 0 1024 1024" version="1.1" xmlns="http://www.w3.org/2000/svg" p-id="262014" xmlns:xlink="http://www.w3.org/1999/xlink" width="200" height="200"><path d="M428.6976 107.52c-6.5024 72.192-36.352 207.2576-160.256 337.408a203.4688 203.4688 0 0 0-19.0464-107.52 15.36 15.36 0 0 0-28.8768 3.84c-5.7344 29.44-20.48 75.0592-57.6 137.7792-71.68 121.3952-62.6176 459.8784 340.736 459.8784s430.4384-352.8192 373.1456-496.0256a471.04 471.04 0 0 0-128.8192-182.784 17.9712 17.9712 0 0 0-29.5936 13.1072c-0.9216 30.4128-7.3728 73.3184-33.0752 102.4-0.6656-52.7872-38.144-208.384-202.4448-296.96A36.7104 36.7104 0 0 0 428.6976 107.52z" fill="#FF5D50" p-id="262015"></path><path d="M702.2592 678.4c-4.1472-45.0048-60.672-166.5536-212.5824-246.4256a14.7456 14.7456 0 0 0-21.504 14.9504c6.1952 46.848 12.9536 140.544-24.064 184.7296 3.9936-40.3968-18.1248-73.8304-36.7104-94.2592a14.7456 14.7456 0 0 0-25.6 7.6288 293.6832 293.6832 0 0 1-36.5568 97.9456c-42.1376 74.0352-87.04 188.672 124.5696 294.656 10.9056 0.5632 22.1184 0.8704 33.7408 0.8704s22.0672-0.3072 32.6656-0.8704c158.4128-59.4432 173.6192-177.92 166.0416-259.2256z" fill="#FFDF99" p-id="262016"></path></svg>