<?xml version="1.0" standalone="no"?><!DOCTYPE svg PUBLIC "-//W3C//DTD SVG 1.1//EN" "http://www.w3.org/Graphics/SVG/1.1/DTD/svg11.dtd"><svg t="1750090816833" class="icon" viewBox="0 0 1024 1024" version="1.1" xmlns="http://www.w3.org/2000/svg" p-id="16814" xmlns:xlink="http://www.w3.org/1999/xlink" width="200" height="200"><path d="M824 78.08A585.152 585.152 0 0 0 704 448a64 64 0 0 0 53.76 63.168A62.144 62.144 0 0 0 768 512a64 64 0 0 0 60.672-43.776 154.944 154.944 0 0 1 44.8-66.816A647.68 647.68 0 0 0 832 633.6a321.152 321.152 0 0 1-201.472 305.216A350.912 350.912 0 0 1 512 960a320.384 320.384 0 0 1-320-320 454.4 454.4 0 0 1 134.016-320 128.96 128.96 0 0 0 7.424 24.832A116.8 116.8 0 0 0 448 416c70.4 0 99.328-62.208 125.056-117.12a386.88 386.88 0 0 1 113.344-157.44 307.2 307.2 0 0 1 137.6-63.36M1006.784 0c-209.664 1.728-276.608 28.8-358.4 90.112C512 192 512 352 448 352c-96 0-64-128 0-192A533.184 533.184 0 0 0 128 640a384 384 0 0 0 384 384 415.616 415.616 0 0 0 140.096-24.896A384 384 0 0 0 896 634.112a460.8 460.8 0 0 1 117.376-336.704 4.992 4.992 0 0 0-4.096-8.448h-2.56A244.416 244.416 0 0 0 768 448c0-160 64-352 241.664-438.784 4.544-2.24 2.048-9.216-2.88-9.216zM448 160z" fill="#C50B17" p-id="16815"></path><path d="M946.816 328.192A546.688 546.688 0 0 0 864 633.6a353.344 353.344 0 0 1-222.656 335.104A385.024 385.024 0 0 1 512 992 352 352 0 0 1 160 640a498.496 498.496 0 0 1 202.176-395.2A135.232 135.232 0 0 0 363.008 332.8 84.352 84.352 0 0 0 448 384c49.728 0 72.256-47.936 96-98.688a411.776 411.776 0 0 1 123.264-169.472 381.312 381.312 0 0 1 243.2-80.576C750.08 167.232 736 378.816 736 448l62.4 10.112a204.096 204.096 0 0 1 148.416-129.92z" fill="#C50B17" opacity=".5" p-id="16816"></path><path d="M480 832A160 160 0 0 1 320 672 172.8 172.8 0 0 1 480 512a131.328 131.328 0 0 0 128-96c-21.568 69.184 48.448 140.416 48.448 223.68A189.568 189.568 0 0 1 480 832z" fill="#FFFFFF" opacity=".5" p-id="16817"></path></svg>