<?xml version="1.0" standalone="no"?><!DOCTYPE svg PUBLIC "-//W3C//DTD SVG 1.1//EN" "http://www.w3.org/Graphics/SVG/1.1/DTD/svg11.dtd"><svg t="1748699778696" class="icon" viewBox="0 0 1099 1024" version="1.1" xmlns="http://www.w3.org/2000/svg" p-id="131620" xmlns:xlink="http://www.w3.org/1999/xlink" width="214.6484375" height="200"><path d="M625.889894 400.623134a64.629508 99.042623 44.999 1 0 140.064976-140.069866 64.629508 99.042623 44.999 1 0-140.064976 140.069866Z" fill="#FFFFFF" p-id="131621"></path><path d="M726.032787 457.442623m-373.508197 0a373.508197 373.508197 0 1 0 747.016394 0 373.508197 373.508197 0 1 0-747.016394 0Z" fill="#C4C4C4" p-id="131622"></path><path d="M47.053639 280.995672L284.462164 43.595541c8.309508-8.309508 21.361311-8.309508 29.074885-0.587541l671.257181 671.248787c8.309508 8.309508 7.721967 20.77377-0.587541 29.083279l-237.408525 237.400131c-8.309508 8.309508-21.361311 8.309508-29.083279 0.595934L46.466098 310.078951c-7.721967-7.713574-7.721967-20.77377 0.587541-29.083279z" fill="#CFCFCF" p-id="131623"></path><path d="M732.554492 1021.104262c-14.243672 0-27.89141-5.346623-37.980328-15.435541L22.721049 333.824c-20.77377-20.77377-20.77377-55.195279 0.587541-76.564984L260.725508 19.858885c21.369705-21.369705 55.791213-21.369705 76.564984-0.587541l671.25718 671.248787c10.088918 10.088918 16.023082 24.33259 16.023082 38.576262s-5.934164 28.487344-16.031475 38.576263l-237.400131 237.408524c-10.088918 10.088918-23.736656 15.427148-38.576263 16.023082zM299.293377 37.065443c-5.33823 0.595934-10.676459 2.375344-14.831213 6.530098L47.053639 280.995672c-8.309508 8.309508-8.309508 21.369705-0.587541 29.083279l671.248787 671.25718a20.253377 20.253377 0 0 0 14.243672 5.934164c5.942557 0 10.684852-2.375344 14.839607-6.530098l237.400131-237.400131c4.154754-4.154754 5.942557-9.492984 6.530098-14.839607 0-5.934164-2.375344-10.676459-5.934163-14.243672L313.537049 43.008c-3.55882-3.567213-8.897049-5.346623-14.243672-5.942557z" fill="#3D2C3F" p-id="131624"></path><path d="M70.798689 280.995672L283.86623 67.928131c8.897049-8.897049 21.957246-8.897049 29.670819-1.183475l647.520525 647.512131c7.713574 7.721967 7.713574 20.77377-0.587541 29.083279l-213.671869 213.663475c-8.309508 8.309508-21.361311 8.309508-29.083279 0.587541L70.202754 310.087344c-7.721967-7.713574-7.721967-20.77377 0.587541-29.083278z" fill="#B4B4B4" p-id="131625"></path><path d="M877.962492 743.936l-29.67082-29.679213 23.736656-23.736656 29.679213 29.67082-23.745049 23.745049z m-53.415869-53.415869l-59.341639-59.350033 23.736655-23.745049 59.34164 59.350033-23.736656 23.745049z m-83.095082-83.095082l-83.086689-83.095082 23.74505-23.736656 83.095082 83.095082-23.753443 23.736656zM634.628197 500.593311l-59.350033-59.341639 23.736656-23.745049 59.350032 59.350033-23.736655 23.736655z m-83.095082-83.086688l-83.095082-83.095082 23.753442-23.736656 83.086689 83.095082-23.745049 23.736656zM444.701377 310.674885l-59.341639-59.350033 23.736655-23.736655 59.34164 59.341639-23.736656 23.745049z m-83.086688-83.095082l-83.095082-83.086688 23.745049-23.736656 83.095082 83.095082-23.745049 23.736656zM729.591607 892.306885l-29.679214-29.670819 23.74505-23.736656 29.670819 29.67082-23.736655 23.736655z m-53.415869-53.407475L557.475672 720.190951l23.736656-23.736656 118.700065 118.700066-23.736655 23.745049zM533.739016 696.454295L415.022164 577.75423l23.736656-23.74505 118.708459 118.708459-23.745049 23.736656z m-142.445114-142.436721L272.585443 435.300721l23.745049-23.736655 118.700065 118.700065-23.736655 23.736656zM248.848787 411.564066L130.148721 292.872393l23.736656-23.745049 118.700066 118.700066-23.736656 23.745049zM800.809967 821.088525L698.728918 719.007475l23.736656-23.736655 102.081049 102.081049-23.736656 23.736656z m-125.817705-125.817705l-23.753442-23.74505 23.753442-23.736655 23.736656 23.736655-23.745049 23.74505z m-47.490098-47.481705L508.810492 529.089049l23.745049-23.745049L651.247213 624.052459l-23.745049 23.745049zM463.695738 483.982689l-72.401836-72.41023 23.736655-23.745049 72.41023 72.410229-23.745049 23.74505zM367.548852 387.82741l-23.736655-23.736656 23.736655-23.736656 23.74505 23.736656-23.74505 23.736656z m-47.481704-47.473312L201.367082 221.645639l23.745049-23.736655 118.700066 118.700065-23.745049 23.745049z" fill="#9A9A9A" p-id="131626"></path><path d="M811.620721 127.949639l135.134427-45.32459-47.003279 130.937705-135.134426 45.32459z" fill="#A3A3A3" p-id="131627"></path><path d="M736.919082 302.533246c-4.196721 0-8.393443-1.678689-11.75082-5.036066-4.196721-4.196721-5.87541-10.911475-4.196721-17.626229l61.272131-171.22623c1.678689-5.036066 5.87541-8.393443 10.072131-10.072131l176.262295-58.754098c5.87541-1.678689 12.590164-0.839344 17.62623 4.196721 4.196721 4.196721 5.87541 10.911475 4.196721 17.62623l-61.272131 172.065573c-1.678689 5.036066-5.87541 8.393443-10.072131 10.072132l-176.262295 58.754098h-5.87541z m74.701639-174.583607l-47.003278 130.937705 135.134426-45.32459 47.003279-131.777049-135.134427 46.163934z" fill="#3D2C3F" p-id="131628"></path><path d="M944.958951 83.23777l-133.539672 44.510427-46.885771 131.164328 5.934164-2.375345 174.499672-173.29941z" fill="#D8D8D8" p-id="131629"></path><path d="M644.649967 368.119607l15.427148 15.427147-512.788984 512.788984-15.427147-15.427148z" fill="#CDCDCD" p-id="131630"></path><path d="M147.288131 936.699803c-4.750689 0-8.897049-1.77941-11.868328-4.750688l-39.172196-39.172197c-2.971279-2.962885-4.750689-7.117639-4.750689-11.868328s1.77941-8.897049 4.750689-11.868328l536.525639-536.534032a16.837246 16.837246 0 0 1 23.745049 0l39.172197 39.172196c2.962885 2.971279 4.742295 7.126033 4.742295 11.868328 0 4.750689-1.77941 8.905443-4.742295 11.876721l-536.534033 536.52564a16.568656 16.568656 0 0 1-11.868328 4.750688z m-15.427147-55.791213l15.427147 15.427148 512.788984-512.788984-15.427148-15.427147-512.788983 512.788983z" fill="#3D2C3F" p-id="131631"></path><path d="M765.874282 260.523051a64.629508 99.042623 45 1 0-140.067421 140.067421 64.629508 99.042623 45 1 0 140.067421-140.067421Z" fill="#D8D8D8" p-id="131632"></path><path d="M661.361311 447.588721c-23.736656 0-44.510426-7.721967-59.945967-23.149114-37.980328-37.988721-27.303869-111.582426 24.340984-163.218886 24.324197-24.33259 54.00341-40.951607 83.682623-45.693901 32.046164-5.934164 59.937574 1.77941 79.527869 21.361311 38.576262 38.576262 27.295475 111.582426-24.340984 163.218885-24.33259 24.33259-54.00341 40.951607-83.682623 45.693902a54.977049 54.977049 0 0 1-19.581902 1.787803z m68.255476-200.015737c-4.154754-0.587541-9.501377 0-13.656131 0.587541-23.140721 4.163148-46.289836 16.619016-65.880131 36.209311-38.576262 38.576262-49.857049 91.40459-24.928525 116.333115 11.280787 11.272393 29.083279 16.023082 49.857049 11.868328 23.149115-4.154754 46.29823-16.619016 65.888525-36.209312 37.980328-37.980328 49.252721-90.808656 24.324196-115.728787-8.309508-9.501377-20.77377-13.656131-35.604983-13.060196z" fill="#3D2C3F" p-id="131633"></path><path d="M765.764009 260.859385a64.629508 99.042623 45 1 0-140.067421 140.067421 64.629508 99.042623 45 1 0 140.067421-140.067421Z" fill="#D8D8D8" p-id="131634"></path><path d="M661.705443 442.477115c-22.55318 0-42.135082-7.721967-56.378754-21.957246-36.200918-36.200918-25.516066-106.235803 24.340983-156.092853s119.883541-60.541902 156.084459-24.340983c36.200918 36.209311 25.516066 106.244197-24.340983 156.101246-23.140721 23.140721-52.224 39.172197-80.711345 43.914491a72.368262 72.368262 0 0 1-18.99436 2.375345z m68.255475-195.265049c-26.112 0-55.791213 13.060197-80.123803 37.392786-37.980328 37.988721-49.261115 90.808656-24.33259 115.737181 11.280787 11.272393 29.679213 15.427148 50.44459 12.464262 23.149115-4.154754 46.29823-16.619016 65.888524-36.209311 37.980328-37.980328 48.66518-91.40459 23.736656-116.324722-8.897049-8.897049-21.369705-13.060197-35.613377-13.060196z" fill="#3D2C3F" p-id="131635"></path><path d="M762.309246 369.219148l-23.736656 23.736655L635.299672 289.691279l23.745049-23.745049z" fill="#3D2C3F" p-id="131636"></path><path d="M753.353443 272.501508a11.473836 11.473836 0 0 1 0 16.619017l-11.868328 11.868327a11.473836 11.473836 0 0 1-16.619017 0 11.473836 11.473836 0 0 1 0-16.619016l11.868328-11.868328a11.473836 11.473836 0 0 1 16.619017 0z" fill="#3D2C3F" p-id="131637"></path></svg>