<?xml version="1.0" standalone="no"?><!DOCTYPE svg PUBLIC "-//W3C//DTD SVG 1.1//EN" "http://www.w3.org/Graphics/SVG/1.1/DTD/svg11.dtd"><svg t="1749849913585" class="icon" viewBox="0 0 1024 1024" version="1.1" xmlns="http://www.w3.org/2000/svg" p-id="150689" xmlns:xlink="http://www.w3.org/1999/xlink" width="200" height="200"><path d="M509.98 884.28c-2.73 0-5.5-0.36-8.25-1.11-1.68-0.46-41.76-11.6-99-41.46-52.29-27.27-130.05-76.32-203.58-155.11-128.8-138-121.7-279.03-120.07-298.12 0.39-66.29 26.38-128.54 73.29-175.45 47.27-47.27 110.11-73.3 176.96-73.3 82.44 0 159.57 40.6 206.33 108.6 9.76 14.19 6.17 33.6-8.03 43.36-14.19 9.76-33.6 6.17-43.36-8.03-35.12-51.08-93.05-81.57-154.94-81.57-103.61 0-187.9 84.29-187.9 187.9v1.9l-0.19 1.51c-0.17 1.78-2.84 33.28 8.14 78.84 15.01 62.29 47.09 120.09 95.35 171.8C373.72 782.26 516.77 822.62 518.2 823.01c16.61 4.55 26.39 21.7 21.84 38.31-3.8 13.85-16.36 22.95-30.06 22.96z" fill="#707070" p-id="150690"></path><path d="M659.28 815c-10.32 0-20.42-5.12-26.36-14.48-9.23-14.54-4.92-33.81 9.62-43.03a700.819 700.819 0 0 0 136.73-113.44c48.26-51.71 80.34-109.51 95.35-171.8 10.98-45.56 8.3-77.06 8.14-78.84l-0.22-1.81 0.04-1.6c0-103.61-84.29-187.9-187.9-187.9-61.9 0-119.82 30.49-154.94 81.57-9.76 14.19-29.17 17.78-43.36 8.03-14.19-9.76-17.78-29.17-8.03-43.36 46.76-68 123.89-108.6 206.33-108.6 66.85 0 129.69 26.03 176.96 73.3 46.91 46.91 72.91 109.17 73.29 175.45 1.63 19.09 8.73 160.12-120.07 298.12a762.85 762.85 0 0 1-148.9 123.54 31.086 31.086 0 0 1-16.68 4.85z" fill="#707070" p-id="150691"></path><path d="M770.06 372.76c-12.11 0-23.63-7.1-28.69-18.95-12.05-28.23-39.23-36.52-40.39-36.86l0.36 0.1 16.12-60.24c21.09 5.64 61.94 27.27 81.26 72.52 6.76 15.84-0.6 34.16-16.43 40.92-4 1.7-8.15 2.51-12.23 2.51z" fill="#707070" p-id="150692"></path></svg>