<?xml version="1.0" standalone="no"?><!DOCTYPE svg PUBLIC "-//W3C//DTD SVG 1.1//EN" "http://www.w3.org/Graphics/SVG/1.1/DTD/svg11.dtd"><svg t="1750591558283" class="icon" viewBox="0 0 1024 1024" version="1.1" xmlns="http://www.w3.org/2000/svg" p-id="330243" xmlns:xlink="http://www.w3.org/1999/xlink" width="200" height="200"><path d="M817.036 848.078c0 27.952-22.646 50.589-50.579 50.589h-541.24c-27.934 0-50.58-22.637-50.58-50.589v-356.54c0-27.935 22.646-50.571 50.58-50.571h541.241c27.934 0 50.579 22.636 50.579 50.571v356.54z" fill="#C8C9CA" p-id="330244"></path><path d="M766.457 903.667h-541.24c-30.646 0-55.58-24.938-55.58-55.589v-356.54c0-30.642 24.933-55.571 55.58-55.571h541.241c30.646 0 55.579 24.929 55.579 55.571v356.54c-0.001 30.651-24.933 55.589-55.58 55.589z m-541.24-457.699c-25.133 0-45.58 20.443-45.58 45.571v356.54c0 25.138 20.447 45.589 45.58 45.589h541.241c25.133 0 45.579-20.451 45.579-45.589v-356.54c0-25.128-20.446-45.571-45.579-45.571H225.217z" fill="#433F3F" p-id="330245"></path><path d="M572.991 619.29c0 41.875-33.954 75.839-75.839 75.839-41.884 0-75.838-33.964-75.838-75.839s33.955-75.84 75.838-75.84c41.885 0 75.839 33.965 75.839 75.84z" fill="#FFFFFF" p-id="330246"></path><path d="M497.152 700.129c-44.574 0-80.838-36.264-80.838-80.839s36.264-80.84 80.838-80.84c44.575 0 80.839 36.265 80.839 80.84s-36.264 80.839-80.839 80.839z m0-151.679c-39.061 0-70.838 31.778-70.838 70.84 0 39.061 31.778 70.839 70.838 70.839 39.061 0 70.839-31.778 70.839-70.839s-31.778-70.84-70.839-70.84z" fill="#433F3F" p-id="330247"></path><path d="M522.438 798.31c0 13.645-9.724 24.71-21.721 24.71-12.007 0-21.73-11.065-21.73-24.71v-76.048c0-13.646 9.724-24.711 21.73-24.711 11.998 0 21.721 11.065 21.721 24.711v76.048z" fill="#FFFFFF" p-id="330248"></path><path d="M500.717 828.02c-14.739 0-26.73-13.328-26.73-29.71v-76.048c0-16.383 11.991-29.711 26.73-29.711 14.734 0 26.721 13.328 26.721 29.711v76.048c0 16.381-11.988 29.71-26.721 29.71z m0-125.469c-9.225 0-16.73 8.843-16.73 19.711v76.048c0 10.868 7.505 19.71 16.73 19.71 9.22 0 16.721-8.842 16.721-19.71v-76.048c0-10.868-7.501-19.711-16.721-19.711zM732 289.357c-25.903-100.058-121.56-169.94-232.617-169.94-119.096 0-213.396 68.202-234.655 169.712l-9.788-2.05c11.125-53.121 40.765-98.087 85.716-130.037 43.833-31.157 98.721-47.625 158.727-47.625 57.171 0 110.711 17.151 154.833 49.6 43.307 31.849 74.369 77.248 87.466 127.834L732 289.357z" fill="#433F3F" p-id="330249"></path><path d="M254.529 286.188h10v154.78h-10zM731.841 285.072h10v155.146h-10z" fill="#433F3F" p-id="330250"></path></svg>