<?xml version="1.0" standalone="no"?><!DOCTYPE svg PUBLIC "-//W3C//DTD SVG 1.1//EN" "http://www.w3.org/Graphics/SVG/1.1/DTD/svg11.dtd"><svg t="1750384625038" class="icon" viewBox="0 0 1024 1024" version="1.1" xmlns="http://www.w3.org/2000/svg" p-id="175949" xmlns:xlink="http://www.w3.org/1999/xlink" width="200" height="200"><path d="M803.925333 139.349333a17.066667 17.066667 0 0 0-32.170666 0l-18.389334 51.968a17.066667 17.066667 0 0 1-10.410666 10.368l-51.925334 18.389334a17.066667 17.066667 0 0 0 0 32.170666l51.925334 18.389334a17.066667 17.066667 0 0 1 10.410666 10.410666l18.346667 51.925334a17.066667 17.066667 0 0 0 32.213333 0l18.389334-51.925334a17.066667 17.066667 0 0 1 10.368-10.410666l51.968-18.346667a17.066667 17.066667 0 0 0 0-32.213333l-51.968-18.389334a17.066667 17.066667 0 0 1-10.368-10.368l-18.389334-51.968zM603.648 308.906667a11.776 11.776 0 0 1 22.186667 0l10.197333 28.629333c1.152 3.370667 3.84 5.973333 7.168 7.168l28.586667 10.154667a11.776 11.776 0 0 1 0 22.186666l-28.586667 10.197334a11.776 11.776 0 0 0-7.168 7.168l-10.154667 28.586666a11.776 11.776 0 0 1-22.229333 0l-10.154667-28.586666a11.776 11.776 0 0 0-7.168-7.168l-28.586666-10.154667a11.776 11.776 0 0 1 0-22.186667l28.586666-10.197333a11.776 11.776 0 0 0 7.168-7.168l10.154667-28.586667z m111.872 127.189333a7.850667 7.850667 0 0 1 14.805333 0l6.784 19.072c0.768 2.261333 2.56 4.010667 4.778667 4.821333l19.072 6.741334a7.850667 7.850667 0 0 1 0 14.805333l-19.072 6.784a7.893333 7.893333 0 0 0-4.778667 4.778667l-6.784 19.072a7.850667 7.850667 0 0 1-14.805333 0l-6.741333-19.072a7.893333 7.893333 0 0 0-4.778667-4.778667l-19.114667-6.784a7.850667 7.850667 0 0 1 0-14.805333l19.114667-6.741334a7.893333 7.893333 0 0 0 4.778667-4.821333l6.741333-19.072z m-240.426667-237.653333a32.426667 32.426667 0 0 1-2.858666 36.352 251.136 251.136 0 0 0-55.466667 157.482666c0 141.397333 118.186667 257.578667 265.941333 257.578667 40.618667 0 78.976-8.789333 113.28-24.448a32.426667 32.426667 0 0 1 43.648 41.514667C786.090667 801.322667 652.245333 896 496.128 896 293.76 896 128 736.256 128 537.301333c0-180.992 137.216-329.557333 314.325333-354.901333a32.426667 32.426667 0 0 1 32.768 16.042667z" fill="#1296db" p-id="175950" data-spm-anchor-id="a313x.search_index.0.i51.6d0d3a81d61JON" class="selected"></path></svg>