<?xml version="1.0" standalone="no"?><!DOCTYPE svg PUBLIC "-//W3C//DTD SVG 1.1//EN" "http://www.w3.org/Graphics/SVG/1.1/DTD/svg11.dtd"><svg t="1749830633424" class="icon" viewBox="0 0 1024 1024" version="1.1" xmlns="http://www.w3.org/2000/svg" p-id="127736" xmlns:xlink="http://www.w3.org/1999/xlink" width="200" height="200"><path d="M364.544 17.408a77.5168 77.5168 0 0 0-18.432-9.216 65.1264 65.1264 0 0 0-18.432-6.144C320.512 1.024 314.368 0 307.2 0S293.888 1.024 286.72 2.048C280.576 3.072 274.432 5.12 268.288 8.192 262.144 10.24 256 13.312 249.856 17.408L234.496 29.696 222.208 45.056C218.112 51.2 215.04 57.344 212.992 63.488 209.92 69.632 207.872 75.776 206.848 81.92 205.824 89.088 204.8 95.232 204.8 102.4s1.024 13.312 2.048 20.48c1.024 6.144 3.072 12.288 6.144 18.432 2.048 6.144 5.12 12.288 9.216 18.432l12.288 15.36L572.416 512 234.496 848.896l-12.288 15.36c-4.096 6.144-7.168 12.288-9.216 18.432-3.072 6.144-5.12 12.288-6.144 18.432-1.024 7.168-2.048 13.312-2.048 20.48s1.024 13.312 2.048 20.48c1.024 6.144 3.072 12.288 6.144 18.432 2.048 6.144 5.12 12.288 9.216 18.432l12.288 15.36 15.36 12.288c6.144 4.096 12.288 7.168 18.432 9.216 6.144 3.072 12.288 5.12 18.432 6.144 7.168 1.024 13.312 2.048 20.48 2.048s13.312-1.024 20.48-2.048c6.144-1.024 12.288-3.072 18.432-6.144 6.144-2.048 12.288-5.12 18.432-9.216l15.36-12.288 409.6-409.6c9.216-10.24 16.384-20.48 21.504-33.792 5.12-12.288 8.192-25.6 8.192-38.912s-3.072-26.624-8.192-38.912c-5.12-13.312-12.288-23.552-21.504-33.792l-409.6-409.6-15.36-12.288z" fill="#0a75ad" p-id="127737"></path></svg>