<?xml version="1.0" standalone="no"?><!DOCTYPE svg PUBLIC "-//W3C//DTD SVG 1.1//EN" "http://www.w3.org/Graphics/SVG/1.1/DTD/svg11.dtd"><svg t="1751388027916" class="icon" viewBox="0 0 1024 1024" version="1.1" xmlns="http://www.w3.org/2000/svg" p-id="11324" xmlns:xlink="http://www.w3.org/1999/xlink" width="256" height="256"><path d="M448 176v672c0 26.496-21.504 47.957333-48 48h-96A48.042667 48.042667 0 0 1 256 848V176C256 149.504 277.504 128.042667 304 128h96c26.496 0 47.957333 21.504 48 48zM745.6 128h-96c-26.496 0-47.957333 21.504-48 48v672c0 26.496 21.504 47.957333 48 48h96c26.496 0 47.957333-21.504 48-48V176c0-26.496-21.504-47.957333-48-48z" p-id="11325" fill="#515151"></path></svg>