<?xml version="1.0" standalone="no"?><!DOCTYPE svg PUBLIC "-//W3C//DTD SVG 1.1//EN" "http://www.w3.org/Graphics/SVG/1.1/DTD/svg11.dtd"><svg t="1749439097416" class="icon" viewBox="0 0 1024 1024" version="1.1" xmlns="http://www.w3.org/2000/svg" p-id="46959" xmlns:xlink="http://www.w3.org/1999/xlink" width="200" height="200"><path d="M819.2 163.584H204.8c-27.136 0-53.184 10.432-72.384 29.12-19.2 18.688-30.016 44.032-30.016 70.4v497.792c0 26.368 10.816 51.712 30.016 70.4 19.2 18.688 45.248 29.12 72.384 29.12h204.8c18.304 0 35.2 9.536 44.352 24.96a48.64 48.64 0 0 1 0 49.728A51.52 51.52 0 0 1 409.6 960H204.8C91.712 960 0 870.848 0 760.896V263.04C0 153.152 91.712 64 204.8 64h614.4C932.288 64 1024 153.152 1024 263.104v149.312a49.536 49.536 0 0 1-25.6 43.136 52.48 52.48 0 0 1-51.2 0 49.536 49.536 0 0 1-25.6-43.136V263.104c0-26.368-10.816-51.712-30.016-70.4a103.872 103.872 0 0 0-72.384-29.12z m51.2 398.208c84.8 0 153.6 66.816 153.6 149.312v99.584C1024 893.12 955.2 960 870.4 960h-204.8C580.8 960 512 893.12 512 810.688V711.04c0-82.496 68.8-149.312 153.6-149.312zM320.704 296.256l4.096 3.648 106.816 106.688-0.128-63.872c0-20.16 14.848-37.12 34.752-39.872l5.504-0.384c20.096 0 37.12 14.848 39.872 34.752L512 342.72V503.68c0 20.096-14.848 37.12-34.752 39.872L471.68 544H310.72a40.256 40.256 0 0 1-5.44-80.128l5.44-0.384h63.872L267.904 356.8a40.32 40.32 0 0 1 52.8-60.544z" fill="#ffffff" p-id="46960"></path></svg>