<?xml version="1.0" standalone="no"?><!DOCTYPE svg PUBLIC "-//W3C//DTD SVG 1.1//EN" "http://www.w3.org/Graphics/SVG/1.1/DTD/svg11.dtd"><svg t="1750339026265" class="icon" viewBox="0 0 1024 1024" version="1.1" xmlns="http://www.w3.org/2000/svg" p-id="113551" xmlns:xlink="http://www.w3.org/1999/xlink" width="200" height="200"><path d="M126.44443022 924.32338489c9.9090432-85.5638016 64.10877155-299.37427342 358.15860907-306.94149689 99.48073529-2.56318578 174.34323627 11.63336818 230.36049636 35.57002809 54.63663502 23.34829227 91.34844587 55.95318045 115.49482097 91.30184249l0.39030329 0.58254222c64.53402738 95.05923982 38.58177138 209.6627712 26.33090844 217.22999467-32.37769671 19.96954738-551.02086258 3.49525333-695.70104888-1.5204352-23.56965831-0.81555911-37.52154453-14.72084195-35.03408925-36.22247538z" fill="#bfbfbf" p-id="113552"></path><path d="M906.24127431 912.62011165c0 40.21871502-32.60488818 72.81777778-72.81777778 72.81777777H190.57650347c-40.2128896 0-72.81777778-32.59906275-72.81777778-72.81777777C145.32462365 762.20188445 255.32607147 641.04475307 400.31500515 599.38133333c-105.73723875-43.6731904-180.15700765-147.79096178-180.15700764-269.30344391 0-160.86320925 130.40790187-291.27111111 291.27111111-291.27111111s291.27111111 130.40790187 291.27111111 291.27111111c0 121.51248213-74.41976889 225.63025351-180.15700764 269.30344391 145.15787093 41.71002311 256.28945067 162.58753422 283.69806222 313.23877832z m-139.94994346-582.54222223c0-140.75385173-114.10837049-254.86222222-254.86222223-254.86222222-140.75967715 0-254.86222222 114.10837049-254.86222222 254.86222222 0 134.45074489 104.11777138 244.57452658 236.11601351 254.1748224a419.12747805 419.12747805 0 0 1 18.74620871-0.44855751c6.27980515 0 12.52465778 0.16311182 18.74620871 0.44855751 131.99824213-9.5944704 236.11601351-119.71825209 236.11601352-254.1748224z m-235.73153565 290.63614009a294.92365085 294.92365085 0 0 1-19.12486115 0.63497102c-6.43126613 0-12.80427805-0.22719147-19.13068658-0.63497102-168.05178027 8.66822827-305.4501888 131.35744569-338.13080747 291.90608214a36.40888889 36.40888889 0 0 0 36.40888889 36.40888888h642.84699306a36.40888889 36.40888889 0 0 0 36.4088889-36.40888888c-32.39517298-160.94476515-170.94701511-283.22620302-339.27841565-291.90608214z m-20.26664391-108.59169564c-68.48366365 0-128.13016178-37.81281565-159.20878934-93.69609102l0.8097337-0.37865245a18.20444445 18.20444445 0 0 1 33.90978275-12.36737138c25.55612729 41.98964338 71.74007467 70.03905138 124.48927289 70.03905138 30.02422613 0 57.92217315-9.10513493 81.11317902-24.68231395a18.11706311 18.11706311 0 0 1 11.04500054-3.76322276 18.20444445 18.20444445 0 0 1 10.22944142 33.26316089l0.04077795 0.06407964a181.21140907 181.21140907 0 0 1-102.42839893 31.52135965z m143.35781546-120.60371627a18.19861902 18.19861902 0 1 1 0 36.40888889 18.20444445 18.20444445 0 1 1 0-36.40888889z" fill="#666666" p-id="113553"></path></svg>