<?xml version="1.0" standalone="no"?><!DOCTYPE svg PUBLIC "-//W3C//DTD SVG 1.1//EN" "http://www.w3.org/Graphics/SVG/1.1/DTD/svg11.dtd"><svg t="1750974074772" class="icon" viewBox="0 0 1024 1024" version="1.1" xmlns="http://www.w3.org/2000/svg" p-id="72533" xmlns:xlink="http://www.w3.org/1999/xlink" width="256" height="256"><path d="M530.582588 935.875765c0 50.296471-74.330353 88.003765-161.069176 88.003764s-161.069176-37.707294-161.069177-88.003764c0-50.296471 74.330353-88.003765 161.069177-88.003765s161.069176 37.707294 161.069176 88.003765z m173.477647-88.003765c-86.738824 0-161.069176 37.707294-161.069176 88.003765 0 50.296471 74.330353 88.003765 161.008941 88.003764 86.738824 0 161.069176-37.707294 161.069176-88.003764 0-50.296471-74.330353-88.003765-161.069176-88.003765z" fill="#FFC716" p-id="72534"></path><path d="M852.720941 489.472l-24.816941-25.178353V325.993412c0-113.242353-61.921882-226.364235-161.069176-282.925177a326.836706 326.836706 0 0 0-322.078118 0C245.609412 99.629176 183.687529 212.811294 183.687529 325.993412v138.300235l-24.816941 25.178353c-18.552471 31.442824-68.065882 113.182118-68.065882 194.921412 0 81.739294 18.552471 88.003765 30.900706 94.268235 6.204235 0 37.165176-6.264471 68.186353-56.560941 43.369412 144.564706 173.477647 251.482353 322.078117 251.482353 148.720941 0 278.768941-106.857412 322.138353-251.482353 30.960941 50.296471 61.982118 56.621176 68.126118 56.621176 6.204235 0 31.021176-12.649412 31.021176-94.32847 0-81.739294-61.982118-163.478588-80.534588-194.921412z" fill="#37464F" p-id="72535"></path><path d="M270.426353 583.800471c0 18.853647-6.204235 37.707294-6.204235 56.560941 0 182.332235 105.291294 326.957176 235.399529 326.957176s235.399529-144.564706 235.399529-326.957176c0-18.853647 0-37.707294-6.204235-56.621177H270.426353zM419.087059 181.308235c-37.165176 0-61.982118 37.707294-61.982118 88.003765 0 50.296471 31.021176 88.064 61.982118 88.064 37.165176 0 61.921882-37.767529 61.921882-88.064s-24.756706-88.003765-61.921882-88.003765z m12.348235 125.771294c-12.348235 0-24.696471-12.649412-24.69647-37.767529 0-25.118118 12.348235-37.707294 24.69647-37.707294 12.408471 0 24.816941 18.853647 24.816941 37.707294 0 18.913882-12.408471 37.767529-24.816941 37.767529zM586.300235 181.308235c-37.165176 0-61.921882 37.707294-61.921882 88.003765 0 50.296471 30.960941 88.064 61.921882 88.064 31.021176 0 61.982118-37.767529 61.982118-88.064s-24.756706-88.003765-61.982118-88.003765z m12.408471 94.328471c-6.204235 0-6.204235 0 0 0-6.204235-6.324706-18.552471-18.853647-24.756706-18.853647-6.204235 6.264471-18.612706 12.528941-18.612706 18.853647 0-18.853647 12.408471-37.767529 24.816941-37.76753 6.144 0 18.552471 12.649412 18.552471 37.76753z" fill="#FFFFFF" p-id="72536"></path><path d="M282.774588 546.032941c-6.204235 31.442824-18.552471 176.067765-12.348235 213.835294 6.144 31.382588 37.165176 25.118118 74.330353 25.118118 43.369412 0 86.738824 12.589176 86.738823-37.707294 0-50.356706 0-144.624941 12.348236-176.067765 12.408471-37.767529-161.069176-25.178353-161.069177-25.178353z" fill="#FF3A2F" p-id="72537"></path><path d="M270.426353 615.183059l167.213176 50.356706c0-31.442824 6.204235-62.885647 12.408471-94.328471 6.204235-37.767529-173.477647-25.178353-173.477647-25.178353 0 12.589176-6.144 37.767529-6.144 69.150118z" fill="#DD2C00" p-id="72538"></path><path d="M536.786824 483.147294c117.699765 0 210.582588-43.971765 210.582588-75.414588 0-25.178353-92.882824-43.971765-210.582588-43.971765s-210.642824 18.793412-210.642824 43.971765c0 25.118118 92.943059 75.414588 210.642824 75.414588z" fill="#FFC716" p-id="72539"></path><path d="M505.825882 527.179294s123.843765 0 216.786824-43.971765c92.943059-44.032 92.943059-56.621176 105.291294-56.621176 12.408471 0 24.816941 18.853647 30.960941 50.296471 6.204235 31.442824 12.408471 56.621176-12.348235 75.474823-24.816941 18.853647-167.273412 119.446588-334.546824 119.446588h-12.348235c-167.273412 0-315.934118-100.592941-334.546823-119.446588-18.552471-18.913882-18.552471-44.032-12.348236-75.474823 6.144-31.442824 18.552471-50.296471 30.960941-50.296471 12.408471 0 12.408471 6.264471 105.291295 56.621176 92.943059 50.236235 216.847059 43.971765 216.847058 43.971765z" fill="#FF3A2F" p-id="72540"></path></svg>