<?xml version="1.0" standalone="no"?><!DOCTYPE svg PUBLIC "-//W3C//DTD SVG 1.1//EN" "http://www.w3.org/Graphics/SVG/1.1/DTD/svg11.dtd"><svg t="1749819262765" class="icon" viewBox="0 0 1024 1024" version="1.1" xmlns="http://www.w3.org/2000/svg" p-id="119796" xmlns:xlink="http://www.w3.org/1999/xlink" width="200" height="200"><path d="M186.181818 725.317818c0 12.753455 5.678545 24.529455 14.754909 30.254546 98.071273 61.952 200.378182 103.563636 309.434182 122.461091 48.221091 8.378182 99.048727 11.915636 143.872-12.055273 44.823273-23.970909 81.221818-82.850909 73.728-143.546182 24.855273-10.146909 45.009455-36.864 51.851636-68.701091 6.795636-31.790545 0.046545-67.770182-17.314909-92.299636 42.170182-14.661818 66.699636-82.385455 47.941819-132.189091a700.043636 700.043636 0 0 0 136.192-24.901818c17.780364-5.12 35.84-11.124364 50.874181-24.064 15.080727-12.893091 26.856727-34.117818 26.484364-57.111273a82.850909 82.850909 0 0 0-13.172364-41.611636c-32.861091-53.061818-94.580364-55.482182-147.874909-53.294546l-219.229091 9.076364c-4.701091 0.186182-9.728 0.279273-13.684363-2.932364-4.421818-3.537455-6.376727-10.24-8.517818-16.290909a116.968727 116.968727 0 0 0-98.304-77.870545c-40.494545-3.909818-80.523636 11.636364-118.411637 30.021818-66.420364 32.256-145.687273 93.835636-206.708363 146.385454a37.562182 37.562182 0 0 0-11.915637 28.392728v380.276363z" fill="#17df24" p-id="119797" data-spm-anchor-id="a313x.search_index.0.i61.295b3a81vvgzZw" class="selected"></path><path d="M0 372.363636a46.545455 46.545455 0 0 1 46.545455-46.545454h69.818181a23.272727 23.272727 0 0 1 23.272728 23.272727v372.363636a23.272727 23.272727 0 0 1-23.272728 23.272728H46.545455a46.545455 46.545455 0 0 1-46.545455-46.545455V372.363636z" fill="#707070" p-id="119798" data-spm-anchor-id="a313x.search_index.0.i60.295b3a81vvgzZw" class=""></path></svg>