<?xml version="1.0" standalone="no"?><!DOCTYPE svg PUBLIC "-//W3C//DTD SVG 1.1//EN" "http://www.w3.org/Graphics/SVG/1.1/DTD/svg11.dtd"><svg t="1748699416898" class="icon" viewBox="0 0 1024 1024" version="1.1" xmlns="http://www.w3.org/2000/svg" p-id="98389" xmlns:xlink="http://www.w3.org/1999/xlink" width="200" height="200"><path d="M512 511.500488m-509.502439 0a509.502439 509.502439 0 1 0 1019.004878 0 509.502439 509.502439 0 1 0-1019.004878 0Z" fill="#000000" opacity=".5" p-id="98390"></path><path d="M366.863735 305.52064c24.818763-35.089733 73.385335-43.416601 108.474068-18.596839l227.517815 160.922849a77.822002 77.822002 0 0 1 18.596839 18.597838c24.818763 35.089733 16.493893 83.655305-18.596839 108.474068l-227.517815 160.923848a77.822002 77.822002 0 0 1-44.938115 14.286049c-42.980027 0-77.823001-34.841975-77.823001-77.822002V350.459754a77.822002 77.822002 0 0 1 14.286049-44.939114z" fill="#FFFFFF" p-id="98391"></path></svg>