<?xml version="1.0" standalone="no"?><!DOCTYPE svg PUBLIC "-//W3C//DTD SVG 1.1//EN" "http://www.w3.org/Graphics/SVG/1.1/DTD/svg11.dtd"><svg t="1749435155607" class="icon" viewBox="0 0 1024 1024" version="1.1" xmlns="http://www.w3.org/2000/svg" p-id="43584" xmlns:xlink="http://www.w3.org/1999/xlink" width="200" height="200"><path d="M407.04 711.253333c-17.493333 0-32-14.506667-32-32v-144.64l-8.106667 8.96c-11.946667 13.226667-32 14.08-45.226666 2.56a32.256 32.256 0 0 1-2.56-45.226666l64-71.253334c8.96-9.813333 23.04-13.226667 35.413333-8.533333 12.373333 4.693333 20.48 16.64 20.48 29.866667v228.266666c0 17.92-14.08 32-32 32zM427.52 222.72a29.866667 29.866667 0 0 1-20.053333-7.253333A32.298667 32.298667 0 0 1 402.346667 170.666667l84.48-105.386667c11.093333-13.653333 31.146667-15.786667 44.8-5.12 13.653333 10.666667 15.786667 31.146667 5.12 44.8L452.266667 210.346667a30.72 30.72 0 0 1-24.746667 12.373333z" fill="#ffffff" p-id="43585"></path><path d="M512 970.666667c-226.56 0-411.306667-184.32-411.306667-411.306667 0-88.32 28.586667-173.226667 83.2-245.76a32 32 0 0 1 51.2 38.4c-46.08 61.44-70.4 133.12-70.4 207.36 0 191.573333 155.733333 347.306667 347.306667 347.306667s347.306667-155.733333 347.306667-347.306667S703.573333 212.053333 512 212.053333c-24.746667 0-49.92 2.986667-77.226667 9.386667-17.066667 3.84-34.56-6.826667-38.4-23.893333-3.84-17.066667 6.826667-34.56 23.893334-38.4A413.866667 413.866667 0 0 1 512 148.053333c226.56 0 411.306667 184.32 411.306667 411.306667s-184.746667 411.306667-411.306667 411.306667z" fill="#ffffff" p-id="43586"></path><path d="M597.333333 711.253333c-64.853333 0-117.333333-52.48-117.333333-117.333333v-57.6c0-64.853333 52.48-117.333333 117.333333-117.333333s117.333333 52.48 117.333334 117.333333v57.6c0 64.853333-52.48 117.333333-117.333334 117.333333z m0-227.84c-29.44 0-53.333333 23.893333-53.333333 53.333334v57.6a53.333333 53.333333 0 0 0 106.666667 0v-57.6c0-29.44-23.893333-53.333333-53.333334-53.333334z" fill="#ffffff" p-id="43587"></path></svg>