<?xml version="1.0" standalone="no"?><!DOCTYPE svg PUBLIC "-//W3C//DTD SVG 1.1//EN" "http://www.w3.org/Graphics/SVG/1.1/DTD/svg11.dtd"><svg t="1748902304881" class="icon" viewBox="0 0 1024 1024" version="1.1" xmlns="http://www.w3.org/2000/svg" p-id="13026" xmlns:xlink="http://www.w3.org/1999/xlink" width="200" height="200"><path d="M987.587405 970.965472L829.484473 812.862541c1.778936-1.778936 3.669055-3.557872 5.447992-5.336808 43.472747-43.472747 77.494897-94.061238 101.399348-150.320087 24.682736-58.371336 37.135288-120.300543 37.135288-184.11987s-12.563735-125.859718-37.135288-184.119869c-23.793268-56.370033-57.926602-106.958523-101.399348-150.320087-43.472747-43.472747-94.061238-77.494897-150.320087-101.399349C626.241042 12.452552 564.200651 0 500.381325 0c-63.819327 0-125.859718 12.563735-184.11987 37.246471-56.370033 23.793268-106.958523 57.926602-150.320087 101.399349C122.468621 182.118567 88.446471 232.707058 64.54202 289.07709 39.859283 347.226059 27.295548 409.26645 27.295548 473.085776s12.563735 125.859718 37.135288 184.11987c23.793268 56.370033 57.926602 106.958523 101.399349 150.320087 43.472747 43.472747 94.061238 77.494897 150.320086 101.399348 58.371336 24.682736 120.300543 37.135288 184.11987 37.135288s125.859718-12.563735 184.11987-37.135288c34.800434-14.676221 67.377199-33.355049 97.507926-55.702931l161.660803 161.660803c12.007818 11.674267 31.131379 11.674267 43.250381 0 12.452552-11.896634 12.786102-31.576113 0.778284-43.917481zM500.381325 890.579805c-111.517047 0-216.363084-43.472747-295.192183-122.301846S82.887296 584.602823 82.887296 473.085776C82.887296 361.56873 126.360043 256.722693 205.189142 177.893594 284.018241 98.953312 388.864278 55.591748 500.381325 55.591748 611.898371 55.591748 716.744408 98.953312 795.573507 177.893594c78.829099 78.829099 122.301846 183.675136 122.301846 295.192182 0 111.517047-43.361564 216.363084-122.301846 295.192183-78.829099 78.829099-183.675136 122.301846-295.192182 122.301846z" p-id="13027" fill="#dbdbdb"></path></svg>