<?xml version="1.0" standalone="no"?><!DOCTYPE svg PUBLIC "-//W3C//DTD SVG 1.1//EN" "http://www.w3.org/Graphics/SVG/1.1/DTD/svg11.dtd"><svg t="1749385946949" class="icon" viewBox="0 0 1024 1024" version="1.1" xmlns="http://www.w3.org/2000/svg" p-id="49418" xmlns:xlink="http://www.w3.org/1999/xlink" width="200" height="200"><path d="M83.178 936.797a590.142 590.142 0 0 1-28.783-182.514c0-250.745 157.55-472.041 382.48-538.212l0.486-120.343a63.626 63.626 0 0 1 33.69-57.384 55.566 55.566 0 0 1 62.839 7.817l413.444 357.515a66.655 66.655 0 0 1 0 99.074L533.89 860.265a55.506 55.506 0 0 1-62.838 7.877 63.626 63.626 0 0 1-33.691-57.384V704.837c-100.529 45.81-179.91 130.28-223.599 237.535a69.806 69.806 0 0 1-64.05 45.386 71.745 71.745 0 0 1-66.534-50.96zM493.836 95.728v120.343a60.596 60.596 0 0 1-42.417 58.475c-200.693 58.96-340.851 256.26-340.851 479.737A526.274 526.274 0 0 0 136.2 916.8a13.695 13.695 0 0 0 12.604 10.362 13.15 13.15 0 0 0 12.906-9.03C211.157 796.64 301.08 701.02 414.758 648.847a53.021 53.021 0 0 1 53.203 5.211 61.99 61.99 0 0 1 25.572 50.78v106.285a2.666 2.666 0 0 0 1.575 2.726 2.606 2.606 0 0 0 3.03-0.363L911.583 455.97v-4.726L498.138 93.729c-4.302 0.303-4.302 1.575-4.302 2z" fill="#8C8C8C" p-id="49419"></path><path d="M576.73 202.983a63.626 63.626 0 0 0-33.69 57.384l-0.485 120.161c-225.235 66.17-382.48 287.467-382.48 538.212v2.848a17.755 17.755 0 0 0 1.878-3.394C211.399 796.7 301.323 701.08 415 648.907a53.021 53.021 0 0 1 53.203 5.211 61.99 61.99 0 0 1 25.571 50.78v106.284a2.666 2.666 0 0 0 1.576 2.727 2.606 2.606 0 0 0 3.03-0.363L911.824 456.03v-4.727l-289.95-250.927a55.082 55.082 0 0 0-45.144 2.606z" fill="#DCDCDC" p-id="49420"></path><path d="M479.475 925.89H757.79a29.147 29.147 0 0 1 28.601 29.631v6.726a29.147 29.147 0 0 1-28.601 29.632H479.475a29.147 29.147 0 0 1-28.602-29.632v-6.604a29.147 29.147 0 0 1 28.602-29.753z" fill="#8C8C8C" p-id="49421"></path></svg>