<?xml version="1.0" standalone="no"?><!DOCTYPE svg PUBLIC "-//W3C//DTD SVG 1.1//EN" "http://www.w3.org/Graphics/SVG/1.1/DTD/svg11.dtd"><svg t="1748697747448" class="icon" viewBox="0 0 1024 1024" version="1.1" xmlns="http://www.w3.org/2000/svg" p-id="66024" xmlns:xlink="http://www.w3.org/1999/xlink" width="200" height="200"><path d="M512 64.47C264.83 64.47 64.47 264.83 64.47 512S264.83 959.53 512 959.53 959.53 759.17 959.53 512 759.17 64.47 512 64.47zM758.14 696.8c0 48.73-40.06 88.22-89.52 88.22s-89.49-39.49-89.49-88.22c0-0.31 0.07-0.65 0.1-1s-0.1-0.65-0.1-1a9.49 9.49 0 0 1 0.14-1.43L421.63 579.19a89.62 89.62 0 0 1-66.24 29.38c-49.47 0-89.53-39.52-89.53-88.26 0-0.3 0.09-0.61 0.09-0.95s-0.09-0.65-0.09-1c0-48.74 40.06-88.23 89.53-88.23a89.85 89.85 0 0 1 62.82 25.46l163.62-106.47a81.67 81.67 0 0 1-2.73-20c0-0.24 0.07-0.51 0.07-0.82s-0.07-0.71-0.07-1.12c0-48.74 40.07-88.23 89.49-88.23s89.52 39.49 89.52 88.23c0 0.3-0.1 0.61-0.1 1s0.1 0.65 0.1 1c0 48.74-40.06 88.26-89.52 88.26a89.63 89.63 0 0 1-64.82-27.71L441.28 495.46a83.45 83.45 0 0 1 3.59 22.94c0 0.37-0.07 0.71-0.07 1.09s0.07 0.55 0.07 0.85a84.46 84.46 0 0 1-2.39 18.94l150.44 109a89.46 89.46 0 0 1 75.7-41.64c49.46 0 89.52 39.52 89.52 88.26 0 0.28-0.1 0.65-0.1 1s0.1 0.56 0.1 0.9z" fill="#48E1AA" p-id="66025"></path><path d="M959.53 512a445.88 445.88 0 0 0-40.83-187 452.1 452.1 0 0 0-302.9-115.9C365.17 209.1 162 412.27 162 662.89a452.78 452.78 0 0 0 29.61 161.58A446.22 446.22 0 0 0 512 959.53c247.17 0 447.53-200.36 447.53-447.53z m-604.14 96.57c-49.47 0-89.53-39.52-89.53-88.26 0-0.3 0.09-0.61 0.09-0.95s-0.09-0.65-0.09-1c0-48.74 40.06-88.23 89.53-88.23a89.85 89.85 0 0 1 62.82 25.46l163.62-106.47a81.67 81.67 0 0 1-2.73-20c0-0.24 0.07-0.51 0.07-0.82s-0.07-0.71-0.07-1.12c0-48.74 40.07-88.23 89.49-88.23s89.52 39.49 89.52 88.23c0 0.3-0.1 0.61-0.1 1s0.1 0.65 0.1 1c0 48.74-40.06 88.26-89.52 88.26a89.63 89.63 0 0 1-64.82-27.71L441.28 495.46a83.45 83.45 0 0 1 3.59 22.94c0 0.37-0.07 0.71-0.07 1.09s0.07 0.55 0.07 0.85a84.46 84.46 0 0 1-2.39 18.94l150.44 109a89.46 89.46 0 0 1 75.7-41.64c49.46 0 89.52 39.52 89.52 88.26 0 0.28-0.1 0.65-0.1 1s0.1 0.65 0.1 1c0 48.73-40.06 88.22-89.52 88.22s-89.49-39.49-89.49-88.22c0-0.31 0.07-0.65 0.1-1s-0.1-0.65-0.1-1a9.49 9.49 0 0 1 0.14-1.43L421.63 579.19a89.62 89.62 0 0 1-66.24 29.38z" fill="#3CD38E" p-id="66026"></path><path d="M668.59 417.41a89.57 89.57 0 0 1-64.17-27.06l-2.55 0.58-160.59 104.53a83.45 83.45 0 0 1 3.59 22.94c0 0.37-0.07 0.71-0.07 1.09s0.07 0.55 0.07 0.85a84.46 84.46 0 0 1-2.39 18.94l150.44 109a89.46 89.46 0 0 1 75.7-41.64c49.46 0 89.52 39.52 89.52 88.26 0 0.28-0.1 0.65-0.1 1s0.1 0.65 0.1 1c0 48.73-40.06 88.22-89.52 88.22s-89.49-39.49-89.49-88.22c0-0.31 0.07-0.65 0.1-1s-0.1-0.65-0.1-1a9.49 9.49 0 0 1 0.14-1.43L421.63 579.19a89.62 89.62 0 0 1-66.24 29.38 90.89 90.89 0 0 1-24.19-3.26 405.87 405.87 0 0 0-22 305.75A445.67 445.67 0 0 0 512 959.53c247.17 0 447.53-200.36 447.53-447.53q0-16.68-1.21-33.07A402.84 402.84 0 0 0 739.51 383a89.81 89.81 0 0 1-70.92 34.41z" fill="#1DCE75" p-id="66027"></path><path d="M945.57 623.35a406.86 406.86 0 0 0-241.14-9.42c31.62 13.63 53.71 44.73 53.71 80.92 0 0.28-0.1 0.65-0.1 1s0.1 0.65 0.1 1c0 48.73-40.06 88.22-89.52 88.22s-89.49-39.49-89.49-88.22c0-0.31 0.07-0.65 0.1-1s-0.1-0.65-0.1-1a9.49 9.49 0 0 1 0.14-1.43l-14.6-10.59a404.3 404.3 0 0 0-155.35 264.86A448.85 448.85 0 0 0 512 959.53c208.72 0 384.07-142.89 433.57-336.18z" fill="#05C46D" p-id="66028"></path><path d="M411.22 151.84c7.56 11.35-32.21 25.37-74.16 53.32s-70.2 59.25-77.76 47.91 15.63-50.24 57.58-78.19 86.78-34.39 94.34-23.04z" fill="#FFFFFF" p-id="66029"></path></svg>