<?xml version="1.0" standalone="no"?><!DOCTYPE svg PUBLIC "-//W3C//DTD SVG 1.1//EN" "http://www.w3.org/Graphics/SVG/1.1/DTD/svg11.dtd"><svg t="1749781237127" class="icon" viewBox="0 0 1024 1024" version="1.1" xmlns="http://www.w3.org/2000/svg" p-id="83405" xmlns:xlink="http://www.w3.org/1999/xlink" width="200" height="200"><path d="M787.3024 896.4096H239.9232c-81.8688 0-148.2752-66.3552-148.2752-148.2752V276.7872c0-81.8688 66.3552-148.2752 148.2752-148.2752H400.384c18.1248 0 35.5328 7.2192 48.3328 20.0704l106.9568 107.264c12.8 12.8512 30.208 20.0704 48.3328 20.0704h183.296c81.8688 0 148.2752 66.3552 148.2752 148.2752v323.9424c0 81.92-66.4064 148.2752-148.2752 148.2752z" fill="#FF5D50" p-id="83406"></path><path d="M557.4144 379.5456l28.2624 57.2928a48.82432 48.82432 0 0 0 36.7616 26.7264l63.232 9.1648c40.0896 5.8368 56.064 55.04 27.0848 83.3024l-45.7728 44.5952a48.7936 48.7936 0 0 0-14.0288 43.2128l10.8032 62.976c6.8608 39.8848-35.0208 70.3488-70.8608 51.5072l-56.576-29.7472a48.896 48.896 0 0 0-45.4656 0l-56.576 29.7472c-35.84 18.8416-77.7216-11.5712-70.8608-51.5072l10.8032-62.976c2.7136-15.8208-2.56-32-14.0288-43.2128l-45.7728-44.5952c-28.9792-28.2624-13.0048-77.5168 27.0848-83.3024l63.232-9.1648c15.9232-2.304 29.6448-12.288 36.7616-26.7264l28.2624-57.2928c17.9712-36.3008 69.7344-36.3008 87.6544 0z" fill="#FFDF99" p-id="83407"></path></svg>