<?xml version="1.0" standalone="no"?><!DOCTYPE svg PUBLIC "-//W3C//DTD SVG 1.1//EN" "http://www.w3.org/Graphics/SVG/1.1/DTD/svg11.dtd"><svg t="1749897529691" class="icon" viewBox="0 0 1024 1024" version="1.1" xmlns="http://www.w3.org/2000/svg" p-id="309900" xmlns:xlink="http://www.w3.org/1999/xlink" width="200" height="200"><path d="M341.305176 1023.744874a68.261035 68.261035 0 0 1-68.261035-68.261035V68.431688a68.261035 68.261035 0 1 1 136.52207 0V955.654492a68.261035 68.261035 0 0 1-68.261035 68.261035zM20.051679 356.749235a68.005056 68.005056 0 0 1 0-96.24806l240.620149-240.620149A68.005056 68.005056 0 1 1 356.663909 116.214412l-240.620149 240.620149a68.005056 68.005056 0 0 1-96.162734 0z" fill="#333333" p-id="309901"></path><path d="M682.610351 1023.744874a68.261035 68.261035 0 0 1-68.261035-68.261035V68.431688a68.261035 68.261035 0 1 1 136.52207 0V955.654492a68.261035 68.261035 0 0 1-68.261035 68.261035z m321.338823-356.578582a68.005056 68.005056 0 0 1 0 96.24806l-240.620149 240.620148a68.005056 68.005056 0 1 1-96.162733-96.248059l240.620149-240.620149a68.005056 68.005056 0 0 1 96.162733 0z" fill="#BBBBBB" p-id="309902"></path></svg>