<?xml version="1.0" standalone="no"?><!DOCTYPE svg PUBLIC "-//W3C//DTD SVG 1.1//EN" "http://www.w3.org/Graphics/SVG/1.1/DTD/svg11.dtd"><svg t="1750974195717" class="icon" viewBox="0 0 1024 1024" version="1.1" xmlns="http://www.w3.org/2000/svg" p-id="78616" xmlns:xlink="http://www.w3.org/1999/xlink" width="256" height="256"><path d="M0 512a512 512 0 1 0 1024 0A512 512 0 0 0 0 512z" fill="#3C313F" p-id="78617"></path><path d="M188.643556 679.480889c18.033778 4.039111 33.507556 3.982222 46.421333-0.284445 12.970667-4.323556 24.860444-11.207111 35.726222-20.764444 10.524444-9.557333 19.000889-21.617778 25.372445-36.181333 6.826667-17.237333 10.126222-35.669333 9.557333-54.158223 0-17.408-2.161778-31.857778-6.542222-43.121777a129.763556 129.763556 0 0 0-7.168-15.587556 59.562667 59.562667 0 0 0-10.410667-13.653333 122.88 122.88 0 0 0-17.066667-13.880889 334.791111 334.791111 0 0 0-27.136-16.384c-22.300444-11.605333-35.612444-22.869333-40.049777-33.848889a72.192 72.192 0 0 1-6.656-29.696 55.580444 55.580444 0 0 1 6.656-27.192889c5.233778-11.377778 32.540444-9.728 37.546666 3.584 5.006222 13.312 4.437333 11.150222 5.802667 18.204445 1.479111 6.997333 2.332444 14.222222 2.958222 21.788444l58.766222-8.192a151.324444 151.324444 0 0 0-11.264-54.101333 123.050667 123.050667 0 0 0-21.674666-34.133334 59.960889 59.960889 0 0 0-13.937778-10.24 84.309333 84.309333 0 0 0-30.037333-9.557333 53.077333 53.077333 0 0 0-23.438223 1.024A101.546667 101.546667 0 0 0 170.666667 317.44a74.979556 74.979556 0 0 0-14.165334 12.629333 120.376889 120.376889 0 0 0-30.037333 83.114667c0 18.147556 2.218667 32.824889 6.656 44.088889 7.452444 21.333333 22.812444 38.968889 42.951111 49.265778 10.126222 5.404444 20.309333 10.808889 30.435556 16.384 10.581333 6.200889 19.114667 14.392889 25.6 24.689777 6.656 10.24 9.841778 20.138667 9.841777 29.696a40.277333 40.277333 0 0 1-3.982222 18.318223 31.971556 31.971556 0 0 1-10.24 12.288 22.528 22.528 0 0 1-13.880889 4.096 26.737778 26.737778 0 0 1-15.246222-5.859556 55.182222 55.182222 0 0 1-14.108444-17.806222 117.418667 117.418667 0 0 1-10.922667-31.516445l-58.368 10.808889c0.853333 12.231111 3.413333 24.576 7.736889 36.864 4.323556 12.288 9.841778 23.722667 16.497778 34.133334 6.656 10.410667 14.222222 19.342222 22.641777 26.680889 7.509333 6.826667 16.668444 11.719111 26.567112 14.108444v0.056889z m245.987555-2.389333c32.654222 0 56.718222-10.524444 72.419556-31.459556 15.530667-21.048889 23.381333-53.418667 23.381333-96.995556 0-43.804444-7.850667-76.231111-23.381333-97.336888-15.701333-21.162667-39.765333-31.687111-72.419556-31.687112-63.203556 0-94.833778 43.008-94.833778 129.024 0 43.178667 7.850667 75.320889 23.552 96.540445 15.758222 21.219556 39.537778 31.857778 71.281778 31.857778z" fill="#FFFFFF" p-id="78618"></path><path d="M434.744889 629.304889a23.381333 23.381333 0 0 1-18.488889-7.793778c-4.608-5.12-7.907556-13.653333-9.898667-25.372444a293.888 293.888 0 0 1-2.958222-47.502223 299.861333 299.861333 0 0 1 2.901333-47.900444c2.048-11.832889 5.347556-20.423111 9.955556-25.6a23.381333 23.381333 0 0 1 18.488889-7.736889c8.078222 0 14.449778 2.56 19.057778 7.566222 4.664889 5.12 8.021333 13.539556 10.069333 25.429334 1.991111 11.946667 2.901333 27.989333 2.901333 48.241777 0 20.138667-0.910222 36.067556-2.901333 47.843556-2.048 11.719111-5.404444 20.138667-10.012444 25.258667a24.632889 24.632889 0 0 1-19.114667 7.566222z" fill="#3C313F" p-id="78619"></path><path d="M659.171556 677.091556c20.935111 0 37.546667-3.640889 49.891555-10.808889a61.44 61.44 0 0 0 26.680889-32.938667c5.461333-14.620444 8.248889-33.223111 8.248889-55.580444V423.424h-51.427556v150.698667c0 19.911111-2.446222 33.905778-7.395555 42.040889-5.006222 8.135111-13.710222 12.231111-25.998222 12.231111-12.174222 0-20.764444-4.096-25.770667-12.458667-4.949333-8.192-7.395556-22.186667-7.395556-41.756444V423.367111H574.577778v154.453333c0 22.072889 2.673778 40.618667 8.192 55.352889 4.664889 13.880889 14.222222 25.6 26.737778 33.109334 12.288 7.168 28.842667 10.808889 49.607111 10.808889z" fill="#FFFFFF" p-id="78620"></path><path d="M877.738667 673.621333v-43.008c-12.743111 2.730667-22.243556 0.910222-28.444445-5.404444-11.150222-11.264-10.638222-35.84-10.638222-75.036445V295.936h-58.311111v297.756444c-0.398222 18.773333 5.518222 36.750222 17.692444 53.76 12.231111 17.123556 29.297778 25.827556 51.2 26.282667h28.558223l-0.056889-0.113778z" fill="#80BFB7" p-id="78621"></path></svg>