<?xml version="1.0" standalone="no"?><!DOCTYPE svg PUBLIC "-//W3C//DTD SVG 1.1//EN" "http://www.w3.org/Graphics/SVG/1.1/DTD/svg11.dtd"><svg t="1750341739216" class="icon" viewBox="0 0 1024 1024" version="1.1" xmlns="http://www.w3.org/2000/svg" p-id="259471" xmlns:xlink="http://www.w3.org/1999/xlink" width="200" height="200"><path d="M749.466 226.355a15.37 15.37 0 0 1-9.933-3.635 15.39 15.39 0 0 1-1.792-21.658l69.785-82.534a15.39 15.39 0 0 1 21.658-1.792 15.39 15.39 0 0 1 1.792 21.658l-69.786 82.534a15.48 15.48 0 0 1-11.724 5.427z m97.126 139.981c-6.144 0-11.93-3.686-14.285-9.78-3.072-7.884 0.82-16.793 8.704-19.916l103.168-40.448a15.36 15.36 0 0 1 19.917 8.704c3.072 7.885-0.82 16.794-8.704 19.917L852.224 365.26a14.848 14.848 0 0 1-5.632 1.075z m136.55 189.184c-0.716 0-1.433-0.051-2.15-0.154l-111.258-15.513a15.401 15.401 0 0 1-13.107-17.357 15.37 15.37 0 0 1 17.357-13.107l111.258 15.513c8.396 1.178 14.284 8.96 13.107 17.357a15.33 15.33 0 0 1-15.207 13.261z" fill="#333333" p-id="259472"></path><path d="M488.243 910.387a42.307 42.307 0 0 1-59.853 0l-80.281-77.414 118.784-0.922 21.35 18.483a42.307 42.307 0 0 1 0 59.853z" fill="#FFA750" p-id="259473"></path><path d="M458.291 938.086c-14.745 0-29.542-5.632-40.806-16.844l-110.029-110.03a15.401 15.401 0 0 1-3.38-16.69 15.33 15.33 0 0 1 14.08-9.524l118.785-0.921c4.25-0.205 8.09 1.587 10.957 4.505l51.097 51.098c22.477 22.477 22.477 59.085 0 81.562-11.161 11.264-25.907 16.844-40.704 16.844zM355.123 815.411l84.122 84.122c10.496 10.496 27.597 10.496 38.144 0a27.039 27.039 0 0 0 0-38.144l-46.541-46.541-75.725 0.563z" fill="#333333" p-id="259474"></path><path d="M779.776 387.84c60.928 152.218 40.96 303.36-44.595 337.613-68.967 27.597-159.488-29.133-223.949-131.891 39.578-6.861 262.246 18.995 174.438-186.317-74.137-173.312-217.139-22.221-246.118-4.608-16.998-109.62 10.189-202.496 74.906-228.455 85.606-34.201 204.39 61.44 265.318 213.658z" fill="#FDCFA5" p-id="259475"></path><path d="M570.334 465.34a133.94 64.46 68.181 1 0 119.686-47.917 133.94 64.46 68.181 1 0-119.686 47.917z" fill="#BC9BE0" p-id="259476"></path><path d="M432.947 516.147c-50.995-127.385-39.475-185.344-23.45-240.998L156.98 510.976c-1.075 42.598 4.147 69.427 29.645 121.651 19.098 34.765 42.752 70.605 86.682 99.687l396.236 7.884c-86.118-3.635-184.012-92.672-236.595-224.05z m-272.23 143.155c-21.607-44.288-35.687-86.374-34.816-122.521l-24.423 22.63c-33.228 30.31-39.628 78.387-22.17 119.86a106.281 106.281 0 0 0 98.817 65.023l55.808-0.46h0.256c-37.223-24.679-57.242-55.092-73.472-84.532z" fill="#FFA750" p-id="259477"></path><path d="M540.16 477.44c-24.371-60.826-18.278-121.958 12.186-146.688l-111.872 78.08c14.592 94.464 68.608 178.125 68.608 178.125l132.71-11.776c-37.171-2.663-79.002-41.216-101.632-97.741z" fill="#BC9BE0" p-id="259478"></path><path d="M790.374 373.043c-31.488-78.592-79.718-145.254-135.833-187.75-58.42-44.186-118.63-57.242-169.677-36.813-19.968 7.987-37.376 20.736-51.917 37.53L107.213 483.072l-34.97 31.898c-43.93 40.038-57.907 103.782-34.867 158.566 22.067 52.429 72.858 86.118 129.638 86.118h1.178l66.253-0.563 432.333-3.533c2.662 0.154 5.273 0.256 7.936 0.256 17.152 0 33.792-3.123 49.51-9.42 51.046-20.43 85.606-71.476 97.382-143.77 11.367-69.478 0.256-150.989-31.232-229.58z m-244.326-5.837c0.051-0.204 0.102-0.358 0.205-0.563 0.717-2.048 1.536-3.993 2.406-5.888 0.205-0.46 0.461-0.973 0.666-1.433 0.717-1.434 1.485-2.765 2.253-4.096 0.46-0.768 0.921-1.588 1.382-2.304a33.137 33.137 0 0 1 1.894-2.56c0.768-0.973 1.485-1.997 2.304-2.868 0.461-0.563 1.024-1.024 1.485-1.536a39.448 39.448 0 0 1 3.021-2.867c2.867-2.406 5.99-4.352 9.37-5.683 4.198-1.69 8.704-2.509 13.414-2.509 11.98 0 25.498 5.325 39.168 15.719 21.35 16.179 39.885 41.932 52.173 72.601 12.288 30.669 16.64 62.106 12.339 88.525-3.84 23.654-14.131 39.885-28.98 45.824-5.12 2.048-10.751 2.765-16.69 2.304-1.536-0.102-3.072-0.358-4.608-0.614-0.512-0.103-1.024-0.154-1.485-0.256-1.536-0.308-3.123-0.768-4.66-1.23-0.563-0.153-1.075-0.358-1.638-0.511a67.546 67.546 0 0 1-4.71-1.792l-1.69-0.768a70.27 70.27 0 0 1-4.813-2.407c-0.46-0.256-0.87-0.512-1.33-0.768-20.122-11.417-39.988-33.536-54.478-61.132-0.512-1.024-1.075-2.1-1.587-3.124-0.921-1.843-1.843-3.737-2.765-5.632a249.48 249.48 0 0 1-4.3-9.881 176.845 176.845 0 0 1-3.892-10.599c-0.614-1.792-1.126-3.635-1.69-5.427-0.511-1.587-1.023-3.225-1.433-4.813a208.776 208.776 0 0 1-1.843-7.116c-0.205-0.973-0.46-1.895-0.666-2.868-0.614-2.662-1.126-5.324-1.638-7.987l-0.307-1.74c-0.461-2.817-0.922-5.633-1.229-8.449-0.051-0.307-0.051-0.665-0.102-0.972-0.82-6.912-1.127-13.62-1.076-20.07 0.052-2.663 0.103-5.377 0.308-7.988 0.05-0.41 0.102-0.768 0.102-1.178 0.256-3.123 0.614-6.246 1.126-9.267 0-0.051 0-0.153 0.052-0.205 0.921-5.734 2.252-11.008 3.942-15.872z m-25.088 102.35c1.485 4.556 3.174 9.062 4.966 13.567 1.741 4.352 3.636 8.653 5.581 12.851 0.717 1.485 1.485 2.919 2.202 4.404 1.331 2.61 2.611 5.273 3.993 7.833 0.973 1.792 1.997 3.482 3.021 5.223 1.229 2.15 2.458 4.3 3.738 6.348 1.177 1.844 2.406 3.636 3.584 5.428 1.229 1.843 2.457 3.686 3.686 5.478 1.28 1.843 2.663 3.584 3.994 5.325 1.28 1.638 2.509 3.277 3.789 4.864 1.382 1.69 2.816 3.328 4.25 4.966 1.33 1.485 2.61 3.021 3.993 4.455a124.178 124.178 0 0 0 4.454 4.556 160.412 160.412 0 0 0 4.25 4.096c1.485 1.383 3.02 2.714 4.557 4.045 0.716 0.615 1.433 1.331 2.15 1.895l-104.346 9.267c-10.24-19.661-34.867-69.069-48.588-114.176a493.685 493.685 0 0 1-5.428-21.607l86.887-60.518c-4.506 27.136-1.587 59.187 9.267 91.7zM167.987 728.882h-0.921c-44.39 0-84.122-26.317-101.325-67.277-18.023-42.803-7.066-92.62 27.238-123.955l9.882-9.011c0.102 1.587 0.256 3.174 0.41 4.762 0.153 2.201 0.358 4.352 0.563 6.553 0.41 4.403 0.87 8.755 1.433 13.056 0.256 1.997 0.461 3.943 0.768 5.888 0.82 5.786 1.792 11.52 2.919 17.152 0.05 0.359 0.102 0.717 0.204 1.075 1.178 5.94 2.612 11.828 4.096 17.613 0.461 1.792 0.973 3.584 1.485 5.325a297.795 297.795 0 0 0 5.53 17.92 389.099 389.099 0 0 0 4.3 11.622c0.666 1.69 1.332 3.43 1.997 5.07 2.253 5.426 4.608 10.751 7.168 16.025 0.103 0.205 0.205 0.46 0.359 0.665a719.248 719.248 0 0 0 4.813 8.55l1.382 2.458a269.886 269.886 0 0 0 4.3 7.27c0.36 0.564 0.666 1.127 1.025 1.69a265.447 265.447 0 0 0 5.427 8.602c0.46 0.768 0.973 1.485 1.485 2.253 1.536 2.304 3.072 4.608 4.71 6.912 0.512 0.717 1.024 1.485 1.536 2.201 2.048 2.868 4.147 5.684 6.298 8.55 0.46 0.564 0.921 1.127 1.331 1.69 1.843 2.356 3.738 4.66 5.683 7.015 0.666 0.768 1.331 1.587 1.997 2.355a227.07 227.07 0 0 0 7.526 8.397c0.154 0.153 0.308 0.358 0.512 0.512a218.264 218.264 0 0 0 7.68 7.731c0.41 0.358 0.717 0.768 1.127 1.126l-22.938 0.205z m70.963-0.563c-0.614-0.41-1.228-0.87-1.843-1.28-1.229-0.87-2.406-1.74-3.635-2.611-1.178-0.87-2.304-1.741-3.482-2.611-1.126-0.87-2.252-1.741-3.379-2.663l-3.328-2.713c-1.075-0.87-2.15-1.792-3.174-2.663-1.075-0.921-2.1-1.843-3.175-2.816-1.024-0.921-1.996-1.792-2.97-2.713-1.023-0.973-1.996-1.895-2.969-2.868-0.921-0.921-1.894-1.843-2.816-2.764a148.796 148.796 0 0 1-2.816-2.919c-0.87-0.921-1.792-1.843-2.662-2.816-0.922-0.973-1.792-1.997-2.714-2.97-0.819-0.921-1.69-1.894-2.457-2.815-0.87-1.024-1.69-2.048-2.56-3.021l-2.356-2.816a125.939 125.939 0 0 1-2.406-3.072c-0.717-0.973-1.485-1.895-2.202-2.867-0.768-1.024-1.536-2.1-2.304-3.124l-2.099-2.867c-0.768-1.075-1.485-2.15-2.253-3.225-0.665-0.922-1.28-1.844-1.945-2.816-0.768-1.127-1.485-2.253-2.202-3.38l-1.74-2.662c-0.769-1.178-1.485-2.355-2.253-3.533-0.512-0.819-1.076-1.69-1.588-2.509a159.942 159.942 0 0 1-2.355-3.942c-0.41-0.717-0.87-1.434-1.28-2.15-1.126-1.946-2.253-3.84-3.328-5.786-0.051-0.102-0.102-0.154-0.153-0.256-1.178-2.048-2.304-4.096-3.43-6.144a278.729 278.729 0 0 1-6.913-15.462c-0.717-1.69-1.28-3.482-1.945-5.172-1.383-3.584-2.765-7.168-3.994-10.854-0.717-2.202-1.382-4.506-2.048-6.758-1.024-3.277-2.048-6.503-2.918-9.83-0.666-2.458-1.23-5.018-1.792-7.527-0.768-3.175-1.536-6.349-2.202-9.575-0.563-2.662-0.973-5.376-1.434-8.09-0.563-3.174-1.126-6.348-1.587-9.574-0.41-2.764-0.717-5.632-1.024-8.448-0.358-3.225-0.768-6.45-1.075-9.728-0.256-2.918-0.41-5.836-0.614-8.755-0.205-3.277-0.41-6.605-0.512-9.933-0.103-2.97-0.103-5.99-0.154-9.062v-6.963l260.66-237.773-0.462 1.843-1.075 4.301c-3.584 14.54-6.144 29.952-7.526 45.978-0.103 1.28-0.256 2.56-0.359 3.84a208.724 208.724 0 0 0-0.46 7.987c-0.154 2.355-0.256 4.71-0.359 7.117l-0.153 6.502c-0.052 3.072-0.103 6.093-0.052 9.216 0 1.74 0.052 3.482 0.103 5.222 0.051 3.687 0.205 7.424 0.41 11.162 0.05 1.28 0.102 2.56 0.204 3.84a399.94 399.94 0 0 0 1.024 13.517l0.154 1.843c1.536 16.333 4.045 32.87 7.526 49.562 1.587 8.806 3.789 18.073 6.503 27.443 0.46 1.69 0.972 3.328 1.433 5.017 0.41 1.536 0.87 3.021 1.28 4.557a509.817 509.817 0 0 0 3.533 11.725c0.512 1.69 1.075 3.38 1.587 5.069a527.605 527.605 0 0 0 3.994 11.725c0.563 1.587 1.075 3.174 1.638 4.761a476.285 476.285 0 0 0 6.144 16.18 510.64 510.64 0 0 0 6.81 16.179c0.41 0.972 0.87 1.894 1.28 2.867 2.048 4.608 4.198 9.216 6.349 13.773 0.204 0.46 0.41 0.87 0.665 1.33a493.85 493.85 0 0 0 22.784 41.882l0.051 0.052c27.546 45.363 61.03 83.814 97.946 111.718 7.782 5.888 15.616 11.213 23.45 15.974L238.95 728.32z m473.856-10.445c-13.21 5.274-27.392 7.578-42.188 7.015-0.154 0-0.308-0.052-0.461-0.052-10.035-0.41-20.224-2.15-30.464-5.017-0.307-0.103-0.563-0.154-0.87-0.256-1.537-0.461-3.124-0.973-4.66-1.485-1.587-0.512-3.174-1.024-4.813-1.587a42.224 42.224 0 0 1-2.304-0.87c-17.715-6.708-35.89-16.897-54.016-30.618-16.128-12.186-31.539-26.624-46.08-42.906-0.05-0.102-0.153-0.153-0.204-0.256a434.687 434.687 0 0 1-7.63-8.909c-0.358-0.46-0.767-0.87-1.126-1.33a432.599 432.599 0 0 1-7.27-9.063c-1.74-2.202-3.43-4.506-5.12-6.759l-1.894-2.508a293.297 293.297 0 0 1-5.479-7.68c-0.41-0.564-0.819-1.178-1.229-1.741l-0.307-0.461 145.152-12.851c1.28 0.051 2.509 0.205 3.789 0.205 8.602 0 16.947-1.588 24.883-4.762 25.19-10.086 42.189-34.765 47.872-69.427 5.171-31.847 0.154-69.12-14.131-104.909-14.336-35.789-36.403-66.202-62.157-85.658-28.006-21.196-57.344-27.29-82.534-17.203-6.298 2.509-12.083 5.99-17.357 10.24L418.56 405.35c-12.083-81.408 0.563-155.955 37.325-198.86 0.307-0.359 0.512-0.717 0.768-1.076 11.161-12.595 24.371-22.323 39.629-28.416 11.98-4.812 24.73-7.168 38.041-7.168 31.847 0 66.816 13.568 101.683 39.988 51.764 39.116 96.41 101.17 125.85 174.643 59.7 149.094 37.734 298.65-49.05 333.414z" fill="#333333" p-id="259479"></path></svg>