<?xml version="1.0" standalone="no"?><!DOCTYPE svg PUBLIC "-//W3C//DTD SVG 1.1//EN" "http://www.w3.org/Graphics/SVG/1.1/DTD/svg11.dtd"><svg t="1750384130621" class="icon" viewBox="0 0 1024 1024" version="1.1" xmlns="http://www.w3.org/2000/svg" p-id="118742" xmlns:xlink="http://www.w3.org/1999/xlink" width="200" height="200"><path d="M512 512m-256 0a256 256 0 1 0 512 0 256 256 0 1 0-512 0Z" fill="#00CC92" p-id="118743"></path><path d="M204.8 512c0-17.408 1.536-34.304 4.096-51.2H102.4v102.4h106.496c-2.56-16.896-4.096-33.792-4.096-51.2zM333.824 261.632L258.56 186.368 186.368 258.56l75.264 75.264C281.6 306.176 306.176 281.6 333.824 261.632zM512 204.8c17.408 0 34.304 1.536 51.2 4.096V102.4H460.8v106.496c16.896-2.56 33.792-4.096 51.2-4.096zM762.368 333.824l75.264-75.264-72.192-72.192-75.264 75.264c27.648 19.968 52.224 44.544 72.192 72.192zM815.104 460.8c2.56 16.896 4.096 33.792 4.096 51.2s-1.536 34.304-4.096 51.2H921.6V460.8h-106.496zM690.176 762.368l75.264 75.264 72.192-72.192-75.264-75.264c-19.968 27.648-44.544 52.224-72.192 72.192zM261.632 690.176l-75.264 75.264 72.192 72.192 75.264-75.264c-27.648-19.968-52.224-44.544-72.192-72.192zM512 819.2c-17.408 0-34.304-1.536-51.2-4.096V921.6h102.4v-106.496c-16.896 2.56-33.792 4.096-51.2 4.096z" fill="#2BB054" p-id="118744"></path></svg>