<?xml version="1.0" standalone="no"?><!DOCTYPE svg PUBLIC "-//W3C//DTD SVG 1.1//EN" "http://www.w3.org/Graphics/SVG/1.1/DTD/svg11.dtd"><svg t="1751528530352" class="icon" viewBox="0 0 1024 1024" version="1.1" xmlns="http://www.w3.org/2000/svg" p-id="41409" xmlns:xlink="http://www.w3.org/1999/xlink" width="256" height="256"><path d="M0 227.555556c0-28.444444 22.755556-56.888889 45.511111-56.888889h534.755556c22.755556 0 45.511111 28.444444 45.511111 56.888889 0 34.133333-22.755556 56.888889-45.511111 56.888888H45.511111C22.755556 284.444444 0 261.688889 0 227.555556m0 227.555555c0-28.444444 22.755556-56.888889 45.511111-56.888889h534.755556c22.755556 0 45.511111 28.444444 45.511111 56.888889 0 34.133333-22.755556 56.888889-45.511111 56.888889H45.511111C22.755556 512 0 489.244444 0 455.111111m0 227.555556c0-28.444444 22.755556-56.888889 51.2-56.888889h295.822222c28.444444 0 51.2 28.444444 51.2 56.888889 0 34.133333-22.755556 56.888889-51.2 56.888889H51.2c-28.444444 0-51.2-22.755556-51.2-56.888889m739.555556-5.688889V45.511111c0-22.755556 22.755556-45.511111 45.511111-45.511111h187.733333c28.444444 0 51.2 22.755556 51.2 45.511111 0 28.444444-22.755556 45.511111-45.511111 45.511111h-142.222222v750.933334c0 102.4-85.333333 182.044444-187.733334 182.044444-102.4 0-187.733333-85.333333-187.733333-187.733333s85.333333-187.733333 187.733333-187.733334c28.444444 5.688889 62.577778 11.377778 91.022223 28.444445" fill="#515151" p-id="41410"></path></svg>