<?xml version="1.0" standalone="no"?><!DOCTYPE svg PUBLIC "-//W3C//DTD SVG 1.1//EN" "http://www.w3.org/Graphics/SVG/1.1/DTD/svg11.dtd"><svg t="1749163913560" class="icon" viewBox="0 0 1562 1024" version="1.1" xmlns="http://www.w3.org/2000/svg" p-id="93026" xmlns:xlink="http://www.w3.org/1999/xlink" width="305.078125" height="200"><path d="M700.631579 393.431579h862.315789v75.452632H700.631579zM0 867.705263h1562.947368v75.452632H0zM0 711.410526h1562.947368v75.452632H0zM0 549.726316h1562.947368v75.452631H0zM700.631579 237.136842h862.315789v75.452632H700.631579zM700.631579 80.842105h862.315789v75.452632H700.631579z" fill="#FFFFFF" p-id="93027"></path><path d="M0 943.157895h1562.947368V1024H0zM0 630.568421h1562.947368v80.842105H0zM0 786.863158h1562.947368v80.842105H0zM700.631579 156.294737h862.315789v80.842105H700.631579zM700.631579 312.589474h862.315789v80.842105H700.631579zM700.631579 538.947368H0v10.778948h1562.947368V468.884211H700.631579zM700.631579 0h862.315789v80.842105H700.631579z" fill="#E50012" p-id="93028"></path><path d="M75.452632 312.589474h10.778947-5.389474zM398.821053 312.589474h10.778947-5.389474zM614.4 312.589474h10.778947-5.389473zM555.115789 156.294737h21.557895l-10.778947-10.778948zM506.610526 312.589474h10.778948-5.389474zM447.326316 156.294737h21.557895l-10.778948-10.778948zM231.747368 156.294737h21.557895l-10.778947-10.778948zM339.536842 156.294737h21.557895l-10.778948-10.778948zM123.957895 156.294737h21.557894l-10.778947-10.778948zM183.242105 312.589474h10.778948-5.389474zM291.031579 312.589474h10.778947-5.389473z" fill="#1E2380" p-id="93029"></path><path d="M123.957895 140.126316L107.789474 129.347368h21.557894l5.389474-21.557894 5.389474 21.557894H161.684211l-16.168422 10.778948 5.389474 16.168421h75.452632l5.389473-16.168421-16.168421-10.778948h21.557895l5.389474-21.557894 5.389473 21.557894H269.473684l-16.168421 10.778948 5.389474 16.168421h75.452631l5.389474-16.168421-16.168421-10.778948h21.557895l5.389473-21.557894 5.389474 21.557894H377.263158l-16.168421 10.778948 5.389474 16.168421h75.452631l5.389474-16.168421-16.168421-10.778948h21.557894l5.389474-21.557894 5.389474 21.557894H485.052632l-16.168421 10.778948 5.389473 16.168421h75.452632l5.389473-16.168421-16.168421-10.778948h21.557895l5.389474-21.557894 5.389474 21.557894h21.557894l-16.168421 10.778948 5.389474 16.168421H700.631579V80.842105h-64.673684l-5.389474 5.389474 5.389474 21.557895-16.168421-16.168421-16.168421 16.168421 5.389473-21.557895-5.389473-5.389474H528.168421l-5.389474 5.389474 5.389474 21.557895-16.168421-16.168421-16.168421 16.168421 5.389474-21.557895-5.389474-5.389474H420.378947l-5.389473 5.389474 5.389473 21.557895-16.168421-16.168421-16.168421 16.168421 5.389474-21.557895-5.389474-5.389474H312.589474l-5.389474 5.389474 5.389474 21.557895-16.168421-16.168421-16.168421 16.168421 5.389473-21.557895-5.389473-5.389474H204.8l-5.389474 5.389474 5.389474 21.557895-16.168421-16.168421-16.168421 16.168421 5.389474-21.557895-5.389474-5.389474H97.010526l-5.389473 5.389474 5.389473 21.557895-16.168421-16.168421-16.168421 16.168421 5.389474-21.557895-5.389474-5.389474H0v75.452632h118.568421zM123.957895 463.494737L107.789474 452.715789h21.557894l5.389474-21.557894 5.389474 21.557894H161.684211l-16.168422 10.778948v5.389474h86.231579v-5.389474L215.578947 452.715789h21.557895l5.389474-21.557894 5.389473 21.557894H269.473684l-16.168421 10.778948v5.389474h86.231579v-5.389474L323.368421 452.715789h21.557895l5.389473-21.557894 5.389474 21.557894H377.263158l-16.168421 10.778948v5.389474h86.231579v-5.389474L431.157895 452.715789h21.557894l5.389474-21.557894 5.389474 21.557894H485.052632l-16.168421 10.778948v5.389474h86.231578v-5.389474l-16.168421-10.778948h21.557895l5.389474-21.557894 5.389474 21.557894h21.557894l-16.168421 10.778948v5.389474H700.631579V393.431579h-75.452632v5.389474h21.557895l-16.168421 10.778947 5.389474 21.557895-16.168421-10.778948-16.168421 10.778948 5.389473-21.557895-16.168421-10.778947h21.557895v-5.389474H517.389474v5.389474h21.557894l-16.168421 10.778947 5.389474 21.557895-16.168421-10.778948-16.168421 10.778948 5.389474-21.557895-16.168421-10.778947h21.557894v-5.389474H409.6v5.389474H431.157895l-16.168421 10.778947 5.389473 21.557895-16.168421-10.778948-16.168421 10.778948 5.389474-21.557895-16.168421-10.778947h21.557895v-5.389474H301.810526v5.389474H323.368421l-16.168421 10.778947 5.389474 21.557895-16.168421-10.778948-16.168421 10.778948 5.389473-21.557895-16.168421-10.778947h21.557895v-5.389474H194.021053v5.389474H215.578947l-16.168421 10.778947 5.389474 21.557895-16.168421-10.778948-16.168421 10.778948 5.389474-21.557895-16.168421-10.778947h21.557894v-5.389474H86.231579v5.389474H107.789474l-16.168421 10.778947 5.389473 21.557895-16.168421-10.778948-16.168421 10.778948 5.389474-21.557895-16.168421-10.778947h21.557895v-5.389474H0v75.452632h123.957895zM70.063158 301.810526L53.894737 291.031579h21.557895l5.389473-21.557895 5.389474 21.557895H107.789474l-16.168421 10.778947v10.778948h80.842105l5.389474-10.778948-16.168421-10.778947h21.557894l5.389474-21.557895 5.389474 21.557895H215.578947l-16.168421 10.778947 5.389474 10.778948h75.452632l5.389473-10.778948-16.168421-10.778947h21.557895l5.389474-21.557895 5.389473 21.557895H323.368421l-16.168421 10.778947 5.389474 10.778948h80.842105v-10.778948L377.263158 291.031579h21.557895l5.389473-21.557895 5.389474 21.557895H431.157895l-16.168421 10.778947 5.389473 10.778948h80.842106v-10.778948L485.052632 291.031579h21.557894l5.389474-21.557895 5.389474 21.557895h21.557894l-16.168421 10.778947 5.389474 10.778948h80.842105v-10.778948l-16.168421-10.778947h21.557895l5.389474-21.557895 5.389473 21.557895h21.557895l-16.168421 10.778947 5.389474 10.778948H700.631579V237.136842h-107.789474l-16.168421 10.778947 5.389474 21.557895-16.168421-10.778947-16.168421 10.778947 5.389473-21.557895-10.778947-10.778947H485.052632l-16.168421 10.778947 5.389473 21.557895-16.168421-10.778947-16.168421 10.778947 5.389474-21.557895-10.778948-10.778947H377.263158l-16.168421 10.778947 5.389474 21.557895-16.168422-10.778947-16.168421 10.778947 5.389474-21.557895-10.778947-10.778947H264.084211l-10.778948 10.778947 5.389474 21.557895-16.168421-10.778947-16.168421 10.778947 5.389473-21.557895-16.168421-10.778947H161.684211l-16.168422 10.778947 5.389474 21.557895-16.168421-10.778947-16.168421 10.778947 5.389474-21.557895-16.168421-10.778947H0v75.452632h64.673684zM388.042105 538.947368h32.336842l-16.168421-10.778947z" fill="#1E2380" p-id="93030"></path><path d="M70.063158 517.389474L53.894737 506.610526h21.557895l5.389473-21.557894 5.389474 21.557894H107.789474l-16.168421 10.778948 5.389473 21.557894h75.452632l5.389474-21.557894-16.168421-10.778948h21.557894l5.389474-21.557894 5.389474 21.557894H215.578947l-16.168421 10.778948 5.389474 21.557894h75.452632l5.389473-21.557894-16.168421-10.778948h21.557895l5.389474-21.557894 5.389473 21.557894H323.368421l-16.168421 10.778948 5.389474 21.557894h75.452631l5.389474-21.557894-16.168421-10.778948h21.557895l5.389473-21.557894 5.389474 21.557894H431.157895l-16.168421 10.778948 5.389473 21.557894h75.452632l5.389474-21.557894-16.168421-10.778948h21.557894l5.389474-21.557894 5.389474 21.557894h21.557894l-16.168421 10.778948 5.389474 21.557894h75.452632l5.389473-21.557894-16.168421-10.778948h21.557895l5.389474-21.557894 5.389473 21.557894h21.557895l-16.168421 10.778948 5.389474 21.557894H700.631579V468.884211h-123.957895l5.389474 16.168421-16.168421-10.778948-16.168421 10.778948 5.389473-16.168421H468.884211l5.389473 16.168421-16.168421-10.778948-16.168421 10.778948 5.389474-16.168421H361.094737l5.389474 16.168421-16.168422-10.778948-16.168421 10.778948 5.389474-16.168421H253.305263l5.389474 16.168421-16.168421-10.778948-16.168421 10.778948 5.389473-16.168421H145.515789l5.389474 16.168421-16.168421-10.778948-16.168421 10.778948 5.389474-16.168421H0V538.947368h64.673684zM53.894737 75.452632h21.557895l5.389473-21.557895 5.389474 21.557895H107.789474l-10.778948 5.389473h75.452632L161.684211 75.452632h21.557894l5.389474-21.557895 5.389474 21.557895H215.578947l-10.778947 5.389473h75.452632L269.473684 75.452632h21.557895l5.389474-21.557895 5.389473 21.557895H323.368421l-10.778947 5.389473h75.452631L377.263158 75.452632h21.557895l5.389473-21.557895 5.389474 21.557895H431.157895l-10.778948 5.389473h75.452632L485.052632 75.452632h21.557894l5.389474-21.557895 5.389474 21.557895h21.557894l-10.778947 5.389473h75.452632l-10.778948-5.389473h21.557895l5.389474-21.557895 5.389473 21.557895h21.557895l-10.778947 5.389473H700.631579V0H0v80.842105h64.673684z" fill="#1E2380" p-id="93031"></path><path d="M64.673684 538.947368h32.336842l-16.168421-10.778947zM280.252632 538.947368h32.336842l-16.168421-10.778947zM107.789474 237.136842h21.557894l5.389474-21.557895 5.389474 21.557895H237.136842l5.389474-21.557895 5.389473 21.557895h102.4V215.578947l5.389474 21.557895h102.4V215.578947l5.389474 21.557895h102.4V215.578947l5.389474 21.557895H700.631579V156.294737h-118.568421V161.684211l-5.389474-5.389474h-26.947368V161.684211v-5.389474H474.273684V161.684211l-5.389473-5.389474h-21.557895l-5.389474 5.389474v-5.389474H366.484211V161.684211l-5.389474-5.389474h-21.557895l-5.389474 5.389474v-5.389474H258.694737V161.684211l-5.389474-5.389474h-21.557895l-5.389473 5.389474v-5.389474H150.905263V161.684211l-5.389474-5.389474h-21.557894l-5.389474 5.389474v-5.389474H0v80.842105h107.789474z m506.610526-53.894737l5.389474-21.557894 5.389473 21.557894h21.557895l-16.168421 10.778948 5.389474 21.557894-16.168421-10.778947-16.168421 10.778947 5.389473-21.557894-16.168421-10.778948h21.557895z m-107.789474 0l5.389474-21.557894 5.389474 21.557894h21.557894l-16.168421 10.778948 5.389474 21.557894-16.168421-16.168421-16.168421 16.168421 5.389474-21.557894-16.168421-10.778948h21.557894z m-107.789473 0l5.389473-21.557894 5.389474 21.557894H431.157895l-16.168421 10.778948 5.389473 21.557894-16.168421-16.168421-16.168421 16.168421 5.389474-21.557894-16.168421-10.778948h21.557895z m-107.789474 0l5.389474-21.557894 5.389473 21.557894H323.368421l-16.168421 10.778948 5.389474 21.557894-16.168421-16.168421-16.168421 16.168421 5.389473-21.557894-16.168421-10.778948h21.557895z m-107.789474 0l5.389474-21.557894 5.389474 21.557894H215.578947l-16.168421 10.778948 5.389474 21.557894-16.168421-16.168421-16.168421 16.168421 5.389474-21.557894-16.168421-10.778948h21.557894zM97.010526 215.578947l-16.168421-16.168421-16.168421 16.168421 5.389474-21.557894-16.168421-10.778948h21.557895l5.389473-21.557894 5.389474 21.557894H107.789474l-16.168421 10.778948 5.389473 21.557894zM603.621053 538.947368h32.336842l-16.168421-10.778947zM80.842105 377.263158l5.389474 16.168421h97.010526l5.389474-16.168421 5.389474 16.168421h97.010526l5.389474-16.168421 5.389473 16.168421h97.010527l5.389473-16.168421 5.389474 16.168421h97.010526l5.389474-16.168421 5.389474 16.168421h97.010526l5.389474-16.168421 5.389473 16.168421H700.631579V312.589474h-64.673684V323.368421l-10.778948-10.778947h-10.778947l-10.778947 10.778947v-10.778947H528.168421V323.368421l-10.778947-10.778947h-10.778948l-10.778947 10.778947v-10.778947H420.378947V323.368421l-10.778947-10.778947h-10.778947l-10.778948 10.778947v-10.778947H312.589474V323.368421l-10.778948-10.778947h-10.778947l-10.778947 10.778947v-10.778947H204.8V323.368421l-10.778947-10.778947h-10.778948l-10.778947 10.778947v-10.778947H91.621053V323.368421l-5.389474-10.778947h-10.778947l-10.778948 10.778947v-10.778947H0v80.842105h75.452632l5.389473-16.168421z m479.663158-32.336842l5.389474-21.557895 5.389474 21.557895h21.557894l-16.168421 10.778947 5.389474 21.557895-16.168421-10.778947-16.168421 10.778947 5.389473-21.557895-16.168421-10.778947h21.557895z m-107.789474 0l5.389474-21.557895 5.389474 21.557895H485.052632l-16.168421 10.778947 5.389473 21.557895-16.168421-10.778947-16.168421 10.778947 5.389474-21.557895-16.168421-10.778947h21.557894z m-107.789473 0l5.389473-21.557895 5.389474 21.557895H377.263158l-16.168421 10.778947 5.389474 21.557895-16.168422-10.778947-16.168421 10.778947 5.389474-21.557895-16.168421-10.778947h21.557895z m-107.789474 0l5.389474-21.557895 5.389473 21.557895H269.473684l-16.168421 10.778947 5.389474 21.557895-16.168421-10.778947-16.168421 10.778947 5.389473-21.557895-16.168421-10.778947h21.557895z m-107.789474 0l5.389474-21.557895 5.389474 21.557895H161.684211l-16.168422 10.778947 5.389474 21.557895-16.168421-10.778947-16.168421 10.778947 5.389474-21.557895-16.168421-10.778947h21.557894zM172.463158 538.947368h32.336842l-16.168421-10.778947zM495.831579 538.947368h32.336842l-16.168421-10.778947z" fill="#1E2380" p-id="93032"></path><path d="M538.947368 291.031579h-21.557894L512 269.473684l-5.389474 21.557895H485.052632l16.168421 10.778947v10.778948h26.947368l-5.389474-10.778948zM555.115789 247.915789l-5.389473 21.557895 16.168421-10.778947 16.168421 10.778947-5.389474-21.557895 16.168421-10.778947h-48.505263zM339.536842 247.915789l-5.389474 21.557895 16.168421-10.778947 16.168422 10.778947-5.389474-21.557895 16.168421-10.778947h-48.505263zM231.747368 247.915789l-5.389473 21.557895 16.168421-10.778947 16.168421 10.778947-5.389474-21.557895 10.778948-10.778947H215.578947zM646.736842 291.031579h-21.557895l-5.389473-21.557895-5.389474 21.557895H592.842105l16.168421 10.778947v10.778948h26.947369l-5.389474-10.778948zM431.157895 291.031579h-21.557895L404.210526 269.473684l-5.389473 21.557895H377.263158l16.168421 10.778947v10.778948h26.947368l-5.389473-10.778948zM323.368421 291.031579h-21.557895L296.421053 269.473684l-5.389474 21.557895H269.473684l16.168421 10.778947-5.389473 10.778948H312.589474l-5.389474-10.778948zM506.610526 398.821053H485.052632l16.168421 10.778947-5.389474 21.557895 16.168421-10.778948 16.168421 10.778948-5.389474-21.557895 16.168421-10.778947h-21.557894v-5.389474h-10.778948zM377.263158 452.715789h-21.557895L350.315789 431.157895l-5.389473 21.557894H323.368421l16.168421 10.778948v5.389474h21.557895v-5.389474zM485.052632 452.715789h-21.557895L458.105263 431.157895l-5.389474 21.557894H431.157895l16.168421 10.778948v5.389474h21.557895v-5.389474zM592.842105 452.715789h-21.557894l-5.389474-21.557894-5.389474 21.557894H538.947368l16.168421 10.778948v5.389474h21.557895v-5.389474zM161.684211 452.715789h-21.557895L134.736842 431.157895l-5.389474 21.557894H107.789474l16.168421 10.778948v5.389474h21.557894v-5.389474zM614.4 398.821053H592.842105l16.168421 10.778947-5.389473 21.557895 16.168421-10.778948 16.168421 10.778948-5.389474-21.557895 16.168421-10.778947h-21.557895v-5.389474h-10.778947zM269.473684 452.715789h-21.557895L242.526316 431.157895l-5.389474 21.557894H215.578947l16.168421 10.778948v5.389474h21.557895v-5.389474zM215.578947 291.031579h-21.557894L188.631579 269.473684l-5.389474 21.557895H161.684211l16.168421 10.778947-5.389474 10.778948H204.8l-5.389474-10.778948zM75.452632 398.821053H53.894737l16.168421 10.778947-5.389474 21.557895 16.168421-10.778948 16.168421 10.778948-5.389473-21.557895 16.168421-10.778947h-21.557895v-5.389474h-10.778947zM107.789474 291.031579h-21.557895L80.842105 269.473684l-5.389473 21.557895H53.894737l16.168421 10.778947-5.389474 10.778948h26.947369v-10.778948zM183.242105 398.821053H161.684211l16.168421 10.778947-5.389474 21.557895 16.168421-10.778948 16.168421 10.778948-5.389474-21.557895 16.168421-10.778947h-21.557894v-5.389474h-10.778948zM291.031579 398.821053H269.473684l16.168421 10.778947-5.389473 21.557895 16.168421-10.778948 16.168421 10.778948-5.389474-21.557895 16.168421-10.778947h-21.557895v-5.389474h-10.778947zM398.821053 398.821053H377.263158l16.168421 10.778947-5.389474 21.557895 16.168421-10.778948 16.168421 10.778948-5.389473-21.557895 16.168421-10.778947h-21.557895v-5.389474h-10.778947zM123.957895 247.915789l-5.389474 21.557895 16.168421-10.778947 16.168421 10.778947-5.389474-21.557895 16.168422-10.778947H107.789474zM447.326316 247.915789l-5.389474 21.557895 16.168421-10.778947 16.168421 10.778947-5.389473-21.557895 16.168421-10.778947h-48.505264zM269.473684 129.347368h-21.557895L242.526316 107.789474l-5.389474 21.557894H215.578947l16.168421 10.778948-5.389473 16.168421h5.389473l10.778948-10.778948 10.778947 10.778948h5.389474l-5.389474-16.168421zM501.221053 86.231579l-5.389474 21.557895 16.168421-16.168421 16.168421 16.168421-5.389474-21.557895 5.389474-5.389474h-32.336842zM161.684211 129.347368h-21.557895L134.736842 107.789474l-5.389474 21.557894H107.789474l16.168421 10.778948-5.389474 16.168421h5.389474l10.778947-10.778948 10.778947 10.778948h5.389474l-5.389474-16.168421zM377.263158 129.347368h-21.557895L350.315789 107.789474l-5.389473 21.557894H323.368421l16.168421 10.778948-5.389474 16.168421h5.389474l10.778947-10.778948 10.778948 10.778948h5.389474l-5.389474-16.168421zM485.052632 129.347368h-21.557895L458.105263 107.789474l-5.389474 21.557894H431.157895l16.168421 10.778948-5.389474 16.168421h5.389474l10.778947-10.778948 10.778948 10.778948h5.389473l-5.389473-16.168421zM592.842105 129.347368h-21.557894l-5.389474-21.557894-5.389474 21.557894H538.947368l16.168421 10.778948-5.389473 16.168421h5.389473l10.778948-10.778948 10.778947 10.778948h5.389474l-5.389474-16.168421zM393.431579 86.231579l-5.389474 21.557895 16.168421-16.168421 16.168421 16.168421-5.389473-21.557895 5.389473-5.389474h-32.336842zM177.852632 86.231579l-5.389474 21.557895 16.168421-16.168421 16.168421 16.168421-5.389474-21.557895 5.389474-5.389474h-32.336842zM609.010526 86.231579l-5.389473 21.557895 16.168421-16.168421 16.168421 16.168421-5.389474-21.557895 5.389474-5.389474h-32.336842zM70.063158 86.231579l-5.389474 21.557895 16.168421-16.168421 16.168421 16.168421-5.389473-21.557895 5.389473-5.389474h-32.336842zM285.642105 86.231579l-5.389473 21.557895 16.168421-16.168421 16.168421 16.168421-5.389474-21.557895 5.389474-5.389474h-32.336842zM646.736842 506.610526h-21.557895l-5.389473-21.557894-5.389474 21.557894H592.842105l16.168421 10.778948-5.389473 21.557894 16.168421-10.778947 16.168421 10.778947-5.389474-21.557894zM625.178947 75.452632l-5.389473-21.557895-5.389474 21.557895H592.842105l10.778948 5.389473h32.336842l10.778947-5.389473zM549.726316 485.052632l16.168421-10.778948 16.168421 10.778948-5.389474-16.168421h-21.557895zM194.021053 75.452632L188.631579 53.894737l-5.389474 21.557895H161.684211l10.778947 5.389473h32.336842l10.778947-5.389473zM86.231579 75.452632L80.842105 53.894737l-5.389473 21.557895H53.894737l10.778947 5.389473h32.336842l10.778948-5.389473zM517.389474 75.452632L512 53.894737l-5.389474 21.557895H485.052632l10.778947 5.389473h32.336842l10.778947-5.389473zM301.810526 75.452632L296.421053 53.894737l-5.389474 21.557895H269.473684l10.778948 5.389473h32.336842l10.778947-5.389473zM441.936842 485.052632l16.168421-10.778948 16.168421 10.778948-5.389473-16.168421h-21.557895zM118.568421 485.052632l16.168421-10.778948 16.168421 10.778948-5.389474-16.168421h-21.557894zM334.147368 485.052632l16.168421-10.778948 16.168422 10.778948-5.389474-16.168421h-21.557895zM226.357895 485.052632l16.168421-10.778948 16.168421 10.778948-5.389474-16.168421h-21.557895zM409.6 75.452632L404.210526 53.894737l-5.389473 21.557895H377.263158l10.778947 5.389473h32.336842l10.778948-5.389473zM86.231579 183.242105L80.842105 161.684211l-5.389473 21.557894H53.894737l16.168421 10.778948-5.389474 21.557894 16.168421-16.168421 16.168421 16.168421-5.389473-21.557894 16.168421-10.778948zM549.726316 377.263158l16.168421-10.778947 16.168421 10.778947-5.389474-21.557895 16.168421-10.778947h-21.557894l-5.389474-21.557895-5.389474 21.557895H538.947368l16.168421 10.778947zM441.936842 377.263158l16.168421-10.778947 16.168421 10.778947-5.389473-21.557895 16.168421-10.778947h-21.557895L458.105263 323.368421l-5.389474 21.557895H431.157895l16.168421 10.778947zM172.463158 215.578947l16.168421-16.168421 16.168421 16.168421-5.389474-21.557894 16.168421-10.778948h-21.557894L188.631579 161.684211l-5.389474 21.557894H161.684211l16.168421 10.778948zM118.568421 377.263158l16.168421-10.778947 16.168421 10.778947-5.389474-21.557895 16.168422-10.778947h-21.557895L134.736842 323.368421l-5.389474 21.557895H107.789474l16.168421 10.778947zM334.147368 377.263158l16.168421-10.778947 16.168422 10.778947-5.389474-21.557895 16.168421-10.778947h-21.557895L350.315789 323.368421l-5.389473 21.557895H323.368421l16.168421 10.778947zM107.789474 506.610526h-21.557895L80.842105 485.052632l-5.389473 21.557894H53.894737l16.168421 10.778948-5.389474 21.557894 16.168421-10.778947 16.168421 10.778947-5.389473-21.557894zM226.357895 377.263158l16.168421-10.778947 16.168421 10.778947-5.389474-21.557895 16.168421-10.778947h-21.557895L242.526316 323.368421l-5.389474 21.557895H215.578947l16.168421 10.778947zM603.621053 215.578947l16.168421-16.168421 16.168421 16.168421-5.389474-21.557894 16.168421-10.778948h-21.557895l-5.389473-21.557894-5.389474 21.557894H592.842105l16.168421 10.778948z" fill="#FFFFFF" p-id="93033"></path><path d="M355.705263 237.136842L350.315789 215.578947l-5.389473 21.557895H323.368421h53.894737zM495.831579 215.578947l16.168421-16.168421 16.168421 16.168421-5.389474-21.557894 16.168421-10.778948h-21.557894L512 161.684211l-5.389474 21.557894H485.052632l16.168421 10.778948zM280.252632 215.578947l16.168421-16.168421 16.168421 16.168421-5.389474-21.557894 16.168421-10.778948h-21.557895L296.421053 161.684211l-5.389474 21.557894H269.473684l16.168421 10.778948zM538.947368 506.610526h-21.557894L512 485.052632l-5.389474 21.557894H485.052632l16.168421 10.778948-5.389474 21.557894 16.168421-10.778947 16.168421 10.778947-5.389474-21.557894zM215.578947 506.610526h-21.557894L188.631579 485.052632l-5.389474 21.557894H161.684211l16.168421 10.778948-5.389474 21.557894 16.168421-10.778947 16.168421 10.778947-5.389474-21.557894zM323.368421 506.610526h-21.557895L296.421053 485.052632l-5.389474 21.557894H269.473684l16.168421 10.778948-5.389473 21.557894 16.168421-10.778947 16.168421 10.778947-5.389474-21.557894zM388.042105 215.578947l16.168421-16.168421 16.168421 16.168421-5.389473-21.557894 16.168421-10.778948h-21.557895L404.210526 161.684211l-5.389473 21.557894H377.263158l16.168421 10.778948zM431.157895 506.610526h-21.557895L404.210526 485.052632l-5.389473 21.557894H377.263158l16.168421 10.778948-5.389474 21.557894 16.168421-10.778947 16.168421 10.778947-5.389473-21.557894zM441.936842 161.684211l5.389474-5.389474h-5.389474zM258.694737 161.684211v-5.389474h-5.389474zM226.357895 161.684211l5.389473-5.389474h-5.389473zM366.484211 161.684211v-5.389474h-5.389474zM334.147368 161.684211l5.389474-5.389474h-5.389474zM64.673684 323.368421l10.778948-10.778947h-10.778948zM118.568421 161.684211l5.389474-5.389474h-5.389474zM97.010526 323.368421l-5.389473-10.778947h-5.389474zM150.905263 161.684211v-5.389474h-5.389474zM463.494737 237.136842L458.105263 215.578947l-5.389474 21.557895H431.157895h53.894737zM140.126316 237.136842L134.736842 215.578947l-5.389474 21.557895H107.789474h53.894737zM247.915789 237.136842L242.526316 215.578947l-5.389474 21.557895H215.578947h53.894737zM549.726316 161.684211l5.389473-5.389474h-5.389473zM474.273684 161.684211v-5.389474h-5.389473zM582.063158 161.684211v-5.389474h-5.389474zM571.284211 237.136842l-5.389474-21.557895-5.389474 21.557895H538.947368h53.894737zM291.031579 393.431579h10.778947L296.421053 377.263158zM172.463158 323.368421l10.778947-10.778947h-10.778947zM506.610526 393.431579h10.778948L512 377.263158zM635.957895 323.368421v-10.778947h-10.778948zM603.621053 323.368421l10.778947-10.778947h-5.389474zM398.821053 393.431579h10.778947L404.210526 377.263158zM183.242105 393.431579h10.778948L188.631579 377.263158zM75.452632 393.431579h10.778947L80.842105 377.263158zM614.4 393.431579h10.778947l-5.389473-16.168421zM280.252632 323.368421l10.778947-10.778947h-10.778947zM528.168421 323.368421v-10.778947h-10.778947zM312.589474 323.368421v-10.778947h-10.778948zM204.8 323.368421v-10.778947h-10.778947zM495.831579 323.368421l10.778947-10.778947h-5.389473zM388.042105 323.368421l10.778948-10.778947h-5.389474zM420.378947 323.368421v-10.778947h-10.778947z" fill="#FFFFFF" p-id="93034"></path></svg>