<?xml version="1.0" standalone="no"?><!DOCTYPE svg PUBLIC "-//W3C//DTD SVG 1.1//EN" "http://www.w3.org/Graphics/SVG/1.1/DTD/svg11.dtd"><svg t="1749922759802" class="icon" viewBox="0 0 1024 1024" version="1.1" xmlns="http://www.w3.org/2000/svg" p-id="53931" xmlns:xlink="http://www.w3.org/1999/xlink" width="200" height="200"><path d="M477.599611 9.23345a61.8352 61.8352 0 0 0-20.247996 20.247997l-221.273019 351.61192a62.562673 62.562673 0 0 0 20.247997 87.236129 63.593259 63.593259 0 0 0 34.130605 10.123999h443.819115a62.623295 62.623295 0 0 0 63.229523-63.229523 67.048756 67.048756 0 0 0-10.123999-34.130605l-221.273018-351.61192A66.078792 66.078792 0 0 0 477.599611 9.23345z" fill="#ffffff" p-id="53932" data-spm-anchor-id="a313x.search_index.0.i37.181b3a81qnUuAo" class="selected"></path><path d="M545.982068 1014.843541a61.8352 61.8352 0 0 0 20.247996-20.247997l221.273019-351.61192a62.562673 62.562673 0 0 0-20.247997-87.23613 63.593259 63.593259 0 0 0-34.130605-10.123998H289.305366a62.623295 62.623295 0 0 0-63.229523 63.229523 67.048756 67.048756 0 0 0 10.123999 34.130605l221.273018 351.61192a66.078792 66.078792 0 0 0 88.509208 20.247997z" fill="#ffffff" p-id="53933" data-spm-anchor-id="a313x.search_index.0.i38.181b3a81qnUuAo" class="selected"></path></svg>