<?xml version="1.0" standalone="no"?><!DOCTYPE svg PUBLIC "-//W3C//DTD SVG 1.1//EN" "http://www.w3.org/Graphics/SVG/1.1/DTD/svg11.dtd"><svg t="1751719774145" class="icon" viewBox="0 0 1024 1024" version="1.1" xmlns="http://www.w3.org/2000/svg" p-id="18380" xmlns:xlink="http://www.w3.org/1999/xlink" width="256" height="256"><path d="M512 185.856c134.656 0 248.832 59.904 342.528 159.232 40.448 43.008 75.264 91.136 103.936 143.36 3.584 6.656 6.144 11.776 7.168 14.336l7.168 15.36-8.704 14.848c-1.536 2.56-4.608 7.168-8.192 13.824-32.256 50.176-70.144 96.256-112.128 137.728-97.792 95.744-208.896 153.6-331.776 153.6s-233.984-57.856-331.776-153.6c-42.496-41.472-79.872-88.064-112.128-137.728-3.072-4.608-5.632-9.216-8.192-13.824l-8.704-14.848 7.168-15.36c5.12-10.24 14.336-28.16 28.16-50.176 24.064-38.4 51.712-74.752 82.944-107.52C263.168 245.76 377.344 185.856 512 185.856z m370.176 301.568c-22.016-34.816-47.104-67.584-75.264-97.28C724.48 302.592 626.688 250.88 512 250.88S299.52 302.592 217.088 389.632c-35.328 37.888-66.048 79.872-91.648 125.44 29.184 44.544 62.976 85.504 100.352 122.88 87.04 84.992 183.296 135.168 286.208 135.168s199.168-50.176 285.696-135.168c37.888-37.376 71.68-78.336 100.352-122.88-4.608-9.216-10.24-18.432-15.872-27.648zM512 348.672c89.6 0 163.328 73.728 163.328 163.328 0 90.112-72.192 163.328-163.328 163.328-90.112 0-163.328-72.192-163.328-163.328 0-90.112 72.192-163.328 163.328-163.328z m0 65.536c-54.784 0-97.792 43.52-97.792 97.792 0 54.784 43.52 97.792 97.792 97.792 54.784 0 97.792-43.52 97.792-97.792 0-53.248-44.544-97.792-97.792-97.792z" p-id="18381" fill="#ffffff"></path></svg>