<?xml version="1.0" standalone="no"?><!DOCTYPE svg PUBLIC "-//W3C//DTD SVG 1.1//EN" "http://www.w3.org/Graphics/SVG/1.1/DTD/svg11.dtd"><svg t="1748797017595" class="icon" viewBox="0 0 1024 1024" version="1.1" xmlns="http://www.w3.org/2000/svg" p-id="66265" xmlns:xlink="http://www.w3.org/1999/xlink" width="200" height="200"><path d="M512.9216 508.8768m-460.8 0a460.8 460.8 0 1 0 921.6 0 460.8 460.8 0 1 0-921.6 0Z" fill="#434341" p-id="66266"></path><path d="M734.0032 720.64h-35.84a290.8672 290.8672 0 1 0-195.584 75.5712h231.3216a37.7856 37.7856 0 0 0 0-75.5712z m-95.6416-276.48a60.7232 60.7232 0 1 1-60.672 60.7232 60.7232 60.7232 0 0 1 60.672-60.8768z m-135.68-135.68a60.7232 60.7232 0 1 1-60.672 60.5696 60.7232 60.7232 0 0 1 60.672-60.7232z m-135.68 257.0752a60.7232 60.7232 0 1 1 60.672-60.8256 60.7232 60.7232 0 0 1-60.672 60.672z m75.008 75.008a60.7232 60.7232 0 1 1 60.672 60.672 60.6208 60.6208 0 0 1-60.672-60.8256z" fill="#FBD180" p-id="66267"></path></svg>