<?xml version="1.0" standalone="no"?><!DOCTYPE svg PUBLIC "-//W3C//DTD SVG 1.1//EN" "http://www.w3.org/Graphics/SVG/1.1/DTD/svg11.dtd"><svg t="1748797344304" class="icon" viewBox="0 0 1024 1024" version="1.1" xmlns="http://www.w3.org/2000/svg" p-id="66768" xmlns:xlink="http://www.w3.org/1999/xlink" width="200" height="200"><path d="M516.864 512m-460.8 0a460.8 460.8 0 1 0 921.6 0 460.8 460.8 0 1 0-921.6 0Z" fill="#434341" p-id="66769"></path><path d="M697.6512 621.824a427.0592 427.0592 0 0 1-168.6016 129.8432 34.3552 34.3552 0 0 1-24.5248 0.8192c-62.1568-21.76-121.9584-70.6048-167.936-130.816-57.344 21.248-93.6448 52.48-93.6448 87.3472 0 64.1024 122.88 116.0704 273.92 116.0704s273.92-51.968 273.92-116.0704c0-34.7648-36.0448-65.9456-93.1328-87.1936z" fill="#FBD180" p-id="66770"></path><path d="M517.12 185.0368c-123.8528 0-224.0512 98.1504-224.0512 219.4432 0 117.4528 102.4 259.84 213.4528 298.8032a28.8256 28.8256 0 0 0 20.48-0.7168c122.88-50.7904 213.6064-180.2752 213.6064-298.0864 0.1024-121.2928-100.096-219.4432-223.488-219.4432z m0 310.3232a85.4528 85.4528 0 1 1 87.04-85.4528 86.3232 86.3232 0 0 1-87.04 85.4528z" fill="#FBD180" p-id="66771"></path></svg>