<?xml version="1.0" standalone="no"?><!DOCTYPE svg PUBLIC "-//W3C//DTD SVG 1.1//EN" "http://www.w3.org/Graphics/SVG/1.1/DTD/svg11.dtd"><svg t="1748793270248" class="icon" viewBox="0 0 1024 1024" version="1.1" xmlns="http://www.w3.org/2000/svg" p-id="65426" xmlns:xlink="http://www.w3.org/1999/xlink" width="200" height="200"><path d="M514.816 515.3792m-460.8 0a460.8 460.8 0 1 0 921.6 0 460.8 460.8 0 1 0-921.6 0Z" fill="#434341" p-id="65427"></path><path d="M514.816 201.7792a313.6 313.6 0 1 0 313.6 313.6 313.6 313.6 0 0 0-313.6-313.6zM634.88 539.2896l-156.928 90.7264a27.5968 27.5968 0 0 1-41.3696-23.9104V424.6528a27.5456 27.5456 0 0 1 41.3696-23.8592L634.88 491.52a27.648 27.648 0 0 1 0 47.7696z" fill="#FBD180" p-id="65428"></path></svg>