<?xml version="1.0" standalone="no"?><!DOCTYPE svg PUBLIC "-//W3C//DTD SVG 1.1//EN" "http://www.w3.org/Graphics/SVG/1.1/DTD/svg11.dtd"><svg t="1748798517389" class="icon" viewBox="0 0 1024 1024" version="1.1" xmlns="http://www.w3.org/2000/svg" p-id="72662" xmlns:xlink="http://www.w3.org/1999/xlink" width="200" height="200"><path d="M516.1472 512m-460.8 0a460.8 460.8 0 1 0 921.6 0 460.8 460.8 0 1 0-921.6 0Z" fill="#434341" p-id="72663"></path><path d="M826.7264 422.7072L736 254.976a65.1776 65.1776 0 0 0-57.2416-34.0992H360.8576a65.0752 65.0752 0 0 0-56.32 32.3584l-97.9968 168.448a65.024 65.024 0 0 0 7.8336 76.1856l255.4368 284.5184a65.1264 65.1264 0 0 0 97.28-0.4608L818.3296 496.64a65.024 65.024 0 0 0 8.3968-73.9328z m-153.088 29.0816l-134.144 147.8144a30.72 30.72 0 0 1-22.6816 10.24 30.72 30.72 0 0 1-22.6304-9.9328L358.7584 451.8912a30.72 30.72 0 0 1 45.312-41.472l112.64 122.88 111.4624-122.88a30.72 30.72 0 0 1 45.5168 41.2672z" fill="#FBD180" p-id="72664"></path></svg>