<?xml version="1.0" standalone="no"?><!DOCTYPE svg PUBLIC "-//W3C//DTD SVG 1.1//EN" "http://www.w3.org/Graphics/SVG/1.1/DTD/svg11.dtd"><svg t="1749427521526" class="icon" viewBox="0 0 1024 1024" version="1.1" xmlns="http://www.w3.org/2000/svg" p-id="13106" xmlns:xlink="http://www.w3.org/1999/xlink" width="200" height="200"><path d="M822.816 742.272l50.56 39.488a206.08 206.08 0 0 1-56.448 46.336 32 32 0 0 1-30.592-56.192c12.8-6.976 25.056-16.96 36.48-29.632z m58.816-116.48c9.408-35.2 14.368-73.632 14.368-113.344 0-45.056-6.4-88.448-18.432-127.424-19.936-64.48-54.016-112.416-92.48-132.704a32 32 0 0 1 29.824-56.64c55.264 29.152 99.264 91.008 123.808 170.464 13.952 45.12 21.28 94.912 21.28 146.304 0 54.208-8.16 106.656-23.68 153.728l-0.608 1.888-54.08-42.272z m-225.6-13.824l51.84 40.512c-5.28 4.48-10.88 8.864-16.896 13.28a32 32 0 0 1-37.952-51.52l3.04-2.24z m46.816-125.856c-3.392-32.192-14.816-48-42.112-71.904l-1.6-1.408-5.568-4.896a32 32 0 1 1 42.56-47.808l5.184 4.544 1.6 1.44C749.44 406.848 768 440.32 768 512c0 8.544-0.32 16.64-0.928 24.288l-64.224-50.176zM241.792 288.32L544 524.416v362.656a32 32 0 0 1-51.04 25.728L227.52 716.224H128a64 64 0 0 1-64-64V375.68a64 64 0 0 1 64-64h83.68v-1.024l30.112-22.304z m106.72-79.072l144.448-106.976A32 32 0 0 1 544 128v234.016L348.512 209.28zM186.496 165.504A32 32 0 0 1 231.36 160l756.48 591.04a32 32 0 1 1-39.36 50.432L192 210.432a32 32 0 0 1-5.504-44.928z" fill="#ffffff" p-id="13107"></path></svg>