<?xml version="1.0" standalone="no"?><!DOCTYPE svg PUBLIC "-//W3C//DTD SVG 1.1//EN" "http://www.w3.org/Graphics/SVG/1.1/DTD/svg11.dtd"><svg t="1750975344955" class="icon" viewBox="0 0 1024 1024" version="1.1" xmlns="http://www.w3.org/2000/svg" p-id="123191" xmlns:xlink="http://www.w3.org/1999/xlink" width="256" height="256"><path d="M432.621495 563.816867h34.544578v-13.151614h-16.532048c-18.444337 0-17.975518-0.23441-17.975518 9.166651zM508.175422 448.820434c11.547759-11.782169 11.436723-11.547759 4.638844-18.506024a91.111325 91.111325 0 0 0-8.919904-8.216675l-3.096675-2.257735-8.79653 8.919904-8.808867 8.808867 18.086554 18.086554z m-8.56212-5.243374a4.93494 4.93494 0 0 0-1.899952-4.762217c-2.146699-2.010988-2.146699-2.368771-0.481157-2.368771 2.023325 0 2.46747-1.233735 2.146699-5.12-0.357783-2.973301 0.949976-2.46747 2.257735 0.949976a7.895904 7.895904 0 0 0 3.812241 4.046651l2.726554 0.949976-2.615518 0.838939a7.698506 7.698506 0 0 0-3.812241 4.281061c-1.295422 4.046651-3.084337 4.873253-2.134361 1.184385zM434.176001 541.745349c0.703229 0.357783 8.438747 0.123373 16.889831-0.357783l15.471036-0.826602 0.357783-5.12 0.357783-4.93494h-34.630939v5.35441c0 3.158361 0.592193 5.527133 1.554506 5.884915zM733.665157 545.434217c0-1.542169-0.83894-3.207711-1.899952-3.565494-3.812241-1.431133-12.337349-0.715566-13.089927 1.061012-1.542169 4.046651 0.357783 5.366747 7.846554 5.366747 6.785542 0 7.143325-0.123373 7.143325-2.862265zM731.049639 527.705446c-0.357783-2.257735-1.233735-2.615518-6.316723-2.973301-3.701205-0.23441-6.773205 0.23441-8.204337 1.307759-2.257735 1.665542-2.257735 1.788916 0.23441 3.096674 1.320096 0.715566 5.243373 1.307759 8.636144 1.307759 5.650506 0.061687 6.008289-0.23441 5.650506-2.738891zM728.310748 559.005301c-6.896578 0-7.735518 0.23441-7.735518 2.381109s0.83894 2.368771 7.735518 2.368771 7.735518-0.23441 7.735518-2.368771-0.83894-2.381108-7.735518-2.381109z" p-id="123192"></path><path d="M791.490314 531.394313c-0.826602-0.481157-3.454458 0.481157-5.823229 2.023326s-4.762217 2.973301-5.477783 2.973301c-1.431133 0-2.615518-5.35441-7.254362-34.038747l-3.812241-22.836434 5.946603-8.216675c3.207711-4.51547 8.327711-11.535422 11.424385-15.705445s5.477783-7.846554 5.477783-8.327711-4.93494-0.111036-10.955566 0.838939c-9.03094 1.542169-26.414265 1.899952-96.490409 1.899952-83.893976 0.123373-85.559518 0.123373-87.225061-2.257735-1.665542-2.146699-3.44212-2.381108-29.609638-2.738891l-27.845398-0.481157L521.154314 424.404819c-10.24-11.103614-19.159904-20.10988-19.628723-20.122217-0.962313 0-26.426602 25.711036-34.988723 35.346506l-4.404434 5.107663h-19.863132c-25.22988 0-32.373205 0.83894-33.199807 3.812241-0.481157 2.023325-2.738892 2.134361-47.128675 2.023325-48.905253 0-115.884723-1.665542-123.743615-2.973301-6.069976-0.949976-5.835566-0.481157 7.019952 17.370988 6.069976 8.327711 10.116627 15.113253 10.116627 16.778795s-1.554506 11.782169-3.577832 22.490988c-6.415422 35.691952-5.946602 34.384193-11.893204 29.74535a10.967904 10.967904 0 0 0-4.996627-2.381109c-2.023325 0-20.973494 15.705446-38.319807 31.768675-6.538795 6.069976-7.969928 7.858892-6.538795 8.636144 0.826602 0.592193 8.204337 3.577831 16.297638 6.538796l14.804819 5.366747h116.254844l25.908434 24.390939C377.572242 621.80241 389.786217 632.770313 390.625157 632.770313s4.996627-6.168675 9.388723-13.68212l7.982265-13.682121h207.390844l10.116626 13.324338c5.477783 7.40241 10.585446 13.571084 11.301012 13.805494s10.24-10.597783 20.825446-24.045494l19.517687-24.501976h126.482506l11.103614-4.046651c16.532048-5.946602 21.294265-7.969928 21.294265-9.043277s-41.675566-37.838651-44.537831-39.504193zM725.337446 462.650602h20.220916c11.189976 0 20.233253 0.481157 20.233253 1.07335a5.366747 5.366747 0 0 1-1.665542 2.46747c-4.28106 3.44212-4.762217 16.038554-1.233735 33.55759 0.703229 3.331084 0.592193 3.331084-5.95894 3.331084-8.093301 0-8.438747-0.592193-9.63547-14.878843-1.307759-17.272289-0.468819-16.038554-12.016578-16.038554h-9.993253v-4.762217z m11.893205 30.942073c4.404434 0 6.168675 0.481157 6.785542 1.899952 1.073349 2.738892-1.233735 4.293398-7.266698 4.934939-5.465446 0.715566-5.465446 0.715566-5.465446-3.096674s0.123373-3.775229 5.946602-3.775229z m-10.351036-12.33735c0.83894-2.146699 9.758843-2.615518 12.732145-0.715566 1.542169 1.073349 1.431133 1.431133-0.46882 2.973301-4.404434 3.25706-13.657446 1.591518-12.263325-2.356433z m-40.811952-13.805494V462.650602h16.544386c9.154313 0 16.889831 0.481157 17.272289 0.962314s1.431133 8.919904 2.46747 18.789783 2.134361 18.506024 2.381108 19.159903c0.345446 1.233735-1.320096 1.554506-6.069976 1.554506-5.588819 0-6.662169-0.357783-7.612144-2.738891-0.83894-2.146699-3.577831-22.367614-3.577832-26.895422 0-0.826602-3.812241-1.307759-10.708819-1.307759h-10.708819z m6.427759 27.968771c0.83894-2.257735 8.919904-2.381108 11.782169-0.357783 3.096675 2.381108 0.592193 4.638843-5.601157 5.35441-5.699855 0.641542-7.735518-1.024-6.181012-5.070651z m-2.46747-14.28665c1.073349-2.46747 9.524434-2.368771 11.671133 0.123373s-0.715566 4.28106-6.427759 3.565494c-5.391422-0.666217-6.230361-1.196723-5.280386-3.762891z m-15.458698-6.773205a12.448386 12.448386 0 0 1 5.107662-0.949976h3.701205l0.83894 8.562121c0.468819 4.762217 1.073349 11.535422 1.431132 14.804819l0.703229 6.316723h-9.512096l-0.83894-10.24a105.064867 105.064867 0 0 0-1.899952-13.91653c-0.764916-2.627855-0.641542-3.947952 0.431808-4.651181z m-32.077109-0.949976c5.588819 0 6.773205 2.257735 8.080964 14.804819 0.592193 6.538795 1.307759 12.337349 1.431133 13.077591s-1.788916 1.431133-4.170025 1.665542c-4.157687 0.357783-4.392096 0.123373-4.934939-3.565494-1.899952-11.103614-3.084337-19.739759-3.084338-22.725398-0.148048-2.738892 0.444145-3.331084 2.590844-3.331084z m-72.938409 34.544578c-35.778313 0-36.888675 0.123373-36.888675 2.381109 0 3.454458-3.701205 4.762217-13.571085 4.762217h-9.043277v-21.541012h123.669591v21.417638h-27.364241v-7.143325zM526.854169 462.379181a2.46747 2.46747 0 0 1 1.776579-2.615518c1.233735-0.357783 5.835566-0.357783 10.363373-0.123374 6.538795 0.357783 8.438747 0.962313 9.86988 2.973301 1.542169 2.270072 2.862265 2.381108 21.775421 2.381109 18.678747 0 20.233253-0.111036 21.775422-2.381109 3.331084-4.74988 20.233253-4.638843 21.417639 0 0.468819 2.023325 1.665542 2.381108 8.451084 2.381109h7.846554v15.471036h-8.636145c-6.168675 0-9.40106 0.592193-11.535421 2.023325-3.935614 2.849928-18.209928 2.738892-23.206554 0-5.243373-2.973301-27.376578-2.849928-30.695326 0s-18.209928 2.849928-22.207229 0c-2.146699-1.542169-5.477783-2.023325-12.732144-2.023325h-9.86988V465.118072l8.080964-0.357783c6.588145-0.357783 7.883566-0.715566 7.525783-2.381108z m-38.245783-37.012048c5.946602-6.304386 11.535422-11.547759 12.33735-11.54776 1.665542 0 17.728771 17.013205 20.702072 22.009832 1.665542 2.627855 1.307759 3.220048-9.524434 14.804819l-11.07894 12.016578-11.547759-12.337349c-6.427759-6.662169-11.658795-12.337349-11.658795-12.732145s4.88559-5.77388 10.832193-12.201638zM291.025736 574.464c-37.246458 0-67.855422-0.468819-67.855422-0.949976s4.157687-5.477783 9.154313-10.819855l9.166651-9.86988 2.257735 3.096675 2.257735 3.096675h40.935325l2.023325-12.263326c2.615518-15.113253 2.615518-19.394313 0.123374-20.344289-1.073349-0.357783-8.574458-0.715566-16.655422-0.715566-17.025542 0-17.025542 0-14.804819-9.524434l1.418795-5.823229 17.975518-0.357783 18.086554-0.357783 1.418795-7.735518c3.096675-17.272289 3.096675-18.678747 0.123374-19.517687a171.341108 171.341108 0 0 0-18.506024-0.703229c-15.236627 0-15.828819-0.123373-16.778795-2.738891a44.130699 44.130699 0 0 0-4.170025-6.662169c-1.665542-2.270072-3.096675-4.527807-3.096674-5.12s3.935614-1.073349 8.636144-1.307759 31.534265-0.357783 59.614073-0.357783l51.051951 0.123373 2.726555 7.969928 2.738891 8.093301-22.836433 0.23441-22.848772 0.357783-2.492144 12.954217c-1.431133 7.266699-2.381108 13.447711-2.023325 14.039903s8.327711 0.949976 17.839807 0.949976h17.136578v6.551133c0 5.12-0.468819 6.662169-2.257735 7.735518-1.307759 0.592193-9.043277 1.233735-17.136578 1.233735-19.628723 0-19.27094-0.23441-22.009831 18.209928-1.788916 12.337349-1.788916 14.15094-0.23441 15.113253 0.949976 0.592193 10.462072 1.233735 21.183229 1.233735 14.98988 0 19.505349 0.357783 19.986506 1.542168 0.357783 0.962313-0.481157 4.170024-1.788916 7.143326l-2.381108 5.588819z m167.898987-56.751807c18.432 0.468819 33.668627 0.949976 33.792 1.061012s0.468819 12.621108 0.715567 27.734361l0.468819 27.364241-41.293108 0.357783-41.404145 0.23441-0.123373-7.969928c-0.111036-4.527807-0.468819-9.40106-1.061013-11.103614-0.949976-3.207711 0.592193-6.069976-22.207228 41.650891-7.130988 14.804819-7.846554 15.939855-9.401061 13.805494a9.080289 9.080289 0 0 1-1.665542-3.220048c0-0.592193-6.773205-6.304386-14.989879-12.966554L346.728868 582.791711h9.63547c8.636145 0 9.758843-0.23441 11.301012-2.738892 0.962313-1.418795 6.168675-12.485398 11.782169-24.674699 19.517687-42.477494 19.87547-43.304096 18.320964-44.266409-0.826602-0.468819-5.588819-0.949976-10.70882-0.949976h-9.277687l0.357784-6.896578 0.357783-6.785543 23.564337-0.357783 23.440964-0.234409v-11.905542h-35.358843l-2.615518-6.662169a50.842217 50.842217 0 0 1-2.46747-8.327711c0-3.084337 5.712193-4.046651 23.329927-4.046651H425.687904l-0.246747-3.331084a27.142169 27.142169 0 0 1-0.111036-4.157687c0.111036-0.481157 7.40241-0.83894 16.297639-0.838939h16.186602l-0.481157 4.04665-0.468819 4.046651 21.183229 0.83894 21.170892 0.826602v17.605398h-41.601543v6.069975c0 5.835566 0.111036 5.946602 3.331085 5.58882 2.257735-0.23441 3.331084-1.061012 3.565494-2.849928 0.357783-2.849928 4.170024-4.046651 13.324337-4.046651s12.978892 1.233735 13.324337 4.046651c0.246747 1.899952 1.431133 2.615518 5.12 3.096675l4.762217 0.592192 0.357783 6.785543 0.357784 6.896578h-73.900723l-1.233735 3.096675a23.97147 23.97147 0 0 0-1.233735 3.331084c0.086361 0.345446 15.211952 0.764916 33.532915 1.122699zM542.892723 555.316434c-7.143325 20.702072-6.069976 19.863133-24.514313 18.432l-10.708819-0.826603 2.257735-2.849927c1.233735-1.554506 4.28106-8.093301 6.662169-14.397687s5.12-12.978892 6.069975-14.878844c1.554506-3.207711 1.665542-3.207711 13.928868-3.20771h12.337349z m44.414458 19.147566h-32.077108v-40.454169h-45.265735v-13.793156l22.367614 0.111036h22.207229l0.357783-3.331084 0.357784-3.207711h31.92906l0.357783 3.207711 0.357783 3.331084h45.820916v13.68212H587.307181z m57.837494 22.972145c-6.168675 5.712193-11.671133 11.424386-12.028915 12.732144-1.899952 5.823229-3.44212 3.44212-24.859759-38.319807-9.055614-17.482024-16.038554-32.360867-15.59441-33.076434 0.357783-0.715566 5.712193-1.233735 12.337349-1.233735h11.658796l14.163277 23.440964 14.28665 23.552 5.58882 0.357783c3.096675 0.23441 5.588819 0.715566 5.588819 1.307759s-4.959614 5.527133-11.140627 11.239326z m39.738603-23.206555l-7.624482-0.357783-0.826603-4.157687c-0.357783-2.270072-1.431133-8.636145-2.146698-14.28665-2.615518-18.19759-5.107663-31.534265-6.304386-33.310843s-0.357783 30.214169 1.073349 45.093012l0.715567 7.612144-9.277687-0.715566c-10.116627-0.703229-12.621108-2.010988-10.116627-4.996627 1.233735-1.418795 1.307759-5.35441 0.703229-17.013204-1.418795-27.845398-1.776578-29.856386-5.465445-31.768675s-5.35441-7.254361-3.331085-9.758844c0.592193-0.826602 4.404434-1.542169 8.451085-1.788915l7.402409-0.357783-0.357783-5.934265c-0.357783-5.12-1.542169-12.337349-5.835566-36.062073l-0.715566-3.923277 7.612144 0.345446 7.612145 0.37012 1.431132 9.512097c3.454458 24.15653 4.996627 34.02641 5.712193 35.099759 0.357783 0.715566 3.220048 1.233735 6.304386 1.233735 6.908916 0 8.340048 0.949976 9.290024 5.588819 0.592193 2.973301 0.23441 4.046651-1.788916 5.35441-3.084337 1.912289-3.084337 3.220048-0.23441 21.541012 1.307759 7.969928 2.738892 16.889831 3.096675 19.87547 0.949976 6.304386 0.826602 6.057639 5.588819 7.72318 9.018602 2.948627 3.072 5.77388-10.967903 5.082988z m66.991807 0l-46.129349-0.357783-2.134362-16.655421c-2.862265-22.959807-3.331084-24.748723-6.427759-26.179856-3.331084-1.431133-3.454458-3.44212-0.468819-7.612144a32.323855 32.323855 0 0 0 3.799903-8.808868l1.307759-5.588819h6.316723c5.35441 0 6.538795 0.468819 8.204338 2.973301s2.973301 2.973301 6.662168 2.973301c4.046651 0 4.93494-0.468819 5.946603-2.973301 1.073349-2.738892 1.788916-2.973301 8.093301-2.973301 5.946602 0 7.40241 0.468819 9.524434 2.973301 2.368771 2.615518 3.44212 2.973301 11.424385 2.973301s8.79653 0.23441 9.512097 2.615518c1.665542 6.551133 1.307759 6.785542-8.451085 7.143326-8.327711 0.357783-9.277687 0.592193-9.277686 2.738891s0.949976 2.46747 9.16665 2.973301c4.93494 0.357783 9.388723 0.826602 9.746506 1.307759a12.090602 12.090602 0 0 1 0.962313 4.762217l0.357784 4.046651-8.574458 0.592193c-9.40106 0.592193-11.103614 1.431133-9.166651 4.51547 0.962313 1.554506 3.701205 2.146699 10.363374 2.627855a56.751807 56.751807 0 0 1 9.512096 1.233735 17.667084 17.667084 0 0 1 1.233735 4.404434c0.715566 3.565494 0.468819 3.923277-3.096675 4.515469a91.419759 91.419759 0 0 1-9.758843 0.83894c-4.404434 0.23441-5.946602 0.826602-5.946603 2.146699s2.46747 1.899952 14.15094 2.134361c12.028916 0.246747 14.52106 0 16.43335-1.665542 1.307759-1.307759 2.603181-1.665542 3.20771-0.949976 3.701205 4.28106 9.63547 12.139952 9.63547 12.843181-0.086361 0.320771-20.788434 0.555181-46.129349 0.431807z" p-id="123193"></path><path d="M1022.026025 222.195663c-1.998651-27.820723-6.168675-55.258988-16.914506-81.216771C976.266796 70.915084 924.634989 27.142169 851.203085 9.117301c-22.207229-5.465446-44.969639-7.254361-67.781398-8.14265-4.46612-0.172723-8.919904-0.641542-13.373686-0.974651H254.050699c-10.61012 0.678554-21.220241 1.233735-31.818024 2.023325-28.375904 1.998651-56.307663 6.304386-82.660241 17.445012-72.975422 30.843373-117.204819 85.64588-132.256385 163.198458-4.021976 20.615711-4.416771 41.946988-6.464771 62.920482-0.308434 3.121349-0.567518 6.255036-0.851277 9.376386v514.035662c0.666217 10.930892 1.233735 21.886458 2.023325 32.81735 1.998651 27.820723 6.168675 55.258988 16.914506 81.216771C47.844242 953.084916 99.463711 996.857831 172.895615 1014.882699c22.059181 5.428434 44.63653 7.217349 67.275566 8.130313 4.638843 0.197398 9.253012 0.65388 13.879518 0.986988h515.997302c10.61012-0.666217 21.220241-1.233735 31.818024-2.023325 28.375904-1.998651 56.32-6.304386 82.660241-17.432675 72.963084-30.843373 117.204819-85.658217 132.256385-163.210795 3.984964-20.467663 4.392096-41.626217 6.440097-62.476338 0.296096-2.948627 0.579855-5.90959 0.863614-8.858216V254.001349c-0.703229-10.597783-1.270747-21.207904-2.060337-31.805686zM508.545543 334.342169l0.468819-59.132916 2.738892 7.735518c6.538795 18.506024 12.966554 29.153157 23.564337 38.912 6.538795 5.946602 9.746506 7.501108 32.95306 16.532048 27.142169 10.47441 50.089639 26.179855 71.272868 48.905253 5.946602 6.427759 10.832193 12.016578 10.832192 12.497735s-2.270072 1.554506-4.934939 2.381109-5.12 2.146699-5.366747 2.849927 1.44347 2.270072 3.577831 3.701205 5.35441 3.935614 7.143325 5.35441l3.331085 2.738891 2.023325-2.738891 2.134361-2.726554 4.281061 7.488771c6.674506 11.658795 11.671133 22.009831 10.832192 22.848771-0.468819 0.357783-15.705446 0.715566-33.915373 0.715566h-33.138121v-2.862265c0-3.331084-1.899952-4.28106-8.32771-4.28106-3.812241 0-5.835566-1.073349-12.016579-6.304386-14.397687-12.250988-20.973494-16.532048-33.792-22.848771-13.089928-6.37841-28.918747-11.313349-36.654265-11.313349-7.969928 0-7.377735 4.404434-7.007614-60.453012z m-169.330121 89.013976a18.654072 18.654072 0 0 1 4.170024 1.776578 23.120193 23.120193 0 0 0 3.799904 1.788916c0.357783 0 2.862265-3.923277 5.477783-8.636145a152.563663 152.563663 0 0 1 10.227663-15.582072l5.477783-7.143326-3.220048-3.454457-3.331085-3.442121 12.263326-11.782169c28.203181-27.018795 66.510651-45.216386 105.064867-49.744192a96.330024 96.330024 0 0 1 12.33735-0.826603l3.565494 0.111036 0.357783 23.798747c0.246747 13.089928 0 28.203181-0.357783 33.434217l-0.826603 9.758844-13.176289 2.615518c-26.056482 5.12-39.973012 12.337349-63.30294 32.607614-4.996627 4.404434-7.969928 6.069976-11.658795 6.551133-3.923277 0.592193-4.996627 1.307759-5.588819 3.701204l-0.715567 2.911615-34.741975 0.357783c-30.226506 0.23441-34.741976 0-34.741976-1.554506 0-2.738892 7.488771-17.247614 8.919903-17.247614z m5.946603 187.99653c-1.665542-1.431133-8.919904-13.571084-8.919904-15.113253 0-0.468819 2.381108 1.554506 5.35441 4.404433 3.923277 3.812241 5.35441 6.168675 5.354409 8.636145 0 3.022651-0.222072 3.269398-1.788915 2.072675z m149.45465 132.675855l-0.838939 4.762217-0.949976-4.527807c-1.665542-8.636145-13.805494-30.460916-21.417639-38.665253-7.858892-8.451084-12.337349-11.103614-31.176482-18.086554-16.174265-6.069976-34.741976-15.705446-47.239711-24.674699-12.016578-8.451084-38.899663-34.976386-38.899662-38.245783 0-1.788916 1.233735-2.738892 4.392096-3.577832l4.527807-1.295421 9.524434 9.265349c14.397687 14.052241 19.739759 18.333301 21.528675 16.778795 0.83894-0.592193 5.35441-7.846554 10.24-15.939855 7.735518-13.089928 9.043277-14.804819 12.250988-15.113253 2.023325-0.23441 8.636145-0.23441 14.878843 0 9.512096 0.481157 13.07759 1.233735 22.602024 4.934939a173.389108 173.389108 0 0 0 33.434217 9.63547l6.662169 1.307759 0.715566 11.547759c1.073349 15.742458 0.949976 96.058602-0.23441 101.894169zM626.095808 650.178313c-16.174265 14.743133-43.785253 30.843373-64.968482 37.826314-15.705446 5.243373-34.741976 9.043277-45.093012 9.043277h-7.858892V663.749398c0-37.838651-1.295422-33.55759 10.47441-35.099759 8.327711-1.073349 25.464289-6.304386 33.55759-10.116627a45.820916 45.820916 0 0 1 11.301012-3.923277c2.257735-0.23441 13.571084-0.60453 25.106506-0.592193 20.233253-0.246747 20.973494-0.123373 23.329928 2.368771 4.404434 4.762217 7.488771 10.955566 7.488771 14.878844s0.949976 4.93494 3.220048 2.615518c1.776578-1.776578 2.849928-0.949976 7.019952 4.934939l3.442121 4.996627z m198.359903-68.780723l-20.825445 7.40241H679.405495L662.565013 609.810506c-22.503325 28.203181-24.674699 30.571952-26.06882 29.745349-0.715566-0.481157-6.427759-7.501108-12.84318-15.705445l-11.547759-14.878844H411.203856l-1.554506 2.627856c-0.949976 1.542169-5.12 8.438747-9.166651 15.458698s-8.093301 12.855518-8.636144 12.855519c-0.949976 0-17.605398-15.113253-47.597494-43.082025L335.625254 588.861687l-57.356338-0.111036h-57.208289l-16.655422-5.95894q-10.560771-3.701205-21.059855-7.735518l-4.404434-1.899952 2.738892-3.084337c1.542169-1.665542 13.91653-12.621108 27.59865-24.403277 23.92212-20.578699 24.748723-21.170892 27.253205-19.394314 5.588819 3.812241 5.712193 3.454458 12.139952-29.51094l2.973301-15.224289-11.103614-15.113253c-15.113253-20.825446-18.913157-26.414265-17.494362-26.414265 0.592193 0 7.254361 1.073349 14.878844 2.381109 19.863133 3.331084 68.176193 4.996627 121.596915 4.04665 43.180723-0.83894 44.155373-0.962313 45.216386-3.331084s2.381108-2.615518 13.571084-3.220048c6.896578-0.468819 19.27094-0.826602 27.722024-0.949976l15.113253-0.123374 8.562121-9.277686c4.762217-4.996627 13.805494-14.397687 19.998843-20.825446l11.301012-11.658795 10.104289 10.474409c5.601157 5.712193 14.804819 15.471036 20.467663 21.417639l10.363374 11.103614h59.601735v5.58882l52.125301 0.838939c62.340627 0.949976 112.911422-0.60453 133.021301-4.04665 7.624482-1.307759 14.286651-2.381108 14.878843-2.381109 1.307759 0-5.231036 9.86988-18.678747 28.079808l-9.758843 13.200963 1.233735 5.835567c0.592193 3.220048 2.381108 13.089928 4.04665 21.898795 4.046651 22.207229 3.331084 20.702072 8.636145 17.963181l4.28106-2.257735 12.485398 10.943229c6.785542 5.95894 18.925494 16.421012 26.784385 23.329927s14.434699 12.929542 14.558073 13.645109-9.277687 4.51547-20.702073 8.685494z" p-id="123194"></path></svg>