<?xml version="1.0" standalone="no"?><!DOCTYPE svg PUBLIC "-//W3C//DTD SVG 1.1//EN" "http://www.w3.org/Graphics/SVG/1.1/DTD/svg11.dtd"><svg t="1750306007182" class="icon" viewBox="0 0 1024 1024" version="1.1" xmlns="http://www.w3.org/2000/svg" p-id="128578" xmlns:xlink="http://www.w3.org/1999/xlink" width="200" height="200"><path d="M433.2 839.3c-166.3 0-334.7-109.4-334.7-318.6 0-168.2 113.3-276.2 303-288.9l212.4 3c148 0 297.1 88.4 297.1 285.9 0 178.6-149.2 318.6-339.6 318.6H433.2z" fill="#FF6A48" p-id="128579"></path><path d="M401.4 241.7l212.6 2.9c143 0 287.3 85.4 287.3 276.2 0 151.8-123.4 308.8-329.9 308.8H433.2c-97.9 0-181-32.3-240.3-93.5-54.5-56.2-84.6-132.7-84.6-215.3 0-162.3 109.6-266.6 293.1-279.1m-0.5-19.5C204 235.3 88.8 348.1 88.8 520.8c0 172.6 125.4 328.3 344.4 328.3h138.2c205.8 0 349.4-155.7 349.4-328.3 0-192.1-140.3-295.7-306.8-295.7l-213.1-2.9z" fill="#7F0518" p-id="128580"></path><path d="M866.4 363.3c0 90.1-161.9 163.2-361.6 163.2s-361.6-73.1-361.6-163.2 161.9-163.2 361.6-163.2 361.6 73 361.6 163.2z" fill="#FFFFFF" p-id="128581"></path><path d="M504.8 536.2c-208.2 0-371.3-76-371.3-172.9s163.1-172.9 371.3-172.9 371.4 76 371.4 172.9S713 536.2 504.8 536.2z m0-326.3c-190.7 0-351.8 70.3-351.8 153.4s161.1 153.4 351.8 153.4c190.7 0 351.9-70.3 351.9-153.4S695.5 209.9 504.8 209.9z" fill="#7F0518" p-id="128582"></path><path d="M857.1 328.7c-18.7 82-169.3 145.9-352.3 145.9s-333.6-63.9-352.3-145.9c-6 11.8-9.3 24.1-9.3 36.8 0 90.1 161.9 163.2 361.6 163.2 199.7 0 361.6-73 361.6-163.2 0-12.7-3.3-25-9.3-36.8z" fill="#FFC831" p-id="128583"></path><path d="M504.8 538.4c-208.2 0-371.3-76-371.3-172.9 0-13.8 3.5-27.7 10.4-41.2 1.9-3.7 5.8-5.8 9.9-5.3 4.1 0.5 7.4 3.5 8.3 7.5 17.7 77.6 168.2 138.4 342.8 138.4S830 404.1 847.7 326.5c0.9-4 4.2-7 8.3-7.5 4-0.6 8 1.6 9.9 5.2 6.9 13.5 10.4 27.3 10.4 41.2-0.1 97-163.3 173-371.5 173z m-351.3-181c-0.4 2.7-0.5 5.4-0.5 8.1 0 83.2 161.1 153.4 351.8 153.4 190.7 0 351.9-70.3 351.9-153.4 0-2.7-0.2-5.4-0.5-8.1-42.1 74-184.3 127-351.3 127-167.1 0-309.3-53-351.4-127z" fill="#7F0518" p-id="128584"></path><path d="M522.8 502.2c0 9.9-8 18-18 18-9.9 0-18-8-18-18 0-9.9 8.1-18 18-18s18 8 18 18z" fill="#7F0518" p-id="128585"></path><path d="M383.9 487.3c0 9.9-8 18-18 18-9.9 0-18-8-18-18 0-9.9 8.1-18 18-18s18 8.1 18 18zM267 458c-2.2 8.5-11.7 13.3-21.4 10.8-9.6-2.5-15.7-11.3-13.5-19.8 2.2-8.5 11.7-13.3 21.4-10.8 9.6 2.5 15.7 11.3 13.5 19.8zM184.5 406.9c-3.9 4.8-12.1 4.7-18.4-0.3-6.3-5-8.3-13-4.4-17.9 3.9-4.8 12.1-4.7 18.4 0.3 6.3 5.1 8.3 13.1 4.4 17.9z" fill="#7F0518" p-id="128586"></path><path d="M625 487.3c0 9.9 8 18 18 18 9.9 0 18-8 18-18 0-9.9-8-18-18-18-9.9 0-18 8.1-18 18zM741.9 458c2.2 8.5 11.7 13.3 21.4 10.8 9.6-2.5 15.7-11.3 13.5-19.8-2.2-8.5-11.7-13.3-21.4-10.8-9.6 2.5-15.7 11.3-13.5 19.8zM824.4 406.9c3.9 4.8 12.1 4.7 18.4-0.3 6.3-5 8.2-13 4.4-17.9-3.9-4.8-12.1-4.7-18.4 0.3-6.3 5.1-8.2 13.1-4.4 17.9z" fill="#7F0518" p-id="128587"></path><path d="M503.4 658.1c-18.6 0-33.7-15.1-33.7-33.7s15.1-33.7 33.7-33.7 33.8 15.1 33.8 33.7-15.2 33.7-33.8 33.7z" fill="#FFC831" p-id="128588"></path><path d="M503.4 600.3c13.2 0 24 10.8 24 24s-10.8 24-24 24-24-10.8-24-24 10.8-24 24-24m0-19.5c-24 0-43.5 19.5-43.5 43.5s19.5 43.5 43.5 43.5 43.5-19.5 43.5-43.5-19.5-43.5-43.5-43.5z" fill="#7F0518" p-id="128589"></path><path d="M503.4 871.4c-72.9 0-132.3-59.3-132.3-132.3 0-53.7 21.8-95 61.4-116.4 6.4-3.5 14.5-1.1 17.9 5.3 3.5 6.4 1.1 14.5-5.3 17.9-30.7 16.6-47.6 49.7-47.6 93.2 0 58.4 47.5 105.8 105.8 105.8 58.4 0 105.8-47.5 105.8-105.8 0-38.9-16.2-69.1-48.3-89.9-6.1-4-7.9-12.2-3.9-18.3 4-6.1 12.2-7.9 18.3-3.9 39.4 25.6 60.3 64.4 60.3 112.1 0.2 73-59.2 132.3-132.1 132.3z" fill="#FFC831" p-id="128590"></path><path d="M503.4 881.2c-78.3 0-142.1-63.7-142.1-142 0-57.4 23.6-101.8 66.5-125 11.2-6 25.1-1.8 31.2 9.3 2.9 5.4 3.6 11.6 1.8 17.5s-5.7 10.7-11.1 13.6c-27.3 14.8-42.4 44.8-42.4 84.6 0 53 43.1 96.1 96.1 96.1s96.1-43.1 96.1-96.1c0-35.3-14.8-62.8-43.8-81.7-10.6-6.9-13.6-21.2-6.8-31.8 6.9-10.6 21.1-13.6 31.8-6.8 42.4 27.5 64.8 69.1 64.8 120.3-0.1 78.3-63.8 142-142.1 142z m-64.6-250.4c-0.6 0-1.1 0.1-1.7 0.4-36.3 19.6-56.3 57.9-56.3 107.8 0 67.6 55 122.5 122.6 122.5s122.5-55 122.5-122.5c0-44.3-19.3-80.2-55.9-103.9-1.6-1-3.8-0.6-4.8 1.1-1 1.6-0.6 3.8 1 4.8 35 22.7 52.7 55.6 52.7 98 0 63.7-51.8 115.6-115.6 115.6-63.7 0-115.6-51.8-115.6-115.6 0-47.2 18.7-83.4 52.7-101.7 1.4-0.8 2.2-3.3 1.4-4.7-0.6-1.1-1.7-1.8-3-1.8z" fill="#7F0518" p-id="128591"></path><path d="M238 560.8c-7.1 15-25 21.4-40 14.3-15-7.1-21.4-25-14.3-40l149-313.8c7.1-15 25-21.4 40-14.3 15 7.1 21.4 25 14.3 40L238 560.8z" fill="#FFC831" p-id="128592"></path><path d="M210.9 587.8c-5.8 0-11.6-1.3-17.1-3.9-19.8-9.4-28.3-33.2-18.9-53l149-313.8c4.5-9.6 12.6-16.9 22.6-20.4 10-3.6 20.8-3 30.4 1.5 19.8 9.4 28.3 33.2 18.9 53L246.8 565c-4.5 9.6-12.5 16.8-22.5 20.4-4.4 1.6-8.9 2.4-13.4 2.4z m149-374c-2.3 0-4.6 0.4-6.8 1.2-5.1 1.8-9.2 5.5-11.5 10.4l-149 313.8c-4.8 10.1-0.5 22.2 9.6 27 4.9 2.3 10.5 2.6 15.5 0.8 5.1-1.8 9.2-5.5 11.5-10.4l149-313.8c4.8-10.1 0.5-22.2-9.6-27-2.8-1.3-5.7-2-8.7-2z" fill="#7F0518" p-id="128593"></path><path d="M325 235.1l-52.5 58.1 38.1-8 11.5 31.5 28.7-14.1 18.6 36.6 8.4-79.2z" fill="#EE3E2B" p-id="128594"></path><path d="M369.4 348.9c-3.6 0-7-2-8.7-5.3l-14.2-28-20.2 9.9c-2.5 1.2-5.4 1.3-7.9 0.3-2.6-1-4.6-3.1-5.5-5.7l-8.6-23.6-29.9 6.2c-4 0.9-8.3-1-10.4-4.7s-1.6-8.3 1.2-11.4l52.5-58.1c2.9-3.2 7.5-4.1 11.4-2.3l52.8 24.9c3.8 1.8 6 5.7 5.5 9.9l-8.4 79.2c-0.5 4.3-3.7 7.8-7.9 8.6-0.6 0.1-1.1 0.1-1.7 0.1z m-18.6-56.1c3.6 0 7 2 8.7 5.3l3.6 7.2 4.2-39.5-40-18.9-27.6 30.5 8.9-1.9c4.7-1 9.5 1.7 11.1 6.2l7.7 21.3 19-9.3c1.5-0.5 3-0.9 4.4-0.9z" fill="#7F0518" p-id="128595"></path><path d="M425.2 230.1c-13.6 28.6-47.8 40.8-76.4 27.2-28.6-13.6-40.8-47.8-27.2-76.4 13.6-28.6 47.8-40.8 76.4-27.2 28.6 13.6 40.8 47.8 27.2 76.4z" fill="#EE3E2B" p-id="128596"></path><path d="M373.4 272.7c-9.8 0-19.6-2.2-28.7-6.5-33.4-15.9-47.7-55.9-31.8-89.3 15.9-33.4 55.9-47.7 89.4-31.9 33.4 15.9 47.7 56 31.8 89.4-7.7 16.2-21.2 28.4-38.1 34.4-7.4 2.6-15 3.9-22.6 3.9z m0.1-114.7c-17.8 0-35 10-43.1 27.2-11.2 23.7-1.1 52.1 22.6 63.4 11.5 5.5 24.4 6.1 36.4 1.8s21.6-12.9 27-24.4c11.2-23.7 1.1-52.1-22.6-63.4-6.5-3.2-13.5-4.6-20.3-4.6z m51.7 72.1h0.3-0.3z" fill="#7F0518" p-id="128597"></path><path d="M739.6 560.8c7.1 15 25 21.4 40 14.3 15-7.1 21.4-25 14.3-40l-149-313.8c-7.1-15-25-21.4-40-14.3-15 7.1-21.4 25-14.3 40l149 313.8z" fill="#FFC831" p-id="128598"></path><path d="M766.8 587.8c-4.5 0-9-0.8-13.4-2.3-10-3.6-18-10.8-22.6-20.4l-149-313.8c-9.4-19.8-0.9-43.6 18.9-53 9.6-4.6 20.5-5.1 30.4-1.5 10 3.6 18.1 10.8 22.6 20.4l149 313.8c9.4 19.8 0.9 43.6-18.9 53-5.4 2.5-11.2 3.8-17 3.8z m-149-374c-3 0-5.9 0.7-8.7 2-10.1 4.8-14.4 16.9-9.6 27l149 313.8c2.3 4.9 6.4 8.6 11.5 10.4 5.1 1.8 10.6 1.5 15.5-0.8 10.1-4.8 14.4-16.9 9.6-27l-149-313.8c-2.3-4.9-6.4-8.6-11.5-10.4-2.2-0.8-4.5-1.2-6.8-1.2z" fill="#7F0518" p-id="128599"></path><path d="M652.7 235.1l52.5 58.1-38.1-8-11.5 31.5-28.8-14.1-18.5 36.6-8.4-79.2z" fill="#EE3E2B" p-id="128600"></path><path d="M608.3 348.9c-0.6 0-1.2-0.1-1.8-0.2-4.3-0.8-7.5-4.3-7.9-8.6l-8.4-79.2c-0.4-4.1 1.8-8.1 5.5-9.8l52.8-24.9c3.9-1.9 8.5-0.9 11.4 2.3l52.5 58.1c2.8 3.1 3.3 7.7 1.2 11.4-2.1 3.7-6.1 5.6-10.5 4.7l-29.8-6.2-8.6 23.6c-0.9 2.6-3 4.7-5.5 5.7-2.6 1-5.5 0.9-7.9-0.3l-20.1-9.9-14.2 28a9.8 9.8 0 0 1-8.7 5.3z m2-83l4.2 39.5 3.6-7.2c2.4-4.8 8.3-6.7 13-4.3l19 9.3 7.7-21.3c1.7-4.5 6.3-7.2 11.2-6.2l8.8 1.8-27.5-30.5-40 18.9z" fill="#7F0518" p-id="128601"></path><path d="M552.4 230.1c13.6 28.6 47.8 40.8 76.4 27.2 28.6-13.6 40.8-47.8 27.2-76.4-13.6-28.6-47.8-40.8-76.4-27.2-28.5 13.6-40.7 47.8-27.2 76.4z" fill="#EE3E2B" p-id="128602"></path><path d="M604.3 272.7c-7.6 0-15.2-1.3-22.6-3.9-16.9-6-30.4-18.2-38.1-34.4-15.8-33.4-1.5-73.5 31.8-89.4 33.5-15.8 73.5-1.5 89.4 31.9 15.8 33.4 1.6 73.5-31.8 89.4-9.1 4.2-18.9 6.4-28.7 6.4z m-43-46.8c5.5 11.5 15.1 20.2 27 24.4 12 4.3 24.9 3.6 36.4-1.8 23.7-11.2 33.8-39.7 22.6-63.4-11.3-23.7-39.7-33.8-63.4-22.6-23.7 11.3-33.9 39.7-22.6 63.4z" fill="#7F0518" p-id="128603"></path></svg>