<?xml version="1.0" standalone="no"?><!DOCTYPE svg PUBLIC "-//W3C//DTD SVG 1.1//EN" "http://www.w3.org/Graphics/SVG/1.1/DTD/svg11.dtd"><svg t="1748700017853" class="icon" viewBox="0 0 1024 1024" version="1.1" xmlns="http://www.w3.org/2000/svg" p-id="158253" xmlns:xlink="http://www.w3.org/1999/xlink" width="200" height="200"><path d="M128 576m32 0l256 0q32 0 32 32l0 256q0 32-32 32l-256 0q-32 0-32-32l0-256q0-32 32-32Z" fill="#FFFFFF" p-id="158254"></path><path d="M576 576m32 0l256 0q32 0 32 32l0 256q0 32-32 32l-256 0q-32 0-32-32l0-256q0-32 32-32Z" fill="#FFC9C5" p-id="158255"></path><path d="M128 128m32 0l256 0q32 0 32 32l0 256q0 32-32 32l-256 0q-32 0-32-32l0-256q0-32 32-32Z" fill="#FFFFFF" p-id="158256"></path><path d="M732.128 52.353247m22.627417 22.627417l158.391919 158.391919q22.627417 22.627417 0 45.254834l-158.391919 158.391919q-22.627417 22.627417-45.254834 0l-158.391919-158.391919q-22.627417-22.627417 0-45.254834l158.391919-158.391919q22.627417-22.627417 45.254834 0Z" fill="#A0CBED" p-id="158257"></path><path d="M416 560a48 48 0 0 1 48 48v256a48 48 0 0 1-48 48H160A48 48 0 0 1 112 864v-256A48 48 0 0 1 160 560h256z m0 32H160a16 16 0 0 0-16 16v256a16 16 0 0 0 16 16h256a16 16 0 0 0 16-16v-256a16 16 0 0 0-16-16zM864 560a48 48 0 0 1 48 48v256a48 48 0 0 1-48 48h-256a48 48 0 0 1-48-48v-256a48 48 0 0 1 48-48h256z m0 32h-256a16 16 0 0 0-16 16v256a16 16 0 0 0 16 16h256a16 16 0 0 0 16-16v-256a16 16 0 0 0-16-16zM416 112A48 48 0 0 1 464 160v256a48 48 0 0 1-48 48H160A48 48 0 0 1 112 416V160A48 48 0 0 1 160 112h256z m0 32H160a16 16 0 0 0-16 16v256a16 16 0 0 0 16 16h256a16 16 0 0 0 16-16V160a16 16 0 0 0-16-16zM924.48 222.08a48 48 0 0 1 0 67.84l-158.4 158.4a48 48 0 0 1-67.904 0l-158.4-158.4a48 48 0 0 1 0-67.84l158.4-158.4a48 48 0 0 1 67.872 0l158.4 158.4z m-22.656 22.592l-158.4-158.4a16 16 0 0 0-22.624 0l-158.4 158.4a16 16 0 0 0 0 22.656l158.4 158.4a16 16 0 0 0 22.624 0l158.4-158.4a16 16 0 0 0 0-22.656z" fill="#555555" p-id="158258"></path></svg>