<?xml version="1.0" standalone="no"?><!DOCTYPE svg PUBLIC "-//W3C//DTD SVG 1.1//EN" "http://www.w3.org/Graphics/SVG/1.1/DTD/svg11.dtd"><svg t="1751388935778" class="icon" viewBox="0 0 1024 1024" version="1.1" xmlns="http://www.w3.org/2000/svg" p-id="13627" xmlns:xlink="http://www.w3.org/1999/xlink" width="256" height="256"><path d="M839.808 516.928v16.064h-141.44q-32.704 0-56.128 22.208-11.328 10.816-17.6 24.96-6.656 14.912-6.656 31.168v224.32q0 16.32 6.656 31.232 6.272 14.08 17.6 24.896 23.424 22.208 56.128 22.208h141.248q32.704 0 56.128-22.208 11.328-10.752 17.6-24.96 6.656-14.848 6.656-31.168V611.328q0-2.816-0.192-5.632V516.928q0-82.752-32-158.4-30.912-73.024-87.168-129.28-56.32-56.32-129.344-87.232-75.648-32-158.4-32-82.752 0-158.4 32Q281.6 172.8 225.28 229.12q-56.32 56.32-87.232 129.28-32 75.712-32 158.464v318.72q0 16.32 6.656 31.232 6.272 14.08 17.6 24.896 23.424 22.208 56.128 22.208h141.248q32.704 0 56.128-22.208 11.328-10.752 17.6-24.96 6.656-14.848 6.656-31.168V611.328q0-16.256-6.656-31.168-6.272-14.144-17.6-24.96-23.424-22.208-56.128-22.208H185.984v-16.064q0-66.56 25.664-127.232 24.832-58.688 70.08-103.936 45.312-45.248 103.936-70.08 60.736-25.664 127.232-25.664 66.56 0 127.232 25.664 58.624 24.832 103.936 70.08 45.248 45.248 70.08 103.936 25.6 60.672 25.6 127.232z" fill="#515151" p-id="13628"></path></svg>