<?xml version="1.0" standalone="no"?><!DOCTYPE svg PUBLIC "-//W3C//DTD SVG 1.1//EN" "http://www.w3.org/Graphics/SVG/1.1/DTD/svg11.dtd"><svg t="1749926472681" class="icon" viewBox="0 0 1024 1024" version="1.1" xmlns="http://www.w3.org/2000/svg" p-id="192483" xmlns:xlink="http://www.w3.org/1999/xlink" width="200" height="200"><path d="M747.349333 527.36L359.253333 761.856C331.690667 778.752 298.666667 759.04 298.666667 725.12V256.213333c0-33.877333 33.024-53.632 60.586666-36.693333l388.096 234.410667a42.965333 42.965333 0 0 1 0 73.472z" fill="#707070" p-id="192484" data-spm-anchor-id="a313x.search_index.0.i62.181b3a81qnUuAo" class="selected"></path><path d="M927.189333 95.104C869.461333 37.376 730.197333 5.077333 512.853333 0 293.802667 5.12 156.245333 37.376 96.810667 95.104 37.376 154.538667 5.077333 293.802667 0 511.146667c5.12 219.050667 37.376 358.314667 96.810667 417.749333 57.728 57.728 196.992 90.026667 416 95.104 219.093333-5.12 356.693333-37.376 414.378666-95.104 59.434667-59.434667 91.733333-198.698667 96.810667-417.706667-5.12-217.386667-37.376-356.693333-96.810667-416.085333z m-266.368 435.029333L421.376 671.146667c-16.981333 10.197333-37.376-1.706667-37.376-22.101334V367.104c0-20.352 20.394667-32.256 37.376-22.058667l239.445333 140.970667a25.514667 25.514667 0 0 1 0 44.117333z" fill="#ffffff" p-id="192485" data-spm-anchor-id="a313x.search_index.0.i61.181b3a81qnUuAo" class=""></path></svg>