<?xml version="1.0" standalone="no"?><!DOCTYPE svg PUBLIC "-//W3C//DTD SVG 1.1//EN" "http://www.w3.org/Graphics/SVG/1.1/DTD/svg11.dtd"><svg t="1749163406165" class="icon" viewBox="0 0 1483 1024" version="1.1" xmlns="http://www.w3.org/2000/svg" p-id="37997" xmlns:xlink="http://www.w3.org/1999/xlink" width="289.6484375" height="200"><path d="M0 1024h1483.034V0H0z" fill="#DE2910" p-id="37998"></path><path d="M510.058 436.824l-2.295 35.31 31.567 13.171-32.732 8.863-2.296 35.487-18.15-30.014-32.908 8.687 21.61-27.119-18.009-30.013 31.78 13.1 21.433-27.472z m81.178-108.19l10.311 33.791h34.04l-27.508 20.833 10.311 33.616-27.471-21.01-27.366 20.833 10.487-33.439-27.506-20.833h34.074l10.593-33.792z m34.71-143.502L610.551 216.7l24.047 25.07-33.545-5.65-15.537 31.78-5.261-35.17-33.545-5.437 30.438-16.067-5.403-34.957 23.905 24.894 30.296-16.03zM510.2 70.621l-2.118 35.31 31.602 13.17-33.085 8.864-2.12 35.31-18.007-30.014-32.91 8.828 21.787-27.083-18.008-30.014 31.426 12.924 21.468-27.295z m-269.03 53.424L273.09 226.27h103.283l-83.509 63.276 31.744 102.4-83.474-63.135-83.473 63.135 31.779-102.4-83.509-63.135h103.46l31.743-102.4z" fill="#FFDE00" p-id="37999"></path></svg>