<?xml version="1.0" standalone="no"?><!DOCTYPE svg PUBLIC "-//W3C//DTD SVG 1.1//EN" "http://www.w3.org/Graphics/SVG/1.1/DTD/svg11.dtd"><svg t="1748796457966" class="icon" viewBox="0 0 1024 1024" version="1.1" xmlns="http://www.w3.org/2000/svg" p-id="65593" xmlns:xlink="http://www.w3.org/1999/xlink" width="200" height="200"><path d="M499.2 512m-460.8 0a460.8 460.8 0 1 0 921.6 0 460.8 460.8 0 1 0-921.6 0Z" fill="#434341" p-id="65594"></path><path d="M482.9696 756.0192a3.2256 3.2256 0 0 1-5.9392 1.6896c-9.2672-15.616-29.9008-41.3184-65.024-41.3184H271.36a64.5632 64.5632 0 0 1-64.512-64.5632V346.88A64.512 64.512 0 0 1 271.36 282.368h147.0464a64.5632 64.5632 0 0 1 64.5632 64.512zM742.4 716.3904h-136.6016c-32.5632 0-58.2656 29.4912-69.2224 44.4416a3.2256 3.2256 0 0 1-5.7856-1.8944V346.88a64.5632 64.5632 0 0 1 64.5632-64.512H742.4a64.512 64.512 0 0 1 64.512 64.512v304.9472a64.5632 64.5632 0 0 1-64.512 64.5632z" fill="#FBD180" p-id="65595"></path></svg>