<?xml version="1.0" standalone="no"?><!DOCTYPE svg PUBLIC "-//W3C//DTD SVG 1.1//EN" "http://www.w3.org/Graphics/SVG/1.1/DTD/svg11.dtd"><svg t="1750304840239" class="icon" viewBox="0 0 1025 1024" version="1.1" xmlns="http://www.w3.org/2000/svg" p-id="73332" xmlns:xlink="http://www.w3.org/1999/xlink" width="200.1953125" height="200"><path d="M648.814777 1021.467372l-8.526651-31.97494c70.344867-19.184964 98.056482-236.614553 21.316627-517.994022C586.99656 190.118941 454.833476 15.322604 384.488609 34.507568L375.961958 2.532628c112.97812-29.843277 251.536192 208.902939 317.617734 460.439131s70.344867 526.520673-44.764915 558.495613z" fill="#415A6B" p-id="73333"></path><path d="M921.667595 725.166264c-108.714795 29.843277-289.906119 14.921638-458.307468-29.843277-134.294746-36.238265-253.667854-87.398168-341.066023-142.821397-91.661494-59.686554-134.294746-121.504771-119.373108-174.796336l31.97494 6.394987c-8.526651 36.238265 29.843277 87.398168 106.583132 138.558072 83.134843 55.423229 200.376288 104.451469 330.407709 138.558072 281.379469 74.608192 498.809058 49.028241 517.994023-23.448289l31.974939 8.52665c-10.658313 38.369928-46.896578 63.949879-100.188144 78.871518z" fill="#415A6B" p-id="73334"></path><path d="M139.347405 885.040962c-83.134843-83.134843 55.423229-321.881059 238.746216-505.204046S800.162824 55.824194 885.42933 138.959038l-23.448289 23.448289C810.821138 111.247423 608.313187 196.513929 403.673573 403.285205S111.635791 810.43277 162.795694 861.592673l-23.448289 23.448289z" fill="#415A6B" p-id="73335"></path><path d="M962.169185 390.495229c66.081542 247.272867-81.00318 503.072384-328.276047 571.285589S130.820755 880.777637 62.60755 633.504771 143.61073 130.432387 390.883597 62.219182s503.072384 81.00318 571.285588 328.276047z" fill="#8AD7F8" p-id="73336"></path><path d="M352.513669 927.674215c-6.394988-2.131663-6.394988-4.263325-4.263325-10.658313 2.131663-2.131663 2.131663-6.394988 2.131663-10.658313l-6.394988-12.789976c8.526651-4.263325 10.658313-6.394988 10.658313-14.921638 2.131663-2.131663 4.263325-2.131663 4.263325-4.263326l4.263326-4.263325c4.263325-6.394988 2.131663-8.526651-2.131663-12.789976l-4.263325-4.263325c4.263325-2.131663 12.789976-2.131663 14.921638-6.394988 6.394988-14.921638 14.921638-27.711614 10.658313-49.028241V789.116144c2.131663-8.526651 6.394988-14.921638 12.789976-19.184964 6.394988-2.131663 8.526651-8.526651 10.658313-14.921639 2.131663-8.526651 2.131663-19.184964 0-27.711614-4.263325-8.526651-2.131663-17.053301 0-25.579952 2.131663-2.131663 2.131663-6.394988 2.131663-8.52665 2.131663-8.526651 4.263325-17.053301 4.263325-25.579952 0-4.263325-2.131663-10.658313-6.394988-10.658313-6.394988 0-12.789976-6.394988-17.053301-10.658314-2.131663-2.131663-4.263325-2.131663-8.52665-4.263325-6.394988-2.131663-12.789976 2.131663-19.184964-4.263325-4.263325-4.263325-8.526651-2.131663-12.789976-2.131663-8.526651-10.658313-17.053301-23.448289-25.579952-34.106602l-2.131662-2.131663c-10.658313-2.131663-19.184964-10.658313-25.579952-19.184963-6.394988-6.394988-12.789976-12.789976-19.184964-2.131663-2.131663-2.131663-4.263325-4.263325-6.394988-4.263325h-19.184963v-6.394988c-2.131663 0-6.394988-2.131663-8.526651 0-6.394988 6.394988-17.053301 8.526651-17.053301 23.448289-6.394988-4.263325-6.394988-4.263325-12.789976-2.131663-4.263325 2.131663-6.394988 4.263325-10.658313 0s-4.263325-8.526651-4.263326-14.921638c2.131663-8.526651 0-14.921638-6.394987-17.053302-4.263325-2.131663-6.394988-2.131663-10.658314-2.131662h-6.394988c0-6.394988 2.131663-10.658313 2.131663-14.921639 2.131663-4.263325 2.131663-8.526651 4.263325-14.921638 2.131663-4.263325 0-6.394988-4.263325-6.394988-8.526651 0-12.789976 4.263325-17.053301 12.789976-2.131663 4.263325-4.263325 6.394988-6.394988 8.52665-10.658313 4.263325-19.184964-6.394988-17.053301-23.448289 0-6.394988 2.131663-12.789976 2.131662-19.184963 2.131663-14.921638 10.658313-23.448289 23.44829-23.44829 4.263325 0 8.526651 2.131663 10.658313-6.394987l2.131662-2.131663c12.789976 0 14.921638 0 19.184964 17.053301 0 2.131663 0 4.263325 2.131663 6.394988l6.394988 6.394988c2.131663-2.131663 4.263325-4.263325 4.263325-6.394988v-17.053301c-4.263325-12.789976-2.131663-23.448289 8.526651-29.843277 4.263325-2.131663 6.394988-4.263325 8.52665-8.526651 2.131663-4.263325 4.263325-8.526651 4.263325-12.789976 0-14.921638 6.394988-21.316626 12.789976-29.843277 4.263325-4.263325 6.394988-8.526651 10.658314-12.789975 6.394988-6.394988 12.789976-12.789976 17.053301-21.316627h4.263325c-2.131663 2.131663-4.263325 6.394988-6.394988 8.526651 6.394988 2.131663 25.579952-10.658313 29.843277-21.316627-4.263325 2.131663-8.526651 2.131663-12.789976 2.131663-4.263325 0-6.394988-2.131663-4.263325-8.526651v-6.394988c-2.131663-2.131663-4.263325-2.131663-6.394988-2.131662-2.131663 0-6.394988 4.263325-10.658313 6.394988 6.394988-6.394988 10.658313-10.658313 19.184964-12.789976 6.394988 0 12.789976-4.263325 17.053301-6.394988 2.131663 0 2.131663-2.131663 4.263325-2.131663-2.131663 6.394988-4.263325 10.658313-6.394988 17.053301v2.131663s2.131663 2.131663 4.263325 2.131663c4.263325-2.131663 6.394988 0 10.658314 2.131662s10.658313 0 12.789975-4.263325c2.131663-6.394988 0-10.658313-6.394988-12.789976-2.131663 0-2.131663-4.263325-2.131662-6.394988 0-4.263325 2.131663-6.394988 2.131662-10.658313 2.131663-6.394988 0-12.789976-6.394987-14.921638-6.394988-2.131663-8.526651-6.394988-8.526651-14.921639 0-12.789976-6.394988-17.053301-14.921639-10.658313-2.131663 2.131663-4.263325 0-6.394987 0 2.131663-8.526651-4.263325-8.526651-6.394988-12.789976-2.131663-4.263325-17.053301-4.263325-19.184964 0-2.131663 6.394988-6.394988 10.658313-8.526651 17.053301-2.131663 2.131663-2.131663 6.394988-2.131662 10.658313 0 6.394988 0 10.658313-4.263326 12.789976-2.131663 8.526651-4.263325 14.921638-4.263325 23.448289 0 2.131663-2.131663 4.263325-4.263325 6.394988l-2.131663-2.131662c0-4.263325 2.131663-8.526651 2.131663-12.789976 0-2.131663-2.131663-6.394988-2.131663-6.394988-6.394988-2.131663-12.789976-4.263325-21.316626-8.526651-2.131663 0-4.263325-2.131663-6.394988-2.131662 0-4.263325-2.131663-12.789976 0-14.921639 10.658313-10.658313 23.448289-21.316626 34.106602-31.97494-2.131663 2.131663-2.131663 6.394988-4.263325 8.526651 4.263325 4.263325 8.526651 4.263325 10.658313 0 0 0 2.131663 0 2.131663-2.131663 2.131663-2.131663 4.263325-4.263325 8.52665-4.263325-2.131663-2.131663-4.263325-6.394988-6.394988-8.526651 8.526651-4.263325 14.921638-14.921638 14.921639-19.184963l-4.263326-4.263326v-2.131662c6.394988 2.131663 12.789976 2.131663 19.184964 4.263325 4.263325 2.131663 4.263325 6.394988 0 10.658313-2.131663 2.131663-6.394988 4.263325-8.52665 4.263326-4.263325 2.131663-8.526651 4.263325-8.526651 10.658313h4.263325c4.263325-2.131663 8.526651 0 12.789976 6.394988l6.394988 6.394988c4.263325 2.131663 8.526651 0 12.789976-4.263326 6.394988-6.394988 10.658313-8.526651 4.263325-19.184963 8.526651 4.263325 12.789976 2.131663 19.184964-10.658314-2.131663 0-4.263325-2.131663-6.394988-2.131662-4.263325-2.131663-8.526651-4.263325-8.52665-12.789976 0-2.131663-2.131663-4.263325-4.263326-6.394988-6.394988-4.263325-12.789976-6.394988-21.316626-10.658313 2.131663-2.131663 2.131663-4.263325 4.263325-6.394988v-2.131663c-6.394988 0-10.658313 0-17.053301-2.131663 14.921638 0 29.843277-6.394988 42.633253-17.053301 0 10.658313 2.131663 14.921638 10.658313 14.921639 4.263325 0 8.526651-2.131663 12.789976-2.131663 8.526651 0 12.789976 6.394988 10.658313 14.921639v4.263325c2.131663 2.131663 6.394988 2.131663 8.526651 4.263325-4.263325 2.131663-8.526651 4.263325-10.658313 6.394988v2.131663c2.131663 0 4.263325 2.131663 6.394987 2.131662-2.131663 2.131663-4.263325 4.263325-4.263325 6.394988-2.131663 4.263325-4.263325 8.526651-4.263325 10.658314 2.131663 8.526651 6.394988 19.184964 8.52665 27.711614l2.131663 2.131663c4.263325 0 10.658313 2.131663 14.921639 0 2.131663 0 4.263325-6.394988 6.394988-8.526651 2.131663-4.263325 4.263325-8.526651 6.394987-10.658313 2.131663-2.131663 4.263325-6.394988 8.526651-8.526651 2.131663-2.131663 6.394988-4.263325 8.526651-6.394988 2.131663-2.131663 6.394988-2.131663 8.52665-4.263325 8.526651-10.658313 19.184964-17.053301 31.97494-19.184964 4.263325 0 6.394988-4.263325 8.52665-6.394988v-2.131662c-2.131663 0-2.131663 0-4.263325-2.131663 6.394988-6.394988 6.394988-6.394988 4.263325-14.921638 14.921638-10.658313 14.921638-10.658313 10.658314-19.184964 4.263325-2.131663 6.394988-6.394988 2.131662-10.658313l19.184964-12.789976v-2.131663c-4.263325 0-8.526651 2.131663-12.789976 2.131663-6.394988 2.131663-8.526651 2.131663-12.789976 2.131662h-2.131662c0-6.394988-4.263325-4.263325-4.263326-4.263325-14.921638 0-29.843277 2.131663-44.764915 4.263325-4.263325 0-8.526651 4.263325-12.789976 6.394988l-31.97494 6.394988c-2.131663-2.131663-4.263325-4.263325-6.394988-4.263325-25.579952-2.131663-49.028241 2.131663-70.344867 14.921638h-2.131662c-6.394988 0-12.789976 4.263325-17.053302 10.658314l8.526651 8.52665c-6.394988 2.131663-12.789976 2.131663-17.053301 4.263325-2.131663-4.263325-4.263325-6.394988-6.394988-8.52665-6.394988-2.131663-10.658313 0-14.921639 6.394988 4.263325 0 8.526651 2.131663 12.789976 2.131662 2.131663 0 6.394988 2.131663 6.394988 4.263326 0 12.789976 6.394988 10.658313 10.658313 12.789976l-12.789975 12.789975c-2.131663 2.131663-2.131663 6.394988-2.131663 8.526651 2.131663 0 4.263325 2.131663 6.394988 2.131663h2.131663c-2.131663 4.263325-2.131663 6.394988-4.263326 6.394988-4.263325 0-8.526651-2.131663-12.789976-4.263326 4.263325-10.658313 6.394988-21.316626 17.053302-25.579951-6.394988-2.131663-12.789976 2.131663-17.053302 8.52665-2.131663 2.131663-4.263325 4.263325-4.263325 6.394988 2.131663-2.131663 4.263325-8.526651 6.394988-14.921638h6.394988c2.131663 0 2.131663-2.131663 4.263325-4.263326-2.131663-2.131663-2.131663-6.394988-4.263325-6.394988h-14.921639c-2.131663 0-2.131663 4.263325-4.263325 4.263326 2.131663 2.131663 4.263325 2.131663 4.263325 4.263325 2.131663 0 2.131663 0 4.263326 2.131663-6.394988 4.263325-12.789976 6.394988-19.184964 10.658313 6.394988 6.394988 12.789976 8.526651 17.053301 6.394988l-21.316626 21.316626h-4.263326c-4.263325 0-8.526651-2.131663-12.789975-2.131662 4.263325-2.131663 6.394988-2.131663 10.658313-2.131663 2.131663 0 4.263325-4.263325 4.263325-6.394988 0-6.394988 2.131663-12.789976 2.131663-19.184964-4.263325-4.263325-8.526651 0-12.789976 4.263325-6.394988 4.263325-12.789976 2.131663-19.184964 0-2.131663-4.263325-4.263325-4.263325-8.526651-4.263325-6.394988 6.394988-12.789976 14.921638-19.184963 23.448289 2.131663 0 4.263325 0 6.394988-2.131662 2.131663 0 2.131663-2.131663 4.263325-2.131663 0 0 2.131663 0 2.131663 2.131663 0 4.263325-8.526651 0-4.263326 8.52665 6.394988 2.131663 10.658313 2.131663 17.053301 4.263325 0 0-8.526651 0-14.921638-6.394987h-14.921639c-49.028241 63.949879-81.00318 140.689734-93.793156 221.692914l6.394988 6.394988c8.526651 6.394988 14.921638 19.184964 12.789976 34.106603 0 2.131663 0 4.263325 2.131663 6.394988 4.263325 6.394988 6.394988 12.789976 10.658313 19.184963 2.131663 4.263325 6.394988 6.394988 10.658313 4.263326-6.394988-14.921638-12.789976-29.843277-14.921639-46.896579l6.394988 12.789976c2.131663 8.526651 6.394988 17.053301 12.789976 25.579952 4.263325 6.394988 8.526651 12.789976 10.658313 21.316626 0 4.263325 2.131663 6.394988 4.263326 8.526651 6.394988 12.789976 17.053301 19.184964 27.711614 17.053301 12.789976-2.131663 21.316626 6.394988 31.97494 12.789976 2.131663 0 4.263325 2.131663 4.263325 2.131663 4.263325 2.131663 8.526651 4.263325 14.921639 8.52665-2.131663 4.263325-6.394988 6.394988 0 10.658313 4.263325 2.131663 8.526651 6.394988 12.789975 8.526651 6.394988 6.394988 8.526651 4.263325 12.789976-4.263325 10.658313 17.053301 12.789976 23.448289 4.263326 42.633253-4.263325 10.658313-8.526651 19.184964-2.131663 29.843277v2.131662c0 8.526651 2.131663 14.921638 6.394988 21.316627 4.263325 6.394988 10.658313 14.921638 12.789976 21.316626 8.526651 14.921638 17.053301 27.711614 29.843277 36.238265 10.658313 6.394988 14.921638 17.053301 17.053301 31.97494 2.131663 17.053301 6.394988 36.238265 8.52665 53.291566 2.131663 10.658313 2.131663 21.316626 4.263326 31.974939 0 2.131663 0 4.263325 2.131662 6.394988 2.131663 6.394988 4.263325 12.789976 6.394988 21.316627 0 4.263325 2.131663 6.394988 2.131663 10.658313 2.131663 4.263325 4.263325 6.394988 8.52665 0 0 6.394988 2.131663 8.526651 2.131663 12.789976 0 4.263325 0 8.526651 2.131663 12.789976 12.789976 6.394988 23.448289 10.658313 36.238265 14.921638v-10.658313c0-4.263325 0-6.394988-4.263326-8.526651zM893.955981 281.780435c-4.263325 0-8.526651 0-14.921639 2.131662-4.263325 0-8.526651 0-10.658313 2.131663-10.658313 0-19.184964 2.131663-29.843277 2.131663-2.131663 0-4.263325 2.131663-4.263325 2.131662 0 8.526651-4.263325 6.394988-6.394988 6.394988h-10.658313c-8.526651 0-17.053301-2.131663-25.579952 4.263325H789.504511c-4.263325 0-8.526651 2.131663-12.789976 2.131663-4.263325 0-8.526651 2.131663-12.789976 4.263325 2.131663-2.131663 2.131663-4.263325 4.263326-6.394988-4.263325-6.394988-8.526651-6.394988-12.789976-4.263325-6.394988 0-12.789976 2.131663-19.184964 4.263325-10.658313 4.263325-19.184964 8.526651-27.711614 14.921639-6.394988 4.263325-10.658313 12.789976-17.053301 19.184964-2.131663 2.131663-4.263325 4.263325-8.526651 2.131662s-10.658313 0-12.789976 4.263326c-2.131663 6.394988 2.131663 8.526651 4.263325 10.658313-6.394988 0-10.658313 0-17.053301 2.131662l-2.131662 2.131663c2.131663 8.526651-2.131663 6.394988-6.394988 6.394988-10.658313 2.131663-19.184964 4.263325-25.579952 17.053301-2.131663 4.263325-4.263325 6.394988-8.526651 8.526651-2.131663 2.131663-4.263325 0-8.52665 0v-2.131663c2.131663 0 4.263325 0 6.394988-2.131663l4.263325-4.263325c-2.131663-2.131663-4.263325-6.394988-6.394988-6.394988-6.394988-2.131663-14.921638 0-21.316626-2.131662-2.131663 0-2.131663 0-4.263326-2.131663-4.263325-6.394988-8.526651-6.394988-10.658313-4.263325l-25.579951 12.789976-6.394988 6.394987v2.131663c4.263325 4.263325 0 8.526651 0 10.658313-4.263325 6.394988-8.526651 10.658313-12.789976 17.053301-4.263325 6.394988-2.131663 17.053301 2.131662 23.44829 4.263325 4.263325 6.394988 4.263325 12.789976-2.131663 4.263325-4.263325 6.394988-2.131663 8.526651 4.263325 2.131663 4.263325 2.131663 6.394988 6.394988 6.394988 2.131663 0 6.394988-2.131663 8.52665-6.394988 2.131663-4.263325 2.131663-8.526651 4.263326-12.789976 2.131663-4.263325 0-8.526651-4.263326-8.52665-4.263325-2.131663-4.263325-4.263325-2.131662-8.526651 0-2.131663 2.131663-4.263325 4.263325-6.394988 2.131663 10.658313 4.263325 12.789976 10.658313 14.921639l2.131663 10.658313c-4.263325 0-6.394988 2.131663-6.394988 8.526651 0 2.131663-2.131663 4.263325-2.131663 6.394987-4.263325 2.131663-6.394988 6.394988-10.658313 8.526651-4.263325 2.131663-8.526651 0-10.658313-4.263325-2.131663-4.263325-2.131663-6.394988-6.394988-6.394988-4.263325 2.131663-4.263325 4.263325-4.263325 8.52665v8.526651c-2.131663 6.394988-6.394988 12.789976-10.658314 19.184964 0-4.263325 0-8.526651-2.131662-8.526651-4.263325-6.394988-8.526651-10.658313-14.921639-14.921638v-4.263326c-4.263325-4.263325-6.394988-6.394988-10.658313-4.263325-2.131663 2.131663-6.394988 4.263325-8.526651 8.526651l14.921639 14.921638c0 8.526651 0 14.921638-2.131663 21.316627 6.394988-4.263325 12.789976-8.526651 21.316627-10.658314-4.263325 6.394988-10.658313 12.789976-17.053301 19.184964 2.131663 0 4.263325 2.131663 6.394988 2.131663 4.263325 2.131663 6.394988 6.394988 6.394987 12.789976s-2.131663 8.526651-6.394987 8.52665c-2.131663 0-6.394988 2.131663-8.526651 2.131663-6.394988 2.131663-6.394988 4.263325-6.394988 12.789976v8.52665c0 2.131663 2.131663 6.394988 4.263325 8.526651 4.263325 4.263325 8.526651 6.394988 12.789976 8.52665-2.131663 8.526651-6.394988 14.921638-8.52665 23.448289 0 10.658313-2.131663 19.184964-6.394988 27.711615-4.263325 8.526651-6.394988 21.316626-4.263326 31.974939 2.131663 8.526651 4.263325 19.184964 6.394988 27.711615 2.131663 6.394988 6.394988 14.921638 10.658314 21.316626 6.394988 8.526651 12.789976 17.053301 21.316626 23.448289 6.394988 6.394988 12.789976 8.526651 19.184964 6.394988 2.131663-2.131663 4.263325-2.131663 6.394988-2.131662 6.394988 0 12.789976-4.263325 14.921638-10.658314 4.263325-6.394988 8.526651-6.394988 14.921639-4.263325 2.131663 2.131663 6.394988 2.131663 8.52665 4.263325 8.526651 0 8.526651 2.131663 10.658313 10.658314 4.263325 17.053301 12.789976 29.843277 21.316627 42.633252 8.526651 12.789976 12.789976 23.448289 10.658313 38.369928-2.131663 8.526651 0 17.053301 6.394988 23.448289 12.789976 17.053301 21.316626 38.369928 31.97494 59.686554 6.394988 12.789976 14.921638 17.053301 23.448289 12.789976 12.789976-6.394988 21.316626-17.053301 23.448289-34.106602 2.131663-10.658313 4.263325-19.184964 6.394988-29.843277v-10.658314c-4.263325-10.658313-2.131663-19.184964 2.131662-27.711614 2.131663-6.394988 4.263325-12.789976 2.131663-19.184964-2.131663-6.394988-2.131663-12.789976-4.263325-19.184963l-6.394988-19.184964c-4.263325-17.053301 0-34.106602 6.394988-46.896578 4.263325-8.526651 8.526651-19.184964 8.52665-31.97494 0-8.526651 2.131663-17.053301-2.131662-25.579952-6.394988 4.263325-12.789976 6.394988-17.053301 10.658313-2.131663 2.131663-6.394988 2.131663-8.526651-2.131662-4.263325-4.263325-8.526651-10.658313-12.789976-12.789976-6.394988-4.263325-12.789976-10.658313-17.053301-17.053301-6.394988-12.789976-12.789976-23.448289-21.316626-34.106602 0 0 0-2.131663-2.131663-4.263326l2.131663-2.131662c6.394988 6.394988 12.789976 12.789976 19.184963 21.316626 4.263325 4.263325 6.394988 8.526651 10.658314 14.921639 4.263325 6.394988 10.658313 12.789976 14.921638 21.316626 8.526651 12.789976 6.394988 12.789976 17.053301 4.263325 12.789976-8.526651 19.184964-23.448289 25.579952-38.369927 2.131663-4.263325 2.131663-6.394988 4.263325-10.658314 0-8.526651-2.131663-12.789976-8.52665-17.053301-2.131663-2.131663-4.263325-2.131663-8.526651-4.263325s-6.394988-4.263325-6.394988 2.131663c0 2.131663-2.131663 4.263325-2.131663 6.394988-2.131663 2.131663-2.131663 2.131663-4.263325 0l-6.394988-6.394988c-4.263325-4.263325-10.658313-8.526651-12.789976-17.053301 4.263325 4.263325 10.658313 8.526651 14.921639 12.789975 4.263325 2.131663 8.526651 4.263325 10.658313 0 2.131663-4.263325 4.263325-4.263325 8.526651-2.131662 8.526651 4.263325 17.053301 2.131663 23.448289 0 6.394988-2.131663 14.921638 2.131663 19.184964 8.52665 6.394988 10.658313 8.526651 10.658313 17.053301 6.394988 2.131663 2.131663 2.131663 6.394988 4.263325 8.526651 4.263325 10.658313 8.526651 19.184964 14.921638 29.843277l12.789976 19.184964c4.263325 6.394988 8.526651 4.263325 8.526651-2.131663 0-2.131663 0-4.263325 2.131662-6.394988 2.131663-8.526651 0-14.921638-2.131662-23.448289-2.131663-4.263325 0-8.526651 2.131662-12.789976 4.263325-8.526651 6.394988-19.184964 10.658314-29.843277 2.131663-2.131663 6.394988-4.263325 8.52665-6.394988 6.394988 6.394988 14.921638 12.789976 19.184964 23.448289 2.131663 4.263325 4.263325 6.394988 6.394988 2.131663 0-2.131663 2.131663-2.131663 4.263325-4.263325 6.394988 8.526651 10.658313 17.053301 12.789976 29.843277 0 4.263325 2.131663 10.658313 4.263325 12.789975 6.394988 10.658313 14.921638 19.184964 23.448289 29.843277-4.263325-2.131663-6.394988-4.263325-10.658313-8.52665-6.394988-6.394988-10.658313-8.526651-17.053301-6.394988 0 0-2.131663 0-2.131663 2.131663s2.131663 2.131663 2.131663 4.263325c10.658313 6.394988 17.053301 17.053301 25.579952 27.711614 4.263325 6.394988 10.658313 8.526651 14.921638 14.921639 2.131663 2.131663 2.131663 2.131663 4.263326 2.131662l6.394988-19.184963-2.131663-2.131663c-2.131663-2.131663-4.263325-2.131663-6.394988-4.263325-2.131663-2.131663-4.263325-6.394988-6.394988-8.526651 0-2.131663 2.131663-4.263325 0-6.394988-2.131663-8.526651-6.394988-17.053301-12.789976-21.316626-10.658313-4.263325-12.789976-12.789976-14.921638-23.448289 0-4.263325 0-6.394988 4.263325-4.263326 2.131663 0 2.131663 0 4.263325 2.131663l17.053301 17.053301c2.131663-4.263325 6.394988-10.658313 8.526651-17.053301 2.131663-2.131663 0-8.526651-2.131663-12.789976-4.263325-8.526651-10.658313-14.921638-17.053301-19.184964-6.394988-2.131663-6.394988-8.526651-4.263325-12.789975 2.131663-4.263325 6.394988-6.394988 8.52665-8.526651 6.394988-4.263325 12.789976-6.394988 17.053302-14.921639 4.263325-6.394988 6.394988-14.921638 6.394988-23.448289 0-6.394988-2.131663-14.921638-6.394988-19.184963 0 0 0-2.131663-2.131663-2.131663-2.131663-4.263325-4.263325-6.394988-8.526651-10.658313-8.526651-6.394988-8.526651-6.394988-4.263325-17.053301-2.131663 0-6.394988-2.131663-8.52665-2.131663-2.131663 0-4.263325 0-6.394988-2.131663 0 0-2.131663-2.131663-2.131663-4.263325s2.131663-4.263325 2.131663-4.263325 2.131663 0 4.263325 2.131662c0 0 2.131663 2.131663 2.131663 4.263326 4.263325-2.131663 6.394988-4.263325 10.658313 2.131662 6.394988 0 8.526651 4.263325 10.658313 10.658314 0 2.131663 4.263325 4.263325 6.394988 4.263325 2.131663 0 4.263325-2.131663 6.394988-4.263325 0-2.131663 0-6.394988-2.131663-8.526651l-12.789976-12.789976c-4.263325-4.263325-4.263325-14.921638 0-17.053301 6.394988-4.263325 8.526651-8.526651 6.394988-19.184964-4.263325-14.921638-12.789976-25.579952-21.316626-36.238265-2.131663-2.131663-6.394988 0-8.526651 0-2.131663 0-2.131663 2.131663-4.263325 2.131663-2.131663-2.131663-6.394988-4.263325-6.394988-4.263325 2.131663-6.394988-2.131663-12.789976 2.131663-17.053301l19.184963-4.263326c4.263325 0 6.394988-2.131663 6.394988-8.52665 0-2.131663 0-4.263325 2.131663-4.263326-6.394988-12.789976-12.789976-23.448289-19.184964-36.238265-17.053301-12.789976-25.579952-12.789976-31.974939-12.789975z" fill="#F3F3F3" p-id="73337"></path><path d="M648.814777 1021.467372c-112.97812 29.843277-251.536192-208.902939-319.749397-460.439131S260.852176 34.507568 375.961958 2.532628l8.526651 31.97494c-70.344867 19.184964-98.056482 236.614553-21.316626 517.994022 76.739855 281.379469 206.771276 456.175806 279.247806 436.990842l6.394988 31.97494z" fill="#415A6B" p-id="73338"></path><path d="M1021.855739 648.426409l-31.974939-8.52665c19.184964-70.344867-155.611373-202.507951-436.990842-277.116144-281.379469-76.739855-498.809058-49.028241-517.994022 21.316626l-31.97494-8.52665c29.843277-112.97812 306.959421-112.97812 558.495612-46.896578s490.282408 204.639614 460.439131 319.749396z" fill="#415A6B" p-id="73339"></path><path d="M265.115501 902.094264c-53.291566 14.921638-98.056482 10.658313-123.636433-17.053302l23.448289-23.448289c51.159903 51.159903 253.667854-34.106602 458.307468-240.877878C827.874439 416.075181 913.140944 213.56723 861.981041 162.407327l23.448289-23.448289c83.134843 83.134843-55.423229 321.881059-238.746216 505.204046-123.636433 123.636433-272.852818 228.087903-381.567613 257.93118z" fill="#415A6B" p-id="73340"></path><path d="M301.353766 303.097061m-61.818217 0a61.818217 61.818217 0 1 0 123.636434 0 61.818217 61.818217 0 1 0-123.636434 0Z" fill="#F3705A" p-id="73341"></path><path d="M435.648512 797.642794m-61.818216 0a61.818217 61.818217 0 1 0 123.636433 0 61.818217 61.818217 0 1 0-123.636433 0Z" fill="#F3705A" p-id="73342"></path><path d="M795.899499 435.260145m-61.818217 0a61.818217 61.818217 0 1 0 123.636434 0 61.818217 61.818217 0 1 0-123.636434 0Z" fill="#FFD15C" p-id="73343"></path></svg>