<?xml version="1.0" standalone="no"?><!DOCTYPE svg PUBLIC "-//W3C//DTD SVG 1.1//EN" "http://www.w3.org/Graphics/SVG/1.1/DTD/svg11.dtd"><svg t="1748698558991" class="icon" viewBox="0 0 1024 1024" version="1.1" xmlns="http://www.w3.org/2000/svg" p-id="60009" xmlns:xlink="http://www.w3.org/1999/xlink" width="200" height="200"><path d="M155.4 565.6l-114-82.9L31 451.6 507.7 57.9l41.4 20.7 445.6 352.3 20.7 41.4-124.3 82.9-10.4 373-51.8 31.1-621.7 10.4-41.4-51.8-10.4-352.3z m0 0" fill="#FFFFFF" p-id="60010"></path><path d="M162.6 580.5L60.8 503.9l-27.9-50.4L434 127.4c25.3-20.5 61.3-21.1 87.2-1.4l469.6 378.7-103.9 73.2-6.9 364.7-68.9 17.4-598.7 9.7-39.9-48.4-9.9-340.8z m0 11.4" fill="#0098CB" p-id="60011"></path><path d="M60.3 471.9c-10.1-8.3-10.1-21.5 1.5-30.9l423.6-339.8c14.2-11.5 38.7-11.5 52.8 0L961.8 441c11.6 9.4 11.6 22.6 0 32.1l-4.5 3.5c-17.1 13.4-22.6 15.3-39.7 28.8-16.9 13.4-30 23.9-39.6 31.6-8.9 7.2-10.2 31.9-3 40.8 7.2 8.9 20.3 10.2 29.2 3 9.4-7.7 22.4-18 38.1-30.5 17.4-13.8 34.8-27.5 52.2-41.1l4.8-3.8c32.3-26.3 32.3-70.6 0.3-96.6L564.4 55.1c-29.4-23.9-75.7-23.9-105.1 0L24 408.9c-32 26-32 70.4 0 96.4 2.4 1.7 2.4 1.7 6.4 4.4 18.1 12.2 36.2 24.6 54.2 37 23 16 39.9 28.1 47.4 34.2 8.9 7.2 21.9 5.9 29.2-3 7.2-8.9 7-26.6-1.8-33.8-8.7-7-26-19.5-49.9-36.1l-49.2-36.1z m47.9 40.7" fill="#39363F" p-id="60012"></path><path d="M332.5 375l138.3-112.4c8.9-7.2 10.2-20.3 3-29.2-7.2-8.9-20.3-10.2-29.2-3L306.4 342.9l-19.7 16c-8.9 7.2-10.2 20.3-3 29.2 7.2 8.9 20.3 10.2 29.2 3l19.6-16.1z m0 0" fill="#82EEF9" p-id="60013"></path><path d="M573 613.3h-95c-37 0-67 30-67 67v279.8h245.5V696.8c0-46.1-37.4-83.5-83.5-83.5z" fill="#FFFFFF" p-id="60014"></path><path d="M425.8 731.3c0-60.5 47.9-109.4 106.5-109.4 58.7 0 106.5 48.8 106.5 109.4v212.3c0 11.4 9.3 20.7 20.7 20.7s20.7-9.3 20.7-20.7V731.3c0-83.2-66.1-150.8-148-150.8-81.7 0-148 67.7-148 150.8v212.3c0 11.4 9.3 20.7 20.7 20.7 11.4 0 20.7-9.3 20.7-20.7V731.3z m0 0" fill="#39363F" p-id="60015"></path><path d="M858.9 468.2V914c0 16.4-17.7 31.3-40.7 31.3H223.9c-23.2 0-40.7-14.9-40.7-31.3V435.2c0-11.4-9.3-20.7-20.7-20.7s-20.7 9.3-20.7 20.7V914c0 41 37.5 72.7 82.2 72.7h594.2c44.6 0 82.2-31.8 82.2-72.8V435.1c0-11.4-9.3-20.7-20.7-20.7-11.4 0-20.7 9.3-20.7 20.7l-0.1 33.1z m0 0" fill="#39363F" p-id="60016"></path></svg>