<?xml version="1.0" standalone="no"?><!DOCTYPE svg PUBLIC "-//W3C//DTD SVG 1.1//EN" "http://www.w3.org/Graphics/SVG/1.1/DTD/svg11.dtd"><svg t="1751300487021" class="icon" viewBox="0 0 1146 1024" version="1.1" xmlns="http://www.w3.org/2000/svg" p-id="11407" xmlns:xlink="http://www.w3.org/1999/xlink" width="286.5" height="256"><path d="M591.890672 1007.65551L77.24491 710.547781a122.748733 122.748733 0 0 1-56.538811-139.797169L164.036944 71.200465a54.554993 54.554993 0 0 1 100.740753-9.454133l108.985996 215.895184 190.22954-73.060294a158.147484 158.147484 0 0 1 52.385191-135.612552C663.71108 26.843536 731.005903 17.079432 796.62688 43.210034c5.083533 1.983818 9.795101 4.742565 14.072708 8.121254 55.112941 43.643994 80.127645 106.692207 67.790778 168.996489a158.333467 158.333467 0 0 1-91.41061 113.294601l31.865075 201.326521 241.467837-13.576754a54.554993 54.554993 0 0 1 42.187128 91.999555L741.203967 986.701434a122.748733 122.748733 0 0 1-149.313295 20.954076z" fill="#FEE240" p-id="11408"></path><path d="M187.687773 600.507881a40.916244 40.916244 0 0 1-18.722282-46.929692l36.762626-125.166512a40.916244 40.916244 0 0 1 78.577787 23.061884l-36.82462 125.135514a40.916244 40.916244 0 0 1-50.835334 27.742453c-3.099715-0.929915-6.10644-2.231795-8.958177-3.843647z" fill="#CC8000" p-id="11409"></path><path d="M591.890672 1007.65551L77.24491 710.547781a122.748733 122.748733 0 0 1-56.538811-139.797169L164.036944 71.200465a54.554993 54.554993 0 0 1 100.740753-9.454133l108.985996 215.895184 190.22954-73.060294a158.147484 158.147484 0 0 1 52.385191-135.612552C663.71108 26.843536 731.005903 17.079432 796.62688 43.210034c5.083533 1.983818 9.795101 4.742565 14.072708 8.121254 55.112941 43.643994 80.127645 106.692207 67.790778 168.996489a158.333467 158.333467 0 0 1-91.41061 113.294601l31.865075 201.326521 241.467837-13.576754a54.554993 54.554993 0 0 1 42.187128 91.999555L741.203967 986.701434a122.748733 122.748733 0 0 1-149.313295 20.954076zM223.334501 161.309194L99.004913 593.471527a40.916244 40.916244 0 0 0 19.156241 46.185761l514.645762 297.138726a40.916244 40.916244 0 0 0 49.874423-7.036354L994.636705 606.304349l-196.366976 11.282964a54.554993 54.554993 0 0 1-56.724793-45.7518l-39.180404-248.442196a54.554993 54.554993 0 0 1 39.614364-60.847415 76.996933 76.996933 0 0 0 55.732884-59.018583c6.292422-30.532198-6.509403-61.622344-35.212768-85.676136-35.336757-12.522851-68.596704-8.121255-91.751578 12.398862a76.996933 76.996933 0 0 0-23.09288 77.430893l0.185983 0.774928a54.554993 54.554993 0 0 1-33.22895 64.257102l-234.741454 90.294713a54.554993 54.554993 0 0 1-68.007758-26.254591l-88.527874-175.443896z" fill="#CC8000" p-id="11410"></path></svg>