<?xml version="1.0" standalone="no"?><!DOCTYPE svg PUBLIC "-//W3C//DTD SVG 1.1//EN" "http://www.w3.org/Graphics/SVG/1.1/DTD/svg11.dtd"><svg t="1750963268567" class="icon" viewBox="0 0 1024 1024" version="1.1" xmlns="http://www.w3.org/2000/svg" p-id="53308" width="256" height="256" xmlns:xlink="http://www.w3.org/1999/xlink"><path d="M512 512m-512 0a512 512 0 1 0 1024 0 512 512 0 1 0-1024 0Z" fill="#FDC8EC" p-id="53309"></path><path d="M637.155556 807.822222c92.717511-6.815289 167.879111-75.081956 193.422222-159.288889 2.639644 0.853333 7.361422-10.285511 10.888533-10.4448 26.817422-1.160533 46.239289-10.763378 46.000356-35.464533v-107.406222C887.466667 469.447111 867.498667 455.111111 841.955556 455.111111v-45.511111c0-118.5792-128.739556-227.555556-249.116445-227.555556H420.625067C299.372089 182.044444 182.044444 303.263289 182.044444 420.977778v34.133333c-26.4192 0-45.511111 14.336-45.511111 39.253333v110.216534C136.533333 630.363022 156.501333 648.533333 182.044444 648.533333a45.511111 45.511111 0 0 0 45.511112-45.511111V432.355556c0-92.080356 98.531556-204.8 193.422222-204.8h170.666666c94.890667 0 204.8 101.398756 204.8 193.422222v170.666666c0 87.768178-92.216889 176.0256-182.044444 182.044445h-34.133333c-8.590222-19.035022-32.039822-32.756622-52.644978-32.756622-29.195378 0-53.248 25.383822-53.248 56.206222 0 30.811022 24.052622 56.194844 53.248 56.194844 36.067556 0 44.054756-25.565867 52.644978-45.511111h56.888889z" fill="#F25960" p-id="53310"></path><path d="M659.911111 557.511111c0 43.611022-65.058133 91.022222-147.911111 91.022222s-147.911111-47.4112-147.911111-91.022222h295.822222z m-56.888889 170.666667h22.755556c68.687644 0 113.777778-58.140444 113.777778-125.155556V398.222222c0-67.015111-56.467911-113.777778-125.155556-113.777778H409.6c-68.687644 0-125.155556 46.762667-125.155556 113.777778v204.8c0 67.015111 56.467911 125.155556 125.155556 125.155556h45.511111c15.849244-18.898489 40.971378-34.133333 68.266667-34.133334 26.4192 0.864711 52.417422 16.088178 68.266666 34.133334h11.377778z" fill="#FFFFFF" p-id="53311"></path><path d="M295.822222 659.911111s76.117333 38.001778 227.555556 34.133333c151.438222-3.868444 204.8-34.133333 204.8-34.133333s-55.933156 66.161778-102.4 68.266667c-46.466844 2.104889-32.551822-23.9616-102.4-22.755556-59.938133 1.035378-79.644444 22.755556-79.644445 22.755556s-60.575289 2.230044-79.644444-11.377778c-17.385244-12.413156-68.266667-56.888889-68.266667-56.888889z" fill="#F1DEDE" p-id="53312"></path><path d="M841.955556 648.533333c-0.455111 0.034133-1.604267 9.966933 0 11.377778-41.0624 70.838044-99.999289 144.372622-193.422223 159.288889h-56.888889c-6.508089 18.818844-25.4976 45.511111-68.266666 45.511111-40.368356 0-68.266667-37.444267-68.266667-68.266667s29.024711-68.266667 68.266667-68.266666c20.605156 0 54.749867 7.873422 68.266666 34.133333h22.755556c89.827556-6.018844 170.666667-82.898489 170.666667-170.666667V420.977778c0-92.023467-98.531556-182.044444-193.422223-182.044445H420.977778c-94.890667 0-182.044444 101.341867-182.044445 193.422223v170.666666c0 24.723911-18.238578 56.888889-56.888889 56.888889-25.543111 0-56.888889-29.548089-56.888888-55.330133V494.364444c0-24.917333 19.091911-50.631111 45.511111-50.631111v-22.755555c0-117.714489 128.705422-250.311111 249.9584-250.311111h172.214044C713.216 170.666667 853.333333 291.0208 853.333333 409.6v22.755556c25.543111 0 45.511111 25.713778 45.511111 51.484444V591.644444c-1.683911 29.832533-34.349511 55.227733-56.888888 56.888889z m34.133333-163.168711C876.088889 461.334756 854.573511 455.111111 830.577778 455.111111v-45.511111c0-110.535111-129.558756-216.177778-242.631111-216.177778H426.166044C312.263111 193.422222 193.422222 311.239111 193.422222 420.977778v45.511111c-24.814933 0-45.511111 9.762133-45.511111 29.457067v102.741333c0 24.029867 22.687289 38.126933 34.133333 38.468267 17.476267 0.523378 34.315378-19.933867 34.133334-34.133334V420.977778c0-86.960356 104.277333-204.8 193.422222-204.8h193.422222c89.144889 0 204.8 107.633778 204.8 193.422222v182.044444c0 81.8176-97.655467 187.812978-182.044444 193.422223h-56.888889c0-26.020978-26.146133-34.133333-45.511111-34.133334-27.431822 0-45.2608 29.684622-45.511111 45.511111-0.284444 18.067911 21.378844 45.511111 48.810666 45.511112 31.414044 0 42.211556-24.280178 42.211556-45.511112h68.266667c87.096889-6.360178 128.785067-57.218844 182.044444-136.533333 1.1264-8.214756 9.978311-34.076444 11.377778-34.133333 28.819911-1.160533 45.738667-22.482489 45.511111-45.511111v-94.902045zM409.6 273.066667h204.8c68.687644 0 136.533333 58.140444 136.533333 125.155555v204.8c0 67.015111-56.467911 136.533333-125.155555 136.533334h-45.511111c-15.849244-18.045156-30.469689-33.268622-56.888889-34.133334-27.295289 0-41.039644 15.234844-56.888889 34.133334h-56.888889c-68.687644 0-136.533333-69.518222-136.533333-136.533334V398.222222c0-67.015111 67.845689-125.155556 136.533333-125.155555zM295.822222 593.590044C295.822222 654.074311 357.205333 716.8 419.350756 716.8H455.111111c14.347378-17.055289 43.565511-34.133333 68.266667-34.133333 23.904711 0.773689 53.919289 17.851733 68.266666 34.133333h23.301689C677.091556 716.8 728.177778 654.074311 728.177778 593.590044V408.769422C728.177778 348.285156 666.794667 295.822222 604.649244 295.822222H419.350756C357.205333 295.822222 295.822222 348.285156 295.822222 408.769422v184.820622zM512 659.911111c-134.712889 0-159.425422-79.553422-159.425422-113.789155h318.850844C671.425422 583.520711 648.009956 659.911111 512 659.911111z m0-22.755555c80.213333 0 118.033067-27.9552 136.533333-68.266667H375.466667c36.431644 55.7056 66.013867 68.266667 136.533333 68.266667z" fill="#333333" p-id="53313"></path></svg>