<?xml version="1.0" standalone="no"?><!DOCTYPE svg PUBLIC "-//W3C//DTD SVG 1.1//EN" "http://www.w3.org/Graphics/SVG/1.1/DTD/svg11.dtd"><svg t="1748723006301" class="icon" viewBox="0 0 1024 1024" version="1.1" xmlns="http://www.w3.org/2000/svg" p-id="17824" xmlns:xlink="http://www.w3.org/1999/xlink" width="200" height="200"><path d="M582.4 649.6c6.4 0 11.2-1.6 14.4-3.2 3.2-3.2 4.8-6.4 4.8-11.2 0-3.2-1.6-8-4.8-11.2-3.2-3.2-8-4.8-14.4-4.8h-46.4v-14.4c8-8 16-14.4 22.4-22.4l17.6-17.6 12.8-12.8c11.2-9.6 12.8-17.6 8-25.6-3.2-4.8-8-6.4-12.8-6.4-4.8 0-9.6 1.6-14.4 6.4-3.2 1.6-6.4 4.8-12.8 11.2-6.4 4.8-11.2 9.6-17.6 16-6.4 6.4-14.4 12.8-22.4 20.8L496 553.6l-16-14.4c-4.8-4.8-8-8-9.6-11.2-3.2-3.2-9.6-6.4-14.4-8s-11.2-1.6-16 3.2c-3.2 4.8-4.8 11.2-3.2 16 1.6 4.8 4.8 9.6 6.4 11.2l11.2 9.6c4.8 6.4 11.2 12.8 17.6 19.2 8 8 14.4 16 24 24v14.4h-49.6c-4.8 0-8 1.6-11.2 4.8-3.2 3.2-4.8 6.4-4.8 11.2s1.6 8 4.8 9.6c3.2 3.2 6.4 4.8 11.2 4.8H496v25.6h-49.6c-4.8 0-8 1.6-11.2 3.2-3.2 3.2-4.8 6.4-4.8 11.2 0 3.2 1.6 6.4 3.2 9.6 3.2 3.2 6.4 3.2 11.2 3.2h49.6v14.4c0 6.4 3.2 11.2 6.4 14.4s8 3.2 14.4 3.2 11.2-1.6 14.4-4.8c3.2-4.8 4.8-8 4.8-12.8v-14.4h51.2c4.8 0 8-1.6 11.2-3.2 3.2-1.6 4.8-6.4 3.2-11.2 0-9.6-6.4-14.4-20.8-14.4h-46.4v-24l49.6 1.6z" fill="#EFD70C" p-id="17825"></path><path d="M512 0C228.8 0 0 228.8 0 512s228.8 512 512 512 512-228.8 512-512S795.2 0 512 0z m-145.6 204.8c3.2-3.2 8-3.2 11.2-3.2 4.8 0 9.6 1.6 14.4 3.2l14.4 4.8c4.8 1.6 8 1.6 12.8 0 6.4-1.6 11.2-3.2 14.4-8 3.2-3.2 9.6-8 17.6-12.8 6.4-3.2 12.8-4.8 20.8-3.2 8 1.6 12.8 3.2 17.6 8 1.6 3.2 3.2 4.8 6.4 6.4 1.6 1.6 4.8 3.2 6.4 4.8 3.2 1.6 4.8 3.2 8 4.8 1.6 0 1.6 0 3.2-1.6 3.2-1.6 6.4-4.8 11.2-9.6 6.4-4.8 11.2-9.6 17.6-11.2 6.4-3.2 12.8-1.6 22.4 1.6 4.8 1.6 8 3.2 11.2 6.4 3.2 3.2 6.4 4.8 8 8 3.2 3.2 4.8 4.8 8 6.4 3.2 1.6 6.4 3.2 11.2 3.2s9.6 0 12.8-1.6 6.4-3.2 9.6-3.2c3.2-1.6 6.4-1.6 9.6-3.2 3.2 0 6.4 0 11.2 1.6 4.8 1.6 8 4.8 9.6 8 1.6 3.2 1.6 8 1.6 11.2 0 3.2-3.2 8-4.8 11.2s-6.4 6.4-9.6 9.6c-9.6 6.4-16 11.2-20.8 17.6l-14.4 19.2c-3.2 3.2-4.8 8-8 11.2-3.2 4.8-4.8 8-8 12.8l-9.6 14.4h-148.8c-3.2-6.4-6.4-11.2-9.6-16l-9.6-14.4c-3.2-4.8-6.4-9.6-8-12.8-4.8-8-9.6-12.8-16-19.2-6.4-4.8-11.2-11.2-17.6-14.4-6.4-4.8-11.2-9.6-12.8-17.6s0-17.6 6.4-22.4z m395.2 459.2c-4.8 24-12.8 46.4-25.6 68.8-12.8 20.8-30.4 40-51.2 56-20.8 16-46.4 28.8-75.2 38.4-28.8 9.6-62.4 14.4-99.2 14.4-38.4 0-72-4.8-100.8-16S355.2 800 334.4 784c-20.8-17.6-36.8-36.8-48-57.6-12.8-20.8-19.2-43.2-24-64-4.8-24-4.8-46.4-1.6-67.2 3.2-22.4 8-41.6 17.6-60.8 8-19.2 17.6-36.8 30.4-52.8s25.6-30.4 40-43.2c12.8-11.2 24-20.8 33.6-32s19.2-19.2 25.6-27.2c8-9.6 16-17.6 22.4-25.6H592c6.4 8 12.8 16 22.4 25.6 8 8 16 17.6 27.2 27.2 11.2 9.6 22.4 20.8 36.8 32 11.2 9.6 24 22.4 35.2 35.2s22.4 30.4 32 48c9.6 17.6 16 40 19.2 62.4 1.6 24 1.6 51.2-3.2 80z" fill="#EFD70C" p-id="17826"></path></svg>