<?xml version="1.0" standalone="no"?><!DOCTYPE svg PUBLIC "-//W3C//DTD SVG 1.1//EN" "http://www.w3.org/Graphics/SVG/1.1/DTD/svg11.dtd"><svg t="1749163739232" class="icon" viewBox="0 0 1024 1024" version="1.1" xmlns="http://www.w3.org/2000/svg" p-id="85322" xmlns:xlink="http://www.w3.org/1999/xlink" width="200" height="200"><path d="M615.253333 30.72C413.013333 30.72 247.466667 196.266667 247.466667 398.506667c0 75.093333 22.186667 142.506667 59.733333 203.093333h-25.6v52.906667c-22.186667-7.68-52.906667-3.413333-71.68 15.36L37.546667 842.24c-26.453333 26.453333-26.453333 71.68 0 97.28l34.133333 34.133333c26.453333 26.453333 71.68 26.453333 97.28 0L341.333333 800.426667c7.68-7.68 11.093333-15.36 15.36-26.453334h11.093334V669.013333c64 59.733333 150.186667 93.866667 247.466666 93.866667 203.093333 0 367.786667-165.546667 367.786667-367.786667 0.853333-198.826667-164.693333-364.373333-367.786667-364.373333z m0 669.013333c-165.546667 0-300.373333-134.826667-300.373333-300.373333s134.826667-300.373333 300.373333-300.373333 300.373333 134.826667 300.373334 300.373333S780.8 699.733333 615.253333 699.733333z" fill="#060204" p-id="85323"></path><path d="M874.666667 424.96c-22.186667-59.733333-101.546667-176.64-259.413334-176.64S374.613333 364.373333 355.84 424.96c-7.68 18.773333 3.413333 40.96 22.186667 48.64 18.773333 7.68 40.96-3.413333 48.64-22.186667 0 0 3.413333-7.68 7.68-18.773333 15.36 86.186667 90.453333 153.6 180.053333 153.6s165.546667-67.413333 180.053333-153.6c3.413333 7.68 7.68 15.36 7.68 15.36 3.413333 15.36 18.773333 26.453333 34.133334 26.453333 3.413333 0 7.68 0 11.093333-3.413333 23.893333-4.266667 34.986667-27.306667 27.306667-46.08zM615.253333 556.373333c-82.773333 0-146.773333-52.906667-153.6-165.546666 18.773333-18.773333 45.226667-40.96 78.506667-52.906667-15.36 18.773333-22.186667 37.546667-22.186667 64 0 52.906667 45.226667 97.28 97.28 97.28s97.28-45.226667 97.28-97.28c0-22.186667-7.68-45.226667-22.186666-64 37.546667 11.093333 64 34.133333 82.773333 56.32-11.093333 113.493333-75.093333 162.133333-157.866667 162.133333z" fill="#060204" p-id="85324"></path></svg>