<?xml version="1.0" standalone="no"?><!DOCTYPE svg PUBLIC "-//W3C//DTD SVG 1.1//EN" "http://www.w3.org/Graphics/SVG/1.1/DTD/svg11.dtd"><svg t="1748699082335" class="icon" viewBox="0 0 1024 1024" version="1.1" xmlns="http://www.w3.org/2000/svg" p-id="74215" xmlns:xlink="http://www.w3.org/1999/xlink" width="200" height="200"><path d="M512 512m-512 0a512 512 0 1 0 1024 0 512 512 0 1 0-1024 0Z" fill="#E55088" p-id="74216"></path><path d="M511.9488 326.912l46.208 97.792 11.2128 23.7056 25.8048 4.7872 109.696 20.2752-79.0784 77.5936-19.328 18.944 4.7872 26.624 19.5328 108.9024-95.232-49.3568-23.4752-12.1856-23.5008 12.1088-95.8976 49.3824 20.0704-108.5696 4.9664-26.9312-19.6352-19.072-78.8992-76.7232 109.952-21.0176 25.5744-4.8896 11.1104-23.5264 46.1312-97.8432M512 255.9744c-14.2592 0-27.1616 8.4224-33.5616 21.9392l-58.9824 124.9536-131.6096 25.1392a37.632 37.632 0 0 0-30.0288 26.7776 41.0624 41.0624 0 0 0 9.6768 40.6272l94.8224 92.1856-24.8576 134.3744c-2.3552 14.7456 3.5072 29.8752 14.8736 38.4 6.4512 4.9408 14.5152 7.4496 22.4 7.4496 5.888 0 11.6736-1.3824 16.64-4.1472l120.5504-62.0544 119.5008 61.9264c5.4272 2.9184 11.392 4.48 17.3824 4.48 7.7824 0 15.616-2.7136 21.8624-7.5264 11.5456-8.7552 17.4336-23.8848 14.976-38.784l-24.0384-134.1184 95.1296-93.3376a40.9088 40.9088 0 0 0 9.4208-40.2432c-4.352-14.3616-15.872-24.6016-29.7728-26.7776l-131.9424-24.3968-58.9568-124.7744A37.248 37.248 0 0 0 512 255.9744z" fill="#FFFFFF" p-id="74217"></path></svg>