<?xml version="1.0" standalone="no"?><!DOCTYPE svg PUBLIC "-//W3C//DTD SVG 1.1//EN" "http://www.w3.org/Graphics/SVG/1.1/DTD/svg11.dtd"><svg t="1748902695252" class="icon" viewBox="0 0 1024 1024" version="1.1" xmlns="http://www.w3.org/2000/svg" p-id="11195" xmlns:xlink="http://www.w3.org/1999/xlink" width="200" height="200"><path d="M508.473 48.513c83.91 0 174.652 257.03 174.652 257.03s280.087 12.398 306.01 92.199c25.924 79.803-197.681 238.767-197.681 238.767s81.964 276.966 14.08 326.276c-67.883 49.328-297.024-127.871-297.024-127.871s-229.216 177.199-297.1 127.871c-67.882-49.311 9.71-325.187 9.71-325.187S1.877 477.544 27.81 397.723c25.934-79.792 301.592-99.399 301.592-99.399S424.563 48.513 508.473 48.513z" fill="#ffffff" p-id="11196"></path><path d="M774.127 976.457c-37.877 0-94.676-23.218-168.826-69.012-46.64-28.805-85.821-57.945-96.792-66.246-10.974 8.3-50.167 37.438-96.82 66.241-74.178 45.796-130.999 69.017-168.883 69.017-13.992 0-25.543-3.238-34.335-9.627-29.773-21.628-37.38-84.156-22.609-185.849 9.486-65.309 25.55-126.676 29.533-141.404-11.841-8.848-59.473-45.099-104.134-88.393-69.923-67.783-99.599-119.935-88.205-155.006 11.352-34.927 66.619-62.843 164.267-82.974 62.962-12.98 124.17-18.451 138.561-19.621 5.183-13.179 27.359-68.193 57.206-122.571 46.437-84.603 88.622-127.5 125.384-127.5 36.82 0 78.282 44.149 123.235 131.221 28.802 55.788 49.966 112.226 54.99 125.985 14.87 0.811 76.864 4.703 140.589 16.075 99.185 17.701 155.238 44.416 166.604 79.402 11.399 35.092-19.03 87.07-90.442 154.49-45.543 42.996-94.058 78.967-106.216 87.815 4.247 14.905 21.236 76.423 31.656 141.866 16.252 102.081 9.384 164.815-20.416 186.462-8.787 6.385-20.338 9.624-34.33 9.626-0.005 0.003-0.013 0.003-0.017 0.003zM508.51 828.593l3.058 2.365c1.752 1.354 176.221 135.497 262.558 135.498h0.016c11.836-0.002 21.409-2.598 28.453-7.717 26.134-18.983 31.811-80.119 16.418-176.799-11.817-74.226-32.149-143.324-32.354-144.014l-1.013-3.425 2.91-2.069c0.558-0.396 56.29-40.163 108.097-89.084 67.348-63.597 97.683-113.413 87.726-144.063-9.989-30.753-64.887-55.869-158.758-72.631-72.104-12.876-142.02-16.087-142.718-16.118l-3.369-0.149-1.124-3.181c-0.226-0.64-22.983-64.75-55.632-127.971-42.475-82.248-82.001-125.722-114.305-125.722-32.373 0-72.698 42.294-116.618 122.312-33.723 61.439-57.543 123.658-57.78 124.279l-1.136 2.981-3.182 0.227c-0.687 0.049-69.495 5.058-140.508 19.706-92.491 19.078-146.672 45.446-156.684 76.251-9.973 30.697 19.646 80.746 85.655 144.735 50.732 49.18 105.303 89.158 105.848 89.557l2.805 2.048-0.94 3.344c-0.193 0.688-19.454 69.597-30.189 143.557-13.977 96.297-7.543 157.236 18.604 176.231 7.048 5.121 16.622 7.717 28.457 7.717 86.373 0 260.893-134.144 262.646-135.499l3.059-2.366z" fill="#ffffff" p-id="11197"></path><path d="M497.946 629.32c-2.402 0-4.799-0.053-7.192-0.158-41.193-1.824-75.917-19.165-97.776-48.83l8.051-5.932c41.572 56.415 132.677 60.106 203.088 8.228l5.932 8.051c-34.013 25.06-73.551 38.641-112.103 38.641z" fill="#ffffff" p-id="11198"></path></svg>