<?xml version="1.0" standalone="no"?><!DOCTYPE svg PUBLIC "-//W3C//DTD SVG 1.1//EN" "http://www.w3.org/Graphics/SVG/1.1/DTD/svg11.dtd"><svg t="1749435137832" class="icon" viewBox="0 0 1024 1024" version="1.1" xmlns="http://www.w3.org/2000/svg" p-id="43204" xmlns:xlink="http://www.w3.org/1999/xlink" width="200" height="200"><path d="M597.333333 221.866667c-8.533333 0-17.066667-4.266667-25.6-12.8l-85.333333-106.666667c-12.8-12.8-8.533333-34.133333 4.266667-46.933333 12.8-12.8 34.133333-8.533333 46.933333 4.266666l85.333333 106.666667c12.8 12.8 8.533333 34.133333-4.266666 46.933333-8.533333 8.533333-17.066667 8.533333-21.333334 8.533334z" fill="#ffffff" p-id="43205"></path><path d="M512 972.8c-226.133333 0-409.6-183.466667-409.6-409.6S285.866667 153.6 512 153.6c29.866667 0 59.733333 4.266667 93.866667 12.8 17.066667 4.266667 29.866667 21.333333 25.6 38.4-4.266667 17.066667-21.333333 29.866667-38.4 25.6C563.2 213.333333 537.6 213.333333 512 213.333333c-192 0-345.6 157.866667-345.6 345.6 0 192 157.866667 345.6 345.6 345.6s345.6-157.866667 345.6-345.6c0-72.533333-25.6-145.066667-68.266667-209.066666-8.533333-12.8-8.533333-34.133333 4.266667-46.933334 17.066667-4.266667 34.133333-4.266667 46.933333 8.533334 55.466667 72.533333 85.333333 157.866667 85.333334 247.466666-4.266667 226.133333-187.733333 413.866667-413.866667 413.866667z" fill="#ffffff" p-id="43206"></path><path d="M405.333333 712.533333c-17.066667 0-34.133333-12.8-34.133333-34.133333v-145.066667l-8.533333 8.533334c-12.8 12.8-34.133333 12.8-46.933334 4.266666-12.8-12.8-12.8-34.133333-4.266666-46.933333L384 430.933333c8.533333-8.533333 21.333333-12.8 34.133333-8.533333 12.8 4.266667 21.333333 17.066667 21.333334 29.866667v226.133333c0 17.066667-12.8 34.133333-34.133334 34.133333zM597.333333 712.533333c-64 0-119.466667-51.2-119.466666-119.466666v-55.466667c0-64 51.2-119.466667 119.466666-119.466667s119.466667 51.2 119.466667 119.466667v55.466667c0 64-55.466667 119.466667-119.466667 119.466666z m0-230.4c-29.866667 0-55.466667 25.6-55.466666 55.466667v55.466667c0 29.866667 25.6 55.466667 55.466666 55.466666s55.466667-25.6 55.466667-55.466666v-55.466667c0-29.866667-25.6-55.466667-55.466667-55.466667z" fill="#ffffff" p-id="43207"></path></svg>