<?xml version="1.0" standalone="no"?><!DOCTYPE svg PUBLIC "-//W3C//DTD SVG 1.1//EN" "http://www.w3.org/Graphics/SVG/1.1/DTD/svg11.dtd"><svg t="1749427873640" class="icon" viewBox="0 0 1024 1024" version="1.1" xmlns="http://www.w3.org/2000/svg" p-id="30775" xmlns:xlink="http://www.w3.org/1999/xlink" width="200" height="200"><path d="M838.940444 265.329778l-227.555555 256q-3.697778 4.209778-8.192 7.566222-4.437333 3.413333-9.500445 5.859556-5.006222 2.446222-10.467555 3.868444-5.404444 1.365333-10.979556 1.706667-5.632 0.341333-11.150222-0.398223-5.575111-0.796444-10.808889-2.616888-5.347556-1.877333-10.183111-4.664889-4.835556-2.844444-8.988444-6.599111-4.209778-3.697778-7.566223-8.192-3.413333-4.437333-5.859555-9.500445-2.446222-5.006222-3.868445-10.467555-1.365333-5.404444-1.706666-10.979556-0.341333-5.632 0.398222-11.150222 0.796444-5.575111 2.616889-10.808889 1.877333-5.347556 4.664889-10.183111 2.844444-4.835556 6.599111-8.988445l227.555555-256q3.697778-4.209778 8.192-7.566222 4.437333-3.413333 9.500445-5.859555 5.006222-2.446222 10.467555-3.868445 5.404444-1.365333 10.979556-1.706667 5.632-0.341333 11.150222 0.398223 5.575111 0.796444 10.808889 2.616889 5.347556 1.877333 10.183111 4.664888 4.835556 2.844444 8.988445 6.599112 4.209778 3.697778 7.566222 8.192 3.413333 4.437333 5.859555 9.500444 2.446222 5.006222 3.868445 10.467556 1.365333 5.404444 1.706667 10.979555 0.341333 5.632-0.398223 11.150222-0.796444 5.575111-2.616889 10.808889-1.877333 5.347556-4.664888 10.183111-2.844444 4.835556-6.599112 8.988445zM853.333333 227.555556q0 5.575111-1.137777 11.093333-1.024 5.518222-3.185778 10.695111-2.161778 5.12-5.290667 9.841778-3.072 4.608-7.054222 8.590222-3.982222 3.982222-8.590222 7.054222-4.664889 3.128889-9.841778 5.290667-5.176889 2.161778-10.695111 3.242667Q802.019556 284.444444 796.444444 284.444444t-11.093333-1.137777q-5.518222-1.024-10.695111-3.185778-5.12-2.161778-9.841778-5.290667-4.608-3.072-8.590222-7.054222-3.982222-3.982222-7.054222-8.590222-3.128889-4.664889-5.290667-9.841778-2.161778-5.176889-3.242667-10.695111Q739.555556 233.130667 739.555556 227.555556t1.137777-11.093334q1.024-5.518222 3.185778-10.695111 2.161778-5.12 5.290667-9.841778 3.072-4.608 7.054222-8.590222 3.982222-3.982222 8.590222-7.054222 4.664889-3.128889 9.841778-5.290667 5.176889-2.161778 10.695111-3.242666Q790.869333 170.666667 796.444444 170.666667t11.093334 1.137777q5.518222 1.024 10.695111 3.185778 5.12 2.161778 9.841778 5.290667 4.608 3.072 8.590222 7.054222 3.982222 3.982222 7.054222 8.590222 3.128889 4.664889 5.290667 9.841778 2.161778 5.176889 3.242666 10.695111Q853.333333 221.980444 853.333333 227.555556z m-227.555555 256q0 5.575111-1.137778 11.093333-1.024 5.518222-3.185778 10.695111-2.161778 5.12-5.290666 9.841778-3.072 4.608-7.054223 8.590222-3.982222 3.982222-8.590222 7.054222-4.664889 3.128889-9.841778 5.290667-5.176889 2.161778-10.695111 3.242667-5.518222 1.080889-11.093333 1.080888t-11.093333-1.137777q-5.518222-1.024-10.695112-3.185778-5.12-2.161778-9.841777-5.290667-4.608-3.072-8.590223-7.054222-3.982222-3.982222-7.054222-8.590222-3.128889-4.664889-5.290666-9.841778-2.161778-5.176889-3.242667-10.695111Q512 489.130667 512 483.555556t1.137778-11.093334q1.024-5.518222 3.185778-10.695111 2.161778-5.12 5.290666-9.841778 3.072-4.608 7.054222-8.590222 3.982222-3.982222 8.590223-7.054222 4.664889-3.128889 9.841777-5.290667 5.176889-2.161778 10.695112-3.242666Q563.313778 426.666667 568.888889 426.666667t11.093333 1.137777q5.518222 1.024 10.695111 3.185778 5.12 2.161778 9.841778 5.290667 4.608 3.072 8.590222 7.054222 3.982222 3.982222 7.054223 8.590222 3.128889 4.664889 5.290666 9.841778 2.161778 5.176889 3.242667 10.695111 1.080889 5.518222 1.080889 11.093334z" fill="#ffffff" p-id="30776"></path><path d="M768 455.111111V227.555556h56.888889v56.888888h-227.555556q-5.575111 0-11.093333-1.137777-5.518222-1.024-10.695111-3.185778-5.12-2.161778-9.841778-5.290667-4.608-3.072-8.590222-7.054222-3.982222-3.982222-7.054222-8.590222-3.128889-4.664889-5.290667-9.841778-2.161778-5.176889-3.242667-10.695111Q540.444444 233.130667 540.444444 227.555556t1.137778-11.093334q1.024-5.518222 3.185778-10.695111 2.161778-5.12 5.290667-9.841778 3.072-4.608 7.054222-8.590222 3.982222-3.982222 8.590222-7.054222 4.664889-3.128889 9.841778-5.290667 5.176889-2.161778 10.695111-3.242666Q591.758222 170.666667 597.333333 170.666667h227.555556q5.575111 0 11.093333 1.137777 5.518222 1.024 10.695111 3.185778 5.12 2.161778 9.841778 5.290667 4.608 3.072 8.590222 7.054222 3.982222 3.982222 7.054223 8.590222 3.128889 4.664889 5.290666 9.841778 2.161778 5.176889 3.242667 10.695111 1.080889 5.518222 1.080889 11.093334v227.555555q0 5.575111-1.137778 11.093333-1.024 5.518222-3.185778 10.695112-2.161778 5.12-5.290666 9.841777-3.072 4.608-7.054223 8.590223-3.982222 3.982222-8.590222 7.054222-4.664889 3.128889-9.841778 5.290666-5.176889 2.161778-10.695111 3.242667Q830.464 512 824.888889 512t-11.093333-1.137778q-5.518222-1.024-10.695112-3.185778-5.12-2.161778-9.841777-5.290666-4.608-3.072-8.590223-7.054222-3.982222-3.982222-7.054222-8.590223-3.128889-4.664889-5.290666-9.841777-2.161778-5.176889-3.242667-10.695112Q768 460.686222 768 455.111111z m113.777778 0q0 5.575111-1.137778 11.093333-1.024 5.518222-3.185778 10.695112-2.161778 5.12-5.290666 9.841777-3.072 4.608-7.054223 8.590223-3.982222 3.982222-8.590222 7.054222-4.664889 3.128889-9.841778 5.290666-5.176889 2.161778-10.695111 3.242667Q830.464 512 824.888889 512t-11.093333-1.137778q-5.518222-1.024-10.695112-3.185778-5.12-2.161778-9.841777-5.290666-4.608-3.072-8.590223-7.054222-3.982222-3.982222-7.054222-8.590223-3.128889-4.664889-5.290666-9.841777-2.161778-5.176889-3.242667-10.695112Q768 460.686222 768 455.111111t1.137778-11.093333q1.024-5.518222 3.185778-10.695111 2.161778-5.12 5.290666-9.841778 3.072-4.608 7.054222-8.590222 3.982222-3.982222 8.590223-7.054223 4.664889-3.128889 9.841777-5.290666 5.176889-2.161778 10.695112-3.242667Q819.313778 398.222222 824.888889 398.222222t11.093333 1.137778q5.518222 1.024 10.695111 3.185778 5.12 2.161778 9.841778 5.290666 4.608 3.072 8.590222 7.054223 3.982222 3.982222 7.054223 8.590222 3.128889 4.664889 5.290666 9.841778 2.161778 5.176889 3.242667 10.695111 1.080889 5.518222 1.080889 11.093333z m-227.555556-227.555555q0 5.575111-1.137778 11.093333-1.024 5.518222-3.185777 10.695111-2.161778 5.12-5.290667 9.841778-3.072 4.608-7.054222 8.590222-3.982222 3.982222-8.590222 7.054222-4.664889 3.128889-9.841778 5.290667-5.176889 2.161778-10.695111 3.242667Q602.908444 284.444444 597.333333 284.444444t-11.093333-1.137777q-5.518222-1.024-10.695111-3.185778-5.12-2.161778-9.841778-5.290667-4.608-3.072-8.590222-7.054222-3.982222-3.982222-7.054222-8.590222-3.128889-4.664889-5.290667-9.841778-2.161778-5.176889-3.242667-10.695111Q540.444444 233.130667 540.444444 227.555556t1.137778-11.093334q1.024-5.518222 3.185778-10.695111 2.161778-5.12 5.290667-9.841778 3.072-4.608 7.054222-8.590222 3.982222-3.982222 8.590222-7.054222 4.664889-3.128889 9.841778-5.290667 5.176889-2.161778 10.695111-3.242666Q591.758222 170.666667 597.333333 170.666667t11.093334 1.137777q5.518222 1.024 10.695111 3.185778 5.12 2.161778 9.841778 5.290667 4.608 3.072 8.590222 7.054222 3.982222 3.982222 7.054222 8.590222 3.128889 4.664889 5.290667 9.841778 2.161778 5.176889 3.242666 10.695111 1.080889 5.518222 1.080889 11.093334zM185.059556 815.559111l227.555555-256q3.697778-4.209778 8.192-7.566222 4.437333-3.413333 9.500445-5.859556 5.006222-2.446222 10.467555-3.868444 5.404444-1.365333 10.979556-1.706667 5.632-0.341333 11.150222 0.398222 5.575111 0.796444 10.808889 2.616889 5.347556 1.877333 10.183111 4.664889 4.835556 2.844444 8.988444 6.599111 4.209778 3.697778 7.566223 8.192 3.413333 4.437333 5.859555 9.500445 2.446222 5.006222 3.868445 10.467555 1.365333 5.404444 1.706666 10.979556 0.341333 5.632-0.398222 11.150222-0.796444 5.575111-2.616889 10.808889-1.877333 5.347556-4.664889 10.183111-2.844444 4.835556-6.599111 8.988445l-227.555555 256q-3.697778 4.209778-8.192 7.566222-4.437333 3.413333-9.500445 5.859555-5.006222 2.446222-10.467555 3.868445-5.404444 1.365333-10.979556 1.706666-5.632 0.341333-11.150222-0.398222-5.575111-0.796444-10.808889-2.616889-5.347556-1.877333-10.183111-4.664889-4.835556-2.844444-8.988445-6.599111-4.209778-3.697778-7.566222-8.192-3.413333-4.437333-5.859555-9.500444-2.446222-5.006222-3.868445-10.467556-1.365333-5.404444-1.706667-10.979555-0.341333-5.632 0.398223-11.150222 0.796444-5.575111 2.616889-10.808889 1.877333-5.347556 4.664888-10.183111 2.844444-4.835556 6.599112-8.988445zM170.666667 853.333333q0-5.575111 1.137777-11.093333 1.024-5.518222 3.185778-10.695111 2.161778-5.12 5.290667-9.841778 3.072-4.608 7.054222-8.590222 3.982222-3.982222 8.590222-7.054222 4.664889-3.128889 9.841778-5.290667 5.176889-2.161778 10.695111-3.242667Q221.980444 796.444444 227.555556 796.444444t11.093333 1.137778q5.518222 1.024 10.695111 3.185778 5.12 2.161778 9.841778 5.290667 4.608 3.072 8.590222 7.054222 3.982222 3.982222 7.054222 8.590222 3.128889 4.664889 5.290667 9.841778 2.161778 5.176889 3.242667 10.695111Q284.444444 847.758222 284.444444 853.333333t-1.137777 11.093334q-1.024 5.518222-3.185778 10.695111-2.161778 5.12-5.290667 9.841778-3.072 4.608-7.054222 8.590222-3.982222 3.982222-8.590222 7.054222-4.664889 3.128889-9.841778 5.290667-5.176889 2.161778-10.695111 3.242666Q233.130667 910.222222 227.555556 910.222222t-11.093334-1.137778q-5.518222-1.024-10.695111-3.185777-5.12-2.161778-9.841778-5.290667-4.608-3.072-8.590222-7.054222-3.982222-3.982222-7.054222-8.590222-3.128889-4.664889-5.290667-9.841778-2.161778-5.176889-3.242666-10.695111Q170.666667 858.908444 170.666667 853.333333z m227.555555-256q0-5.575111 1.137778-11.093333 1.024-5.518222 3.185778-10.695111 2.161778-5.12 5.290666-9.841778 3.072-4.608 7.054223-8.590222 3.982222-3.982222 8.590222-7.054222 4.664889-3.128889 9.841778-5.290667 5.176889-2.161778 10.695111-3.242667Q449.536 540.444444 455.111111 540.444444t11.093333 1.137778q5.518222 1.024 10.695112 3.185778 5.12 2.161778 9.841777 5.290667 4.608 3.072 8.590223 7.054222 3.982222 3.982222 7.054222 8.590222 3.128889 4.664889 5.290666 9.841778 2.161778 5.176889 3.242667 10.695111 1.080889 5.518222 1.080889 11.093333t-1.137778 11.093334q-1.024 5.518222-3.185778 10.695111-2.161778 5.12-5.290666 9.841778-3.072 4.608-7.054222 8.590222-3.982222 3.982222-8.590223 7.054222-4.664889 3.128889-9.841777 5.290667-5.176889 2.161778-10.695112 3.242666-5.518222 1.080889-11.093333 1.080889t-11.093333-1.137778q-5.518222-1.024-10.695111-3.185777-5.12-2.161778-9.841778-5.290667-4.608-3.072-8.590222-7.054222-3.982222-3.982222-7.054223-8.590222-3.128889-4.664889-5.290666-9.841778-2.161778-5.176889-3.242667-10.695111Q398.222222 602.908444 398.222222 597.333333z" fill="#ffffff" p-id="30777"></path><path d="M256 625.777778v227.555555h-56.888889v-56.888889h227.555556q5.575111 0 11.093333 1.137778 5.518222 1.024 10.695111 3.185778 5.12 2.161778 9.841778 5.290667 4.608 3.072 8.590222 7.054222 3.982222 3.982222 7.054222 8.590222 3.128889 4.664889 5.290667 9.841778 2.161778 5.176889 3.242667 10.695111 1.080889 5.518222 1.080889 11.093333t-1.137778 11.093334q-1.024 5.518222-3.185778 10.695111-2.161778 5.12-5.290667 9.841778-3.072 4.608-7.054222 8.590222-3.982222 3.982222-8.590222 7.054222-4.664889 3.128889-9.841778 5.290667-5.176889 2.161778-10.695111 3.242666Q432.241778 910.222222 426.666667 910.222222h-227.555556q-5.575111 0-11.093333-1.137778-5.518222-1.024-10.695111-3.185777-5.12-2.161778-9.841778-5.290667-4.608-3.072-8.590222-7.054222-3.982222-3.982222-7.054223-8.590222-3.128889-4.664889-5.290666-9.841778-2.161778-5.176889-3.242667-10.695111Q142.222222 858.908444 142.222222 853.333333v-227.555555q0-5.575111 1.137778-11.093334 1.024-5.518222 3.185778-10.695111 2.161778-5.12 5.290666-9.841777 3.072-4.608 7.054223-8.590223 3.982222-3.982222 8.590222-7.054222 4.664889-3.128889 9.841778-5.290667 5.176889-2.161778 10.695111-3.242666Q193.536 568.888889 199.111111 568.888889t11.093333 1.137778q5.518222 1.024 10.695112 3.185777 5.12 2.161778 9.841777 5.290667 4.608 3.072 8.590223 7.054222 3.982222 3.982222 7.054222 8.590223 3.128889 4.664889 5.290666 9.841777 2.161778 5.176889 3.242667 10.695111 1.080889 5.518222 1.080889 11.093334z m-113.777778 0q0-5.575111 1.137778-11.093334 1.024-5.518222 3.185778-10.695111 2.161778-5.12 5.290666-9.841777 3.072-4.608 7.054223-8.590223 3.982222-3.982222 8.590222-7.054222 4.664889-3.128889 9.841778-5.290667 5.176889-2.161778 10.695111-3.242666Q193.536 568.888889 199.111111 568.888889t11.093333 1.137778q5.518222 1.024 10.695112 3.185777 5.12 2.161778 9.841777 5.290667 4.608 3.072 8.590223 7.054222 3.982222 3.982222 7.054222 8.590223 3.128889 4.664889 5.290666 9.841777 2.161778 5.176889 3.242667 10.695111 1.080889 5.518222 1.080889 11.093334t-1.137778 11.093333q-1.024 5.518222-3.185778 10.695111-2.161778 5.12-5.290666 9.841778-3.072 4.608-7.054222 8.590222-3.982222 3.982222-8.590223 7.054222-4.664889 3.128889-9.841777 5.290667-5.176889 2.161778-10.695112 3.242667Q204.686222 682.666667 199.111111 682.666667t-11.093333-1.137778q-5.518222-1.024-10.695111-3.185778-5.12-2.161778-9.841778-5.290667-4.608-3.072-8.590222-7.054222-3.982222-3.982222-7.054223-8.590222-3.128889-4.664889-5.290666-9.841778-2.161778-5.176889-3.242667-10.695111Q142.222222 631.352889 142.222222 625.777778z m227.555556 227.555555q0-5.575111 1.137778-11.093333 1.024-5.518222 3.185777-10.695111 2.161778-5.12 5.290667-9.841778 3.072-4.608 7.054222-8.590222 3.982222-3.982222 8.590222-7.054222 4.664889-3.128889 9.841778-5.290667 5.176889-2.161778 10.695111-3.242667Q421.091556 796.444444 426.666667 796.444444t11.093333 1.137778q5.518222 1.024 10.695111 3.185778 5.12 2.161778 9.841778 5.290667 4.608 3.072 8.590222 7.054222 3.982222 3.982222 7.054222 8.590222 3.128889 4.664889 5.290667 9.841778 2.161778 5.176889 3.242667 10.695111 1.080889 5.518222 1.080889 11.093333t-1.137778 11.093334q-1.024 5.518222-3.185778 10.695111-2.161778 5.12-5.290667 9.841778-3.072 4.608-7.054222 8.590222-3.982222 3.982222-8.590222 7.054222-4.664889 3.128889-9.841778 5.290667-5.176889 2.161778-10.695111 3.242666Q432.241778 910.222222 426.666667 910.222222t-11.093334-1.137778q-5.518222-1.024-10.695111-3.185777-5.12-2.161778-9.841778-5.290667-4.608-3.072-8.590222-7.054222-3.982222-3.982222-7.054222-8.590222-3.128889-4.664889-5.290667-9.841778-2.161778-5.176889-3.242666-10.695111Q369.777778 858.908444 369.777778 853.333333z" fill="#ffffff" p-id="30778"></path></svg>