<?xml version="1.0" standalone="no"?><!DOCTYPE svg PUBLIC "-//W3C//DTD SVG 1.1//EN" "http://www.w3.org/Graphics/SVG/1.1/DTD/svg11.dtd"><svg t="1748697618048" class="icon" viewBox="0 0 1024 1024" version="1.1" xmlns="http://www.w3.org/2000/svg" p-id="59013" xmlns:xlink="http://www.w3.org/1999/xlink" width="200" height="200"><path d="M520.777143 40.96C254.537143 40.96 38.034286 254.537143 38.034286 523.702857s216.502857 482.742857 482.742857 482.742857S1003.52 789.942857 1003.52 523.702857 787.017143 40.96 520.777143 40.96z m0 883.565714c-222.354286 0-400.822857-178.468571-400.822857-400.822857S298.422857 119.954286 520.777143 119.954286s400.822857 178.468571 400.822857 400.822857-178.468571 403.748571-400.822857 403.748571z" fill="#DD6B03" p-id="59014"></path><path d="M266.24 389.12l17.554286 8.777143c5.851429 2.925714 14.628571 5.851429 23.405714 8.777143 26.331429 8.777143 61.44 14.628571 102.4 14.628571s76.068571-5.851429 102.4-14.628571c8.777143-2.925714 17.554286-5.851429 23.405714-8.777143l17.554286-8.777143c8.777143-5.851429 11.702857-11.702857 11.702857-17.554286 0-5.851429-5.851429-11.702857-11.702857-17.554285-14.628571 8.777143-32.182857 14.628571-52.662857 17.554285-17.554286 2.925714-38.034286 5.851429-55.588572 8.777143H380.342857c-20.48 0-38.034286-2.925714-55.588571-8.777143-20.48-2.925714-38.034286-8.777143-52.662857-17.554285-8.777143 5.851429-11.702857 11.702857-11.702858 17.554285-5.851429 5.851429-2.925714 11.702857 5.851429 17.554286z m111.177143 134.582857c-20.48 0-38.034286-2.925714-55.588572-8.777143-20.48-2.925714-38.034286-8.777143-52.662857-17.554285-8.777143 5.851429-11.702857 11.702857-11.702857 17.554285 0 5.851429 5.851429 11.702857 11.702857 17.554286l17.554286 8.777143c5.851429 2.925714 14.628571 5.851429 23.405714 8.777143 26.331429 8.777143 61.44 14.628571 102.4 14.628571h2.925715v-2.925714c0-8.777143 2.925714-17.554286 8.777142-26.331429 2.925714-5.851429 8.777143-8.777143 11.702858-14.628571h-23.405715c-14.628571 5.851429-23.405714 5.851429-35.108571 2.925714z m-111.177143 46.811429c-8.777143 5.851429-11.702857 11.702857-11.702857 17.554285 0 20.48 61.44 49.737143 155.062857 49.737143h2.925714v-40.96H409.6c-52.662857 0-108.251429-8.777143-143.36-26.331428z m0-108.251429l17.554286 8.777143c5.851429 2.925714 14.628571 5.851429 23.405714 8.777143 26.331429 8.777143 61.44 14.628571 102.4 14.628571s76.068571-5.851429 102.4-14.628571c8.777143-2.925714 17.554286-5.851429 23.405714-8.777143l17.554286-8.777143c8.777143-5.851429 11.702857-11.702857 11.702857-17.554286 0-5.851429-5.851429-11.702857-11.702857-17.554285-14.628571 8.777143-32.182857 14.628571-52.662857 17.554285-17.554286 2.925714-38.034286 5.851429-55.588572 8.777143H380.342857c-20.48 0-38.034286-2.925714-55.588571-8.777143-20.48-2.925714-38.034286-8.777143-52.662857-17.554285-8.777143 5.851429-11.702857 11.702857-11.702858 17.554285-5.851429 5.851429-2.925714 11.702857 5.851429 17.554286z m479.817143 157.988572c-14.628571 8.777143-32.182857 14.628571-52.662857 17.554285-20.48 2.925714-38.034286 5.851429-58.514286 5.851429H555.885714c-11.702857 0-20.48-2.925714-32.182857-5.851429-2.925714 0-5.851429 0-8.777143-2.925714-8.777143-2.925714-14.628571-2.925714-23.405714-5.851429-11.702857-2.925714-20.48-5.851429-32.182857-11.702857-8.777143 5.851429-11.702857 11.702857-11.702857 17.554286 0 5.851429 2.925714 8.777143 8.777143 14.628571l2.925714 2.925715 17.554286 8.777143h2.925714c5.851429 2.925714 14.628571 5.851429 20.48 8.777142 26.331429 8.777143 61.44 14.628571 102.4 14.628572s76.068571-5.851429 102.4-14.628572c8.777143-2.925714 17.554286-5.851429 23.405714-8.777142l17.554286-8.777143c8.777143-5.851429 11.702857-11.702857 11.702857-17.554286 0-2.925714-2.925714-8.777143-11.702857-14.628571z m0 70.217142c-35.108571 17.554286-90.697143 26.331429-143.36 26.331429-52.662857 0-108.251429-8.777143-143.36-26.331429-8.777143 5.851429-11.702857 11.702857-11.702857 17.554286 0 20.48 61.44 49.737143 155.062857 49.737143 96.548571 0 155.062857-29.257143 155.062857-49.737143 0-5.851429-2.925714-11.702857-11.702857-17.554286zM506.148571 23.405714C239.908571 23.405714 23.405714 236.982857 23.405714 506.148571c0 266.24 216.502857 482.742857 482.742857 482.742858s482.742857-216.502857 482.742858-482.742858C988.891429 236.982857 772.388571 23.405714 506.148571 23.405714zM789.942857 708.022857c0 52.662857-93.622857 81.92-187.245714 81.92s-187.245714-29.257143-187.245714-81.92v-38.034286h-2.925715c-93.622857 0-187.245714-29.257143-187.245714-81.92v-286.72c0-52.662857 93.622857-81.92 187.245714-81.92s187.245714 29.257143 187.245715 81.92v181.394286h2.925714c87.771429 0 178.468571 23.405714 187.245714 73.142857v152.137143z m0 0" fill="#EFBB07" p-id="59015"></path></svg>