<?xml version="1.0" standalone="no"?><!DOCTYPE svg PUBLIC "-//W3C//DTD SVG 1.1//EN" "http://www.w3.org/Graphics/SVG/1.1/DTD/svg11.dtd"><svg t="1750974463953" class="icon" viewBox="0 0 1024 1024" version="1.1" xmlns="http://www.w3.org/2000/svg" p-id="106747" xmlns:xlink="http://www.w3.org/1999/xlink" width="256" height="256"><path d="M0 0m512 0l0 0q512 0 512 512l0 0q0 512-512 512l0 0q-512 0-512-512l0 0q0-512 512-512Z" fill="#F7B639" p-id="106748"></path><path d="M500.67456 443.733333c4.97664 0 8.062293-10.5472 8.062293-27.374933 0-16.6912-3.085653-26.54208-8.055466-26.54208-4.962987 0-8.014507 9.85088-8.014507 26.555733 0 16.81408 3.05152 27.36128 8.00768 27.36128zM348.228267 416.836267c-1.024-8.58112-1.979733-18.90304-2.99008-27.716267h-0.211627a2349.970773 2349.970773 0 0 1-2.88768 27.716267L341.333333 424.1408h7.70048l-0.805546-7.304533z m196.471466-16.008534c0-8.11008-2.280107-10.786133-6.587733-10.786133h-4.05504v23.197013h4.05504c4.3008 0 6.59456-4.293973 6.59456-12.41088z m47.377067 0.935254c0-8.697173-2.443947-11.71456-6.79936-11.71456h-3.70688v24.92416h3.959467c4.4032 0 6.526293-4.75136 6.526293-13.2096h0.013653z m62.477653 15.07328c-1.017173-8.58112-1.979733-18.90304-2.99008-27.716267h-0.2048a2350.24384 2350.24384 0 0 1-2.894506 27.716267l-0.805547 7.304533H655.36l-0.805547-7.304533z" fill="#FFFFFF" p-id="106749"></path><path d="M942.08 491.574613v-23.647573h-28.235093v-43.001173h-156.398934V375.466667H266.554027v49.4592H105.813333v43.001173H81.92v23.647573h23.893333v94.6176H81.92v23.640747h23.893333V648.533333h808.031574v-38.693546H942.08v-23.661227h-28.235093V491.588267H942.08v-0.013654z m-235.4176-106.379946h24.111787v7.645866h-14.99136v7.120214h12.724906v7.734613h-12.724906v8.15104h15.530666v7.74144h-24.664746v-38.393173h0.013653z m-17.681067-0.723627c4.95616 0 8.942933 2.321067 11.543894 5.003947l-4.805974 5.891413c-1.897813-1.754453-3.884373-3.003733-6.57408-3.003733-4.922027 0-8.956587 4.437333-8.956586 11.926186 0 7.645867 3.4816 12.069547 8.840533 12.069547 3.003733 0 5.461333-1.536 7.24992-3.50208l4.805973 5.782187c-3.229013 3.754667-7.461547 5.67296-12.41088 5.67296-9.652907 0-17.83808-6.710613-17.83808-19.72224 0-12.793173 8.47872-20.118187 18.138454-20.118187z m-43.1104 0.723627h10.922667l11.79648 38.393173H658.978133l-2.184533-8.82688h-11.250347l-2.184533 8.82688H634.0608l11.803307-38.393173z m-39.185066 0h24.098133v7.645866H615.8336v7.120214h12.711253v7.734613H615.8336v8.15104h15.517013v7.74144H606.685867v-38.393173z m-35.109547 0h13.33248c8.37632 0 15.271253 2.996907 15.271253 12.485973 0 9.140907-6.997333 13.161813-15.018666 13.161813h-4.42368v12.75904h-9.161387V385.194667z m-47.86176 0h13.940053c8.123733 0 14.861653 2.778453 14.861654 12.069546 0 5.638827-2.607787 9.243307-6.526294 11.093334l8.471894 15.223466h-10.21952l-6.997334-13.5168h-4.38272v13.5168h-9.147733v-38.386346z m-24.480427-0.723627c10.376533 0 17.421653 7.168 17.421654 19.72224 0 12.581547-7.04512 20.118187-17.421654 20.118187-10.369707 0-17.414827-7.53664-17.414826-20.118187 0-12.602027 7.058773-19.729067 17.414826-19.729067z m-46.537386 0.723627h24.261973v7.645866h-15.11424v8.410454h12.977493v7.686826h-12.970666v14.650027h-9.147734v-38.393173z m-43.874987 0h24.10496v7.645866h-14.964053v7.120214h12.711253v7.734613h-12.711253v8.15104H433.493333v7.74144h-24.664746v-38.393173z m-44.81024 0h9.87136l6.02112 16.56832c0.750933 2.21184 1.378987 4.62848 2.082133 7.010986h0.259414c0.771413-2.382507 1.385813-4.799147 2.095786-7.010986l5.81632-16.56832h9.919147v38.393173h-8.328533v-13.14816c0-3.82976 0.7168-9.557333 1.16736-13.325653h-0.2048l-3.15392 9.19552-5.113174 14.021973h-5.010773l-5.147307-14.021973-3.072-9.19552h-0.2048c0.47104 3.754667 1.174187 9.489067 1.174187 13.312v13.175466h-8.17152V385.194667z m-26.712747 0h10.922667l11.79648 38.393173H350.4128l-2.184533-8.82688h-11.24352l-2.184534 8.82688H325.495467l11.810133-38.393173z m-27.48416-0.723627a16.657067 16.657067 0 0 1 12.137814 5.003947l-4.846934 5.891413c-1.829547-1.706667-3.822933-3.003733-6.990506-3.003733-5.618347 0-9.652907 4.437333-9.652907 11.926186 0 7.645867 3.365547 12.069547 10.410667 12.069547a6.423893 6.423893 0 0 0 3.631786-0.976213v-6.198614h-6.02112v-7.522986h14.144854v17.954133c-2.6624 2.58048-7.35232 4.696747-12.663467 4.696747-10.581333 0-18.848427-6.710613-18.848427-19.72224 0-12.793173 8.526507-20.118187 18.69824-20.118187z m590.984534 249.009493H123.200853V439.978667h777.611947v193.501866z" fill="#FFFFFF" p-id="106750"></path><path d="M431.670613 477.02016h58.067627V457.386667H352.078507v19.647146h60.224853v67.584H341.333333v19.626667h70.970027V614.4h19.367253v-50.15552H498.346667v-19.61984h-66.676054z" fill="#FFFFFF" p-id="106751"></path><path d="M375.104853 487.91552H354.986667l12.158293 45.79328h20.125013l-12.16512-45.79328z m98.28352 45.79328l12.16512-45.79328h-20.125013l-12.158293 45.79328h20.118186z m114.244267-19.61984h-19.43552V457.386667h-19.442347v56.702293h-21.592746v17.44896h21.592746V614.4h19.442347V531.53792h19.428693v-17.44896zM650.26048 457.386667h-19.442347v6.539946h-32.372053v13.079894h32.37888v10.922666h-32.37888v13.079894h32.37888v13.079893h-32.37888v13.079893H682.666667v-13.079893h-32.406187V501.009067h32.392533v-13.079894h-32.392533v-10.922666h32.392533v-13.079894h-32.392533V457.386667z" fill="#FFFFFF" p-id="106752"></path><path d="M577.030827 505.801387L579.986773 464.213333l9.536854 0.662187-2.976427 41.581227-9.5232-0.65536zM525.653333 613.266773l9.939627 1.119574 3.099307-71.5776-9.939627-1.1264L525.653333 613.266773z m50.03264-70.458026L578.78528 614.4l9.939627-1.133227-3.099307-71.591253-9.939627 1.133227z m-36.9664-35.990187l-3.09248-42.10688-9.9328 0.669013 3.085654 42.113707 9.939626-0.662187v-0.013653z m119.555414 30.610773H599.586133V614.4h19.572054v-25.647787h39.1168V614.4h19.572053V537.429333h-19.572053z m0 42.755414h-39.130454v-8.54016h39.1168v8.54016h0.013654z m0-17.093974h-39.130454V554.530133h39.1168v8.553814h0.013654z m193.49504-32.078506v-19.237547h-52.18304V501.077333h-19.5584v10.704214h-52.176214v42.76224h-15.21664v19.237546h50.490027l-25.326933 19.2512h-25.163094v19.23072h30.440107v-1.160533l0.907947 1.160533 46.332586-35.211946 46.237014 35.211946H866.986667v-19.237546h-23.749974l-25.265493-19.2512H866.986667v-19.217067h-15.223467v-23.538347z m-71.748267 23.524693h-32.60416v-23.524693h32.610987v23.524693z m52.176213 0h-32.610986v-23.524693h32.610986v23.524693zM838.669653 470.480213v-13.079893h-19.61984v13.079893h-56.64768v-13.079893h-19.606186v13.079893h-30.501547v19.61984h30.501547v10.902187h19.606186v-10.902187h56.64768v10.902187h19.606187v-10.902187H866.986667v-19.61984h-28.330667 0.013653z m-636.197546 6.539947h28.317013V457.386667h-76.253867v19.647146h28.32384v17.42848H150.186667v19.633494h32.672426V614.4h19.613014V514.095787h34.85696v-19.633494h-34.85696V477.02016z" fill="#FFFFFF" p-id="106753"></path><path d="M157.013333 614.4h13.45536l5.91872-84.882773h-13.45536L157.013333 614.4z m61.46048-84.882773L224.385707 614.4h13.45536l-5.905067-84.882773h-13.462187z m29.22496 73.99424H314.026667V464.213333h-66.327894v139.298134z m14.984534-124.061014h36.365653l-6.417067 28.30336 8.546987 2.177707s3.467947 1.522347 2.143573 6.526293c-1.317547 4.99712-29.948587 78.35648-29.948586 78.35648l-4.273494-54.408533-8.56064-2.184533 2.143574-58.7776z" fill="#FFFFFF" p-id="106754"></path></svg>