<?xml version="1.0" standalone="no"?><!DOCTYPE svg PUBLIC "-//W3C//DTD SVG 1.1//EN" "http://www.w3.org/Graphics/SVG/1.1/DTD/svg11.dtd"><svg t="1750305226725" class="icon" viewBox="0 0 1024 1024" version="1.1" xmlns="http://www.w3.org/2000/svg" p-id="85264" xmlns:xlink="http://www.w3.org/1999/xlink" width="200" height="200"><path d="M528.244 26.112c131.512 113.004 281.052 245.968 415.664 360.62-5.892 153.412-35.98 310.792-83.132 471.608-232.348 26.884-481.12 27.724-712.96 2.008-47.708-161.048-78.672-318.536-85.428-471.88C214.696 271.12 382.38 133.52 528.24 26.112z" fill="#EBEBEB" p-id="85265"></path><path d="M523.96 30.288a4102.696 4102.696 0 0 0-215.936 157.66l-4.304-97.2a4257.912 4257.912 0 0 0-165.8 11.384l16.868 211.74a3998.956 3998.956 0 0 0-137.684 139.052 3808.088 3808.088 0 0 1 109.176 85.484c120.752-119.344 251.776-233.012 392.6-339.52 136.224 104.36 263.16 215.424 380.38 331.828a3783.268 3783.268 0 0 1 107.628-77.792C860.988 303.052 699.736 161.284 523.96 30.288z" fill="#FF7575" p-id="85266"></path><path d="M344.764 872.724c0.424 0.032-22.76-77.52-26.308-170.072-2.328-86.908 97.428-190.292 187.492-193.472 90.04 2.732 189.888 106.016 187.976 192.952-3.172 92.552-26.14 169.988-25.72 169.96" fill="#71A6BA" p-id="85267"></path><path d="M611.968 693.532c17.744 17.744 17.744 46.508 0 64.248-17.74 17.744-46.504 17.744-64.248 0-17.74-17.74-17.74-46.504 0-64.248 17.74-17.74 46.508-17.74 64.248 0" fill="#EBEBEB" p-id="85268"></path></svg>