<?xml version="1.0" standalone="no"?><!DOCTYPE svg PUBLIC "-//W3C//DTD SVG 1.1//EN" "http://www.w3.org/Graphics/SVG/1.1/DTD/svg11.dtd"><svg t="1748714906663" class="icon" viewBox="0 0 1024 1024" version="1.1" xmlns="http://www.w3.org/2000/svg" p-id="184975" xmlns:xlink="http://www.w3.org/1999/xlink" width="200" height="200"><path d="M963.674296 4.725985a50.446518 50.446518 0 0 0-50.45863 4.542003l-190.764144 141.310811H587.705421a50.470742 50.470742 0 0 0-50.482854 50.45863v50.45863H284.905193C145.544416 251.508171 32.563595 364.488992 32.563595 503.849769s112.980821 252.341598 252.341598 252.341597v201.858744A50.45863 50.45863 0 0 0 335.363823 1008.50874h151.400114a50.45863 50.45863 0 0 0 50.45863-50.45863v-151.400114a50.470742 50.470742 0 0 0 50.482854 50.45863h134.746101L910.684256 998.431549a50.482854 50.482854 0 0 0 80.738653-40.381439v-908.400683A50.45863 50.45863 0 0 0 963.674296 4.725985z" fill="#FFA3A3" p-id="184976"></path><path d="M540.589705 753.829525v209.610429c0 33.308025-27.252021 60.560046-60.560045 60.560046h-134.564422c-33.308025 0-60.560046-27.252021-60.560045-60.560046V753.829525h255.684512z" fill="#C9C9C9" p-id="184977"></path><path d="M537.222567 822.46828c0 19.984815 16.363324 36.336027 36.336027 36.336028h112.556901c19.972703 0 36.336027-16.351212 36.336027-36.336028V186.926938c0-19.984815-16.363324-36.336027-36.336027-36.336027h-112.556901c-19.972703 0-36.336027 16.351212-36.336027 36.336027v635.541342z" fill="#567794" p-id="184978"></path></svg>