<?xml version="1.0" standalone="no"?><!DOCTYPE svg PUBLIC "-//W3C//DTD SVG 1.1//EN" "http://www.w3.org/Graphics/SVG/1.1/DTD/svg11.dtd"><svg t="1748902779488" class="icon" viewBox="0 0 1131 1024" version="1.1" xmlns="http://www.w3.org/2000/svg" p-id="16146" xmlns:xlink="http://www.w3.org/1999/xlink" width="220.8984375" height="200"><path d="M812.085895 7.437474c-97.24407 0-187.409965 47.13993-247.287018 124.676491C505.532632 54.559439 414.737965 7.419509 317.493895 7.419509 142.336 7.437474 0 157.534316 0 341.746526c0 109.765614 50.876632 187.302175 92.08814 249.335018 119.143298 180.493474 419.247158 404.390175 432.128 413.696a66.470175 66.470175 0 0 0 40.582737 13.653333 66.470175 66.470175 0 0 0 40.564772-13.653333c12.880842-9.305825 312.337965-233.831298 432.128-413.696 41.211509-62.032842 92.08814-139.551439 92.08814-249.352983C1129.579789 157.552281 987.261754 7.455439 812.085895 7.455439z" fill="#ffffff" p-id="16147"></path></svg>