<?xml version="1.0" standalone="no"?><!DOCTYPE svg PUBLIC "-//W3C//DTD SVG 1.1//EN" "http://www.w3.org/Graphics/SVG/1.1/DTD/svg11.dtd"><svg t="1748642622355" class="icon" viewBox="0 0 1024 1024" version="1.1" xmlns="http://www.w3.org/2000/svg" p-id="28937" xmlns:xlink="http://www.w3.org/1999/xlink" width="200" height="200"><path d="M730.950327 551.023324H292.84981c-118.119254 0-215.152923-97.033668-215.152923-215.152923s97.033668-215.152923 215.152923-215.152923H759.830585c20.985654 0 39.373085 18.38743 39.373084 39.373085S780.816239 199.463648 759.830585 199.463648H292.84981c-76.048014 0-136.406753 60.358739-136.406753 136.406753S216.701864 472.377086 292.84981 472.377086h438.200449c20.985654 0 39.373085 18.38743 39.373084 39.373085s-18.487362 39.273153-39.473016 39.273153z" p-id="28938"></path><path d="M730.950327 902.682932H235.089294c-20.985654 0-39.373085-18.38743-39.373084-39.373085s18.38743-39.373085 39.373084-39.373085h495.861033c76.048014 0 136.406753-60.358739 136.406753-136.406753s-60.358739-136.406753-136.406753-136.406753H292.84981c-20.985654 0-39.373085-18.38743-39.373085-39.373085s18.38743-39.373085 39.373085-39.373085h438.200449c118.119254 0 215.152923 97.1336 215.152922 215.152923s-97.1336 215.152923-215.252854 215.152923z m175.87977-742.592369c0 68.253342-55.06236 120.717478-120.717479 120.717478-68.253342 0-120.717478-55.06236-120.717478-120.717478S720.4575 39.373085 786.112618 39.373085s120.717478 55.162291 120.717479 120.717478" p-id="28939"></path><path d="M786.112618 320.181126c-89.238997 0-160.090563-70.851566-160.090563-160.090563S696.873622 0 786.112618 0s160.090563 70.851566 160.090563 160.090563-70.951498 160.090563-160.090563 160.090563z m0-241.434956c-44.569533 0-81.344393 36.774861-81.344393 81.344393s36.774861 81.344393 81.344393 81.344394 81.344393-36.774861 81.344394-81.344394-36.774861-81.344393-81.344394-81.344393zM361.00322 863.309847c0 68.253342-55.06236 120.717478-120.717478 120.717478-68.253342 0-120.717478-55.06236-120.717478-120.717478 0-68.253342 55.06236-120.717478 120.717478-120.717479 65.655119-2.598224 120.717478 52.464136 120.717478 120.717479" p-id="28940"></path><path d="M237.687518 1023.300478c-89.238997 0-160.090563-70.851566-160.090563-160.090563S148.448522 703.219284 237.687518 703.219284s160.090563 70.851566 160.090563 160.090563-70.851566 159.990631-160.090563 159.990631z m0-241.335025c-44.569533 0-81.344393 36.774861-81.344393 81.344394 0 44.569533 36.774861 81.344393 81.344393 81.344393s81.344393-36.774861 81.344394-81.344393c0-44.669464-36.674929-81.344393-81.344394-81.344394z" p-id="28941"></path></svg>