<?xml version="1.0" standalone="no"?><!DOCTYPE svg PUBLIC "-//W3C//DTD SVG 1.1//EN" "http://www.w3.org/Graphics/SVG/1.1/DTD/svg11.dtd"><svg t="1750974439235" class="icon" viewBox="0 0 1024 1024" version="1.1" xmlns="http://www.w3.org/2000/svg" p-id="105506" xmlns:xlink="http://www.w3.org/1999/xlink" width="256" height="256"><path d="M1022.026025 222.195663c-1.998651-27.820723-6.168675-55.258988-16.914506-81.216771C976.266796 70.915084 924.634989 27.142169 851.203085 9.117301c-22.207229-5.465446-44.969639-7.254361-67.781398-8.14265-4.46612-0.172723-8.919904-0.641542-13.373686-0.974651H254.050699c-10.61012 0.678554-21.220241 1.233735-31.818024 2.023325-28.375904 1.998651-56.307663 6.304386-82.660241 17.445012-72.975422 30.843373-117.204819 85.64588-132.256385 163.198458-4.021976 20.615711-4.416771 41.946988-6.464771 62.920482-0.308434 3.121349-0.567518 6.255036-0.851277 9.376386v514.035662c0.666217 10.930892 1.233735 21.886458 2.023325 32.81735 1.998651 27.820723 6.168675 55.258988 16.914506 81.216771C47.844242 953.084916 99.463711 996.857831 172.895615 1014.882699c22.059181 5.428434 44.63653 7.217349 67.275566 8.130313 4.638843 0.197398 9.253012 0.65388 13.879518 0.986988h515.997302c10.61012-0.666217 21.220241-1.233735 31.818024-2.023325 28.375904-1.998651 56.32-6.304386 82.660241-17.432675 72.963084-30.843373 117.204819-85.658217 132.256385-163.210795 3.984964-20.467663 4.392096-41.626217 6.440097-62.476338 0.296096-2.948627 0.579855-5.90959 0.863614-8.858216V254.001349c-0.703229-10.597783-1.270747-21.207904-2.060337-31.805686zM720.920675 781.509398H242.539952v-30.312868l90.95094-87.595181V333.441542l-90.95094-90.95094h299.797591L512.04935 272.80347l-30.312867 30.325205-30.325205 30.312867v330.159807h239.19653l90.95094-90.963277z" p-id="105507"></path></svg>