<?xml version="1.0" standalone="no"?><!DOCTYPE svg PUBLIC "-//W3C//DTD SVG 1.1//EN" "http://www.w3.org/Graphics/SVG/1.1/DTD/svg11.dtd"><svg t="1750974591534" class="icon" viewBox="0 0 1024 1024" version="1.1" xmlns="http://www.w3.org/2000/svg" p-id="119358" xmlns:xlink="http://www.w3.org/1999/xlink" width="256" height="256"><path d="M1022.026025 222.195663c-1.998651-27.820723-6.168675-55.258988-16.914506-81.216771C976.266796 70.915084 924.634989 27.142169 851.203085 9.117301c-22.207229-5.465446-44.969639-7.254361-67.781398-8.14265-4.46612-0.172723-8.919904-0.641542-13.373686-0.974651H254.050699c-10.61012 0.678554-21.220241 1.233735-31.818024 2.023325-28.375904 1.998651-56.307663 6.304386-82.660241 17.445012-72.975422 30.843373-117.204819 85.64588-132.256385 163.198458-4.021976 20.615711-4.416771 41.946988-6.464771 62.920482-0.308434 3.121349-0.567518 6.255036-0.851277 9.376386v514.035662c0.666217 10.930892 1.233735 21.886458 2.023325 32.81735 1.998651 27.820723 6.168675 55.258988 16.914506 81.216771C47.844242 953.084916 99.463711 996.857831 172.895615 1014.882699c22.059181 5.428434 44.63653 7.217349 67.275566 8.130313 4.638843 0.197398 9.253012 0.65388 13.879518 0.986988h515.997302c10.61012-0.666217 21.220241-1.233735 31.818024-2.023325 28.375904-1.998651 56.32-6.304386 82.660241-17.432675 72.963084-30.843373 117.204819-85.658217 132.256385-163.210795 3.984964-20.467663 4.392096-41.626217 6.440097-62.476338 0.296096-2.948627 0.579855-5.90959 0.863614-8.858216V254.001349c-0.703229-10.597783-1.270747-21.207904-2.060337-31.805686zM791.946796 467.918651c-2.381108 4.74988-47.535807 38.023711-135.464097-9.499759 0 0-4.762217-2.381108-4.762216 4.749879s-4.74988 49.904578-30.843374 52.285687c-7.130988 0-40.404819-4.762217-42.77359-78.42853 0-4.74988-35.65494 66.547663-73.678651 61.785445a3.405108 3.405108 0 0 1-2.146699-1.036337 13.015904 13.015904 0 0 0 9.277687 5.798554v14.249639s73.666313-21.380627 135.464096 16.643084c9.512096 4.74988 78.42853 33.310843 21.392964 123.583229-4.762217 9.499759-71.297542 116.452241-175.868915 185.368675-2.381108 2.368771-35.642602 7.130988-26.142844-26.142844 2.381108-7.130988 38.023711-57.035566 40.404819-73.67865 0-4.74988 11.880867-47.52347-40.404819-61.785446-7.130988-2.381108-19.011855-2.381108-26.142843 9.499759-4.74988 7.130988-33.310843 45.167036-57.035566 30.843374-7.130988-4.74988-26.142843-14.261976-26.142844-135.464097V432.276048c0-2.381108-2.381108-2.381108-9.512096 4.74988-4.74988 4.74988-54.654458 49.904578-87.928289 40.404819-4.74988-2.381108-19.011855-23.774072 26.142843-73.678651 2.381108-11.880867 21.380627-30.843373 23.761735-30.843373 0 0 4.762217-2.381108 0-4.762217 0 0-95.059277 0-78.42853-52.273349 2.381108-7.130988 23.774072-26.142843 102.202602-21.392964 4.74988 0-14.261976-68.916434 30.843374-102.190265 4.74988-4.762217 26.142843-23.774072 57.035566 14.261976 2.381108 4.74988 16.630747 21.380627 14.261976 83.178409h118.821012s-9.499759-57.047904 30.843373-102.202602c4.762217-4.74988 26.155181-19.011855 47.535808 4.762217 2.381108 4.74988 21.392964 19.011855 26.142843 92.678168 0 2.381108 104.571373-9.499759 104.571374 35.65494 0 7.130988 0 33.310843-92.690506 40.404819-7.130988 0 14.261976 66.535325 97.46506 87.92829 9.536771-0.049349 35.679614 2.331759 23.798747 18.962506z" p-id="119359"></path><path d="M461.601928 372.859373c4.74988 2.368771 38.023711 23.761735 21.380627 52.285687-4.74988 7.130988-16.630747 11.880867-52.285687 0v47.52347s33.310843-16.630747 66.547663-9.499759a92.308048 92.308048 0 0 0-0.456482 13.349012c0.074024-12.337349 3.096675-30.436241 12.337349-56.13494 2.381108-4.74988 19.011855-42.77359 26.142844-57.035566h-78.416193s-2.381108 4.74988 4.749879 9.512096zM461.601928 636.607229c16.630747 4.74988 52.285687 4.74988 61.785446 2.381108 14.261976-4.762217 23.761735-16.643084 26.142843-21.392964 16.643084-40.404819-23.761735-45.154699-35.642602-42.77359-45.154699 9.549108-52.285687 61.785446-52.285687 61.785446z" p-id="119360"></path></svg>