<?xml version="1.0" standalone="no"?><!DOCTYPE svg PUBLIC "-//W3C//DTD SVG 1.1//EN" "http://www.w3.org/Graphics/SVG/1.1/DTD/svg11.dtd"><svg t="1748692506588" class="icon" viewBox="0 0 1024 1024" version="1.1" xmlns="http://www.w3.org/2000/svg" p-id="36125" xmlns:xlink="http://www.w3.org/1999/xlink" width="200" height="200"><path d="M235.456 128m57.152 0l628.544 0q57.152 0 57.152 57.152l0 0q0 57.152-57.152 57.152l-628.544 0q-57.152 0-57.152-57.152l0 0q0-57.152 57.152-57.152Z" fill="#7D8BA0" p-id="36126"></path><path d="M235.456 470.848m57.152 0l628.544 0q57.152 0 57.152 57.152l0 0q0 57.152-57.152 57.152l-628.544 0q-57.152 0-57.152-57.152l0 0q0-57.152 57.152-57.152Z" fill="#7D8BA0" p-id="36127"></path><path d="M235.456 813.696m57.152 0l628.544 0q57.152 0 57.152 57.152l0 0q0 57.152-57.152 57.152l-628.544 0q-57.152 0-57.152-57.152l0 0q0-57.152 57.152-57.152Z" fill="#7D8BA0" p-id="36128"></path><path d="M121.152 185.152m-64 0a64 64 0 1 0 128 0 64 64 0 1 0-128 0Z" fill="#7D8BA0" p-id="36129"></path><path d="M121.152 528m-64 0a64 64 0 1 0 128 0 64 64 0 1 0-128 0Z" fill="#7D8BA0" p-id="36130"></path><path d="M121.152 870.848m-64 0a64 64 0 1 0 128 0 64 64 0 1 0-128 0Z" fill="#7D8BA0" p-id="36131"></path></svg>