<?xml version="1.0" standalone="no"?><!DOCTYPE svg PUBLIC "-//W3C//DTD SVG 1.1//EN" "http://www.w3.org/Graphics/SVG/1.1/DTD/svg11.dtd"><svg t="1750974161835" class="icon" viewBox="0 0 1024 1024" version="1.1" xmlns="http://www.w3.org/2000/svg" p-id="76419" xmlns:xlink="http://www.w3.org/1999/xlink" width="256" height="256"><path d="M0 0m192 0l640 0q192 0 192 192l0 640q0 192-192 192l-640 0q-192 0-192-192l0-640q0-192 192-192Z" fill="#1890FF" p-id="76420"></path><path d="M747.072 292.224A319.872 319.872 0 0 0 513.664 192H511.36a319.872 319.872 0 0 0-228.608 97.536A320.256 320.256 0 0 0 192 513.792a320.32 320.32 0 0 0 96.576 230.4 313.088 313.088 0 0 0 241.792 87.36l221.056-15.488-4.992-71.296 69.376 4.864 15.36-218.944a314.368 314.368 0 0 0-84.096-238.464z m11.968 233.408l-15.36 218.368-218.368 15.36a241.792 241.792 0 0 1-190.72-71.552C241.472 592 241.472 435.968 334.72 340.16A247.616 247.616 0 0 1 512 264.512h1.728a247.68 247.68 0 0 1 176.384 73.152c1.536 1.472 3.008 3.072 4.48 4.608 45.76 48 69.184 114.88 64.448 183.36z m-342.144-101.76a39.424 39.424 0 0 0-40 38.72v58.24c0 21.376 17.92 38.72 40 38.72a39.488 39.488 0 0 0 40-38.72v-58.24a39.552 39.552 0 0 0-40-38.784z m159.616 0a39.488 39.488 0 0 0-40.064 38.72v58.24c0 21.376 17.92 38.72 40.064 38.72a39.424 39.424 0 0 0 39.936-38.72v-58.24a39.424 39.424 0 0 0-39.936-38.784z" fill="#FFFFFF" p-id="76421"></path></svg>