<?xml version="1.0" standalone="no"?><!DOCTYPE svg PUBLIC "-//W3C//DTD SVG 1.1//EN" "http://www.w3.org/Graphics/SVG/1.1/DTD/svg11.dtd"><svg t="1749781021963" class="icon" viewBox="0 0 1024 1024" version="1.1" xmlns="http://www.w3.org/2000/svg" p-id="42508" xmlns:xlink="http://www.w3.org/1999/xlink" width="200" height="200"><path d="M742.4 944c-41.6-54.4-80-105.6-118.4-160H89.6v-35.2c-6.4 3.2-9.6 3.2-16 6.4-12.8 6.4-25.6 9.6-38.4 16V768c19.2-12.8 35.2-25.6 54.4-38.4V192H288c-3.2-6.4-6.4-12.8-6.4-19.2-12.8-28.8-25.6-57.6-38.4-83.2-6.4-12.8-9.6-25.6-16-38.4h3.2l105.6 144h345.6v163.2c16-6.4 28.8-12.8 44.8-19.2 41.6-19.2 80-35.2 121.6-54.4 25.6-12.8 51.2-25.6 76.8-35.2 12.8-6.4 22.4-9.6 35.2-16v3.2c-3.2 3.2-6.4 3.2-9.6 6.4-35.2 25.6-67.2 48-102.4 73.6l-134.4 96c-9.6 6.4-19.2 16-28.8 22.4v352h-6.4c3.2 6.4 6.4 12.8 9.6 22.4 16 35.2 32 67.2 44.8 102.4 0 9.6 6.4 22.4 9.6 32zM118.4 220.8v489.6c99.2-73.6 198.4-150.4 297.6-224-6.4-12.8-12.8-28.8-16-41.6l-28.8-67.2c-12.8-25.6-22.4-54.4-35.2-80-6.4-19.2-16-38.4-22.4-54.4-6.4-9.6-9.6-16-12.8-22.4H118.4z m486.4 537.6c-44.8-60.8-89.6-118.4-131.2-179.2C352 633.6 233.6 684.8 118.4 736v22.4h486.4zM512 435.2c48-22.4 96-44.8 140.8-64V220.8H352c54.4 70.4 105.6 140.8 160 214.4z m41.6 89.6c35.2 73.6 64 144 99.2 214.4h3.2v-284.8c-35.2 22.4-70.4 48-102.4 70.4z" fill="#3F51B5" p-id="42509"></path><path d="M342.4 569.6c-86.4 22.4-144 115.2-121.6 204.8 22.4 92.8 121.6 156.8 208 134.4l582.4-147.2-86.4-342.4-582.4 150.4z m25.6 224c-28.8 6.4-60.8-9.6-67.2-41.6-6.4-28.8 9.6-60.8 41.6-67.2 28.8-6.4 60.8 9.6 67.2 41.6 9.6 28.8-9.6 60.8-41.6 67.2z" fill="#F44336" p-id="42510"></path><path d="M489.6 828.8l-54.4-211.2 38.4-9.6 54.4 73.6c9.6 16 28.8 38.4 38.4 57.6-6.4-22.4-19.2-57.6-28.8-96l-12.8-48 35.2-9.6 54.4 211.2-38.4 9.6-54.4-73.6c-12.8-16-28.8-41.6-38.4-57.6 6.4 22.4 16 54.4 25.6 96l12.8 48-32 9.6zM720 672l-48 12.8 16 57.6 54.4-12.8 9.6 35.2-96 25.6-57.6-214.4 92.8-22.4 9.6 35.2-51.2 12.8 12.8 48 48-12.8 9.6 35.2zM800 748.8L710.4 544l41.6-9.6 32 83.2c9.6 22.4 16 48 25.6 73.6-3.2-25.6-6.4-51.2-6.4-76.8l-3.2-89.6 32-9.6 35.2 80c9.6 22.4 19.2 44.8 28.8 73.6-3.2-28.8-6.4-51.2-9.6-76.8l-9.6-86.4 41.6-9.6 16 220.8-41.6 9.6-28.8-67.2c-9.6-19.2-19.2-41.6-25.6-67.2 3.2 25.6 6.4 51.2 6.4 73.6l3.2 73.6-48 9.6z" fill="#FFFFFF" p-id="42511"></path><path d="M236.8 848c-25.6 0-48-9.6-60.8-28.8-16-28.8 3.2-70.4 38.4-102.4v32c-22.4 22.4-19.2 41.6-12.8 54.4 9.6 19.2 54.4 19.2 99.2-6.4 22.4-12.8 38.4-28.8 48-48 9.6-12.8 9.6-28.8 6.4-35.2-3.2-3.2-16-22.4-22.4-25.6l25.6-9.6c12.8 6.4 19.2 9.6 25.6 19.2 9.6 19.2 9.6 41.6-3.2 67.2-12.8 22.4-35.2 41.6-60.8 57.6-28.8 19.2-57.6 25.6-83.2 25.6z" fill="#424242" p-id="42512"></path></svg>