<?xml version="1.0" standalone="no"?><!DOCTYPE svg PUBLIC "-//W3C//DTD SVG 1.1//EN" "http://www.w3.org/Graphics/SVG/1.1/DTD/svg11.dtd"><svg t="1750005109705" class="icon" viewBox="0 0 1024 1024" version="1.1" xmlns="http://www.w3.org/2000/svg" p-id="2223" xmlns:xlink="http://www.w3.org/1999/xlink" width="200" height="200"><path d="M531.145697 119.032242a31.030303 31.030303 0 0 1 33.82303 6.733576l372.363637 372.363637a31.030303 31.030303 0 0 1 0 43.876848l-372.363637 372.363636A31.030303 31.030303 0 0 1 512 892.431515v-155.151515H294.787879a31.030303 31.030303 0 0 1-31.030303-31.030303v-372.363636a31.030303 31.030303 0 0 1 31.030303-31.030303h217.212121v-155.151516a31.030303 31.030303 0 0 1 19.145697-28.672zM574.060606 222.611394v111.274667a31.030303 31.030303 0 0 1-31.030303 31.030303h-217.212121v310.30303h217.212121a31.030303 31.030303 0 0 1 31.030303 31.030303v111.274667l297.456485-297.456485L574.060606 222.611394zM170.666667 302.855758a31.030303 31.030303 0 0 1 31.030303 31.030303v372.363636a31.030303 31.030303 0 1 1-62.060606 0v-372.363636a31.030303 31.030303 0 0 1 31.030303-31.030303z" fill="#ffffff" p-id="2224"></path></svg>