<?xml version="1.0" standalone="no"?><!DOCTYPE svg PUBLIC "-//W3C//DTD SVG 1.1//EN" "http://www.w3.org/Graphics/SVG/1.1/DTD/svg11.dtd"><svg t="1750005103905" class="icon" viewBox="0 0 1024 1024" version="1.1" xmlns="http://www.w3.org/2000/svg" p-id="2001" xmlns:xlink="http://www.w3.org/1999/xlink" width="200" height="200"><path d="M492.854303 119.032242A31.030303 31.030303 0 0 1 512 147.704242v155.151516h217.212121a31.030303 31.030303 0 0 1 31.030303 31.030303v372.363636a31.030303 31.030303 0 0 1-31.030303 31.030303h-217.212121v155.151515a31.030303 31.030303 0 0 1-52.968727 21.938424l-372.363637-372.363636a31.030303 31.030303 0 0 1 0-43.876848l372.363637-372.363637a31.030303 31.030303 0 0 1 33.82303-6.733576zM152.482909 520.067879L449.939394 817.524364V706.249697a31.030303 31.030303 0 0 1 31.030303-31.030303h217.212121v-310.30303h-217.212121a31.030303 31.030303 0 0 1-31.030303-31.030303V222.611394L152.482909 520.067879zM853.333333 302.855758a31.030303 31.030303 0 0 1 31.030303 31.030303v372.363636a31.030303 31.030303 0 1 1-62.060606 0v-372.363636a31.030303 31.030303 0 0 1 31.030303-31.030303z" fill="#ffffff" p-id="2002"></path></svg>