<?xml version="1.0" standalone="no"?><!DOCTYPE svg PUBLIC "-//W3C//DTD SVG 1.1//EN" "http://www.w3.org/Graphics/SVG/1.1/DTD/svg11.dtd"><svg t="1748697906091" class="icon" viewBox="0 0 1024 1024" version="1.1" xmlns="http://www.w3.org/2000/svg" p-id="74065" xmlns:xlink="http://www.w3.org/1999/xlink" width="200" height="200"><path d="M512 0a512 512 0 1 1 0 1024A512 512 0 0 1 512 0z" fill="#606C80" p-id="74066"></path><path d="M446.912 758.272a17.664 17.664 0 0 0-16.448 8.512 18.56 18.56 0 0 0 9.6 27.008l0.256 0.128h0.256l10.752 3.072a245.248 245.248 0 0 0 129.664-2.368 17.792 17.792 0 0 0 10.688-8l1.472-2.944a18.496 18.496 0 0 0-7.04-22.208 17.344 17.344 0 0 0-14.4-2.048l-9.856 2.624a210.112 210.112 0 0 1-111.808-3.264l-3.2-0.512zM289.664 547.456h-0.768c-58.688 0.192-106.24 49.024-106.048 109.184 0 60.416 47.936 109.632 106.816 109.632s106.688-49.024 106.688-109.184c0-60.48-47.872-109.632-106.752-109.632zM734.4 547.456h-0.768c-58.688 0.192-106.112 49.024-105.984 109.184 0 60.416 47.872 109.632 106.752 109.632 58.88 0 106.752-49.024 106.752-109.184 0-60.48-47.936-109.568-106.752-109.632zM667.712 351.488l-3.2 0.32a18.496 18.496 0 1 0-8.704 31.488c30.912 28.544 53.12 65.28 63.936 106.048a17.92 17.92 0 0 0 16.96 12.8 18.048 18.048 0 0 0 17.28-22.72l-0.064-0.128v-0.192a258.24 258.24 0 0 0-73.92-122.56 17.536 17.536 0 0 0-12.288-5.056zM356.8 351.488a17.536 17.536 0 0 0-12.224 5.056A258.112 258.112 0 0 0 270.72 478.912l-0.064 0.192-0.128 0.32a18.048 18.048 0 0 0 17.28 22.656c6.592 0 12.672-3.84 15.68-9.728l1.28-3.008c9.92-37.376 29.44-71.424 56.576-98.88l7.36-7.168a18.368 18.368 0 0 0-8.704-31.488l-3.2-0.32zM510.272 182.848h-0.704c-58.688 0.128-106.24 49.024-106.048 109.12 0 60.48 47.872 109.632 106.752 109.632 58.88 0 106.752-48.96 106.752-109.12-0.064-60.48-47.936-109.632-106.816-109.632z" fill="#FFFFFF" p-id="74067"></path></svg>