<?xml version="1.0" standalone="no"?><!DOCTYPE svg PUBLIC "-//W3C//DTD SVG 1.1//EN" "http://www.w3.org/Graphics/SVG/1.1/DTD/svg11.dtd"><svg t="1750974995620" class="icon" viewBox="0 0 1024 1024" version="1.1" xmlns="http://www.w3.org/2000/svg" p-id="120486" xmlns:xlink="http://www.w3.org/1999/xlink" width="256" height="256"><path d="M0 1012.680201l32.42344 11.319799H0v-11.319799z" fill="#FF7974" p-id="120487"></path><path d="M0 1000.560861l67.182379 23.439139H32.42344L0 1012.680201v-12.11934z" fill="#FF7874" p-id="120488"></path><path d="M0 988.441522l101.941317 35.558478H67.182379L0 1000.560861v-12.119339z" fill="#FF7774" p-id="120489"></path><path d="M0 976.301142l136.700255 47.698858H101.941317L0 988.441522v-12.14038z" fill="#FF7674" p-id="120490"></path><path d="M0 964.181803l171.480233 59.818197H136.700255L0 976.301142v-12.119339z" fill="#FF7574" p-id="120491"></path><path d="M0 952.041424l206.239172 71.958576H171.480233L0 964.181803v-12.140379z" fill="#FF7474" p-id="120492"></path><path d="M0 939.922084l240.99811 84.077916H206.239172L0 952.041424v-12.11934z" fill="#FF7374" p-id="120493"></path><path d="M0 927.802745l275.778088 96.197255h-34.779978L0 939.922084v-12.119339z" fill="#FF7274" p-id="120494"></path><path d="M0 915.662365l310.537026 108.337635h-34.758938L0 927.802745v-12.14038z" fill="#FF7174" p-id="120495"></path><path d="M0 903.543026l345.295964 120.456974h-34.758938L0 915.662365v-12.119339z" fill="#FF7074" p-id="120496"></path><path d="M0 891.423687l380.054903 132.576313h-34.758939L0 903.543026v-12.119339z" fill="#FF6F74" p-id="120497"></path><path d="M0 879.283307l414.834881 144.716693h-34.779978L0 891.423687v-12.14038z" fill="#FF6E74" p-id="120498"></path><path d="M0 867.163968l449.593819 156.836032h-34.758938L0 879.283307v-12.119339z" fill="#FF6D74" p-id="120499"></path><path d="M0 855.023588l484.352757 168.976412h-34.758938L0 867.163968v-12.14038z" fill="#FF6C74" p-id="120500"></path><path d="M0 842.904249l519.132736 181.095751H484.352757L0 855.023588v-12.119339z" fill="#FF6B74" p-id="120501"></path><path d="M0 830.78491l553.891674 193.21509h-34.758938L0 842.904249v-12.119339z" fill="#FF6A74" p-id="120502"></path><path d="M0 818.64453l588.650612 205.35547h-34.758938L0 830.78491v-12.14038z" fill="#FF6974" p-id="120503"></path><path d="M0 806.525191l623.40955 217.474809h-34.758938L0 818.64453v-12.119339z" fill="#FF6874" p-id="120504"></path><path d="M0 794.405852l658.189529 229.594148h-34.779979L0 806.525191v-12.119339z" fill="#FF6774" p-id="120505"></path><path d="M0 782.265472l692.948467 241.734528h-34.758938L0 794.405852v-12.14038z" fill="#FF6674" p-id="120506"></path><path d="M0 770.146133l727.707405 253.853867h-34.758938L0 782.265472v-12.119339z" fill="#FF6574" p-id="120507"></path><path d="M0 758.005753l762.466343 265.994247h-34.758938L0 770.146133v-12.14038z" fill="#FF6474" p-id="120508"></path><path d="M0 745.886414l797.246322 278.113586h-34.779979L0 758.005753v-12.119339z" fill="#FF6374" p-id="120509"></path><path d="M0 733.767075l832.00526 290.232925h-34.758938L0 745.886414v-12.119339z" fill="#FF6274" p-id="120510"></path><path d="M0 721.626695l866.764198 302.373305h-34.758938L0 733.767075v-12.14038z" fill="#FF6174" p-id="120511"></path><path d="M0 709.507356l901.544177 314.492644h-34.779979L0 721.626695v-12.119339z" fill="#FF6074" p-id="120512"></path><path d="M0 697.388017l936.303115 326.611983h-34.758938L0 709.507356v-12.119339z" fill="#FF5F74" p-id="120513"></path><path d="M0 685.247637l971.062053 338.752363H936.303115L0 697.388017v-12.14038z" fill="#FF5E74" p-id="120514"></path><path d="M0 673.128298l1000.09797 348.872853-0.694337 1.998849h-28.34158L0 685.247637v-12.119339z" fill="#FF5D74" p-id="120515"></path><path d="M0 660.987918l1003.864223 350.198406-3.766253 10.814827L0 673.128298v-12.14038z" fill="#FF5C74" p-id="120516"></path><path d="M0 648.868579l1007.630476 351.502918-3.766253 10.814827L0 660.987918v-12.119339z" fill="#FF5B74" p-id="120517"></path><path d="M0 636.74924l1011.417769 352.80743-3.787293 10.814827L0 648.868579v-12.119339z" fill="#FF5A74" p-id="120518"></path><path d="M0 624.60886l1015.184022 354.132983-3.766253 10.814827L0 636.74924v-12.14038z" fill="#FF5974" p-id="120519"></path><path d="M0 612.489521l1018.950275 355.437495-3.766253 10.814827L0 624.60886v-12.119339z" fill="#FF5874" p-id="120520"></path><path d="M0 600.370182l1022.716528 356.763047-3.766253 10.793787L0 612.489521v-12.119339z" fill="#FF5774" p-id="120521"></path><path d="M0 588.229802l1023.957919 357.204898v8.163722l-1.241391 3.534807L0 600.370182v-12.14038z" fill="#FF5674" p-id="120522"></path><path d="M0 576.110463l1023.957919 357.183858v12.140379L0 588.229802v-12.119339z" fill="#FF5574" p-id="120523"></path><path d="M0 563.970083l1023.957919 357.204899v12.119339L0 576.110463v-12.14038z" fill="#FF5474" p-id="120524"></path><path d="M0 551.850744l1023.957919 357.183858v12.14038L0 563.970083v-12.119339z" fill="#FF5374" p-id="120525"></path><path d="M0 539.731405l1023.957919 357.183858v12.119339L0 551.850744v-12.119339z" fill="#FF5274" p-id="120526"></path><path d="M0 527.591025L1023.957919 884.795923v12.11934L0 539.731405v-12.14038z" fill="#FF5174" p-id="120527"></path><path d="M0 515.471686l1023.957919 357.183858v12.140379L0 527.591025v-12.119339z" fill="#FF5074" p-id="120528"></path><path d="M0 503.331306l1023.957919 357.204898v12.11934L0 515.471686v-12.14038z" fill="#FF4F74" p-id="120529"></path><path d="M0 491.211967l1023.957919 357.204898v12.119339L0 503.331306v-12.119339z" fill="#FF4E74" p-id="120530"></path><path d="M0 479.092628l1023.957919 357.183858v12.140379L0 491.211967v-12.119339z" fill="#FF4D74" p-id="120531"></path><path d="M0 466.952248l1023.957919 357.204898v12.11934L0 479.092628v-12.14038z" fill="#FF4C74" p-id="120532"></path><path d="M0 454.832909l1023.957919 357.183858v12.140379L0 466.952248v-12.119339z" fill="#FF4B74" p-id="120533"></path><path d="M0 442.713569l1023.957919 357.183858v12.11934L0 454.832909v-12.11934z" fill="#FF4A74" p-id="120534"></path><path d="M0 430.57319l1023.957919 357.204898v12.119339L0 442.713569v-12.140379z" fill="#FF4873" p-id="120535"></path><path d="M0 418.453851l1023.957919 357.183858v12.140379L0 430.57319v-12.119339z" fill="#FF4773" p-id="120536"></path><path d="M0 406.313471l1023.957919 357.204898v12.11934L0 418.453851v-12.14038z" fill="#FF4673" p-id="120537"></path><path d="M0 394.194132L1023.957919 751.39903v12.119339L0 406.313471v-12.119339z" fill="#FF4573" p-id="120538"></path><path d="M0 382.074792l1023.957919 357.183858v12.14038L0 394.194132v-12.11934z" fill="#FF4473" p-id="120539"></path><path d="M0 369.934413l1023.957919 357.204898v12.119339L0 382.074792v-12.140379z" fill="#FF4373" p-id="120540"></path><path d="M0 357.815074L1023.957919 714.998932v12.140379L0 369.934413v-12.119339z" fill="#FF4273" p-id="120541"></path><path d="M0 345.695734l1023.957919 357.183858v12.11934L0 357.815074v-12.11934z" fill="#FF4173" p-id="120542"></path><path d="M0 333.555355l1023.957919 357.204898v12.119339L0 345.695734v-12.140379z" fill="#FF4073" p-id="120543"></path><path d="M0 321.436015l1023.957919 357.183858v12.14038L0 333.555355v-12.11934z" fill="#FF3F73" p-id="120544"></path><path d="M0 309.295636l1023.957919 357.204898v12.119339L0 321.436015v-12.140379z" fill="#FF3E73" p-id="120545"></path><path d="M0 297.176297l1023.957919 357.204898v12.119339L0 309.295636v-12.119339z" fill="#FF3D73" p-id="120546"></path><path d="M0 285.056957l1023.957919 357.183858v12.14038L0 297.176297v-12.11934z" fill="#FF3C73" p-id="120547"></path><path d="M0 272.916578l1023.957919 357.204898v12.119339L0 285.056957v-12.140379z" fill="#FF3B73" p-id="120548"></path><path d="M0 260.797238l1023.957919 357.183858v12.14038L0 272.916578v-12.11934z" fill="#FF3A73" p-id="120549"></path><path d="M0 248.677899l1023.957919 357.183858v12.119339L0 260.797238v-12.119339z" fill="#FF3973" p-id="120550"></path><path d="M0 236.53752l1023.957919 357.204898v12.119339L0 248.677899v-12.140379z" fill="#FF3873" p-id="120551"></path><path d="M0 224.41818L1023.957919 581.602038v12.14038L0 236.53752v-12.11934z" fill="#FF3773" p-id="120552"></path><path d="M0 212.277801l1023.957919 357.204898v12.119339L0 224.41818v-12.140379z" fill="#FF3673" p-id="120553"></path><path d="M0 200.158461l1023.957919 357.204899v12.119339L0 212.277801v-12.11934z" fill="#FF3573" p-id="120554"></path><path d="M0 188.039122l1023.957919 357.183858v12.14038L0 200.158461v-12.119339z" fill="#FF3473" p-id="120555"></path><path d="M0 175.898743l1023.957919 357.204898v12.119339L0 188.039122v-12.140379z" fill="#FF3373" p-id="120556"></path><path d="M0 163.779403l1023.957919 357.183858v12.14038L0 175.898743v-12.11934z" fill="#FF3273" p-id="120557"></path><path d="M0 151.660064l1023.957919 357.183858v12.119339L0 163.779403v-12.119339z" fill="#FF3173" p-id="120558"></path><path d="M0 139.519684l1023.957919 357.204899v12.119339L0 151.660064v-12.14038z" fill="#FF3073" p-id="120559"></path><path d="M0 127.400345l1023.957919 357.183858v12.14038L0 139.519684v-12.119339z" fill="#FF2F73" p-id="120560"></path><path d="M0 115.259965l1023.957919 357.204899v12.119339L0 127.400345v-12.14038z" fill="#FF2E73" p-id="120561"></path><path d="M0 103.140626l1023.957919 357.204899v12.119339L0 115.259965V103.140626z" fill="#FF2D73" p-id="120562"></path><path d="M0 91.021287L1023.957919 448.205145v12.14038L0 103.140626v-12.119339z" fill="#FF2C73" p-id="120563"></path><path d="M0 78.880907l1023.957919 357.204899V448.205145L0 91.021287v-12.14038z" fill="#FF2B73" p-id="120564"></path><path d="M0 70.443659l1.136188-3.282321 1022.821731 356.784088v12.14038L0 78.880907v-8.437248z" fill="#FF2A73" p-id="120565"></path><path d="M1.136188 67.161338l3.787294-10.814827 1019.034437 355.479576v12.119339L1.136188 67.161338z" fill="#FF2973" p-id="120566"></path><path d="M4.923482 56.346511l3.766253-10.814827 1015.268184 354.175064v12.119339L4.923482 56.346511z" fill="#FF2873" p-id="120567"></path><path d="M8.689735 45.531684l3.766253-10.814827 1011.501931 352.849511v12.14038L8.689735 45.531684z" fill="#FF2773" p-id="120568"></path><path d="M12.455988 34.716857l3.766252-10.793786 1007.735679 351.523958v12.119339L12.455988 34.716857z" fill="#FF2673" p-id="120569"></path><path d="M16.22224 23.923071l3.787294-10.814827 1003.948385 350.219446v12.119339L16.22224 23.923071z" fill="#FF2573" p-id="120570"></path><path d="M20.009534 13.108244l3.766253-10.814827 1000.182132 348.893893v12.14038L20.009534 13.108244z" fill="#FF2473" p-id="120571"></path><path d="M23.775787 2.293417L24.554286 0.042081h27.54204l971.861593 339.02589v12.119339L23.775787 2.293417z" fill="#FF2373" p-id="120572"></path><path d="M86.855264 0.042081l937.102655 326.88551v12.14038L52.096326 0.042081h34.758938z" fill="#FF2273" p-id="120573"></path><path d="M121.614202 0.042081l902.343717 314.766171v12.119339L86.855264 0.042081H121.614202z" fill="#FF2173" p-id="120574"></path><path d="M156.394181 0.042081l867.563738 302.646832v12.119339L121.614202 0.042081h34.779979z" fill="#FF2073" p-id="120575"></path><path d="M191.153119 0.042081l832.8048 290.506452v12.14038L156.394181 0.042081h34.758938z" fill="#FF1F73" p-id="120576"></path><path d="M225.912057 0.042081l798.045862 278.387113v12.119339L191.153119 0.042081h34.758938z" fill="#FF1E73" p-id="120577"></path><path d="M260.670995 0.042081l763.286924 266.267774v12.119339L225.912057 0.042081h34.758938z" fill="#FF1D73" p-id="120578"></path><path d="M295.450974 0.042081l728.506945 254.127394v12.14038L260.670995 0.042081h34.779979z" fill="#FF1C73" p-id="120579"></path><path d="M330.209912 0.042081l693.748007 242.008055v12.119339L295.450974 0.042081h34.758938z" fill="#FF1B73" p-id="120580"></path><path d="M364.96885 0.042081l658.989069 229.867675v12.14038L330.209912 0.042081h34.758938z" fill="#FF1A73" p-id="120581"></path><path d="M399.748829 0.042081l624.20909 217.748336v12.119339L364.96885 0.042081h34.779979z" fill="#FF1973" p-id="120582"></path><path d="M434.507767 0.042081l589.450152 205.628997v12.119339L399.748829 0.042081h34.758938z" fill="#FF1873" p-id="120583"></path><path d="M469.266705 0.042081l554.691214 193.488617v12.14038L434.507767 0.042081h34.758938z" fill="#FF1773" p-id="120584"></path><path d="M504.025643 0.042081l519.932276 181.369278v12.119339L469.266705 0.042081h34.758938z" fill="#FF1673" p-id="120585"></path><path d="M538.805622 0.042081l485.152297 169.249938v12.11934L504.025643 0.042081h34.779979z" fill="#FF1573" p-id="120586"></path><path d="M573.56456 0.042081l450.393359 157.109559v12.140379L538.805622 0.042081h34.758938z" fill="#FF1473" p-id="120587"></path><path d="M608.323498 0.042081l415.634421 144.990219v12.11934L573.56456 0.042081h34.758938z" fill="#FF1373" p-id="120588"></path><path d="M1023.957919 145.0323L608.323498 0.042081h415.634421v144.990219z" fill="#FF1373" p-id="120589"></path><path d="M313.377497 135.942796c1.746363 4.43955 36.04241 86.581737 44.879427 128.81006 13.550095-26.447933 25.606312-49.971234 37.64149-73.515575 24.911975-58.113915 50.897017-115.785978 73.431413-174.909838 2.04093-5.344292 3.597929-10.856908 5.386373-16.285362H262.985452c-4.187063 5.996548 34.695817 95.860607 50.392045 135.900715zM570.219117 787.252075c-36.568423-18.831265-70.443659-41.975836-104.024328-65.583299-25.311745-17.779239-46.58371-40.671324-73.031643-56.914605-9.846963-6.038629-19.567683-12.582231-35.495356-12.792636-15.191255-0.526013-20.114737 6.164872-13.003041 24.070355 8.815978 22.197748 22.597518 41.512945 37.178598 60.175885 28.299499 36.252815 57.861428 71.327361 97.880496 95.523958 37.094436 22.429194 60.007561 18.136928 86.245089-15.675187 2.945673-3.808334 5.512616-7.974357 8.710775-11.551245 7.322101-8.184762 4.586833-12.645352-4.439549-17.274266zM689.603025 740.87877c-26.847703-7.890195-52.24361-19.588724-77.76576-30.929563-40.860689-18.157968-80.732473-39.009123-124.517794-49.697707-16.706172-4.081861-33.896277-7.153777-49.529383 4.271225-9.278869 9.699679-6.354237 16.264322 3.597929 24.364922 49.739788 40.460919 102.782937 75.535465 161.002055 102.572532 5.807183 1.19931 11.635407 2.377579 17.44259 3.555848 12.434947 4.313306 24.911975 3.976658 37.410044 0.294567 20.745952-6.354237 28.530944-24.428043 37.851894-41.302539 4.102901-7.427303 2.861511-10.667543-5.491575-13.129285z" fill="#F0C9BA" p-id="120590"></path><path d="M381.022766 751.630476c-19.04167-24.259719-41.050053-48.014465-46.962439-78.691543-5.575738-28.867593-25.353826-41.344621-46.730994-54.032054-6.354237-3.766253-14.538999-6.796088-21.734856-0.757458-6.922331 5.807183-5.744062 13.7605-4.250185 21.440289 7.890195 40.587162 25.374866 77.029342 48.22487 111.136024 2.482781 2.903592 4.944522 5.807183 7.427304 8.710775 16.790335 19.525602 33.896277 38.588313 62.006411 40.986931 9.615517-0.79954 18.957508-2.651105 27.815566-6.711925 4.818279-2.209255 6.796088-3.997699 2.209255-9.047424a589.681598 589.681598 0 0 1-28.004932-33.054656zM765.18057 580.04504c-4.965563-30.929564-9.910085-61.859127-14.875647-92.788691-16.411605-65.351853-39.219528-128.620695-63.226761-191.468727-2.987754-2.798389-1.767404-8.626613-8.1006-10.288814-1.388674 8.479329-2.735268 16.664091-4.081861 24.848854-5.744062 58.071834-0.946823 115.785978 6.03863 173.437001 1.325553 2.566943 1.578039 5.133887 1.367633 7.67979 5.933426 33.454426 8.353086 67.203419 7.469385 101.225939-0.189365 7.069615-2.524862 15.149174 9.573436 13.634257 1.157229-0.147284 3.64001 2.104052 3.766253 3.429604 0.483932 4.43955-3.387524 5.323251-6.543601 6.227994-18.473576 5.302211-36.86299 10.92003-55.967782 13.655297-16.558889 6.249034-34.127723 10.036328-49.297937 19.609764-9.846963 6.227994-25.627353 11.109394-22.387113 24.575327 3.029835 12.645352 18.957508 13.129284 30.866442 13.508013 21.145722 0.673297 42.333525 0.126243 63.500288 0.084163 20.451385-1.62012 40.545081-5.365332 60.112764-11.488124 26.447933-8.289965 40.355716-26.300649 41.618147-54.032054 0.631216-13.907783 0.168324-27.878688 0.189365-41.828553z" fill="#F0C9BA" p-id="120591"></path><path d="M681.207857 693.432399c-20.177858 5.617819-41.071094 5.154927-61.943289 7.069615 29.435687 15.043971 59.186981 28.299499 91.252733 35.327032 11.446043 2.503822 21.987343-0.252486 30.613956-8.731816 16.664091-34.464371 22.555437-52.706501 20.851154-65.057286-21.819019 23.859949-50.518287 29.625051-80.774554 31.392455zM799.58182 0.042081H482.459111s-35.474316 88.412263-50.181639 124.012822c-9.552396 23.123531-22.176707 44.774225-31.118928 68.150242-1.599079 6.08071-4.776198 11.467083-7.427304 17.105942-16.516808 35.137667-35.327032 69.012904-56.115065 101.794033-2.398619 5.302211-5.786143 9.973206-9.005342 14.770445-24.407003 36.336977-48.792965 72.673954-69.412674 111.367469-7.237939 13.087203-12.666393 27.037067-18.452536 40.797568-2.356538 5.596778-37.515246 141.097723-47.972384 180.317251-0.694337 2.735268-1.304512 5.491576-2.125092 8.184762-5.828224 19.104792 0.904742 27.394756 21.250924 26.805622 8.879099-0.252486 16.369524-5.133887 24.890935-6.270075 13.928824-9.047423 23.754746-19.672886 15.212295-37.872935-1.136188-2.4407-0.79954-5.575738-1.136188-8.395167 0.042081-1.914687 0.126243-3.829375 0.105203-5.744062-0.252486-22.366072 1.599079-25.12238 23.733706-29.1832 7.258979-1.325553 26.700419 8.184762 31.518698 11.866853 6.101751 4.649955 12.350785 9.341991 17.505712 14.959809 7.932276 8.626613 14.265472 16.895537 28.467823 9.152626 7.784992-4.229144 17.926523-0.315608 26.511054 3.303362 11.172516 4.692036 21.840059 10.604422 30.78228 18.557738 8.121641 7.237939 13.571135 6.522561 18.894387-2.293417 6.122791-6.585683 12.855757-12.056218 22.534396-12.035177 10.92003-1.872606 21.819019-2.146133 32.718008 0.168324 18.768143 2.4407 35.874086 10.183611 53.211473 17.042821 10.667543 4.229144 20.977398 10.12049 24.512206-8.205803 0.757459-3.955618 5.807183-7.70083 9.72072-10.288814 19.209994-12.750555 40.124271-21.440289 62.995315-25.185502 9.173666-2.630065 18.22109-6.564642 27.584121-7.595627 15.359579-1.704282 18.263171-11.425002 18.662941-24.007233 1.009945-31.855346-3.871456-63.268842-6.669845-94.850661-4.250185-7.343141 1.262431-16.579929-4.607874-23.607463-1.009945-37.010274-7.806033-73.683899-6.564642-110.862497 0.715378-21.545492 4.502671-52.517137 11.109394-73.494534v0.084162c5.407413-25.395907 14.18131-49.676666 25.395907-73.157886C730.800362 148.840635 802.064601 6.354237 799.60286 0z" fill="#F0F0F0" p-id="120592"></path></svg>