<?xml version="1.0" standalone="no"?><!DOCTYPE svg PUBLIC "-//W3C//DTD SVG 1.1//EN" "http://www.w3.org/Graphics/SVG/1.1/DTD/svg11.dtd"><svg t="1749751251247" class="icon" viewBox="0 0 1024 1024" version="1.1" xmlns="http://www.w3.org/2000/svg" p-id="113417" xmlns:xlink="http://www.w3.org/1999/xlink" width="200" height="200"><path d="M63.488 514.56c0 160.256 84.992 308.224 223.744 388.608a447.232 447.232 0 0 0 448.512 0c138.752-80.384 224.256-228.352 223.744-388.608 0-160.256-84.992-308.224-223.744-388.608a447.232 447.232 0 0 0-448.512 0C148.48 205.824 63.488 354.304 63.488 514.56z m0 0" fill="#E9EAEB" p-id="113418"></path><path d="M152.576 265.216h184.832v609.28H152.576z" fill="#A3D4FF" p-id="113419"></path><path d="M301.056 907.264h-107.52c-36.864 0-66.56-29.696-66.56-66.56V301.056c0-36.864 29.696-66.56 66.56-66.56h108.032c36.864 0 66.56 29.696 66.56 66.56v539.648c-0.512 36.352-30.208 66.56-67.072 66.56z m-107.52-642.048c-19.968 0-35.84 15.872-35.84 35.84v539.648c0 19.968 15.872 35.84 35.84 35.84h108.032c19.968 0 35.84-15.872 35.84-35.84V301.056c0-19.968-15.872-35.84-35.84-35.84H193.536z" fill="#2A5082" p-id="113420"></path><path d="M202.24 334.336h90.624c12.288 0 17.92 6.144 17.92 17.92s-6.144 17.92-17.92 17.92H202.24c-12.288 0-17.92-6.144-17.92-17.92s5.632-17.92 17.92-17.92z m0 0" fill="#E9EAEB" p-id="113421"></path><path d="M657.64864 314.22976l161.73056-31.9488 111.03232 562.03776-161.73056 31.9488z" fill="#A3D4FF" p-id="113422"></path><path d="M808.96 888.32c-13.312 0-25.6-4.096-36.864-11.264-14.848-9.728-24.576-25.088-28.16-42.496l-94.72-479.232c-7.168-35.84 16.384-71.168 52.224-78.336l74.752-14.848c35.84-7.168 71.168 16.384 78.336 52.224l94.72 479.232c7.168 35.84-16.384 71.168-52.224 78.336l-74.752 14.848c-4.608 1.024-8.704 1.536-13.312 1.536zM789.504 291.84c-2.048 0-4.608 0-7.168 0.512L707.584 307.2c-19.456 3.584-32.256 22.528-28.16 41.984l94.72 479.232c2.048 9.216 7.168 17.408 15.36 23.04 8.192 5.12 17.408 7.168 27.136 5.632l74.752-14.848c19.456-3.584 32.256-22.528 28.16-41.984l-94.72-479.232c-3.584-17.408-18.432-29.184-35.328-29.184z" fill="#2A5082" p-id="113423"></path><path d="M716.8 371.2l86.016-16.896c11.264-2.048 18.432 2.56 20.48 13.824 2.048 11.264-2.56 18.432-13.824 20.48l-86.016 16.896c-11.264 2.048-18.432-2.56-20.48-13.824-2.56-11.264 2.048-17.92 13.824-20.48z m0 0" fill="#E9EAEB" p-id="113424"></path><path d="M403.456 147.456h209.92v727.04h-209.92z" fill="#FFFFFF" p-id="113425"></path><path d="M571.392 907.264H451.584c-36.864 0-66.56-29.696-66.56-66.56V187.904c0-36.864 29.696-66.56 66.56-66.56h119.808c36.864 0 66.56 29.696 66.56 66.56v652.288c0 36.864-29.696 67.072-66.56 67.072zM451.584 152.064c-19.968 0-35.84 15.872-35.84 35.84v652.288c0 19.968 15.872 35.84 35.84 35.84h119.808c19.968 0 35.84-15.872 35.84-35.84V187.904c0-19.968-15.872-35.84-35.84-35.84H451.584z" fill="#2A5082" p-id="113426"></path><path d="M463.36 227.84h95.744c12.8 0 18.944 6.144 18.944 18.944s-6.144 18.944-18.944 18.944H463.36c-12.8 0-18.944-6.144-18.944-18.944s6.144-18.944 18.944-18.944z m0 0" fill="#E9EAEB" p-id="113427"></path></svg>