<?xml version="1.0" standalone="no"?><!DOCTYPE svg PUBLIC "-//W3C//DTD SVG 1.1//EN" "http://www.w3.org/Graphics/SVG/1.1/DTD/svg11.dtd"><svg t="1748698438847" class="icon" viewBox="0 0 1024 1024" version="1.1" xmlns="http://www.w3.org/2000/svg" p-id="51026" xmlns:xlink="http://www.w3.org/1999/xlink" width="200" height="200"><path d="M972.8 265.3696a89.6512 89.6512 0 0 0-69.9392-33.3312H332.3904L325.12 171.008c0-1.1776-0.3072-2.3552-0.512-3.4816a103.9872 103.9872 0 0 0-102.0416-84.5312H100.352a51.2 51.2 0 0 0 0 102.4h122.2144a1.6384 1.6384 0 0 1 1.28 0.7168l59.9552 503.5008c0 1.1776 0.3072 2.304 0.512 3.4816a103.9872 103.9872 0 0 0 102.0416 84.48h427.3664a104.3968 104.3968 0 0 0 101.632-82.2784l75.3152-354.6624a89.6512 89.6512 0 0 0-17.8688-75.264z" fill="#FC6564" p-id="51027"></path><path d="M357.7856 950.1184A133.5808 133.5808 0 1 1 491.52 816.5888a133.7344 133.7344 0 0 1-133.7344 133.5296z m0-164.7104a31.1808 31.1808 0 1 0 31.3344 31.1808 31.1808 31.1808 0 0 0-31.3344-31.1808zM846.3872 950.1184a133.5808 133.5808 0 1 1 133.5296-133.5296 133.6832 133.6832 0 0 1-133.5296 133.5296z m0-164.7104a31.1808 31.1808 0 1 0 31.1296 31.1808 31.1808 31.1808 0 0 0-31.1296-31.1808zM754.432 510.9248H483.84a51.2 51.2 0 0 1 0-102.4h270.592a51.2 51.2 0 0 1 0 102.4z" fill="#F8DEDE" p-id="51028"></path></svg>