<?xml version="1.0" standalone="no"?><!DOCTYPE svg PUBLIC "-//W3C//DTD SVG 1.1//EN" "http://www.w3.org/Graphics/SVG/1.1/DTD/svg11.dtd"><svg t="1750090871930" class="icon" viewBox="0 0 1024 1024" version="1.1" xmlns="http://www.w3.org/2000/svg" p-id="20577" xmlns:xlink="http://www.w3.org/1999/xlink" width="200" height="200"><path d="M744.594 295.497L512 62.903c-5.851-5.852-14.629-5.852-20.48 0L258.926 295.497l-27.795-27.794L462.263 35.109c21.943-21.943 55.588-21.943 77.531 0L772.39 267.703l-27.795 27.794z" fill="#3C3C3C" p-id="20578"></path><path d="M800.183 972.8l-296.96-190.171L203.337 972.8c-7.314 4.389-14.628 0-14.628-8.777V280.869h627.565v683.154c-1.463 8.777-10.24 13.166-16.091 8.777" fill="#E95270" p-id="20579"></path><path d="M519.314 788.48c121.417-68.754 178.469-236.983 169.692-504.686H819.2V962.56c0 7.314-8.777 13.166-14.629 8.777L519.314 788.48z m-67.291 26.331l-245.76 156.526c-1.463 1.463-4.389 1.463-5.852 1.463l1.463-174.08c98.012 27.794 181.395 33.646 250.149 16.091z" fill="#D64A66" p-id="20580"></path><path d="M207.52 301.758v645.12l295.498-187.246L795.59 946.878v-645.12H207.521z m602.698 653.897z m-612.937 39.497c-4.389 0-10.24-1.462-14.629-4.388-10.24-5.852-16.091-14.629-16.091-26.332V260.798h667.063v703.634c0 10.24-5.852 20.48-16.092 26.332-10.24 5.851-21.943 4.388-30.72-1.463L503.018 806.444 213.372 989.3c-4.388 4.389-10.24 5.851-16.091 5.851z" fill="#3C3C3C" p-id="20581"></path><path d="M885.029 279.406H118.49c-21.942 0-39.497-17.555-39.497-39.497s17.555-39.498 39.497-39.498H885.03c21.942 0 39.497 17.555 39.497 39.498s-17.555 39.497-39.497 39.497" fill="#7ECBFA" p-id="20582"></path><path d="M118.491 219.429c-11.702 0-20.48 8.777-20.48 20.48s8.778 20.48 20.48 20.48H885.03c11.702 0 20.48-8.778 20.48-20.48s-10.24-20.48-20.48-20.48H118.49z m766.538 80.457H118.49c-33.645 0-59.977-26.332-59.977-59.977s26.332-59.978 59.977-59.978H885.03c33.645 0 59.977 26.332 59.977 59.978s-27.795 59.977-59.977 59.977z" fill="#3C3C3C" p-id="20583"></path><path d="M550.649 60.197c0 27.794-21.943 49.737-49.737 49.737s-49.738-23.406-49.738-49.737 21.943-49.738 49.738-49.738 49.737 21.943 49.737 49.738" fill="#7ECBFA" p-id="20584"></path><path d="M501.76 433.006l33.646 68.754 76.068 11.703-54.125 52.663 11.702 76.068-67.291-35.108-68.754 35.108 13.165-76.068-55.588-52.663 77.531-11.703z" fill="#FFBD49" p-id="20585"></path></svg>