<?xml version="1.0" standalone="no"?><!DOCTYPE svg PUBLIC "-//W3C//DTD SVG 1.1//EN" "http://www.w3.org/Graphics/SVG/1.1/DTD/svg11.dtd"><svg t="1750337977080" class="icon" viewBox="0 0 1024 1024" version="1.1" xmlns="http://www.w3.org/2000/svg" p-id="5025" xmlns:xlink="http://www.w3.org/1999/xlink" width="200" height="200"><path d="M511.94 512m-367.52 0a367.52 367.52 0 1 0 735.04 0 367.52 367.52 0 1 0-735.04 0Z" fill="#BEDEFF" p-id="5026"></path><path d="M357.63 418.58H253.07v-61.87a238.3 238.3 0 0 0 42.69-3.71 125.17 125.17 0 0 0 37.12-12.68 90.42 90.42 0 0 0 28.77-24.44q12.06-15.46 18.87-39.6h63.73v464h-86.62zM540.1 473a71 71 0 0 1-16.71-20.73q-6.5-12.06-9.9-29.08t-3.4-41.76a117.22 117.22 0 0 1 6.5-37.74 93.57 93.57 0 0 1 20.73-34.34q14.23-15.15 37.12-25.06t55.68-9.9q64.34 0 91.26 30.32t26.91 89.09a199.25 199.25 0 0 1-2.47 33.1 82.57 82.57 0 0 1-9 26.29 68.12 68.12 0 0 1-17.94 20.73q-11.46 9-29.39 16.4v1.24Q729.1 500.25 744 529t14.85 79.5q0 38.37-8.66 65.27t-25.06 43.62a97.74 97.74 0 0 1-39.91 24.44q-23.52 7.73-53.21 7.73-37.12 0-62.18-8.66T529 714.63Q513.18 697 506.37 670.7t-6.8-61.56q0-26 3.4-44.86a104.34 104.34 0 0 1 11.45-33.1 84.82 84.82 0 0 1 20.11-24.13q12.06-9.89 30-17.94A131.48 131.48 0 0 1 540.1 473z m47 165.81a66.62 66.62 0 0 0 4.95 21.65 32.28 32.28 0 0 0 13 14.85q9 5.57 25.06 6.19 15.46-1.23 24.13-8a39.59 39.59 0 0 0 12.68-17.32 76.53 76.53 0 0 0 4.64-23.82q0.61-13.3 0.62-28.15 0-16.71-0.93-31.55a86.72 86.72 0 0 0-5.26-26A39.25 39.25 0 0 0 653 529q-8.67-6.5-24.13-6.5t-24.13 5.88a34.41 34.41 0 0 0-12.68 15.47q-4 9.6-4.95 23.2t-0.93 29.7v14.85q0.01 14.86 0.94 27.23z m63.73-184.68a39.06 39.06 0 0 0 11.45-16.09 75.29 75.29 0 0 0 4.64-21.35q0.93-11.75 0.93-22.27 0-26.59-10.21-39.29t-26.91-12.68q-12.38 0-20.42 4.64a31.8 31.8 0 0 0-12.37 12.68 55.91 55.91 0 0 0-5.88 18.56 152.7 152.7 0 0 0-1.55 22.27 178.65 178.65 0 0 0 1.24 21 62.3 62.3 0 0 0 5.25 19.25 35.73 35.73 0 0 0 11.76 14.23q7.73 5.57 20.73 5.57 13.61 0 21.35-6.5z" fill="#79B3E8" p-id="5027"></path><path d="M511.94 102c-226.44 0-410 183.56-410 410s183.56 410 410 410 410-183.56 410-410-183.56-410-410-410z m-355 410c0-196.06 158.94-355 355-355a353.6 353.6 0 0 1 230.82 85.29L242.23 742.82A353.6 353.6 0 0 1 156.94 512z m355 355a353.6 353.6 0 0 1-230.82-85.29l500.53-500.53A353.6 353.6 0 0 1 866.94 512c0 196.06-158.94 355-355 355z" fill="#FF6AA8" p-id="5028"></path></svg>