<?xml version="1.0" standalone="no"?><!DOCTYPE svg PUBLIC "-//W3C//DTD SVG 1.1//EN" "http://www.w3.org/Graphics/SVG/1.1/DTD/svg11.dtd"><svg t="1750338390499" class="icon" viewBox="0 0 1024 1024" version="1.1" xmlns="http://www.w3.org/2000/svg" p-id="60049" xmlns:xlink="http://www.w3.org/1999/xlink" width="200" height="200"><path d="M646.6 880.5l34-2.6 10-83.5-44 86.1zM468.8 878.1h36.4l-50-60.3 13.6 60.3z" fill="#545454" p-id="60050"></path><path d="M649.7 718.7l-9.6 11.4-32.9-6.9-0.7 24.7-17.6 12.5 20.6 23.6-15.3 74-8.7 7.8-20.8-10.2-27.5-36.6 2.6-40.5-9.5-6 2.1-10.7-17.4 7.6-35.4-22.6-31.6 55.9 63.3 80.5 57-1.8-10.7 9.6h81.1l52.6-103.9-41.6-68.4z" fill="#7F7F7F" p-id="60051"></path><path d="M543.592713 515.557172m20.419276 8.963435l197.599988 86.740331q20.419276 8.963435 11.45584 29.382711l-25.210165 57.430358q-8.963435 20.419276-29.382711 11.45584l-197.599987-86.74033q-20.419276-8.963435-11.455841-29.382711l25.210165-57.430358q8.963435-20.419276 29.382711-11.455841Z" fill="#FFD4D4" p-id="60052"></path><path d="M623.8 656.1l-15.5 11.2 27.4 35.7-23.3 14.8 30.1 16 19.5-37.1-38.2-40.6zM554.8 762.6l-19-22-30.1 21.4 14.2 7.1 14.2-4.9-1.2 12 22.4 8.9 7.2-13.5-5.6-6.5 11 9.9 38.6-27.1-2.8-19.8-48.9 34.5z" fill="#CCCCCC" p-id="60053"></path><path d="M268.3153 637.341269m24.821095-11.839055l333.595521-159.116902q24.821095-11.839055 36.660151 12.982041l22.52434 47.223262q11.839055 24.821095-12.98204 36.66015l-333.595521 159.116902q-24.821095 11.839055-36.66015-12.982041l-22.524341-47.223262q-11.839055-24.821095 12.98204-36.66015Z" fill="#FFD4D4" p-id="60054"></path><path d="M913 430.4c-35.7-6.4-51.9 4-57.3 7.4l-11 23.2 39.1-81.8a179.1 179.1 0 0 0-84.4-238.9 179.1 179.1 0 0 0-238.9 84.4l-29.4 61.5-19-42.1c-42.6-89.1-161.6-122-250.9-79.4a179.1 179.1 0 0 0-84.4 238.9l39.1 81.8-11.1-23.2c-5.3-3.5-21.5-13.9-57.3-7.4-64.6 11.6-50.6 90.6 9.8 103.6 53.1 11.5 88.9 26.1 111.8 50.3 3.7 3.9 2.7 1.6 1.2-0.6l320-153.4 10.6-0.7 17.5 5.6 38.3 75.6 106.8 59.3c19.9-41.6 68.8-45.2 139.7-60.5 60.4-13 74.4-92 9.8-103.6z" fill="#DB4C45" p-id="60055"></path><path d="M531.1 286.3l-19-42.1c-16.7-34.9-45-61.2-78.7-77.7C580.9 444.3 371.3 530 257.9 584.8l11.2 23.9 321.3-154-59.3-168.4zM913 430.4c-35.7-6.4-51.9 4-57.3 7.4l-11 23.2 39.1-81.8a179.1 179.1 0 0 0-71-231.8C921.2 295.2 677 508.2 636.7 492l-1.1 1.5 21.1 41.7 106.8 59.3c19.9-41.6 68.8-45.2 139.7-60.5 60.4-13 74.4-92 9.8-103.6z" fill="#B52D2D" p-id="60056"></path><path d="M192.566204 330.316604a81.4 122.7 54.6 1 0 200.032361-142.155599 81.4 122.7 54.6 1 0-200.032361 142.155599Z" fill="#F46464" p-id="60057"></path><path d="M225.915135 286.920608a54.5 77 60 1 0 133.367912-77 54.5 77 60 1 0-133.367912 77Z" fill="#FC9292" p-id="60058"></path><path d="M645.4 215.6a87 55.1 0 1 0 174 0 87 55.1 0 1 0-174 0Z" fill="#F46464" p-id="60059"></path><path d="M697.9 202a50 29.6 0 1 0 100 0 50 29.6 0 1 0-100 0Z" fill="#FC9292" p-id="60060"></path><path d="M516.9 301C422 256 368.5 248.4 335 289.2s2.9 169.3 255.4 159.1c0 0 134.1-38.2 148.6-177.8 12.8-123-127.4-73.9-158.5-43.5s-63.6 74-63.6 74z" fill="#FFB0B0" p-id="60061"></path><path d="M649.7 718.7l-8.1 16.1s20.9 43.3 22 51.3-30 73.5-37.7 80.8-64.4 20.6-64.4 20.6l77.2 3.5L692 777.2z" fill="#545454" p-id="60062"></path><path d="M582.3 866.1l-8.3-4.6s-45.4 4.3-54.2 2.3-70.3-63.7-70.3-63.7v6.9l61.8 76.3h51z" fill="#545454" p-id="60063"></path><path d="M195 463.2a5 5 0 0 1-4.5-2.8l-39.1-81.8c-43.8-91.6-4.8-201.8 86.8-245.5s201.8-4.8 245.5 86.8l111.2 232.6a5 5 0 0 1-9 4.3L474.7 224.2c-41.4-86.6-145.6-123.5-232.2-82.1a174.1 174.1 0 0 0-82.1 232.2l39.1 81.8a5 5 0 0 1-4.5 7.2z" fill="#3D3D3D" p-id="60064"></path><path d="M305.5 716.7a33.5 33.5 0 0 1-30.2-19L251.6 648a33.4 33.4 0 0 1 15.8-44.6l318.3-152.2a33.4 33.4 0 0 1 44.6 15.8l23.7 49.7a33.5 33.5 0 0 1-15.8 44.6l-2.2-4.5 2.2 4.5-318.3 152.1a33.3 33.3 0 0 1-14.4 3.3z m294.6-258.8a23.4 23.4 0 0 0-10.1 2.3L271.6 612.4a23.4 23.4 0 0 0-11 31.3l23.7 49.7a23.5 23.5 0 0 0 31.3 11L634 552.2a23.5 23.5 0 0 0 11-31.3l-23.7-49.7a23.5 23.5 0 0 0-21.2-13.3z" fill="#3D3D3D" p-id="60065"></path><path d="M267.1 614.1a5 5 0 0 1-4.5-2.8c-18.3-38.2-53.9-59.3-127.2-75.1-37.4-8.1-56.6-38.6-56.1-64.6a47 47 0 0 1 11.8-30.9c8.1-9.1 20.1-15.4 34.7-18 37.8-6.8 55.2 4.5 60.9 8.2a5 5 0 1 1-5.4 8.4c-4.9-3.2-19.7-12.8-53.6-6.7-23.6 4.2-37.9 18.9-38.3 39.2-0.4 21.9 16.1 47.7 48.2 54.6 37.8 8.2 65.1 17.6 85.9 29.6s38 29.5 48.2 51a5 5 0 0 1-4.5 7.2zM497.8 439.7c-25.7 0-49.4-2.3-71.1-7-36.2-7.7-66.1-21.7-88.8-41.5-25.6-22.4-40.7-52.1-40.2-79.4 0.4-25.5 17.9-50.5 45.5-65.1 20.5-10.9 45.1-15.3 71.1-12.8 30 2.9 61 14.6 92 34.9a5 5 0 0 1-5.5 8.4c-78.2-51.2-133.1-32.2-153-21.6-24.4 12.9-39.8 34.6-40.2 56.5-0.4 24.4 13.4 51.2 36.8 71.7 21.4 18.7 49.7 31.9 84.3 39.3 41.2 8.8 90.4 9 146.1 0.5a5 5 0 1 1 1.5 9.9 523.9 523.9 0 0 1-78.5 6.2z" fill="#3D3D3D" p-id="60066"></path><path d="M823.8 438.9a5 5 0 0 1-4.5-7.2l39.1-81.8c41.4-86.6 4.6-190.8-82.1-232.2s-190.8-4.6-232.2 82.1l-36 75.4a5 5 0 1 1-9-4.3l36-75.4a184.1 184.1 0 1 1 332.3 158.8L828.3 436a5 5 0 0 1-4.5 2.9zM713.3 692.3a33.3 33.3 0 0 1-14.4-3.3l-166.1-79.4a5 5 0 0 1 4.3-9L703.2 680a23.4 23.4 0 0 0 31.3-11l23.7-49.7a23.4 23.4 0 0 0-11-31.3l-97.6-46.6a5 5 0 1 1 4.3-9l97.6 46.6a33.4 33.4 0 0 1 15.8 44.6l-23.7 49.7a33.5 33.5 0 0 1-30.2 19z" fill="#3D3D3D" p-id="60067"></path><path d="M751.7 589.8a5 5 0 0 1-4.5-7.2c10.2-21.4 26-38.1 48.2-51s48.1-21.5 85.9-29.6c32.2-7 48.6-32.8 48.2-54.6-0.4-20.3-14.7-34.9-38.3-39.2-33.9-6.1-48.8 3.5-53.6 6.7a5 5 0 1 1-5.4-8.4c23-15 51.5-9.8 60.9-8.2 14.6 2.6 26.6 8.8 34.7 18a47 47 0 0 1 11.8 30.9c0.5 26-18.7 56.5-56.1 64.6-73.2 15.8-108.9 36.9-127.2 75.1a5 5 0 0 1-4.6 2.9zM575.6 433.5a5 5 0 0 1-1.8-9.7c47.9-18.3 82-40.7 104.3-68.2 19-23.5 26.2-46.8 32.6-67.3l0.7-2.2c10.1-32.7-6.5-69.9-38.6-86.7-14.6-7.6-38.8-14.2-71.2-2.5s-62.2 36.5-92.1 75.2a5 5 0 1 1-7.9-6.1c31.1-40.2 63.6-66.6 96.6-78.5 35.8-12.9 62.8-5.4 79.2 3.1 36.4 18.9 55.1 61.3 43.6 98.5l-0.7 2.1c-12.9 41.7-30.6 98.9-142.9 141.9a5 5 0 0 1-1.8 0.4zM678.3 886.5h-31.7a5 5 0 0 1 0-10h30.8l9.5-94.6-41.3-60.4a5 5 0 0 1 8.3-5.6l41.3 60.3a10.2 10.2 0 0 1 1.7 6.7l-9.5 95.5a9 9 0 0 1-9.1 8.1z" fill="#3D3D3D" p-id="60068"></path><path d="M638.7 896h-81.1a6.9 6.9 0 0 1-4.1-12.4l35.8-26.9 15.3-73.7a1.3 1.3 0 0 0-0.4-1.2l-18.8-17.7a5 5 0 1 1 6.9-7.3l18.8 17.7a11.4 11.4 0 0 1 3.3 10.5l-15.3 74a9.6 9.6 0 0 1-3.6 5.7L567 886h71.7a0.5 0.5 0 0 0 0.5-0.3l48.3-107.2a5 5 0 0 1 9.1 4.1l-48.3 107.2a10.6 10.6 0 0 1-9.6 6.2z" fill="#3D3D3D" p-id="60069"></path><path d="M567.6 780h-1.8a13.1 13.1 0 0 1-8.9-5.3l-29.2-39.6a14.2 14.2 0 0 1 3.1-20l82-59.6a13.5 13.5 0 0 1 18 1.9l30.2 33.9a15.7 15.7 0 0 1 0.6 20.3l-20.4 25.7-29.6-10.5a1.3 1.3 0 0 0-1.7 1.2v22.2l-34.2 26.9a13.1 13.1 0 0 1-8.1 2.9z m-30.9-56.8a4.2 4.2 0 0 0-0.9 6l29.2 39.5a3.2 3.2 0 0 0 4.6 0.6l30.4-23.9V728a11.3 11.3 0 0 1 15-10.6l22.9 8.1 16-20.1a5.8 5.8 0 0 0-0.2-7.4l-30.2-33.9a3.5 3.5 0 0 0-4.7-0.5l-82 59.6z" fill="#3D3D3D" p-id="60070"></path><path d="M550.3 792.1a13.2 13.2 0 0 1-6.6-1.8l-12.1-7a11.9 11.9 0 0 1-5.8-12.1l-0.2 0.2a13.5 13.5 0 0 1-16.1 0.9l-35.9-23.5a13.7 13.7 0 0 1-2.9-20.4l28-32.7a13.4 13.4 0 0 1 18.2-2c15.2 11.5 22.1 16.6 23.6 17.6a5 5 0 0 1 0.8 8.6c-3 2.2-5.5 0.4-8.5-1.8l-6.4-4.7-15.5-11.7a3.4 3.4 0 0 0-4.6 0.5l-28 32.7a3.7 3.7 0 0 0 0.8 5.6l35.8 23.5a3.6 3.6 0 0 0 4.2-0.2l6.9-5.7a7.6 7.6 0 0 1 11.9 8.5l-2.2 5.8a1.9 1.9 0 0 0 0.8 2.3l12.1 7a3.2 3.2 0 0 0 4.6-1.7l3.5-9.3a5 5 0 1 1 9.4 3.5l-3.5 9.3a13.2 13.2 0 0 1-12.4 8.6z m-14.9-80.4z m0 0z m1-0.6l-1 0.6z" fill="#3D3D3D" p-id="60071"></path><path d="M514.6 888.2a16.2 16.2 0 0 1-12.7-6.2L446 810.7a14.2 14.2 0 0 1-1-16l30.3-50.5a5 5 0 1 1 8.6 5.1l-30.3 50.5a4.2 4.2 0 0 0 0.3 4.7l55.9 71.3a6.2 6.2 0 0 0 5.1 2.4l49.7-1.8a5 5 0 1 1 0.4 10l-49.7 1.8z" fill="#3D3D3D" p-id="60072"></path><path d="M584.2 871.9a5 5 0 0 1-2.3-0.5l-21.7-11a9.3 9.3 0 0 1-3.5-3.1l-23.4-34.8a9.4 9.4 0 0 1-1.6-5.9l2.5-34.9a5 5 0 0 1 10 0.7l-2.5 34.7 23.1 34.4 21.5 10.9a5 5 0 0 1-2.3 9.5zM507 885.5h-32.1a14.2 14.2 0 0 1-13.6-10.3l-18.1-71.1a5 5 0 0 1 9.7-2.5l18.1 71.1a4.1 4.1 0 0 0 4 3h32a5 5 0 0 1 0 10zM296 843.3h-13.2a5 5 0 0 1-5-5v-13.2a5 5 0 0 0-5-5 5 5 0 0 0-5 5v13.2a5 5 0 0 1-5 5h-13.3a5 5 0 0 0-5 5 5 5 0 0 0 5 5h13.2a5 5 0 0 1 5 5v13.2a5 5 0 0 0 5 5 5 5 0 0 0 5-5v-13.1a5 5 0 0 1 5-5H296a5 5 0 0 0 5-5 5 5 0 0 0-5-5.1zM388.3 779.3h-17.8a6.8 6.8 0 0 1-6.8-6.8v-17.8a6.8 6.8 0 0 0-6.8-6.8 6.8 6.8 0 0 0-6.8 6.8v17.8a6.8 6.8 0 0 1-6.8 6.8h-17.8a6.8 6.8 0 0 0-6.8 6.8 6.8 6.8 0 0 0 6.8 6.8h17.8a6.8 6.8 0 0 1 6.8 6.8v17.8a6.8 6.8 0 0 0 6.8 6.8 6.8 6.8 0 0 0 6.8-6.8v-17.9a6.8 6.8 0 0 1 6.8-6.8h17.8a6.8 6.8 0 0 0 6.8-6.8 6.8 6.8 0 0 0-6.8-6.7zM663.3 789.7a5 5 0 0 1-3.9-1.9l-45.2-56.6a5 5 0 1 1 7.8-6.2l45.2 56.6a5 5 0 0 1-3.9 8.1zM472.3 806.5a5 5 0 0 1-4.2-7.6l25.4-41a5 5 0 1 1 8.5 5.3l-25.4 41a5 5 0 0 1-4.3 2.3z" fill="#3D3D3D" p-id="60073"></path><path d="M392.5 328.8m-42.1 0a42.1 42.1 0 1 0 84.2 0 42.1 42.1 0 1 0-84.2 0Z" fill="#FFD4D4" p-id="60074"></path></svg>