<?xml version="1.0" standalone="no"?><!DOCTYPE svg PUBLIC "-//W3C//DTD SVG 1.1//EN" "http://www.w3.org/Graphics/SVG/1.1/DTD/svg11.dtd"><svg t="1749886805124" class="icon" viewBox="0 0 1024 1024" version="1.1" xmlns="http://www.w3.org/2000/svg" p-id="236393" xmlns:xlink="http://www.w3.org/1999/xlink" width="200" height="200"><path d="M0 0h1024v1024H0z" fill="#FFFFFF" fill-opacity="0" p-id="236394"></path><path d="M277.333333 648.533333c-12.8 0-21.333333-8.533333-21.333333-21.333333V512c0-68.266667 17.066667-132.266667 55.466667-187.733333 8.533333-8.533333 21.333333-8.533333 29.866666-4.266667 8.533333 8.533333 12.8 21.333333 4.266667 29.866667C315.733333 396.8 298.666667 456.533333 298.666667 512v115.2c0 12.8-8.533333 21.333333-21.333334 21.333333z" fill="#FFFFFF" p-id="236395"></path><path d="M255.701333 596.864h512c93.866667 0 170.666667 76.8 170.666667 170.666667s-76.8 170.666667-170.666667 170.666666h-512c-93.866667 0-170.666667-76.8-170.666666-170.666666s76.8-170.666667 170.666666-170.666667z" fill="#175C40" p-id="236396"></path><path d="M767.701333 959.530667h-512c-106.666667 0-192-85.333333-192-192s85.333333-192 192-192h512c106.666667 0 192 85.333333 192 192s-85.333333 192-192 192z m-512-341.333334c-81.066667 0-149.333333 68.266667-149.333333 149.333334s68.266667 149.333333 149.333333 149.333333h512c81.066667 0 149.333333-68.266667 149.333334-149.333333s-68.266667-149.333333-149.333334-149.333334h-512z" fill="#0D3F2B" p-id="236397"></path><path d="M848.768 345.130667c-4.266667-21.333333-21.333333-29.866667-46.933333-42.666667l-106.666667-29.866667c-25.6-8.533333-46.933333-21.333333-59.733333-42.666666l-72.533334-110.933334c-8.533333-17.066667-29.866667-29.866667-51.2-34.133333-21.333333 0-42.666667 12.8-51.2 34.133333l-59.733333 98.133334c-12.8 21.333333-34.133333 38.4-59.733333 42.666666-25.6 8.533333-46.933333 12.8-68.266667 21.333334l-55.466667 17.066666c-21.333333 4.266667-38.4 17.066667-46.933333 38.4-4.266667 21.333333 0 46.933333 12.8 64 0 0 0 4.266667 4.266667 4.266667 25.6 29.866667 46.933333 59.733333 72.533333 89.6 17.066667 21.333333 21.333333 42.666667 21.333333 68.266667-4.266667 42.666667-4.266667 89.6-4.266666 132.266666-4.266667 21.333333 0 42.666667 12.8 59.733334 8.533333 8.533333 21.333333 12.8 29.866666 12.8 12.8 0 29.866667-4.266667 42.666667-8.533334l98.133333-42.666666c25.6-8.533333 51.2-8.533333 76.8 0 38.4 12.8 81.066667 29.866667 119.466667 42.666666 8.533333 4.266667 21.333333 4.266667 29.866667 4.266667 21.333333 0 55.466667-8.533333 55.466666-68.266667v-4.266666c-4.266667-29.866667-4.266667-81.066667-8.533333-115.2-4.266667-25.6 4.266667-46.933333 21.333333-68.266667l81.066667-106.666667c12.8-12.8 17.066667-34.133333 12.8-55.466666z" fill="#FFB764" p-id="236398"></path><path d="M319.701333 788.864c-17.066667 0-34.133333-4.266667-46.933333-17.066667l-4.266667-4.266666c-12.8-21.333333-21.333333-46.933333-17.066666-72.533334v-64c0-21.333333 0-46.933333 4.266666-68.266666 0-21.333333-4.266667-38.4-17.066666-55.466667l-8.533334-17.066667-51.2-64h-12.8v-17.066666c-17.066667-21.333333-21.333333-51.2-12.8-76.8 12.8-29.866667 34.133333-51.2 64-55.466667l51.2-17.066667c25.6-8.533333 46.933333-17.066667 68.266667-21.333333 21.333333-4.266667 38.4-17.066667 51.2-34.133333l59.733333-98.133334c12.8-25.6 38.4-42.666667 68.266667-42.666666 29.866667 4.266667 55.466667 21.333333 68.266667 46.933333l72.533333 106.666667c12.8 17.066667 29.866667 29.866667 46.933333 34.133333l106.666667 29.866667c25.6 8.533333 55.466667 25.6 64 55.466666 4.266667 25.6 0 55.466667-17.066667 76.8l-81.066666 106.666667c-12.8 17.066667-17.066667 34.133333-17.066667 55.466667l4.266667 51.2c0 25.6 4.266667 46.933333 4.266666 68.266666v4.266667c-4.266667 64-42.666667 89.6-76.8 89.6-12.8 0-25.6-4.266667-34.133333-4.266667-21.333333-8.533333-42.666667-17.066667-59.733333-21.333333-21.333333-8.533333-38.4-12.8-59.733334-21.333333-21.333333-8.533333-42.666667-8.533333-59.733333 0l-98.133333 42.666666c-21.333333 0-38.4 4.266667-59.733334 4.266667 4.266667 0 4.266667 0 0 0z m-12.8-46.933333c4.266667 4.266667 8.533333 4.266667 17.066667 4.266666 12.8 0 21.333333-4.266667 34.133333-8.533333l102.4-42.666667c29.866667-12.8 64-12.8 89.6 0 17.066667 8.533333 38.4 12.8 59.733334 21.333334 21.333333 8.533333 38.4 12.8 59.733333 21.333333 4.266667 0 12.8 4.266667 21.333333 4.266667 21.333333 0 34.133333-17.066667 34.133334-46.933334 0-17.066667-4.266667-42.666667-4.266667-68.266666l-4.266667-51.2c-4.266667-29.866667 4.266667-59.733333 25.6-81.066667l81.066667-106.666667c8.533333-12.8 12.8-25.6 12.8-42.666666 0-8.533333-8.533333-17.066667-34.133333-25.6l-102.4-29.866667c-29.866667-8.533333-55.466667-25.6-72.533334-51.2l-72.533333-110.933333c-8.533333-12.8-21.333333-21.333333-34.133333-25.6-12.8 0-25.6 8.533333-29.866667 21.333333l-59.733333 98.133333c-17.066667 25.6-42.666667 46.933333-72.533334 55.466667-21.333333 8.533333-42.666667 12.8-64 21.333333l-68.266666 21.333334c-17.066667 4.266667-25.6 12.8-34.133334 25.6-4.266667 12.8 0 25.6 8.533334 38.4l4.266666 4.266666c21.333333 25.6 38.4 51.2 59.733334 76.8l12.8 17.066667c17.066667 21.333333 29.866667 51.2 25.6 81.066667 0 21.333333 0 42.666667-4.266667 68.266666 0 21.333333 0 46.933333-4.266667 68.266667 4.266667 17.066667 4.266667 29.866667 12.8 42.666667z" fill="#0D3F2B" p-id="236399"></path><path d="M345.301333 379.264l-17.066666-42.666667c21.333333-8.533333 42.666667-12.8 68.266666-21.333333 21.333333-4.266667 38.4-17.066667 51.2-34.133333l34.133334-55.466667c4.266667-8.533333 17.066667-12.8 29.866666-8.533333 8.533333 4.266667 12.8 17.066667 8.533334 29.866666l-34.133334 55.466667c-17.066667 25.6-42.666667 46.933333-72.533333 55.466667-25.6 4.266667-46.933333 12.8-68.266667 21.333333z" fill="#0D3F2B" p-id="236400"></path></svg>