<?xml version="1.0" standalone="no"?><!DOCTYPE svg PUBLIC "-//W3C//DTD SVG 1.1//EN" "http://www.w3.org/Graphics/SVG/1.1/DTD/svg11.dtd"><svg t="1748698908317" class="icon" viewBox="0 0 1084 1024" version="1.1" xmlns="http://www.w3.org/2000/svg" p-id="71368" xmlns:xlink="http://www.w3.org/1999/xlink" width="211.71875" height="200"><path d="M994.876235 903.529412c0.602353-9.999059 1.445647-321.114353 1.445647-331.294118 0-264.372706-203.745882-479.442824-454.204235-479.442823C291.659294 92.792471 87.913412 307.862588 87.913412 572.235294c0 10.179765 0.843294 321.295059 1.445647 331.294118H1.445647C0.933647 893.500235 0 582.415059 0 572.235294 0 256.692706 243.2 0 542.117647 0s542.117647 256.692706 542.117647 572.235294c0 10.179765-0.933647 321.264941-1.445647 331.294118h-87.913412z" fill="#333333" p-id="71369"></path><path d="M150.588235 572.235294a150.588235 150.588235 0 0 1 150.588236 150.588235v150.588236a150.588235 150.588235 0 0 1-301.176471 0v-150.588236a150.588235 150.588235 0 0 1 150.588235-150.588235zM933.647059 572.235294a150.588235 150.588235 0 0 1 150.588235 150.588235v150.588236a150.588235 150.588235 0 0 1-301.17647 0v-150.588236a150.588235 150.588235 0 0 1 150.588235-150.588235z" fill="#F05555" p-id="71370"></path></svg>