<?xml version="1.0" standalone="no"?><!DOCTYPE svg PUBLIC "-//W3C//DTD SVG 1.1//EN" "http://www.w3.org/Graphics/SVG/1.1/DTD/svg11.dtd"><svg t="1750974110441" class="icon" viewBox="0 0 1024 1024" version="1.1" xmlns="http://www.w3.org/2000/svg" p-id="75387" xmlns:xlink="http://www.w3.org/1999/xlink" width="256" height="256"><path d="M153.6 0h716.8a153.6 153.6 0 0 1 153.6 153.6v716.8a153.6 153.6 0 0 1-153.6 153.6H153.6a153.6 153.6 0 0 1-153.6-153.6V153.6a153.6 153.6 0 0 1 153.6-153.6z" fill="#DE4D26" p-id="75388"></path><path d="M442.112 796.416c-28.416 8.96-45.568 34.304-36.352 53.76a158.208 158.208 0 0 0 38.4 48.384l11.776 8.448a79.872 79.872 0 0 0 84.48 4.608l11.52-8.192a137.216 137.216 0 0 0 29.952-29.952 54.272 54.272 0 0 1 6.656-9.728c21.76-25.6 4.096-60.672-32.768-67.072a57.856 57.856 0 0 0-42.496 11.264c-11.008 6.912-14.08 6.656-31.488-3.584a45.312 45.312 0 0 0-39.68-7.936" fill="#271B18" p-id="75389"></path><path d="M1024 786.688a1078.528 1078.528 0 0 0-128-3.584 386.56 386.56 0 0 0-123.136 12.544 71.68 71.68 0 0 1-18.432 2.816 85.76 85.76 0 0 0-35.072 8.192 156.16 156.16 0 0 1-33.28 10.24 49.408 49.408 0 0 0-11.008 3.584l-6.912 2.816-6.912 2.816a156.416 156.416 0 0 1-15.104 5.888 86.784 86.784 0 0 0-14.592 6.912 91.904 91.904 0 0 1-17.92 9.216c-6.144 2.56-8.704 5.12-40.96 38.912a122.624 122.624 0 0 1-16.896 14.592l-13.568 9.472a84.224 84.224 0 0 1-49.664 12.8 238.336 238.336 0 0 1-36.608-14.08 139.264 139.264 0 0 1-25.6-20.992A148.48 148.48 0 0 0 384 849.152a131.84 131.84 0 0 1-19.2-10.752 25.6 25.6 0 0 0-8.192-4.352 117.248 117.248 0 0 1-29.184-11.008 79.872 79.872 0 0 0-22.528-7.424 69.376 69.376 0 0 1-25.6-8.704 75.264 75.264 0 0 0-25.6-7.68c-4.096 0-13.312-2.048-19.968-3.584a395.776 395.776 0 0 0-48.64-7.68 129.792 129.792 0 0 1-15.104-2.56 1244.416 1244.416 0 0 0-168.96 0V870.4a153.6 153.6 0 0 0 153.6 153.6H870.4a153.6 153.6 0 0 0 153.6-153.6z" fill="#E1C7AB" p-id="75390"></path><path d="M244.224 308.224m64 0l0 0q64 0 64 64l0 126.72q0 64-64 64l0 0q-64 0-64-64l0-126.72q0-64 64-64Z" fill="#271B18" p-id="75391"></path><path d="M626.176 308.224m64 0l0 0q64 0 64 64l0 126.72q0 64-64 64l0 0q-64 0-64-64l0-126.72q0-64 64-64Z" fill="#271B18" p-id="75392"></path><path d="M244.224 409.6v51.2a9.728 9.728 0 0 0 15.872 7.424l30.976-25.6a9.728 9.728 0 0 0 0-14.848l-30.976-25.6a9.728 9.728 0 0 0-15.872 7.424zM626.176 409.6v51.2a9.728 9.728 0 0 0 15.872 7.424l31.232-25.6a9.728 9.728 0 0 0 0-14.848l-31.232-25.6a9.728 9.728 0 0 0-15.872 7.424z" fill="#FFFFFF" p-id="75393"></path></svg>