<?xml version="1.0" standalone="no"?><!DOCTYPE svg PUBLIC "-//W3C//DTD SVG 1.1//EN" "http://www.w3.org/Graphics/SVG/1.1/DTD/svg11.dtd"><svg t="1750341440310" class="icon" viewBox="0 0 1024 1024" version="1.1" xmlns="http://www.w3.org/2000/svg" p-id="252398" width="240" height="240" xmlns:xlink="http://www.w3.org/1999/xlink"><path d="M795.4 198.4h-29l-27.1-87.2H284.8l-27.1 87.2h-29c-13.8 0-24.9 11.2-24.9 24.9V268c0 13.8 11.2 24.9 24.9 24.9h30L293 878.1c0 20.5 16.6 37.2 37.2 37.2h363.7c20.5 0 37.2-16.6 37.2-37.2L765.5 293h30c13.8 0 24.9-11.2 24.9-24.9v-44.7c-0.1-13.9-11.3-25-25-25z" fill="#FFFFFF" p-id="252399"></path><path d="M241.6 285.2h540.8v15.1H241.6zM241.6 195.6h540.8v15.1H241.6z" fill="#DFDDDE" p-id="252400"></path><path d="M795.4 185.3H776l-24.2-78c-1.7-5.5-6.8-9.2-12.5-9.2h-85.1l-4.9 830.3h44.5c27.6 0 50.1-22.3 50.3-49.9L777.7 306h17.6c21 0 38-17.1 38-38v-44.7c0.1-21-17-38-37.9-38z" opacity=".05" p-id="252401"></path><path d="M693.8 928.3H330.2c-27.6 0-50-22.3-50.2-49.8L246.3 306h-17.7c-20.9 0-38-17-38-38v-44.7c0-20.9 17-38 38-38h19.5l24.2-78c1.7-5.5 6.7-9.2 12.4-9.2h454.5c5.7 0 10.8 3.7 12.4 9.2l24.2 78h19.5c20.9 0 38 17 38 38V268c0 20.9-17 38-38 38h-17.7L744 878.5c-0.2 27.5-22.6 49.8-50.2 49.8zM228.6 211.4c-6.6 0-11.9 5.3-11.9 11.9V268c0 6.6 5.3 11.9 11.9 11.9h30c6.9 0 12.6 5.4 13 12.3L306 877.3v0.8c0 13.3 10.8 24.2 24.2 24.2h363.7c13.3 0 24.2-10.8 24.2-24.2v-0.8l34.4-585.1c0.4-6.9 6.1-12.3 13-12.3h30c6.6 0 11.9-5.3 11.9-11.9v-44.7c0-6.6-5.3-11.9-11.9-11.9h-29c-5.7 0-10.8-3.7-12.4-9.2l-24.2-78H294.4l-24.2 78c-1.7 5.5-6.7 9.2-12.4 9.2h-29.2z" fill="#919191" p-id="252402"></path><path d="M746 777.7H278c-7.3 0-13.2-5.9-13.2-13.2l-27.9-384.6c0-7.3 5.9-13.2 13.2-13.2h523.8c7.3 0 13.2 5.9 13.2 13.2l-27.9 384.6c0.1 7.3-5.9 13.2-13.2 13.2z" fill="#D63036" p-id="252403"></path><path d="M480.6 577.4c-1.1-0.1-2.2-0.2-3.3-0.2-19.5 0-35.2 15.8-35.2 35.2 0 12.4 6.4 23.3 16.1 29.5-3.6-5.5-5.7-12.1-5.7-19.1 0-19.4 15.8-35.2 35.2-35.2 1.1 0 2.2 0.1 3.3 0.2 4.8 0.5 9-3.3 9-8.2V552c0-4.3-3.4-7.9-7.7-8.2-0.9-0.1-1.8-0.1-2.7-0.1v25.5c0.1 4.9-4.1 8.6-9 8.2zM579.4 489.6c-6.4-8.2-10.6-18.1-12-28.9-0.5-4.1-4-7.2-8.2-7.2h-1.8c2.7 14.5 10.7 27.3 22 36.1z" fill="#FE1955" p-id="252404"></path><path d="M618.8 511.9c-1.1-0.1-2.2-0.3-3.3-0.5v33.8c0 0.2-0.1 0.3-0.3 0.3-17.1 0-33.2-4.2-47.3-11.5-5.5-2.8-12 1.1-12 7.3V612c0 43.6-35.3 78.9-78.9 78.9-19.1 0-36.7-6.8-50.4-18.1 14.5 17.4 36.3 28.6 60.8 28.6 43.6 0 78.9-35.3 78.9-78.9v-70.7c0-6.2 6.6-10.1 12-7.3 14.2 7.4 30.3 11.5 47.3 11.5 0.2 0 0.3-0.1 0.3-0.3V520c0.1-4.1-3-7.6-7.1-8.1z" fill="#FE1955" p-id="252405"></path><path d="M615.6 511.4v-1.8c0-4.1-3.1-7.6-7.2-8.1-10.9-1.3-20.8-5.6-29-12 8.7 11.3 21.5 19.3 36.2 21.9zM487.4 543.7h2.3v-2.1c0-4.3-3.4-7.9-7.7-8.2-1.7-0.1-3.3-0.2-5-0.2-43.6 0-78.9 35.3-78.9 78.9 0 24.4 11.1 46.3 28.6 60.7-11.3-13.7-18.1-31.2-18.1-50.3-0.2-43.5 35.2-78.8 78.8-78.8z" fill="#24F4EE" p-id="252406"></path><path d="M487.7 658c19.5 0 35.2-15.8 35.2-35.2V461.6c0-4.5 3.7-8.2 8.2-8.2h26.3c-0.2-1.1-0.4-2.1-0.5-3.2-0.5-4.1-4-7.2-8.2-7.2h-28.1c-4.5 0-8.2 3.7-8.2 8.2V612.4c0 19.4-15.8 35.2-35.2 35.2-7.1 0-13.6-2.1-19.1-5.7 6.3 9.7 17.2 16.1 29.6 16.1z" fill="#24F4EE" p-id="252407"></path><path d="M555.9 612.1v-70.7c0-6.2 6.6-10.1 12-7.3 14.2 7.4 30.3 11.5 47.3 11.5 0.2 0 0.3-0.1 0.3-0.3v-33.8c-14.6-2.6-27.4-10.6-36.2-21.9-11.3-8.8-19.3-21.5-21.9-36.2h-26.3c-4.5 0-8.2 3.7-8.2 8.2V622.8c0 19.4-15.8 35.2-35.2 35.2-12.4 0-23.3-6.4-29.6-16.1-9.7-6.3-16.1-17.2-16.1-29.5 0-19.4 15.8-35.2 35.2-35.2 1.1 0 2.2 0.1 3.3 0.2 4.8 0.5 9-3.3 9-8.2v-25.5h-2.3c-43.6 0-78.9 35.3-78.9 78.9 0 19.1 6.8 36.7 18.1 50.3 13.7 11.3 31.2 18.1 50.4 18.1 43.7-0.1 79.1-35.4 79.1-78.9z" fill="#FFFFFF" p-id="252408"></path></svg>