<?xml version="1.0" standalone="no"?><!DOCTYPE svg PUBLIC "-//W3C//DTD SVG 1.1//EN" "http://www.w3.org/Graphics/SVG/1.1/DTD/svg11.dtd"><svg t="1751720842764" class="icon" viewBox="0 0 1024 1024" version="1.1" xmlns="http://www.w3.org/2000/svg" p-id="22412" xmlns:xlink="http://www.w3.org/1999/xlink" width="256" height="256"><path d="M778.24 947.2H143.36c-53.248 0-96.256-43.008-96.256-96.256V275.456c0-53.248 43.008-96.256 96.256-96.256h634.88c53.248 0 96.256 43.008 96.256 96.256v575.488c0 53.248-43.008 96.256-96.256 96.256z m-634.88-706.56c-19.456 0-34.816 15.36-34.816 34.816v575.488c0 19.456 15.36 34.816 34.816 34.816h634.88c19.456 0 34.816-15.36 34.816-34.816V275.456c0-19.456-15.36-34.816-34.816-34.816H143.36z" p-id="22413" fill="#ffffff"></path><path d="M946.176 844.8c-17.408 0-30.72-13.312-30.72-30.72V244.736c0-58.368-48.128-106.496-106.496-106.496H180.224c-17.408 0-30.72-13.312-30.72-30.72s13.312-30.72 30.72-30.72H808.96c93.184 0 167.936 75.776 167.936 167.936v569.344c0 17.408-13.312 30.72-30.72 30.72z" p-id="22414" fill="#ffffff"></path><path d="M77.824 834.56c-11.264 0-21.504-6.144-26.624-16.384-8.192-15.36-2.048-33.792 12.288-41.984l512-276.48c12.288-7.168 27.648-4.096 36.864 6.144L739.328 645.12c11.264 12.288 10.24 31.744-2.048 43.008s-31.744 10.24-43.008-2.048L583.68 565.248 92.16 830.464c-4.096 3.072-9.216 4.096-14.336 4.096zM287.744 547.84c-53.248 0-97.28-44.032-97.28-97.28s44.032-97.28 97.28-97.28 97.28 44.032 97.28 97.28-44.032 97.28-97.28 97.28z m0-133.12c-19.456 0-35.84 16.384-35.84 35.84s16.384 35.84 35.84 35.84 35.84-16.384 35.84-35.84-16.384-35.84-35.84-35.84z" p-id="22415" fill="#ffffff"></path></svg>