<?xml version="1.0" standalone="no"?><!DOCTYPE svg PUBLIC "-//W3C//DTD SVG 1.1//EN" "http://www.w3.org/Graphics/SVG/1.1/DTD/svg11.dtd"><svg t="1749843175978" class="icon" viewBox="0 0 1365 1024" version="1.1" xmlns="http://www.w3.org/2000/svg" p-id="142758" xmlns:xlink="http://www.w3.org/1999/xlink" width="266.6015625" height="200"><path d="M682.666667 1024c-496.64 0-682.666667-512-682.666667-512s186.026667-512 682.666667-512 682.666667 512 682.666666 512-186.026667 512-682.666666 512z m0-104.106667c395.093333 0 543.573333-407.893333 543.573333-407.893333S1077.76 104.106667 682.666667 104.106667 139.093333 512 139.093333 512 287.573333 919.893333 682.666667 919.893333z m100.693333-697.173333A154.453333 154.453333 0 0 0 682.666667 386.56a164.693333 164.693333 0 0 0 145.066666 133.12A170.666667 170.666667 0 0 0 1008.64 426.666667a301.226667 301.226667 0 0 1-150.186667 360.106666 365.226667 365.226667 0 0 1-417.28-46.933333 293.546667 293.546667 0 0 1-51.2-382.293333 356.693333 356.693333 0 0 1 393.386667-134.826667z" fill="#999999" p-id="142759"></path></svg>