<?xml version="1.0" standalone="no"?><!DOCTYPE svg PUBLIC "-//W3C//DTD SVG 1.1//EN" "http://www.w3.org/Graphics/SVG/1.1/DTD/svg11.dtd"><svg t="1749878440419" class="icon" viewBox="0 0 1024 1024" version="1.1" xmlns="http://www.w3.org/2000/svg" p-id="182219" xmlns:xlink="http://www.w3.org/1999/xlink" width="200" height="200"><path d="M810.666667 938.666667H213.333333a85.333333 85.333333 0 0 1-85.333333-85.333334V170.666667a85.333333 85.333333 0 0 1 85.333333-85.333334h426.666667a42.026667 42.026667 0 0 1 36.181333 21.333334 39.296 39.296 0 0 1 8.533334 5.717333l181.034666 181.034667a40.576 40.576 0 0 1 6.912 10.410666A42.24 42.24 0 0 1 896 341.333333v512a85.333333 85.333333 0 0 1-85.333333 85.333334zM640 188.330667V341.333333h153.002667zM810.666667 426.666667h-170.666667a85.333333 85.333333 0 0 1-85.333333-85.333334V170.666667H256a42.666667 42.666667 0 0 0-42.666667 42.666666v597.333334a42.666667 42.666667 0 0 0 42.666667 42.666666h512a42.666667 42.666667 0 0 0 42.666667-42.666666v-384z m-170.666667 298.666666H384a42.666667 42.666667 0 0 1 0-85.333333h256a42.666667 42.666667 0 0 1 0 85.333333z m0-170.666666H384a42.666667 42.666667 0 0 1 0-85.333334h256a42.666667 42.666667 0 0 1 0 85.333334z" p-id="182220"></path></svg>