<?xml version="1.0" standalone="no"?><!DOCTYPE svg PUBLIC "-//W3C//DTD SVG 1.1//EN" "http://www.w3.org/Graphics/SVG/1.1/DTD/svg11.dtd"><svg t="1748797087669" class="icon" viewBox="0 0 1024 1024" version="1.1" xmlns="http://www.w3.org/2000/svg" p-id="66432" xmlns:xlink="http://www.w3.org/1999/xlink" width="200" height="200"><path d="M514.6624 512m-460.8 0a460.8 460.8 0 1 0 921.6 0 460.8 460.8 0 1 0-921.6 0Z" fill="#434341" p-id="66433"></path><path d="M450.56 374.7328H363.52a46.6944 46.6944 0 0 0-38.7584 20.48l-86.1184 128.768a27.136 27.136 0 0 0 22.528 42.24h101.4272c4.1472 37.0176 22.1184 61.44 34.048 71.68a121.4464 121.4464 0 0 0 80.384 33.3312l-0.4608 96.768a27.1872 27.1872 0 0 0 42.1888 22.7328l128.9216-85.6064a46.9504 46.9504 0 0 0 20.8896-38.7072l0.4096-93.1328q6.7072-6.144 13.5168-12.7488c79.7184-76.8 101.4272-209.152 107.52-275.5072a38.7584 38.7584 0 0 0-39.168-42.3936A424.96 424.96 0 0 0 450.56 374.7328zM623.36 471.04a55.9104 55.9104 0 1 1 55.8592-55.8592A55.8592 55.8592 0 0 1 623.36 471.04z" fill="#FBD180" p-id="66434"></path><path d="M316.928 592.64s43.4688 96.8192 128 123.1872c-36.2496 42.9568-29.952 34.3552-47.616 54.3744-19.968 22.5792-60.0576 11.8784-59.0336-18.6368-30.0032 23.808-104.1408 18.6368-55.3472-60.0576-40.3968 0-49.2032-39.3216-18.1248-62.6176s52.1216-36.2496 52.1216-36.2496z" fill="#FBD180" p-id="66435"></path></svg>