<?xml version="1.0" standalone="no"?><!DOCTYPE svg PUBLIC "-//W3C//DTD SVG 1.1//EN" "http://www.w3.org/Graphics/SVG/1.1/DTD/svg11.dtd"><svg t="1748796472553" class="icon" viewBox="0 0 1024 1024" version="1.1" xmlns="http://www.w3.org/2000/svg" p-id="65762" xmlns:xlink="http://www.w3.org/1999/xlink" width="200" height="200"><path d="M513.6896 512m-460.8 0a460.8 460.8 0 1 0 921.6 0 460.8 460.8 0 1 0-921.6 0Z" fill="#434341" p-id="65763"></path><path d="M507.7504 794.88a31.0272 31.0272 0 0 1-14.3872-3.584l-263.6288-139.6736a30.72 30.72 0 0 1 28.7744-54.272l249.9072 132.4032 258.1504-124.3648a30.72 30.72 0 0 1 26.6752 55.3472l-272.1792 131.072a30.3616 30.3616 0 0 1-13.312 3.072z" fill="#FBD180" p-id="65764"></path><path d="M507.7504 660.48a30.4128 30.4128 0 0 1-14.3872-3.584L229.7344 517.12a30.72 30.72 0 0 1 28.7744-54.272l249.9072 132.352L766.5664 471.04a30.72 30.72 0 1 1 26.6752 55.3472l-272.1792 131.1232a31.0272 31.0272 0 0 1-13.312 2.9696z" fill="#FBD180" p-id="65765"></path><path d="M249.5488 343.04L486.4 212.4288a30.72 30.72 0 0 1 29.1328 0L776.2432 353.28a30.4128 30.4128 0 0 1-1.4336 54.2208l-255.3856 121.2416a30.208 30.208 0 0 1-27.5456-0.768l-242.176-131.84A30.4128 30.4128 0 0 1 249.5488 343.04z" fill="#FBD180" p-id="65766"></path></svg>