<?xml version="1.0" standalone="no"?><!DOCTYPE svg PUBLIC "-//W3C//DTD SVG 1.1//EN" "http://www.w3.org/Graphics/SVG/1.1/DTD/svg11.dtd"><svg t="1749751077049" class="icon" viewBox="0 0 1024 1024" version="1.1" xmlns="http://www.w3.org/2000/svg" p-id="106015" xmlns:xlink="http://www.w3.org/1999/xlink" width="200" height="200"><path d="M109.7216 877.7216a36.5568 36.5568 0 0 1-36.5568-36.5568V438.784H950.784v402.3296c0 20.1728-16.384 36.5568-36.5568 36.5568H109.7216z m698.0608-178.688c23.4496-20.224 37.3248-46.592 41.6256-79.1552 4.2496-32.4608-2.7136-58.88-20.8896-79.104-17.5104-19.2-40.96-28.7744-70.2976-28.7744h-134.8096l-53.76 74.3936h185.0368c9.1136 0 16.4352 2.9184 21.9136 8.8576 5.4272 5.9392 7.5264 14.0288 6.144 24.2688a38.144 38.144 0 0 1-12.5952 24.6784 35.7888 35.7888 0 0 1-24.2688 9.3184h-185.088l-19.3024 146.6368h66.6624l9.5232-72.3456h112.0256c29.5424 0 55.552-9.5744 78.08-28.7744zM476.2624 512l-37.888 288.1536h66.7136L542.9248 512H476.2624z m-236.3904 259.7376c7.8848 21.8624 17.2032 32.768 28.0064 32.768 10.752 0 22.528-10.752 35.4816-32.3072L459.776 512H386.8672L282.112 690.2272 218.624 512H146.2784l93.5936 259.7376z" fill="#ADB2BC" p-id="106016"></path><path d="M950.8352 365.7216H73.216V182.784c0-20.1728 16.384-36.5568 36.5568-36.5568h804.5568c20.224 0 36.5568 16.384 36.5568 36.5568v182.8864z" fill="#727888" p-id="106017"></path></svg>