<?xml version="1.0" standalone="no"?><!DOCTYPE svg PUBLIC "-//W3C//DTD SVG 1.1//EN" "http://www.w3.org/Graphics/SVG/1.1/DTD/svg11.dtd"><svg t="1751119107166" class="icon" viewBox="0 0 1024 1024" version="1.1" xmlns="http://www.w3.org/2000/svg" p-id="2393" xmlns:xlink="http://www.w3.org/1999/xlink" width="256" height="256"><path d="M315.84 322.624c-20.032 0-40.128 13.312-40.128 33.472 0 19.904 20.096 33.28 40.128 33.28 19.968 0 33.216-13.376 33.216-33.28 0-20.16-13.312-33.472-33.216-33.472zM588.8 516.032c-13.248 0-26.624 13.376-26.624 26.496 0 13.568 13.376 26.688 26.624 26.688 20.16 0 33.344-13.056 33.344-26.688 0.064-13.12-13.12-26.496-33.344-26.496z" fill="#61BA46" p-id="2394"></path><path d="M958.016 204.416A136.384 136.384 0 0 0 821.568 68.032H198.464A136.448 136.448 0 0 0 62.016 204.416V827.52c0 75.52 61.12 136.512 136.448 136.512h623.104A136.32 136.32 0 0 0 958.016 827.52V204.416zM402.304 662.592c-33.28 0-59.968-6.784-93.312-13.376l-93.056 46.72 26.624-80.128C175.872 569.152 136 509.248 136 435.968c0-126.656 119.872-226.496 266.304-226.496 131.008 0 245.76 79.744 268.8 187.136a245.824 245.824 0 0 0-25.792-1.472c-126.464 0-226.304 94.272-226.304 210.624 0 19.456 2.944 38.144 8.192 55.808a354.816 354.816 0 0 1-24.896 1.024z m392.96 93.44l20.032 66.432-73.216-39.872c-26.56 6.592-53.376 13.12-79.808 13.12-126.72 0-226.56-86.656-226.56-193.152 0-106.496 99.84-193.344 226.56-193.344 119.616 0 226.176 86.912 226.176 193.344 0.064 60.032-39.744 113.344-93.184 153.472z" fill="#61BA46" p-id="2395"></path><path d="M735.232 516.032c-13.056 0-26.368 13.376-26.368 26.496 0 13.568 13.312 26.688 26.368 26.688 20.032 0 33.408-13.056 33.408-26.688 0.064-13.12-13.312-26.496-33.408-26.496zM502.208 389.376c20.032 0 33.408-13.376 33.408-33.28 0-20.16-13.312-33.472-33.408-33.472-19.968 0-40 13.312-40 33.472 0 19.904 20.032 33.28 40 33.28z" fill="#61BA46" p-id="2396"></path></svg>