<?xml version="1.0" standalone="no"?><!DOCTYPE svg PUBLIC "-//W3C//DTD SVG 1.1//EN" "http://www.w3.org/Graphics/SVG/1.1/DTD/svg11.dtd"><svg t="1750974280737" class="icon" viewBox="0 0 1024 1024" version="1.1" xmlns="http://www.w3.org/2000/svg" p-id="91943" xmlns:xlink="http://www.w3.org/1999/xlink" width="256" height="256"><path d="M851.78442412-2.42297382H168.59971381c-96.29688062 0-174.38066908 78.0837885-174.38066905 174.38066909V854.94864926c0 96.29688062 78.0837885 174.38066908 174.38066905 174.38066907H851.59066778c96.29688062 0 174.38066908-78.0837885 174.38066911-174.38066907V171.95769527c0.1937563-96.29688062-77.8900322-174.38066908-174.18691277-174.38066909z m-75.95246926 597.93193871c-9.30030236 49.02034363-34.87613381 88.35287237-73.04612472 119.93514905-39.72004127 32.93857083-86.02779673 52.70171327-135.62940926 65.48962904-39.52628497 10.07532753-79.82759522 14.53172242-124.19778768 14.91923506-58.12688976-0.38751258-117.99758609-9.68781496-174.76818174-34.4886213-33.32608345-14.53172242-63.5520661-33.51983975-86.99657818-61.80825933-39.72004127-47.85780582-47.47029326-101.52830069-25.96334409-159.26767772 15.50050391-41.65760429 41.46384795-77.11500699 70.52729285-110.24733419 38.75125977-44.37019246 82.34642704-82.92769596 133.1105774-112.95992232 28.28841969-16.6630417 58.51440234-27.12588185 91.64672938-26.35085661 23.44451217 0.58126888 42.43262949 9.88157124 52.31420077 32.35730191 7.75025195 17.63182324 7.55649561 35.84491533 0.19375634 53.86425112-1.93756301 4.65015116-4.06888226 9.30030236-4.65015119 14.53172241-0.77502519 6.58771418 2.32507559 9.68781496 8.91278971 9.10654608 3.10010082-0.1937563 5.81268902-1.93756301 8.52527719-3.29385708 38.55750355-18.794361 79.05257001-26.73836928 121.87271208-22.86324332 37.7824783 3.48761341 62.38952829 41.85136058 50.76415034 77.89003221-2.32507559 7.36273938-6.78147045 13.56294094-12.01289053 19.18187362-6.58771418 7.16898305-4.65015116 15.88801653 4.84390742 18.40684835 10.85035274 2.90634449 22.28197436 3.87512596 32.93857081 7.55649571 18.40684838 6.20020159 35.06989013 15.11299138 47.08278068 30.80725152 15.30674759 20.1506551 19.18187358 43.20765465 14.53172242 67.23343579z m-53.28298219-211.00060965c-6.78147045-18.60060473-21.50694918-26.54461298-40.10755391-28.67593221-5.81268902-0.77502519-11.81913427-0.38751258-17.82557952-1.16253778-11.43162163-1.35629407-18.98811726-9.88157124-19.56938623-21.70070554-0.58126888-10.46284017 6.20020159-18.794361 17.24431066-21.50694917 26.93212553-6.58771418 52.70171327-4.65015116 75.3712003 13.17542837 23.83202479 18.794361 37.58872201 43.20765465 37.78247836 80.79637663 0.1937563 7.94400824-3.48761341 20.73192396-12.59415949 31.96978937-6.58771418 7.94400824-15.50050391 9.68781496-24.99456253 8.13776451-7.36273938-1.1625378-10.46284017-7.16898305-12.20664691-13.95045352-1.55005038-5.4251764-0.96878152-11.04410908-0.19375626-16.4692854 0.96878152-10.46284017 0.58126888-20.73192396-2.90634447-30.61349526zM861.27848274 461.62336227c-4.65015116 10.85035274-13.36918463 14.14420981-24.02578107 14.5317224-10.26908385 0.38751258-17.24431059-4.45639489-21.70070552-13.1754283-4.26263856-8.52527714-5.81268902-17.63182324-3.68136963-26.93212559 9.30030236-43.0138984 0-82.34642704-23.63826854-118.38509868-16.2755291-24.99456254-40.49506648-39.52628497-69.17099873-46.50151174-19.18187358-4.65015116-38.94501611-6.00644528-58.70815855-4.2626386-9.106546 0.77502519-18.01933581 0.58126888-26.54461301-3.10010081-6.58771418-2.90634449-11.04410908-7.75025195-12.40040313-15.11299127-2.32507559-12.98167202 1.93756301-27.12588185 16.27552916-33.71359602 13.95045353-6.39395788 28.67593219-7.55649561 43.40141096-6.39395791 62.38952829 4.84390747 114.70372899 30.22598267 155.00503919 78.47130113 21.11943658 25.18831889 31.58227672 54.83303263 33.13232709 87.57784711 0.38751258 9.68781496 1.1625378 19.18187358 1.55005045 27.12588183-0.96878152 21.70070549-1.55005038 41.27009169-9.49405867 59.87069645z" fill="#FFD93E" p-id="91944"></path><path d="M870.57878505 401.94642212c-0.77502519 21.50694918-1.35629407 41.07633538-9.30030231 59.67694015-4.65015116 10.85035274-13.36918463 14.14420981-24.02578107 14.5317224-10.26908385 0.38751258-17.24431059-4.45639489-21.70070552-13.1754283-4.26263856-8.52527714-5.81268902-17.63182324-3.68136963-26.93212559 9.30030236-43.0138984 0-82.34642704-23.63826854-118.38509868-16.2755291-24.99456254-40.49506648-39.52628497-69.17099873-46.50151174-19.18187358-4.65015116-38.94501611-6.00644528-58.70815855-4.2626386-9.106546 0.77502519-18.01933581 0.58126888-26.54461301-3.10010081-6.58771418-2.90634449-11.04410908-7.75025195-12.40040313-15.11299127-2.32507559-12.98167202 1.93756301-27.12588185 16.27552916-33.71359602 13.95045353-6.39395788 28.67593219-7.55649561 43.40141096-6.39395791 62.38952829 4.84390747 114.70372899 30.22598267 155.00503919 78.47130113 21.11943658 25.18831889 31.58227672 54.83303263 33.13232709 87.57784711 0.1937563 9.88157124 0.77502519 19.56938621 1.35629409 27.31963813z" fill="#E67D00" p-id="91945"></path><path d="M775.25068596 405.24027926c0.1937563 7.94400824-3.48761341 20.73192396-12.5941594 31.96978932-6.58771418 7.94400824-15.50050391 9.68781496-24.99456259 8.13776456-7.36273938-1.1625378-10.46284017-7.16898305-12.20664683-13.95045354-1.55005038-5.4251764-0.96878152-11.04410908-0.19375627-16.46928538 1.35629407-10.26908385 0.96878152-20.53816771-2.51883198-30.41973898-6.78147045-18.60060473-21.50694918-26.54461298-40.10755382-28.67593221-5.81268902-0.77502519-11.81913427-0.38751258-17.82557948-1.16253778-11.43162163-1.35629407-18.98811726-9.88157124-19.56938622-21.70070554-0.58126888-10.46284017 6.20020159-18.794361 17.24431059-21.50694917 26.93212553-6.58771418 52.70171327-4.65015116 75.37120035 13.17542837 23.63826849 18.794361 37.39496568 43.20765465 37.39496565 80.60262035z" fill="#E67D00" p-id="91946"></path><path d="M420.09538996 716.21913915c-35.45740273-0.77502519-64.90836013-10.85035274-87.77160348-35.84491535-28.86968855-31.58227672-30.03222633-77.6962759-3.29385707-113.73494747 23.25075589-31.19476411 55.22054522-47.08278069 93.39053611-50.57039407 32.55105826-2.90634449 62.58328462 4.45639489 87.77160341 26.15710041 38.16999085 32.74481453 42.43262949 85.0590153 10.85035282 125.3603254-26.35085667 32.93857083-61.8082594 47.27653694-100.94703179 48.63283108z m-33.90735236-48.05156218c13.36918463-0.38751258 24.80080629-5.03766381 34.10110864-14.53172238 19.18187358-19.56938621 12.78791571-48.24531844-12.78791576-56.57683929-7.55649561-2.51883188-15.30674759-2.51883188-23.05699959-0.96878158-9.88157124 2.1313193-18.60060473 6.58771418-25.38207513 14.14420983-9.68781496 10.85035274-13.75669722 23.25075589-7.94400825 37.39496576 5.23142004 12.98167202 19.18187358 20.92568029 35.06989009 20.53816766z m62.19577193-58.70815859c10.07532753 0.1937563 19.18187358-7.75025195 19.56938626-16.66304175 0.1937563-7.75025195-6.58771418-14.14420981-15.30674767-14.14420977-10.26908385-0.1937563-19.18187358 7.75025195-19.37562989 16.66304165-0.38751258 7.75025195 6.39395788 14.14420981 15.1129913 14.14420987z" fill="#0B0C0E" p-id="91947"></path><path d="M386.1880376 668.16757697c-15.69426022 0.38751258-29.64471377-7.55649561-35.06989009-20.34441138-5.81268902-14.14420981-1.74380669-26.54461298 7.94400825-37.39496569 6.78147045-7.55649561 15.50050391-12.01289055 25.38207513-14.14420983 7.75025195-1.74380669 15.50050391-1.55005038 23.05699959 0.96878149 25.57583148 8.33152081 32.16354564 37.00745315 12.78791576 56.57683928-9.30030236 9.30030236-20.92568029 13.95045353-34.10110864 14.33796613z m62.19577193-58.70815859c-8.71903348-0.1937563-15.50050391-6.39395788-15.30674756-14.14420987 0.1937563-8.91278976 9.30030236-16.6630417 19.37562989-16.66304165 8.71903348 0 15.50050391 6.39395788 15.30674761 14.14420977 0 8.91278976-9.106546 16.85679803-19.37562994 16.66304175z" fill="#FEFEFE" p-id="91948"></path><path d="M442.9586332 795.85297804c-58.12688976-0.38751258-117.99758609-9.68781496-174.76818174-34.4886213-33.32608345-14.53172242-63.5520661-33.51983975-86.99657818-61.80825933-39.72004127-47.85780582-47.47029326-101.52830069-25.96334409-159.26767772 15.50050391-41.65760429 41.46384795-77.11500699 70.52729285-110.24733419 38.75125977-44.37019246 82.34642704-82.92769596 133.1105774-112.95992232 28.28841969-16.6630417 58.51440234-27.12588185 91.64672938-26.35085661 23.44451217 0.58126888 42.43262949 9.88157124 52.31420077 32.35730191 7.75025195 17.63182324 7.55649561 35.84491533 0.19375634 53.86425112-1.93756301 4.65015116-4.06888226 9.30030236-4.65015119 14.53172241-0.77502519 6.58771418 2.32507559 9.68781496 8.91278971 9.10654608 3.10010082-0.1937563 5.81268902-1.93756301 8.52527719-3.29385708 38.55750355-18.794361 79.05257001-26.73836928 121.87271208-22.86324332 37.7824783 3.48761341 62.38952829 41.85136058 50.76415034 77.89003221-2.32507559 7.36273938-6.78147045 13.56294094-12.01289053 19.18187362-6.58771418 7.16898305-4.65015116 15.88801653 4.84390742 18.40684835 10.85035274 2.90634449 22.28197436 3.87512596 32.93857081 7.55649571 18.40684838 6.20020159 35.06989013 15.11299138 47.08278068 30.80725152 15.30674759 19.95689873 18.98811726 43.0138984 14.3379661 67.03967941-9.30030236 49.02034363-34.87613381 88.35287237-73.0461247 119.93514914-39.72004127 32.93857083-86.02779673 52.70171327-135.62940927 65.48962906-39.33252873 10.26908385-79.63383888 14.72547874-124.00403137 15.11299133zM418.54533953 738.69486986c50.18288141-0.58126888 97.07190578-10.07532753 141.24834191-31.58227678 35.06989013-17.05055433 65.48962909-39.72004127 86.22155313-73.62739357 25.18831889-41.07633538 20.1506551-88.15911609-13.1754284-122.84149358-26.35085667-27.12588185-59.48318381-41.65760429-95.71561165-49.98912518-34.29486498-7.94400824-68.9772425-9.106546-104.04713255-5.03766373-47.47029326 5.6189327-92.03424198 19.76314252-132.14179591 46.11399913-24.80080629 16.2755291-46.11399916 36.23242797-59.87069644 63.16455348-17.05055433 32.93857083-17.24431059 65.87714171 2.13131935 97.84693099 13.17542835 21.89446179 32.74481453 37.00745315 55.22054517 48.63283103 37.97623461 19.95689873 79.05257001 26.73836928 120.12890539 27.31963821z" fill="#D5261E" p-id="91949"></path><path d="M418.54533953 738.69486986c-41.07633538-0.38751258-81.9589145-7.36273938-119.93514906-27.12588191-22.28197436-11.62537795-41.85136058-26.73836928-55.22054523-48.63283099-19.37562992-32.16354564-19.18187358-64.90836013-2.13131933-97.84693101 13.75669722-26.73836928 35.06989013-46.69526801 59.87069642-63.16455348 40.1075539-26.35085667 84.67150267-40.49506648 132.1417959-46.11399913 35.06989013-4.26263856 69.75226768-2.90634449 104.04713254 5.03766377 36.23242797 8.33152081 69.36475502 22.66948701 95.71561171 49.98912509 33.32608345 34.48862118 38.16999085 81.76515818 13.17542837 122.84149356-20.73192396 33.90735236-51.15166289 56.57683933-86.22155304 73.62739366-44.37019246 21.31319283-91.25921683 30.80725154-141.44209828 31.38852044z m1.55005043-22.47573071c39.1387724-1.35629407 74.59617509-15.69426022 100.94703179-48.82658738 31.77603302-40.1075539 27.3196382-92.6155109-10.85035282-125.36032544-25.18831889-21.50694918-55.22054522-29.06344488-87.77160341-26.15710037-38.16999085 3.48761341-70.13978022 19.37562992-93.39053611 50.57039409-26.73836928 36.03867163-25.57583148 82.15267076 3.29385707 113.73494749 22.86324327 25.18831889 52.31420072 35.26364641 87.77160348 36.03867161z" fill="#FEFEFE" p-id="91950"></path></svg>